<svg width="36" height="33" viewBox="0 0 36 33" fill="none" xmlns="http://www.w3.org/2000/svg">
<path d="M1.58366 30.7941L7.38788 27.3538L16.7967 32.9991V28.1222L11.0315 24.6635C10.7171 24.4746 10.5242 24.1346 10.5242 23.7671V16.6908L6.34245 14.1816V25.5427L0.507565 29.0014C0.0124501 29.2985 -0.147849 29.9407 0.149192 30.4358C0.446861 30.9317 1.0898 31.0904 1.58366 30.7941Z" fill="#4B96C7"/>
<path d="M22.4928 23.5215L17.8424 20.7314L13.1919 23.5215L17.8424 26.3118L22.4928 23.5215Z" fill="#4B96C7"/>
<path d="M11.452 14.8098L17.3047 11.2986C17.3211 11.2887 17.3412 11.2926 17.358 11.2838C17.5048 11.2053 17.6645 11.1496 17.8427 11.1496C18.0208 11.1496 18.1806 11.2053 18.3273 11.2838C18.3442 11.2926 18.3642 11.2887 18.3807 11.2986L24.2334 14.8098L28.297 12.3715L18.888 6.72615V1.04543C18.888 0.467585 18.4205 0 17.8426 0C17.2648 0 16.7972 0.467585 16.7972 1.04543V6.72615L7.38818 12.3715L11.452 14.8098Z" fill="#4B96C7"/>
<path d="M23.0694 16.55L18.8877 14.041V18.9208L23.0694 21.4295V16.55Z" fill="#4B96C7"/>
<path d="M25.1603 16.6909V23.7672C25.1603 24.1347 24.9673 24.4747 24.6529 24.6636L18.8877 28.1224V32.9992L28.2965 27.3539L34.1008 30.7943C34.5946 31.0906 35.2376 30.9318 35.5352 30.4359C35.8323 29.9408 35.672 29.2986 35.1768 29.0015L29.3419 25.5427V14.1816L25.1603 16.6909Z" fill="#4B96C7"/>
<path d="M12.6152 16.55V21.4295L16.7969 18.9208V14.041L12.6152 16.55Z" fill="#4B96C7"/>
</svg>
