<svg width="38" height="38" viewBox="0 0 38 38" fill="none" xmlns="http://www.w3.org/2000/svg">
<g clip-path="url(#clip0)">
<path d="M15.8828 13.3972L18.5436 11.8008L15.8828 10.2043V13.3972Z" fill="#4759A4"/>
<path d="M33.1016 3.33984C33.1016 1.49848 31.6031 0 29.7617 0H3.33984C1.49848 0 0 1.49848 0 3.33984V23.8242C0 25.6656 1.49848 27.1641 3.33984 27.1641H15.7344C15.7344 24.6118 15.7068 24.386 15.8182 23.75H4.67578C4.06125 23.75 3.5625 23.2512 3.5625 22.6367C3.5625 22.0222 4.06125 21.5234 4.67578 21.5234H6.01172V20.3359C6.01172 19.7214 6.51047 19.2227 7.125 19.2227C7.73953 19.2227 8.23828 19.7214 8.23828 20.3359V21.5234H16.7423C17.7502 20.088 19.4179 19.1484 21.3008 19.1484H25.1602C25.9038 19.1484 26.5918 19.3934 27.1477 19.8068L28.2937 19.6999C30.0638 19.5351 31.7025 18.9013 33.1016 17.8504V3.33984ZM7.05078 9.94531H4.67578C4.06125 9.94531 3.5625 9.44656 3.5625 8.83203C3.5625 8.2175 4.06125 7.71875 4.67578 7.71875H7.05078C7.66531 7.71875 8.16406 8.2175 8.16406 8.83203C8.16406 9.44656 7.66531 9.94531 7.05078 9.94531ZM7.05078 5.78906H4.67578C4.06125 5.78906 3.5625 5.29031 3.5625 4.67578C3.5625 4.06125 4.06125 3.5625 4.67578 3.5625H7.05078C7.66531 3.5625 8.16406 4.06125 8.16406 4.67578C8.16406 5.29031 7.66531 5.78906 7.05078 5.78906ZM21.28 12.7552L15.3425 16.3177C14.607 16.7597 13.6562 16.2316 13.6562 15.3633V8.23828C13.6562 7.37475 14.6006 6.83933 15.3425 7.28383L21.28 10.8463C21.9995 11.2777 21.9997 12.3237 21.28 12.7552ZM28.5742 5.78906H26.1992C25.5847 5.78906 25.0859 5.29031 25.0859 4.67578C25.0859 4.06125 25.5847 3.5625 26.1992 3.5625H28.5742C29.1887 3.5625 29.6875 4.06125 29.6875 4.67578C29.6875 5.29031 29.1887 5.78906 28.5742 5.78906Z" fill="#3DACE3"/>
<path d="M25.2517 34.1407C25.2346 34.1407 21.2413 34.1426 21.0947 34.1362L21.7727 37.1324C21.8875 37.6398 22.3383 38.0001 22.8585 38.0001H24.7318C25.4458 38.0001 25.9753 37.3374 25.8176 36.641L25.2517 34.1407Z" fill="black"/>
<path d="M25.2517 34.3282C25.2346 34.3282 21.2413 34.3301 21.0947 34.3237L21.7727 37.3199C21.8875 37.8273 22.3383 38.1876 22.8585 38.1876H24.7318C25.4458 38.1876 25.9753 37.5249 25.8176 36.8285L25.2517 34.3282Z" fill="#4759A4"/>
<path d="M37.3127 17.8973C36.8964 17.7251 36.4177 17.8201 36.0993 18.1385L35.7222 18.5162C33.7599 20.4786 31.2283 21.6631 28.5 21.9169V31.3724C31.2283 31.6262 33.7599 32.8108 35.7215 34.7731L36.0993 35.1509C36.4177 35.4694 36.8975 35.564 37.3127 35.3921C37.7284 35.2199 38 34.8139 38 34.3634V18.9259C38 18.4754 37.7284 18.0694 37.3127 17.8973Z" fill="black"/>
<path d="M37.3127 18.0848C36.8964 17.9126 36.4177 18.0076 36.0993 18.326L35.7222 18.7037C33.7599 20.6661 31.2283 21.8506 28.5 22.1044V31.5599C31.2283 31.8137 33.7599 32.9983 35.7215 34.9606L36.0993 35.3384C36.4177 35.6569 36.8975 35.7515 37.3127 35.5796C37.7284 35.4074 38 35.0014 38 34.5509V19.1134C38 18.6629 37.7284 18.2569 37.3127 18.0848Z" fill="#4759A4"/>
<path d="M25.1602 21.375H21.3008C19.4562 21.375 17.9609 22.8703 17.9609 24.7148V28.5742C17.9609 30.4188 19.4562 31.9141 21.3008 31.9141H25.1602C25.775 31.9141 26.2734 31.4156 26.2734 30.8008V22.4883C26.2734 21.8735 25.775 21.375 25.1602 21.375Z" fill="black"/>
<path d="M25.1602 21.5625H21.3008C19.4562 21.5625 17.9609 23.0578 17.9609 24.9023V28.7617C17.9609 30.6063 19.4562 32.1016 21.3008 32.1016H25.1602C25.775 32.1016 26.2734 31.6031 26.2734 30.9883V22.6758C26.2734 22.061 25.775 21.5625 25.1602 21.5625Z" fill="#4759A4"/>
</g>
<defs>
<clipPath id="clip0">
<rect width="38" height="38" fill="white"/>
</clipPath>
</defs>
</svg>
