<svg width="45" height="45" viewBox="0 0 45 45" fill="none" xmlns="http://www.w3.org/2000/svg">
<path d="M26.4551 4.04297C26.4551 1.86205 24.6809 0 22.5 0C20.3191 0 18.5449 1.86205 18.5449 4.04297C18.5449 6.22389 20.3191 7.99805 22.5 7.99805C24.6809 7.99805 26.4551 6.22389 26.4551 4.04297Z" fill="#3C64B1"/>
<path d="M29.0918 14.5898C29.0918 10.9553 26.1345 7.99805 22.5 7.99805C18.8655 7.99805 15.9082 10.9553 15.9082 14.5898V15.9082H29.0918V14.5898Z" fill="#3C64B1"/>
<path d="M38.3203 23.8184C40.5046 23.8184 42.2754 22.0476 42.2754 19.8633C42.2754 17.679 40.5046 15.9082 38.3203 15.9082C36.136 15.9082 34.3652 17.679 34.3652 19.8633C34.3652 22.0476 36.136 23.8184 38.3203 23.8184Z" fill="#3C64B1"/>
<path d="M38.3203 23.8184C34.6858 23.8184 31.7285 26.7756 31.7285 30.4102V31.7285H45V30.4102C45 26.7756 41.9549 23.8184 38.3203 23.8184Z" fill="#3C64B1"/>
<path d="M6.67969 23.8184C8.86402 23.8184 10.6348 22.0476 10.6348 19.8633C10.6348 17.679 8.86402 15.9082 6.67969 15.9082C4.49536 15.9082 2.72461 17.679 2.72461 19.8633C2.72461 22.0476 4.49536 23.8184 6.67969 23.8184Z" fill="#3C64B1"/>
<path d="M13.2715 30.4102C13.2715 26.7756 10.3142 23.8184 6.67969 23.8184C3.04515 23.8184 0 26.7756 0 30.4102V31.7285H13.2715V30.4102Z" fill="#3C64B1"/>
<path d="M22.5 37.002C24.6843 37.002 26.4551 35.2312 26.4551 33.0469C26.4551 30.8625 24.6843 29.0918 22.5 29.0918C20.3157 29.0918 18.5449 30.8625 18.5449 33.0469C18.5449 35.2312 20.3157 37.002 22.5 37.002Z" fill="#3C64B1"/>
<path d="M29.0918 43.5938C29.0918 39.9592 26.1345 37.002 22.5 37.002C18.8655 37.002 15.9082 39.9592 15.9082 43.5938V45H29.0918V43.5938Z" fill="#3C64B1"/>
<path d="M7.99805 11.9531C7.99805 9.77221 9.77221 7.99805 11.9531 7.99805H13.2715V5.36133H11.9531C8.31858 5.36133 5.36133 8.31858 5.36133 11.9531V13.2715H7.99805V11.9531Z" fill="#6BBFE9"/>
<path d="M37.002 11.9531V13.2715H39.6387V11.9531C39.6387 8.31858 36.6814 5.36133 33.0469 5.36133H31.7285V7.99805H33.0469C35.2278 7.99805 37.002 9.77221 37.002 11.9531Z" fill="#6BBFE9"/>
<path d="M5.36133 34.3652V35.6836C5.36133 39.3181 8.31858 42.2754 11.9531 42.2754H13.2715V39.6387H11.9531C9.77221 39.6387 7.99805 37.8645 7.99805 35.6836V34.3652H5.36133Z" fill="#6BBFE9"/>
<path d="M39.6387 35.6836V34.3652H37.002V35.6836C37.002 37.8645 35.2278 39.6387 33.0469 39.6387H31.7285V42.2754H33.0469C36.6814 42.2754 39.6387 39.3181 39.6387 35.6836Z" fill="#6BBFE9"/>
</svg>
