<svg width="41" height="41" viewBox="0 0 41 41" fill="none" xmlns="http://www.w3.org/2000/svg">
<g clip-path="url(#clip0)">
<path d="M21.2195 0V18.7018L38.7488 12.1849C36.0255 4.85967 29.0345 0.000120252 21.2195 0V0Z" fill="#3DACE3"/>
<path d="M13.1992 40.2305C16.8681 41.3421 20.7972 41.2437 24.4059 39.9499C20.1431 36.4242 19.2375 30.2458 22.309 25.645C25.3805 21.0442 31.434 19.5118 36.3247 22.097C36.2532 20.5098 35.9677 18.9395 35.4759 17.4287L18.932 23.5715L13.1992 40.2305Z" fill="#3C64B1"/>
<path d="M27.6929 28.7726C28.0902 28.7726 28.4122 28.4505 28.4122 28.0533C28.4122 27.656 28.0902 27.334 27.6929 27.334C27.2957 27.334 26.9736 27.656 26.9736 28.0533C26.9736 28.4505 27.2957 28.7726 27.6929 28.7726Z" fill="#3C64B1"/>
<path d="M11.8685 39.7631L17.4071 23.5358L0.690606 19.6084C-0.944013 28.1452 3.76126 36.6292 11.8685 39.7631Z" fill="#3C64B1"/>
<path d="M1.02856 18.2055L17.6228 22.1113V5.03516C9.8062 5.32343 3.08413 10.6585 1.02856 18.2055Z" fill="#3C64B1"/>
<path d="M31.2896 22.2979C26.1253 22.2979 21.9387 26.4844 21.9387 31.6487C21.9387 36.8131 26.1253 40.9996 31.2896 40.9996C36.4539 40.9996 40.6405 36.8131 40.6405 31.6487C40.6405 29.1687 39.6553 26.7903 37.9017 25.0367C36.148 23.283 33.7696 22.2979 31.2896 22.2979ZM25.5352 28.0522C25.5352 26.8605 26.5013 25.8943 27.6931 25.8943C28.8849 25.8943 29.851 26.8605 29.851 28.0522C29.851 29.244 28.8849 30.2101 27.6931 30.2101C26.5013 30.2101 25.5352 29.244 25.5352 28.0522ZM27.4845 36.4752C27.3021 36.6577 27.0361 36.7289 26.7869 36.6622C26.5376 36.5954 26.343 36.4007 26.2762 36.1514C26.2094 35.9022 26.2807 35.6363 26.4631 35.4538L35.0947 26.8222C35.2771 26.6398 35.5431 26.5685 35.7923 26.6353C36.0416 26.7021 36.2362 26.8968 36.303 27.146C36.3698 27.3953 36.2985 27.6612 36.1161 27.8436L27.4845 36.4752ZM34.8861 37.4031C33.6943 37.4031 32.7282 36.437 32.7282 35.2452C32.7282 34.0534 33.6943 33.0873 34.8861 33.0873C36.0779 33.0873 37.044 34.0534 37.044 35.2452C37.044 36.437 36.0779 37.4031 34.8861 37.4031Z" fill="#3DACE3"/>
<path d="M34.8863 35.965C35.2836 35.965 35.6056 35.6429 35.6056 35.2457C35.6056 34.8484 35.2836 34.5264 34.8863 34.5264C34.489 34.5264 34.167 34.8484 34.167 35.2457C34.167 35.6429 34.489 35.965 34.8863 35.965Z" fill="#3C64B1"/>
</g>
<defs>
<clipPath id="clip0">
<rect width="41" height="41" fill="white"/>
</clipPath>
</defs>
</svg>
