<svg width="37" height="37" viewBox="0 0 37 37" fill="none" xmlns="http://www.w3.org/2000/svg">
<path d="M4.36051 2.7356V6.8887H0V3.81958C0 3.22093 0.485336 2.7356 1.08398 2.7356H4.36051Z" fill="#3DACE3"/>
<path d="M6.52832 2.7356H10.8881V6.8887H6.52832V2.7356Z" fill="#3DACE3"/>
<path d="M13.0566 2.7356H17.4164V6.8887H13.0566V2.7356Z" fill="#3DACE3"/>
<path d="M19.584 2.7356H23.9445V6.8887H19.584V2.7356Z" fill="#3DACE3"/>
<path d="M26.1123 2.7356H30.4721V6.8887H26.1123V2.7356Z" fill="#3DACE3"/>
<path d="M37.0004 3.81958V6.8887H32.6406V2.7356H35.9164C36.5151 2.7356 37.0004 3.22086 37.0004 3.81958Z" fill="#3DACE3"/>
<path d="M4.36051 34.2644V30.1113H0V33.1805C0 33.7791 0.485336 34.2644 1.08398 34.2644H4.36051Z" fill="#3DACE3"/>
<path d="M6.52832 30.1113H10.8881V34.2644H6.52832V30.1113Z" fill="#3DACE3"/>
<path d="M13.0566 30.1113H17.4164V34.2644H13.0566V30.1113Z" fill="#3DACE3"/>
<path d="M19.584 30.1113H23.9445V34.2644H19.584V30.1113Z" fill="#3DACE3"/>
<path d="M26.1123 30.1113H30.4721V34.2644H26.1123V30.1113Z" fill="#3DACE3"/>
<path d="M37.0004 33.1805V30.1113H32.6406V34.2644H35.9164C36.5151 34.2644 37.0004 33.7792 37.0004 33.1805Z" fill="#3DACE3"/>
<path d="M27.8344 18.6902C29.3043 18.6902 30.4959 17.4985 30.4959 16.0286C30.4959 14.5587 29.3043 13.3671 27.8344 13.3671C26.3645 13.3671 25.1729 14.5587 25.1729 16.0286C25.1729 17.4985 26.3645 18.6902 27.8344 18.6902Z" fill="#3DACE3"/>
<path d="M0 9.05627V27.9436H37V9.05627H0ZM16.129 19.8947C14.6092 22.2245 14.357 24.7907 14.3548 24.8167C14.2999 25.402 13.7782 25.8515 13.1755 25.7959C12.6226 25.7453 12.1941 25.2777 12.1912 24.7235C12.1854 23.8418 11.8465 22.2635 11.1846 20.9049C9.88955 18.2492 7.59873 16.4281 4.37568 15.4923C3.80117 15.3253 3.4702 14.7233 3.63713 14.1488C3.80406 13.5736 4.40531 13.2433 4.98055 13.4103C9.81006 14.8122 12.1059 17.7975 13.1812 20.0544C13.2456 20.1895 13.3055 20.3239 13.3634 20.4569C13.6213 19.8838 13.9343 19.292 14.3137 18.7102C14.641 18.2087 15.3124 18.0678 15.8139 18.3944C16.3154 18.7218 16.4563 19.3939 16.129 19.8947ZM20.9614 16.4729C18.8512 16.9477 18.5585 17.7144 17.8366 17.7144C17.4847 17.7144 17.1392 17.5432 16.9311 17.2266C16.6016 16.7273 16.7396 16.0545 17.239 15.7249C18.2131 15.0832 19.305 14.6236 20.4859 14.3577C21.0698 14.2262 21.6501 14.5933 21.7809 15.1772C21.9124 15.7618 21.5453 16.3414 20.9614 16.4729ZM27.8346 20.858C25.1716 20.858 23.005 18.6915 23.005 16.0285C23.005 13.3655 25.1716 11.199 27.8346 11.199C30.4975 11.199 32.6641 13.3655 32.6641 16.0285C32.6641 18.6915 30.4975 20.858 27.8346 20.858Z" fill="#4759A4"/>
</svg>
