<svg width="50" height="50" viewBox="0 0 50 50" fill="none" xmlns="http://www.w3.org/2000/svg">
<path d="M43.1953 25C43.507 24.6193 43.876 24.2433 44.1575 23.8613C47.3876 19.4726 48.243 15.4557 46.5636 12.5488C44.8871 9.64199 40.9588 8.36748 35.5659 8.97822C35.105 9.02959 34.6064 9.15869 34.1323 9.23574C32.0008 3.63027 28.7319 0 25.0001 0C21.2682 0 17.9993 3.63027 15.8678 9.23574C15.3938 9.15869 14.8951 9.02959 14.4342 8.97822C9.04703 8.37607 5.11305 9.64346 3.43648 12.5488C1.75709 15.4557 2.61246 19.4725 5.84263 23.8613C6.12408 24.2433 6.49312 24.6193 6.80484 25C6.49312 25.3807 6.12408 25.7567 5.84263 26.1387C2.61256 30.5274 1.75709 34.5443 3.43648 37.4512C5.48394 41.0028 10.3614 41.4779 14.4342 41.0218C14.8951 40.9704 15.3937 40.8413 15.8678 40.7643C17.9993 46.3697 21.2682 50 25.0001 50C28.7319 50 32.0008 46.3697 34.1323 40.7643C34.6063 40.8413 35.105 40.9704 35.5659 41.0218C39.6401 41.4781 44.5183 40.9993 46.5636 37.4512C48.243 34.5443 47.3877 30.5275 44.1575 26.1387C43.876 25.7567 43.5069 25.3807 43.1953 25ZM35.8891 11.8908C40.0175 11.4345 42.9816 12.2013 44.0288 14.0137C45.073 15.8232 44.2605 18.7802 41.7971 22.1232C41.6358 22.3425 41.4156 22.559 41.243 22.778C39.8012 21.3055 38.1281 19.8845 36.3188 18.5176C36.035 16.2009 35.6038 14.0303 35.0435 12.0437C35.32 12.0036 35.618 11.921 35.8891 11.8908ZM29.3946 32.6117C27.9353 33.4543 26.4653 34.191 25.0001 34.8593C23.5348 34.191 22.0648 33.4543 20.6055 32.6117C19.1407 31.7659 17.7629 30.8572 16.4472 29.9183C16.2968 28.3536 16.211 26.7141 16.211 25C16.211 23.2859 16.2968 21.6464 16.4474 20.0815C17.7631 19.1426 19.1407 18.2341 20.6055 17.3883C22.0648 16.5457 23.5348 15.8088 25.0001 15.1406C26.4653 15.8089 27.9353 16.5457 29.3946 17.3883C30.8594 18.2341 32.237 19.1426 33.5527 20.0815C33.7033 21.6464 33.7891 23.2859 33.7891 25C33.7891 26.7141 33.7033 28.3536 33.5529 29.9183C32.2372 30.8572 30.8594 31.7659 29.3946 32.6117ZM33.0201 33.7744C32.7814 35.0697 32.4924 36.2854 32.1641 37.4197C30.9979 37.1299 29.802 36.768 28.5866 36.3343C29.3453 35.9421 30.1069 35.584 30.8595 35.1494C31.6114 34.7153 32.3017 34.2351 33.0201 33.7744ZM21.4136 36.3343C20.1982 36.7679 19.0023 37.1298 17.8361 37.4197C17.5078 36.2852 17.2188 35.0697 16.9801 33.7744C17.6984 34.2351 18.3888 34.7151 19.1408 35.1495C19.8933 35.584 20.6548 35.9422 21.4136 36.3343ZM13.339 27.512C12.3753 26.69 11.4765 25.8503 10.657 25C11.4765 24.1497 12.3753 23.3101 13.339 22.488C13.3019 23.3133 13.2813 24.1506 13.2813 25C13.2813 25.8494 13.3019 26.6867 13.339 27.512ZM16.98 16.2256C17.2187 14.9303 17.5079 13.7146 17.8362 12.5801C19.0024 12.8699 20.1981 13.232 21.4135 13.6656C20.6548 14.0578 19.8932 14.4159 19.1406 14.8505C18.3887 15.2849 17.6984 15.7649 16.98 16.2256ZM28.5865 13.6657C29.8019 13.2321 30.9976 12.87 32.1638 12.5802C32.4921 13.7147 32.7813 14.9304 33.02 16.2257C32.3017 15.765 31.6113 15.285 30.8593 14.8506C30.1068 14.416 29.3453 14.0578 28.5865 13.6657ZM36.6611 22.488C37.6249 23.31 38.5236 24.1497 39.3431 25C38.5236 25.8503 37.6249 26.6899 36.6611 27.512C36.6982 26.6867 36.7188 25.8494 36.7188 25C36.7188 24.1506 36.6982 23.3133 36.6611 22.488ZM25.0001 2.92969C27.1905 2.92969 29.5065 5.55117 31.2136 9.81641C29.1979 10.3328 27.1093 11.0797 25.0001 11.9747C22.8908 11.0798 20.8022 10.3328 18.7865 9.81641C20.4936 5.55117 22.8096 2.92969 25.0001 2.92969ZM5.97135 14.0137C6.81822 12.546 8.92681 11.7606 11.8937 11.7606C12.5889 11.7606 13.3299 11.8035 14.111 11.8908C14.3821 11.921 14.6801 12.0036 14.9566 12.0438C14.3963 14.0306 13.9651 16.201 13.6813 18.5177C11.8722 19.8846 10.1989 21.3058 8.75709 22.7783C8.58433 22.5593 8.36422 22.3426 8.20299 22.1233C5.73961 18.7802 4.92711 15.8232 5.97135 14.0137ZM14.111 38.1092C9.98541 38.5698 7.01851 37.7987 5.97135 35.9863C4.92711 34.1768 5.73961 31.2198 8.20299 27.8768C8.36431 27.6575 8.58443 27.4408 8.75709 27.2218C10.1989 28.6943 11.8722 30.1155 13.6813 31.4824C13.9651 33.7991 14.3963 35.9695 14.9566 37.9563C14.6801 37.9964 14.3821 38.079 14.111 38.1092ZM25.0001 47.0703C22.8096 47.0703 20.4936 44.4488 18.7865 40.1836C20.8022 39.6672 22.8908 38.9203 25.0001 38.0253C27.1093 38.9202 29.1979 39.6672 31.2136 40.1836C29.5065 44.4488 27.1905 47.0703 25.0001 47.0703ZM44.0288 35.9863C42.9845 37.7988 40.009 38.5698 35.8891 38.1092C35.618 38.079 35.32 37.9964 35.0435 37.9562C35.6038 35.9696 36.035 33.799 36.3188 31.4823C38.1281 30.1154 39.8012 28.6944 41.243 27.2219C41.4156 27.4409 41.6359 27.6574 41.7971 27.8767C44.2605 31.2198 45.073 34.1768 44.0288 35.9863Z" fill="#3C64B1"/>
<path d="M25 29.3945C27.427 29.3945 29.3945 27.427 29.3945 25C29.3945 22.573 27.427 20.6055 25 20.6055C22.573 20.6055 20.6055 22.573 20.6055 25C20.6055 27.427 22.573 29.3945 25 29.3945Z" fill="#3DACE3"/>
</svg>
