<svg width="39" height="39" viewBox="0 0 39 39" fill="none" xmlns="http://www.w3.org/2000/svg">
<g clip-path="url(#clip0)">
<path d="M30.825 12.3082L30.8093 12.316H26.8851C25.1141 12.3117 23.6795 10.8772 23.6752 9.1061V4.80526C23.6893 2.1656 21.561 0.0142949 18.9213 6.99762e-05C16.3776 -0.0135664 14.269 1.96743 14.1239 4.50702C14.1226 4.53057 14.1226 4.55411 14.1239 4.57766V8.30558H11.6517C10.7847 8.30558 10.082 9.00829 10.082 9.87523V13.352C10.5954 13.164 11.1196 13.0068 11.6517 12.8811C14.3185 12.2442 17.1141 12.408 19.6883 13.352V9.85953C19.6883 8.99259 18.9856 8.28988 18.1186 8.28988H15.6935V4.80526C15.6935 3.03028 17.1324 1.5914 18.9074 1.5914C20.6824 1.5914 22.1212 3.03028 22.1212 4.80526V9.09825C22.1256 11.7361 24.2629 13.8735 26.9008 13.8778H30.825C31.2584 13.8778 31.6098 13.5264 31.6098 13.093C31.6098 12.6596 31.2584 12.3082 30.825 12.3082Z" fill="#3DACE3"/>
<path d="M30.8092 7.32446C30.3758 7.32446 30.0244 7.67587 30.0244 8.10929V10.5658C30.0244 10.9992 30.3758 11.3506 30.8092 11.3506C31.2427 11.3506 31.5941 10.9992 31.5941 10.5658V8.10929C31.5941 7.67587 31.2427 7.32446 30.8092 7.32446Z" fill="#3DACE3"/>
<path d="M30.8092 14.8118C30.3758 14.8118 30.0244 15.1632 30.0244 15.5966V18.0531C30.0244 18.4865 30.3758 18.8379 30.8092 18.8379C31.2427 18.8379 31.5941 18.4865 31.5941 18.0531V15.5966C31.5941 15.1632 31.2427 14.8118 30.8092 14.8118Z" fill="#3DACE3"/>
<path d="M32.6143 12.0961C32.6117 12.0961 32.6091 12.0958 32.6065 12.0957C32.6038 12.0957 32.6013 12.0961 32.5986 12.0961H32.6143Z" fill="#3DACE3"/>
<path d="M34.8049 8.9961C34.5111 8.74446 34.0778 8.74446 33.784 8.9961L32.0574 10.7541C31.7496 11.0593 31.7476 11.5563 32.0528 11.864C32.1994 12.0119 32.3988 12.095 32.6067 12.0959C32.8125 12.095 33.0098 12.0137 33.1561 11.8687L34.8906 10.1028C35.1725 9.77357 35.1342 9.27805 34.8049 8.9961Z" fill="#3DACE3"/>
<path d="M34.8898 16.0594L33.1475 14.3328C32.8849 13.988 32.3925 13.9213 32.0477 14.1839C31.7028 14.4465 31.6361 14.9389 31.8988 15.2837C31.9438 15.3428 31.997 15.3953 32.0566 15.4394L33.7832 17.166C34.1125 17.448 34.6079 17.4096 34.8898 17.0804C35.1415 16.7867 35.1415 16.3533 34.8898 16.0594Z" fill="#3DACE3"/>
<path d="M35.7931 12.3159H33.3366C32.9032 12.3159 32.5518 12.6673 32.5518 13.1007C32.5518 13.5342 32.9032 13.8856 33.3366 13.8856H35.7931C36.2265 13.8856 36.5779 13.5342 36.5779 13.1007C36.5779 12.6673 36.2265 12.3159 35.7931 12.3159Z" fill="#3DACE3"/>
<path d="M14.9084 14.0269C8.01228 14.0269 2.42188 19.6173 2.42188 26.5134C2.42188 33.4096 8.01228 39 14.9084 39C21.7984 39 27.3864 33.4191 27.395 26.5291C27.395 19.6305 21.807 14.0356 14.9084 14.0269ZM13.433 36.1275V36.1432C8.59138 36.1389 4.67 32.2105 4.67432 27.3689C4.67432 26.9355 5.02573 26.5841 5.45915 26.5841C5.89256 26.5841 6.24397 26.9355 6.24397 27.3689C6.24829 31.3374 9.4644 34.5536 13.433 34.5579C13.8664 34.5579 14.2178 34.9093 14.2178 35.3427C14.2178 35.7761 13.8664 36.1275 13.433 36.1275Z" fill="#4759A4"/>
</g>
<defs>
<clipPath id="clip0">
<rect width="39" height="39" fill="white"/>
</clipPath>
</defs>
</svg>
