<svg width="34" height="34" viewBox="0 0 34 34" fill="none" xmlns="http://www.w3.org/2000/svg">
<g clip-path="url(#clip0)">
<path d="M31.1666 7.08332H24.0834V5.66661C24.0834 4.104 22.8127 2.83325 21.25 2.83325H12.75C11.1874 2.83325 9.91664 4.10394 9.91664 5.66661V7.08326H2.83336C1.27068 7.08332 0 8.35401 0 9.91661V14.1666C0 15.7293 1.27068 17 2.83336 17H14.1667V16.2916C14.1667 15.9001 14.4835 15.5833 14.8751 15.5833H19.1251C19.5166 15.5833 19.8334 15.9001 19.8334 16.2916V17H31.1668C32.7293 17 34 15.7293 34 14.1666V9.91661C34 8.35401 32.7293 7.08332 31.1666 7.08332ZM21.25 7.08332H12.75V5.66661H21.25V7.08332Z" fill="#3C64B1"/>
<path d="M33.6071 17.7643C33.3657 17.6446 33.0772 17.6723 32.8641 17.8341C32.3606 18.2153 31.7739 18.4166 31.1666 18.4166H19.8334V20.5416C19.8334 20.9331 19.5165 21.2499 19.125 21.2499H14.875C14.4835 21.2499 14.1666 20.9331 14.1666 20.5416V18.4166H2.83336C2.226 18.4166 1.63944 18.2153 1.13581 17.8341C0.922051 17.6709 0.634313 17.6432 0.392859 17.7643C0.152203 17.884 0 18.1295 0 18.3986V28.3333C0 29.8959 1.27068 31.1666 2.83336 31.1666H31.1667C32.7293 31.1666 34.0001 29.896 34.0001 28.3333V18.3986C34 18.1295 33.8478 17.884 33.6071 17.7643Z" fill="#3DACE3"/>
</g>
<defs>
<clipPath id="clip0">
<rect width="34" height="34" fill="white"/>
</clipPath>
</defs>
</svg>
