<svg width="36" height="36" viewBox="0 0 36 36" fill="none" xmlns="http://www.w3.org/2000/svg">
<path d="M34.875 0H16.5938C16.0113 0 15.5391 0.472219 15.5391 1.05469V17.2266C15.5391 17.809 16.0113 18.2812 16.5938 18.2812H34.875C35.4575 18.2812 35.9297 17.809 35.9297 17.2266V1.05469C35.9297 0.472219 35.4575 0 34.875 0ZM30.8394 9.08184C30.2657 9.18295 29.7188 8.79996 29.6176 8.22635L29.5712 7.96324L26.5982 12.2067C26.1866 12.7943 25.3211 12.8083 24.8906 12.2344L23.6757 10.6144L21.6901 13.5929C21.367 14.0775 20.7122 14.2085 20.2275 13.8854C19.7428 13.5623 19.6119 12.9075 19.935 12.4228L22.7475 8.20406C23.1511 7.59853 24.0321 7.57406 24.4688 8.15625L25.7053 9.80501L27.8426 6.75443L27.5813 6.80048C27.0077 6.90166 26.4606 6.5186 26.3595 5.94499C26.2583 5.37138 26.6413 4.82435 27.2149 4.72317L29.9848 4.23478C30.5584 4.1336 31.1054 4.51666 31.2066 5.09027L31.695 7.86002C31.7961 8.4337 31.413 8.98073 30.8394 9.08184Z" fill="#3DACE3"/>
<path d="M30.6562 27.5625C32.4037 27.5625 33.8203 26.1459 33.8203 24.3984C33.8203 22.651 32.4037 21.2344 30.6562 21.2344C28.9088 21.2344 27.4922 22.651 27.4922 24.3984C27.4922 26.1459 28.9088 27.5625 30.6562 27.5625Z" fill="#3C64B1"/>
<path d="M33.8186 28.6157C32.9368 29.2785 31.8417 29.6719 30.6562 29.6719C29.4708 29.6719 28.3757 29.2785 27.4939 28.6157C26.2121 29.5777 25.3828 31.1099 25.3828 32.8359V36H34.875C35.4575 36 35.9297 35.5278 35.9297 34.9453V32.8359C35.9297 31.1099 35.1004 29.5777 33.8186 28.6157Z" fill="#3C64B1"/>
<path d="M18 27.5625C19.7475 27.5625 21.1641 26.1459 21.1641 24.3984C21.1641 22.651 19.7475 21.2344 18 21.2344C16.2525 21.2344 14.8359 22.651 14.8359 24.3984C14.8359 26.1459 16.2525 27.5625 18 27.5625Z" fill="#3C64B1"/>
<path d="M21.1623 28.6157C20.2806 29.2785 19.1855 29.6719 18 29.6719C16.8145 29.6719 15.7194 29.2785 14.8377 28.6157C13.5559 29.5777 12.7266 31.1099 12.7266 32.8359V36H23.2734V32.8359C23.2734 31.1099 22.4441 29.5777 21.1623 28.6157Z" fill="#3C64B1"/>
<path d="M5.34375 27.5625C7.09121 27.5625 8.50781 26.1459 8.50781 24.3984C8.50781 22.651 7.09121 21.2344 5.34375 21.2344C3.59629 21.2344 2.17969 22.651 2.17969 24.3984C2.17969 26.1459 3.59629 27.5625 5.34375 27.5625Z" fill="#3C64B1"/>
<path d="M8.50605 28.6157C7.62434 29.2785 6.52922 29.6719 5.34375 29.6719C4.15828 29.6719 3.06316 29.2785 2.18145 28.6157C0.899648 29.5777 0.0703125 31.1099 0.0703125 32.8359V34.9453C0.0703125 35.5278 0.542531 36 1.125 36H10.6172V32.8359C10.6172 31.1099 9.78785 29.5777 8.50605 28.6157Z" fill="#3C64B1"/>
<path d="M5.34375 9.84375C7.09121 9.84375 8.50781 8.42715 8.50781 6.67969C8.50781 4.93222 7.09121 3.51562 5.34375 3.51562C3.59629 3.51562 2.17969 4.93222 2.17969 6.67969C2.17969 8.42715 3.59629 9.84375 5.34375 9.84375Z" fill="#3C64B1"/>
<path d="M8.50605 10.897C7.62434 11.5597 6.52922 11.9531 5.34375 11.9531C4.15828 11.9531 3.06316 11.5597 2.18145 10.897C0.899648 11.859 0.0703125 13.3912 0.0703125 15.1172V17.2266C0.0703125 17.809 0.542531 18.2813 1.125 18.2813H9.5625C10.145 18.2813 10.6172 17.809 10.6172 17.2266V15.1172C10.6172 13.3912 9.78785 11.859 8.50605 10.897Z" fill="#3C64B1"/>
</svg>
