<svg width="43" height="43" viewBox="0 0 43 43" fill="none" xmlns="http://www.w3.org/2000/svg">
<path d="M4.03125 14.1934H10.75V15.5371H4.03125V14.1934Z" fill="#3DACE3"/>
<path d="M4.03125 22.0879V41.6562H6.71875V22.0879" fill="#3C64B1"/>
<path d="M36.2812 22.0879V41.6562H38.9688V22.0879" fill="#3C64B1"/>
<path d="M8.81836 30.9062H34.0137V33.5938H8.81836V30.9062Z" fill="#3C64B1"/>
<path fill-rule="evenodd" clip-rule="evenodd" d="M10.0781 16.125H1.34375V20.1562H14.1094L10.0781 16.125ZM32.9219 16.125L28.8906 20.1562H41.6562V16.125H32.9219Z" fill="#3C64B1"/>
<path d="M21.5 24.1875C21.713 24.1875 21.9239 24.1456 22.1207 24.0641C22.3175 23.9826 22.4963 23.8631 22.6469 23.7125L30.2344 16.125H12.7656L20.3531 23.7125C20.5037 23.8631 20.6825 23.9826 20.8793 24.0641C21.0761 24.1456 21.287 24.1875 21.5 24.1875Z" fill="#3DACE3"/>
<path d="M1.34375 7.39062H13.4375V10.75C13.4375 11.4628 13.1544 12.1463 12.6503 12.6503C12.1463 13.1544 11.4628 13.4375 10.75 13.4375H4.03125C3.31848 13.4375 2.6349 13.1544 2.1309 12.6503C1.6269 12.1463 1.34375 11.4628 1.34375 10.75V7.39062Z" fill="#3DACE3"/>
<path d="M1.34375 6.71875V5.375C1.34375 5.01862 1.48532 4.67683 1.73733 4.42483C1.98933 4.17282 2.33112 4.03125 2.6875 4.03125H12.0938C12.4501 4.03125 12.7919 4.17282 13.0439 4.42483C13.2959 4.67683 13.4375 5.01862 13.4375 5.375V6.71875" fill="#3DACE3"/>
<path d="M5.375 3.44336V2.91846C5.375 2.50082 5.58736 2.10029 5.96536 1.80497C6.34337 1.50966 6.85605 1.34375 7.39062 1.34375C7.9252 1.34375 8.43788 1.50966 8.81589 1.80497C9.19389 2.10029 9.40625 2.50082 9.40625 2.91846V3.44336" fill="#3DACE3"/>
<path d="M18.8125 14.1934H25.5312V15.5371H18.8125V14.1934Z" fill="#3DACE3"/>
<path d="M16.125 7.39062H28.2188V10.75C28.2188 11.4628 27.9356 12.1463 27.4316 12.6503C26.9276 13.1544 26.244 13.4375 25.5312 13.4375H18.8125C18.0997 13.4375 17.4162 13.1544 16.9122 12.6503C16.4081 12.1463 16.125 11.4628 16.125 10.75V7.39062Z" fill="#3DACE3"/>
<path d="M16.125 6.71875V5.375C16.125 5.01862 16.2666 4.67683 16.5186 4.42483C16.7706 4.17282 17.1124 4.03125 17.4688 4.03125H26.875C27.2314 4.03125 27.5732 4.17282 27.8252 4.42483C28.0772 4.67683 28.2188 5.01862 28.2188 5.375V6.71875" fill="#3DACE3"/>
<path d="M20.1562 3.44336V2.91846C20.1562 2.50082 20.3686 2.10029 20.7466 1.80497C21.1246 1.50966 21.6373 1.34375 22.1719 1.34375C22.7065 1.34375 23.2191 1.50966 23.5971 1.80497C23.9751 2.10029 24.1875 2.50082 24.1875 2.91846V3.44336" fill="#3DACE3"/>
<path d="M30.9062 13.4375L33.5938 15.5371H38.9688L41.6562 13.4375H30.9062Z" fill="#3DACE3"/>
<path d="M30.9062 10.75L33.5938 12.8496H38.9688L41.6562 10.75H30.9062Z" fill="#3DACE3"/>
<path d="M30.9062 8.0625L33.5938 10.1621H38.9688L41.6562 8.0625H30.9062Z" fill="#3DACE3"/>
<path d="M30.9062 5.375L33.5938 7.39062H38.9688L41.6562 5.375H30.9062Z" fill="#3DACE3"/>
</svg>
