<svg width="41" height="42" viewBox="0 0 41 42" fill="none" xmlns="http://www.w3.org/2000/svg">
<g clip-path="url(#clip0)">
<path d="M13.2008 17.8074C13.5743 20.2945 15.4504 23.4598 18.5319 24.573C19.7968 25.0252 21.1805 25.0338 22.4454 24.5643C25.476 23.4425 27.4115 20.2858 27.7935 17.8074C28.201 17.7726 28.7358 17.1899 29.3131 15.0942C30.1026 12.2332 29.2621 11.807 28.5491 11.8766C28.6849 11.4853 28.7868 11.0853 28.8547 10.7026C30.0601 3.28485 26.4947 3.03266 26.4947 3.03266C26.4947 3.03266 25.9005 1.86738 24.347 0.989075C23.3028 0.354258 21.8512 -0.132725 19.9411 0.0325017C19.3214 0.05859 18.7357 0.189032 18.1839 0.37165C17.4793 0.615142 16.8341 0.971683 16.2484 1.3891C15.5353 1.84999 14.8562 2.42393 14.2619 3.07614C13.3197 4.0675 12.4792 5.34583 12.1142 6.93722C11.8086 8.12859 11.8765 9.37213 12.1312 10.7113C12.1991 11.1027 12.301 11.494 12.4368 11.8853C11.7237 11.8157 10.8833 12.2419 11.6728 15.1029C12.2585 17.1899 12.7933 17.7726 13.2008 17.8074Z" fill="#3DACE3"/>
<path d="M34.4999 27.5384C30.162 26.4079 26.639 23.8687 26.639 23.8687L23.8886 32.7822L23.3708 34.4605L23.3623 34.4344L22.9123 35.8606L21.4607 31.643C25.0261 26.5471 20.7391 26.5992 20.5015 26.6079C20.2638 26.5992 15.9768 26.5471 19.5422 31.643L18.0906 35.8606L17.6406 34.4344L17.6321 34.4605L17.1143 32.7822L14.3554 23.8687C14.3554 23.8687 10.8324 26.4079 6.49449 27.5384C3.26015 28.3819 3.10735 32.2082 3.23468 34.0953C3.23468 34.0953 3.42144 36.6606 3.6082 37.7911C3.6082 37.7911 9.92407 41.9914 20.5015 42.0001C31.0788 42.0001 37.3947 37.7911 37.3947 37.7911C37.5815 36.6606 37.7682 34.0953 37.7682 34.0953C37.8871 32.2082 37.7343 28.3819 34.4999 27.5384Z" fill="#4759A4"/>
</g>
<defs>
<clipPath id="clip0">
<rect width="41" height="42" fill="white"/>
</clipPath>
</defs>
</svg>
