<svg width="37" height="37" viewBox="0 0 37 37" fill="none" xmlns="http://www.w3.org/2000/svg">
<g clip-path="url(#clip0)">
<path d="M31.2188 0H5.78125C5.14917 0 4.625 0.524167 4.625 1.15625V14.2604C4.625 16.6038 6.52125 18.5 8.86458 18.5H12.7342C13.9829 16.6346 16.1104 15.4167 18.5 15.4167C20.8896 15.4167 23.0171 16.6346 24.2658 18.5H28.1354C30.4788 18.5 32.375 16.6038 32.375 14.2604V1.15625C32.375 0.524167 31.8508 0 31.2188 0ZM25.4375 9.63542C25.4375 10.1025 25.1554 10.525 24.7237 10.7038C24.5803 10.7624 24.4308 10.7917 24.2812 10.7917C23.9806 10.7917 23.6846 10.6745 23.4642 10.4525L22.2524 9.24075L20.0555 11.2557C19.6871 11.598 19.1367 11.6612 18.6973 11.4099L16.7672 10.306L13.5358 13.5358C13.3107 13.7625 13.0147 13.875 12.7188 13.875C12.4227 13.875 12.1267 13.7625 11.9017 13.5358C11.45 13.0841 11.45 12.3518 11.9017 11.9001L15.7558 8.04596C16.1243 7.6775 16.6947 7.60042 17.1464 7.85942L19.109 8.98175L20.6136 7.6035L19.61 6.59833C19.2801 6.26842 19.1799 5.77046 19.3587 5.33879C19.5375 4.90712 19.96 4.625 20.4271 4.625H24.2812C24.9195 4.625 25.4375 5.143 25.4375 5.78125V9.63542Z" fill="#4759A4"/>
<path d="M6.16683 26.2084C7.86971 26.2084 9.25016 24.828 9.25016 23.1251C9.25016 21.4222 7.86971 20.0417 6.16683 20.0417C4.46395 20.0417 3.0835 21.4222 3.0835 23.1251C3.0835 24.828 4.46395 26.2084 6.16683 26.2084Z" fill="#3DACE3"/>
<path d="M10.2829 28.3667C8.72583 29.5383 7.70833 31.4192 7.70833 33.5313V33.9167H1.15625C0.524167 33.9167 0 33.3925 0 32.7604V31.9896C0 29.6463 1.89625 27.75 4.23958 27.75H8.09375C8.89542 27.75 9.65083 27.9812 10.2829 28.3667Z" fill="#3DACE3"/>
<path d="M30.8333 26.2084C32.5362 26.2084 33.9167 24.828 33.9167 23.1251C33.9167 21.4222 32.5362 20.0417 30.8333 20.0417C29.1305 20.0417 27.75 21.4222 27.75 23.1251C27.75 24.828 29.1305 26.2084 30.8333 26.2084Z" fill="#3DACE3"/>
<path d="M37.0002 31.9896V32.7604C37.0002 33.3925 36.476 33.9167 35.8439 33.9167H29.2919V33.5313C29.2919 31.4192 28.2744 29.5383 26.7173 28.3667C27.3494 27.9812 28.1048 27.75 28.9065 27.75H32.7606C35.1039 27.75 37.0002 29.6463 37.0002 31.9896Z" fill="#3DACE3"/>
<path d="M18.5 26.9791C21.0543 26.9791 23.125 24.9084 23.125 22.3541C23.125 19.7998 21.0543 17.7291 18.5 17.7291C15.9457 17.7291 13.875 19.7998 13.875 22.3541C13.875 24.9084 15.9457 26.9791 18.5 26.9791Z" fill="#3DACE3"/>
<path d="M22.7397 29.2917H14.2606C11.9219 29.2917 10.021 31.1926 10.021 33.5313V35.8438C10.021 36.4821 10.539 37.0001 11.1772 37.0001H25.8231C26.4613 37.0001 26.9793 36.4821 26.9793 35.8438V33.5313C26.9793 31.1926 25.0784 29.2917 22.7397 29.2917Z" fill="#3DACE3"/>
<path d="M34.3019 2.3125H2.69775C2.0595 2.3125 1.5415 1.7945 1.5415 1.15625C1.5415 0.518 2.0595 0 2.69775 0H34.3019C34.9402 0 35.4582 0.518 35.4582 1.15625C35.4582 1.7945 34.9402 2.3125 34.3019 2.3125Z" fill="#4759A4"/>
</g>
<defs>
<clipPath id="clip0">
<rect width="37" height="37" fill="white"/>
</clipPath>
</defs>
</svg>
