<svg width="35" height="35" viewBox="0 0 35 35" fill="none" xmlns="http://www.w3.org/2000/svg">
<path d="M26.088 7.38677C27.4293 7.38677 28.5158 6.30748 28.5158 4.96377V2.4278C28.5158 1.0829 27.4305 0 26.088 0C24.7455 0 23.6614 1.08169 23.6614 2.4278V4.96497C23.6626 6.30748 24.7467 7.38677 26.088 7.38677Z" fill="#3C64B1"/>
<path d="M34.7128 4.19936H29.8259V5.43369C29.8259 7.47088 28.1709 9.13068 26.1301 9.13068C24.0869 9.13068 22.4355 7.47088 22.4355 5.43369V4.19936H12.5741V5.43369C12.5741 7.47088 10.9167 9.13068 8.87711 9.13068C6.83751 9.13068 5.18132 7.47208 5.18132 5.43369V4.19936L0.25 4.13806V35H2.71626H32.2874L34.75 34.9928L34.7128 4.19936ZM32.285 32.5421H2.71626V12.8265H32.2874V32.5421H32.285Z" fill="#3C64B1"/>
<path d="M8.83873 7.38677C10.18 7.38677 11.2677 6.30748 11.2677 4.96377V2.4278C11.2677 1.08169 10.18 0 8.83873 0C7.49743 0 6.41333 1.08169 6.41333 2.4278V4.96497C6.41333 6.30748 7.49623 7.38677 8.83873 7.38677Z" fill="#3C64B1"/>
<path d="M16.4646 15.4718H12.5813V18.8996H16.4646V15.4718Z" fill="#6BBFE9"/>
<path d="M22.7467 15.4718H18.8599V18.8996H22.7467V15.4718Z" fill="#6BBFE9"/>
<path d="M28.5664 15.4718H24.6831V18.8996H28.5664V15.4718Z" fill="#6BBFE9"/>
<path d="M16.4646 21.1639H12.5813V24.5893H16.4646V21.1639Z" fill="#3C64B1"/>
<path d="M22.7467 21.1639H18.8599V24.5893H22.7467V21.1639Z" fill="#3C64B1"/>
<path d="M28.5664 21.1639H24.6831V24.5893H28.5664V21.1639Z" fill="#3C64B1"/>
<path d="M16.4646 26.969H12.5813V30.3944H16.4646V26.969Z" fill="#3C64B1"/>
<path d="M10.2942 21.1639H6.41333V24.5893H10.2942V21.1639Z" fill="#3C64B1"/>
<path d="M10.2942 26.969H6.41333V30.3944H10.2942V26.969Z" fill="#3C64B1"/>
<path d="M22.7467 26.969H18.8599V30.3944H22.7467V26.969Z" fill="#3C64B1"/>
<path d="M28.5664 26.969H24.6831V30.3944H28.5664V26.969Z" fill="#3C64B1"/>
</svg>
