<svg width="35" height="35" viewBox="0 0 35 35" fill="none" xmlns="http://www.w3.org/2000/svg">
<path d="M26.0882 7.38677C27.4295 7.38677 28.516 6.30748 28.516 4.96377V2.4278C28.516 1.0829 27.4307 0 26.0882 0C24.7457 0 23.6616 1.08169 23.6616 2.4278V4.96497C23.6628 6.30748 24.7469 7.38677 26.0882 7.38677Z" fill="#3C64B1"/>
<path d="M34.7128 4.19936H29.8259V5.43369C29.8259 7.47088 28.1709 9.13068 26.1301 9.13068C24.0869 9.13068 22.4355 7.47088 22.4355 5.43369V4.19936H12.5741V5.43369C12.5741 7.47088 10.9167 9.13068 8.87711 9.13068C6.83751 9.13068 5.18132 7.47208 5.18132 5.43369V4.19936L0.25 4.13806V35H2.71626H32.2874L34.75 34.9928L34.7128 4.19936ZM32.285 32.5421H2.71626V12.8265H32.2874V32.5421H32.285Z" fill="#3C64B1"/>
<path d="M8.83848 7.38677C10.1798 7.38677 11.2675 6.30748 11.2675 4.96377V2.4278C11.2675 1.08169 10.1798 0 8.83848 0C7.49718 0 6.41309 1.08169 6.41309 2.4278V4.96497C6.41309 6.30748 7.49598 7.38677 8.83848 7.38677Z" fill="#3C64B1"/>
<path d="M16.4648 15.4718H12.5815V18.8996H16.4648V15.4718Z" fill="#6BBFE9"/>
<path d="M22.7467 15.4718H18.8599V18.8996H22.7467V15.4718Z" fill="#6BBFE9"/>
<path d="M28.5664 15.4718H24.6831V18.8996H28.5664V15.4718Z" fill="#6BBFE9"/>
<path d="M16.4648 21.1639H12.5815V24.5893H16.4648V21.1639Z" fill="#3C64B1"/>
<path d="M22.7467 21.1639H18.8599V24.5893H22.7467V21.1639Z" fill="#3C64B1"/>
<path d="M28.5664 21.1639H24.6831V24.5893H28.5664V21.1639Z" fill="#3C64B1"/>
<path d="M16.4648 26.969H12.5815V30.3944H16.4648V26.969Z" fill="#3C64B1"/>
<path d="M10.294 21.1639H6.41309V24.5893H10.294V21.1639Z" fill="#3C64B1"/>
<path d="M10.294 26.969H6.41309V30.3944H10.294V26.969Z" fill="#3C64B1"/>
<path d="M22.7467 26.969H18.8599V30.3944H22.7467V26.969Z" fill="#3C64B1"/>
<path d="M28.5664 26.969H24.6831V30.3944H28.5664V26.969Z" fill="#3C64B1"/>
</svg>
