<svg width="35" height="35" viewBox="0 0 35 35" fill="none" xmlns="http://www.w3.org/2000/svg">
<g clip-path="url(#clip0)">
<path d="M34.9949 14.6772V29.1544C34.9949 30.8267 33.6369 32.1858 31.9635 32.1858H3.03144C1.35606 32.1858 0 30.8267 0 29.1544V14.6772H34.9949ZM14.6894 18.1907H12.2005L8.8417 21.3222L10.0149 22.5933L12.7179 19.9146V28.5865H14.6894V18.1907ZM24.8851 25.0428C24.8851 23.6503 24.6406 22.7055 24.1485 22.2013C23.6584 21.6971 22.7338 21.4485 21.3656 21.4485C20.1662 21.4485 19.3749 21.7203 18.99 22.2558H18.9526L18.9738 19.7509H24.4304V18.1887H17.1458V23.7544H18.9273C19.0496 23.2714 19.7276 23.0319 20.9614 23.0319C21.8082 23.0319 22.3478 23.141 22.5822 23.3633C22.8136 23.5826 22.9318 24.0919 22.9318 24.8892C22.9318 25.9108 22.8267 26.5292 22.6176 26.7505C22.4104 26.9728 21.8264 27.0819 20.8694 27.0819C20.0065 27.0819 19.4629 26.999 19.2446 26.8364C19.0223 26.6706 18.894 26.2523 18.8596 25.5834H16.9336C16.9336 26.7969 17.2044 27.6154 17.742 28.0358C18.2796 28.4582 19.3254 28.6694 20.8785 28.6694C22.4519 28.6694 23.5119 28.4208 24.0585 27.9256C24.6102 27.4295 24.8851 26.4675 24.8851 25.0428Z" fill="#3DACE3"/>
<path d="M0 9.87942V12.92H35.001V9.87335C35.001 8.19798 33.6449 6.84191 31.9696 6.84191H29.1786L29.1948 6.14468C29.2322 4.47234 27.9054 3.08495 26.2321 3.04756L24.4536 3.00613C23.6543 2.94954 22.8692 3.28906 22.2871 3.84483C21.7081 4.4016 21.3706 5.16553 21.3514 5.96886L21.3302 6.84494H13.7648L13.7809 6.14771C13.8183 4.47537 12.4926 3.08798 10.8202 3.05059L9.04077 3.00916C8.2344 2.95257 7.45835 3.2921 6.87632 3.84786C6.29529 4.40463 5.9588 5.16856 5.94061 5.9729L5.91939 6.84798H3.03144C1.35809 6.84798 0 8.20505 0 9.87942Z" fill="#3A61AE"/>
</g>
<defs>
<clipPath id="clip0">
<rect width="35" height="35" fill="white"/>
</clipPath>
</defs>
</svg>
