<svg width="48" height="48" viewBox="0 0 48 48" fill="none" xmlns="http://www.w3.org/2000/svg">
<path d="M39.6 31.0397C37.3503 31.0397 35.52 32.8704 35.52 35.1197C35.52 37.3694 37.3503 39.1997 39.6 39.1997C41.8493 39.1997 43.68 37.3694 43.68 35.1197C43.68 32.8704 41.8493 31.0397 39.6 31.0397ZM39.6 36.3197C38.9381 36.3197 38.4 35.7816 38.4 35.1197C38.4 34.4578 38.9381 33.9197 39.6 33.9197C40.2619 33.9197 40.8 34.4578 40.8 35.1197C40.8 35.7816 40.2619 36.3197 39.6 36.3197Z" fill="#3C64B1"/>
<path d="M39.2094 14.0798H32.1602C31.6298 14.0798 31.2002 14.51 31.2002 15.0398V33.7598C31.2002 34.2897 31.6298 34.7198 32.1602 34.7198H33.1783C33.6535 34.7198 34.0745 34.3776 34.1359 33.9063C34.5127 31.0195 36.8153 29.2292 39.6007 29.2292C42.3861 29.2292 44.6887 31.0196 45.0654 33.9063C45.1269 34.3776 45.5473 34.7198 46.023 34.7198H47.0401C47.57 34.7198 48.0001 34.2897 48.0001 33.7598V24.3998C48.0001 24.1743 47.9209 23.9563 47.7764 23.784L39.9457 14.424C39.7634 14.2061 39.4936 14.0798 39.2094 14.0798ZM33.1202 21.7598V16.9598C33.1202 16.43 33.5498 15.9998 34.0802 15.9998H38.309C38.5936 15.9998 38.8639 16.1266 39.0462 16.3454L43.0461 21.1454C43.5669 21.7708 43.1224 22.7198 42.3084 22.7198H34.0802C33.5498 22.7198 33.1202 22.2903 33.1202 21.7598Z" fill="#6BBFE9"/>
<path d="M0.96 34.7203H3.41812C3.89333 34.7203 4.31427 34.378 4.37569 33.9067C4.75247 31.02 7.05506 29.2296 9.84047 29.2296C12.6259 29.2296 14.9285 31.0201 15.3053 33.9067C15.3667 34.3781 15.7871 34.7203 16.2628 34.7203H28.32C28.85 34.7203 29.28 34.2902 29.28 33.7603V9.76029C29.28 9.23041 28.8499 8.80029 28.32 8.80029H0.96C0.429569 8.80029 0 9.23041 0 9.76029V33.7603C0 34.2903 0.429569 34.7203 0.96 34.7203Z" fill="#3C64B1"/>
<path d="M9.83977 31.0397C7.59004 31.0397 5.75977 32.8704 5.75977 35.1197C5.75977 37.3694 7.59004 39.1997 9.83977 39.1997C12.089 39.1997 13.9198 37.3694 13.9198 35.1197C13.9198 32.8704 12.089 31.0397 9.83977 31.0397ZM9.83977 36.3197C9.17788 36.3197 8.63977 35.7816 8.63977 35.1197C8.63977 34.4578 9.17788 33.9197 9.83977 33.9197C10.5016 33.9197 11.0398 34.4578 11.0398 35.1197C11.0398 35.7816 10.5016 36.3197 9.83977 36.3197Z" fill="#3C64B1"/>
</svg>
