<svg width="34" height="34" viewBox="0 0 34 34" fill="none" xmlns="http://www.w3.org/2000/svg">
<path d="M1.3916 19.8282V30.457C1.3916 32.4113 2.98167 34 4.93452 34H30.4437C32.398 34 33.9866 32.4113 33.9866 30.457V19.8282H1.3916Z" fill="#4759A4"/>
<path d="M16.7909 3.24017L11.4878 4.49863L15.9306 11.0361L21.6745 9.72947L16.7909 3.24017Z" fill="#3DACE3"/>
<path d="M10.0139 4.84875L4.29834 6.20353L8.69442 12.6801L14.4467 11.372L10.0139 4.84875Z" fill="#3DACE3"/>
<path d="M33.9639 6.18374L32.7578 1.60909C32.4801 0.496589 31.3407 -0.203452 30.2168 0.0530349L25.4551 1.18394L29.9731 7.84469L33.4352 7.05676C33.6237 7.01425 33.7852 6.8966 33.8845 6.73225C33.9837 6.5679 34.012 6.3708 33.9639 6.18374Z" fill="#3DACE3"/>
<path d="M23.9797 1.53394L18.2954 2.88306L23.1875 9.38651L28.4891 8.18047L23.9797 1.53394Z" fill="#3DACE3"/>
<path d="M8.5326 12.7438L6.26514 18.4111H11.8247L14.0922 12.7438H8.5326Z" fill="#3DACE3"/>
<path d="M15.6185 12.7438L13.3511 18.4111H18.9106L21.1781 12.7438H15.6185Z" fill="#3DACE3"/>
<path d="M33.2781 12.7438H29.7904L27.5229 18.4125H33.9867V13.4524C33.9866 13.0598 33.6706 12.7438 33.2781 12.7438Z" fill="#3DACE3"/>
<path d="M22.7045 12.7438L20.437 18.4111H25.9952L28.2641 12.7438H22.7045Z" fill="#3DACE3"/>
<path d="M2.82447 6.55499L1.66945 6.82849C1.10685 6.95603 0.63068 7.29755 0.328822 7.78794C0.0269632 8.27972 -0.0623189 8.85793 0.0779815 9.41767L1.3917 14.6102V18.4111H4.73905L6.86621 13.0952L7.21198 13.0173L2.82447 6.55499Z" fill="#3DACE3"/>
</svg>
