<svg width="38" height="38" viewBox="0 0 38 38" fill="none" xmlns="http://www.w3.org/2000/svg">
<g clip-path="url(#clip0)">
<path d="M31.2731 26.5196C30.4268 25.5865 29.4068 25.1307 28.1047 25.1307H25.361L23.5597 23.3947C22.2359 24.4797 20.63 25.1091 18.8938 25.1091C17.2661 25.1091 15.7253 24.5449 14.4666 23.5683L12.8606 25.1091H10.0051C8.55111 25.1091 7.42261 25.6082 6.53283 26.6283C3.95031 29.6231 4.38435 36.0252 4.57966 38.0001H33.4866C33.6386 36.0033 33.8991 29.4494 31.2731 26.5196Z" fill="#3C64B1"/>
<path d="M11.3717 12.9343C10.8509 13.3683 10.5037 14.0628 10.5037 14.8657C10.5037 16.0593 11.2849 17.0359 12.2832 17.2095C12.5002 19.0108 13.2381 20.595 14.3449 21.7669C14.5835 22.0056 14.8223 22.2444 15.0827 22.4397C15.4083 22.7001 15.7554 22.9171 16.1244 23.1124C16.949 23.5464 17.8605 23.7851 18.8371 23.7851C19.8137 23.7851 20.7252 23.5464 21.5498 23.1124C21.9188 22.9171 22.266 22.7001 22.5915 22.4397C22.852 22.2444 23.0907 22.0056 23.3294 21.7669C24.4145 20.5951 25.1741 19.0325 25.3694 17.2312C25.3911 17.2312 25.4128 17.2312 25.4345 17.2312C26.5848 17.2312 27.4962 16.1678 27.4962 14.8657C27.4962 14.0628 27.1489 13.3683 26.6281 12.9343H11.3717Z" fill="#3DACE3"/>
<path d="M26.7663 8.3769C26.0935 6.14161 24.314 3.86291 22.057 2.69101V7.79095V8.4854C22.057 8.52881 22.057 8.55051 22.057 8.57221C22.0353 8.81093 21.9919 9.02795 21.8834 9.24497C21.6012 9.78752 21.037 10.1781 20.386 10.1781H20.0388H17.6516C17.0439 10.1781 16.5013 9.85262 16.2192 9.37518C16.089 9.17986 16.0239 8.96292 15.9805 8.72413C15.9588 8.63732 15.9588 8.57221 15.9588 8.4854V7.87775V2.66931C13.7018 3.86291 11.9223 6.14161 11.2495 8.3769L11.0976 8.85434H9.8606V11.5671H11.2278H13.1376H13.9405H24.4009H25.1822H28.1396V11.4369V8.85434H26.9183L26.7663 8.3769Z" fill="#3DACE3"/>
<path d="M17.6435 9.50541H20.3563C20.7469 9.50541 21.0724 9.28839 21.246 8.96286C21.3328 8.81095 21.3762 8.65904 21.3762 8.48542V8.2901V7.48714V2.3655V1.62764V1.34551C21.3762 1.1719 21.3328 1.01999 21.2894 0.868074C21.0942 0.368931 20.5951 0 20.0308 0H17.6435C17.1227 0 16.6886 0.390633 16.6452 0.889776C16.6452 0.933179 16.6235 0.976583 16.6235 1.01999V1.62764V2.3655V7.57394V8.39861V8.48542C16.6235 8.70244 16.6886 8.89776 16.7972 9.07137C16.9925 9.33179 17.2963 9.50541 17.6435 9.50541Z" fill="#3DACE3"/>
</g>
<defs>
<clipPath id="clip0">
<rect width="38" height="38" fill="white"/>
</clipPath>
</defs>
</svg>
