<svg width="36" height="37" viewBox="0 0 36 37" fill="none" xmlns="http://www.w3.org/2000/svg">
<g clip-path="url(#clip0)">
<path d="M-5.40069e-07 4.87972L-7.76883e-08 15.4577C4.92574 15.564 9.82997 16.1592 14.6443 17.235C13.7208 13.453 13.1207 9.59512 12.8507 5.70557C12.1693 5.40169 9.5914 4.89952 -5.40069e-07 4.87972Z" fill="#4759A4"/>
<path d="M14.1041 4.25841C14.1041 4.71426 14.1234 5.20321 14.1491 5.70531C14.1555 5.90354 14.1684 6.10176 14.1812 6.30649C14.2134 6.78229 14.2584 7.27117 14.3098 7.77334C14.3098 7.80637 14.3162 7.83282 14.3162 7.86584C14.4191 8.82387 14.5541 9.82157 14.7148 10.8456C14.7201 10.8605 14.7223 10.8762 14.7213 10.8919C14.8692 11.8301 15.0427 12.7881 15.2292 13.7594C15.2678 13.9576 15.3063 14.1559 15.3513 14.3541C15.3899 14.5523 15.4284 14.7571 15.4734 14.962C15.5506 15.3187 15.6213 15.6756 15.6984 16.0191L15.737 16.1777C15.8334 16.6336 15.9363 17.0697 16.0328 17.486C16.277 18.5298 16.5342 19.5738 16.7978 20.5913C17.0278 21.4553 17.7905 22.0554 18.662 22.058L19.4656 22.058C20.0195 22.0595 20.5108 22.4235 20.687 22.9632L21.9599 26.8945C22.2404 27.7742 22.4405 28.6788 22.5578 29.5968C23.0335 33.0787 24.7949 36.5938 27.6428 36.5938C30.2978 36.5938 30.857 34.0764 30.857 31.9688C30.857 28.9956 28.4849 25.3616 25.7142 25.3616L25.5663 25.3616C24.4545 25.4116 23.4376 24.7211 23.0463 23.6503L14.6313 0.406437C14.2304 1.64717 14.0519 2.95221 14.1041 4.25841ZM25.7141 26.683C27.5912 26.683 29.5712 29.3985 29.5712 31.9687C29.5712 35.0345 28.0926 35.2723 27.6426 35.2723C25.2576 35.2723 23.7855 31.8432 23.7855 28.6651C23.743 28.1272 23.9325 27.5972 24.3038 27.2157C24.675 26.8341 25.1907 26.6394 25.7141 26.683ZM19.2856 18.7545C19.2856 19.1193 18.9978 19.4152 18.6427 19.4152C18.2877 19.4152 17.9998 19.1194 17.9998 18.7545C17.9998 18.3896 18.2876 18.0937 18.6427 18.0937C18.9973 18.0948 19.2845 18.39 19.2856 18.7545Z" fill="#3DACE3"/>
<path d="M16.6112 29.5967C16.7304 28.6786 16.9327 27.7739 17.2155 26.8945L18.3597 23.353C17.6802 23.2857 17.0388 22.9989 16.5276 22.5337L16.1226 23.6503C15.7328 24.7222 14.7149 25.4135 13.6026 25.3616L13.4612 25.3616C10.6326 25.3616 8.35693 28.9757 8.35693 31.9688C8.35693 35.0345 9.42407 36.5938 11.5327 36.5938C14.3805 36.5937 16.1355 33.0787 16.6112 29.5967ZM9.64267 31.9687C9.64267 29.3985 11.6227 26.683 13.4998 26.683C14.0231 26.6394 14.5388 26.8341 14.9101 27.2158C15.2814 27.5974 15.4709 28.1273 15.4283 28.6652C15.4283 31.8433 13.9562 35.2724 11.5712 35.2724C11.1212 35.2723 9.64267 35.0345 9.64267 31.9687Z" fill="#3DACE3"/>
<path d="M35.9997 16.105L35.9997 4.87945C29.8476 4.853 22.789 4.44347 20.2305 4.27827L24.2483 15.484C25.9261 15.6029 32.3226 16.0587 35.9997 16.105Z" fill="#4759A4"/>
</g>
<defs>
<clipPath id="clip0">
<rect width="37" height="36" fill="white" transform="translate(0 37) rotate(-90)"/>
</clipPath>
</defs>
</svg>
