<svg width="41" height="41" viewBox="0 0 41 41" fill="none" xmlns="http://www.w3.org/2000/svg">
<g clip-path="url(#clip0)">
<path d="M21.7058 18.6803V21.0921H24.1176V24.7097H38.5883V21.0921H41V18.6803C40.1894 18.6803 22.6678 18.6803 21.7058 18.6803Z" fill="#3C64B1"/>
<path d="M0 18.6803V21.0921H2.41177V24.7097H16.8824V21.0921H19.2941V18.6803C18.6513 18.6803 1.00305 18.6803 0 18.6803Z" fill="#3C64B1"/>
<path d="M2.41162 39.1802H16.8822V27.1215H2.41162V39.1802ZM8.44103 29.5332H10.8528V36.7685H8.44103V29.5332Z" fill="#3C64B1"/>
<path d="M24.1174 39.1802H38.5881V27.1215H24.1174V39.1802ZM30.1469 29.5332H32.5587V36.7685H30.1469V29.5332Z" fill="#3C64B1"/>
<path d="M15.6763 15.0627C15.6763 13.4803 15.0626 12.0392 14.0619 10.9624C11.6616 13.197 7.63141 13.1965 5.23179 10.9624C4.23107 12.0392 3.61743 13.4803 3.61743 15.0627V16.2686H15.6763V15.0627Z" fill="#3DACE3"/>
<path d="M9.64734 10.2391C11.9745 10.2391 13.8679 8.34572 13.8679 6.01853C13.6361 0.419371 5.6578 0.420979 5.42676 6.01853C5.42676 8.34572 7.32015 10.2391 9.64734 10.2391Z" fill="#3DACE3"/>
<path d="M37.382 15.0627C37.382 13.4803 36.7684 12.0392 35.7677 10.9624C33.3674 13.197 29.3372 13.1965 26.9376 10.9624C25.9369 12.0392 25.3232 13.4803 25.3232 15.0627V16.2686H37.382V15.0627Z" fill="#3DACE3"/>
<path d="M31.3532 10.2391C33.6803 10.2391 35.5737 8.34572 35.5737 6.01853C35.3419 0.419371 27.3636 0.420979 27.1326 6.01853C27.1326 8.34572 29.026 10.2391 31.3532 10.2391Z" fill="#3DACE3"/>
</g>
<defs>
<clipPath id="clip0">
<rect width="41" height="41" fill="white"/>
</clipPath>
</defs>
</svg>
