<svg width="36" height="36" viewBox="0 0 36 36" fill="none" xmlns="http://www.w3.org/2000/svg">
<g clip-path="url(#clip0)">
<path d="M7.7343 10.969C7.7343 10.3865 7.26208 9.91431 6.67962 9.91431H1.05468C0.472214 9.91431 0 10.3865 0 10.969C0 11.5514 0.472214 12.0237 1.05468 12.0237H6.67962C7.26208 12.0237 7.7343 11.5514 7.7343 10.969Z" fill="#3DACE3"/>
<path d="M8.29688 14.9064C8.29688 14.3239 7.82466 13.8517 7.24219 13.8517H2.74219C2.15972 13.8517 1.6875 14.3239 1.6875 14.9064C1.6875 15.4888 2.15972 15.9611 2.74219 15.9611H7.24219C7.82466 15.9611 8.29688 15.4888 8.29688 14.9064Z" fill="#3DACE3"/>
<path d="M7.875 17.7892H4.42969C3.84722 17.7892 3.375 18.2614 3.375 18.8439C3.375 19.4263 3.84722 19.8985 4.42969 19.8985H7.875C8.45747 19.8985 8.92969 19.4263 8.92969 18.8439C8.92969 18.2614 8.45747 17.7892 7.875 17.7892Z" fill="#3DACE3"/>
<path d="M34.9452 5.27362C34.9452 4.69116 34.473 4.21894 33.8906 4.21894H32.0273V4.83487C32.0273 5.43421 31.5266 5.91725 30.9209 5.88828C30.3539 5.86114 29.9179 5.37248 29.9179 4.80478V4.21887H28.0547C27.4722 4.21887 27 4.69109 27 5.27355V7.87508H34.9452V5.27362Z" fill="#3DACE3"/>
<path d="M24.7499 2.46117C24.7499 1.87871 24.2777 1.40649 23.6952 1.40649H20.1796V3.16429C20.1796 3.76356 19.6789 4.24667 19.0733 4.2177C18.5063 4.19056 18.0703 3.70189 18.0703 3.1342V1.40649H14.5547C13.9722 1.40649 13.5 1.87871 13.5 2.46117V7.87518H24.7499V2.46117Z" fill="#3DACE3"/>
<path d="M34.945 9.98456H11.5102L10.6713 5.23106C10.5824 4.72707 10.1445 4.35962 9.63275 4.35962H4.0078C3.42534 4.35962 2.95312 4.83183 2.95312 5.4143C2.95312 5.99676 3.42534 6.46897 4.0078 6.46897H8.74787L11.7631 23.5552C10.267 23.8704 9.14056 25.2007 9.14056 26.7891C9.14056 28.6113 10.623 30.0937 12.4452 30.0937H13.3027C12.4592 32.2597 14.0709 34.5937 16.3827 34.5937C18.6852 34.5937 20.3096 32.2685 19.4627 30.0937H23.4276C22.586 32.2548 24.1905 34.5937 26.5076 34.5937C28.8273 34.5937 30.4284 32.2529 29.5876 30.0937H31.57C32.1525 30.0937 32.6247 29.6215 32.6247 29.0391C32.6247 28.4566 32.1525 27.9844 31.57 27.9844H12.4452C11.7861 27.9844 11.2499 27.4482 11.2499 26.7891C11.2499 26.13 11.7861 25.5938 12.4452 25.5938H32.1325C32.6321 25.5938 33.0631 25.2433 33.1651 24.7543L35.9775 11.2544C36.114 10.5993 35.613 9.98456 34.945 9.98456Z" fill="#4759A4"/>
</g>
<defs>
<clipPath id="clip0">
<rect width="36" height="36" fill="white"/>
</clipPath>
</defs>
</svg>
