<svg width="40" height="40" viewBox="0 0 40 40" fill="none" xmlns="http://www.w3.org/2000/svg">
<g clip-path="url(#clip0)">
<path fill-rule="evenodd" clip-rule="evenodd" d="M40 31.2383V38.8124C40 39.3613 39.5507 39.8107 39.0017 39.8106H23.8518C23.3028 39.8106 22.8535 39.3612 22.8535 38.8123V34.4439L20.7411 31.9864C20.3428 31.5256 20.3659 30.8423 20.8268 30.386L22.8535 28.0303V23.662C22.8535 23.1131 23.3028 22.6637 23.8518 22.6637H39.0017C39.5507 22.6637 40 23.1131 40 23.662V31.2383ZM26.8744 29.4641V27.2498C26.8744 26.9557 27.1153 26.7125 27.4117 26.7125H35.6526C35.9491 26.7125 36.1899 26.9557 36.1899 27.2498V29.4641C36.1899 29.7582 35.9491 30.0014 35.6526 30.0014H27.4117C27.1153 30.0014 26.8744 29.7582 26.8744 29.4641ZM28.725 33.2733H34.3393C34.6727 33.2733 34.943 33.0031 34.943 32.6697C34.943 32.3364 34.6728 32.0661 34.3394 32.0661H28.725C28.3917 32.0661 28.1214 32.3364 28.1214 32.6697C28.1214 33.0031 28.3917 33.2733 28.725 33.2733ZM35.9653 35.9277H27.099C26.7657 35.9277 26.4954 35.6575 26.4954 35.3242C26.4954 34.9908 26.7657 34.7206 27.099 34.7206H35.9653C36.2986 34.7206 36.5689 34.9908 36.5689 35.3242C36.5689 35.6575 36.2986 35.9277 35.9653 35.9277Z" fill="#3C64B1"/>
<path fill-rule="evenodd" clip-rule="evenodd" d="M17.1465 23.662V38.8124C17.1465 39.3613 16.6972 39.8107 16.1483 39.8107H8.57211H0.998281C0.449297 39.8107 0 39.3613 0 38.8124V23.662C0 23.1131 0.449297 22.6638 0.998281 22.6638H5.36641L7.82156 20.5513C8.28484 20.153 8.96813 20.1785 9.42438 20.6394L11.7799 22.6638H16.1482C16.6972 22.6638 17.1465 23.1131 17.1465 23.662ZM13.2322 29.2928C13.2322 29.5869 12.989 29.8301 12.6948 29.8301H4.45164C4.15516 29.8301 3.9143 29.5869 3.9143 29.2928V27.0785C3.9143 26.7843 4.15516 26.5411 4.45164 26.5411H12.6948C12.989 26.5411 13.2322 26.7843 13.2322 27.0785V29.2928ZM5.76492 33.102H11.3816C11.715 33.102 11.9852 32.8317 11.9852 32.4984C11.9852 32.165 11.7149 31.8948 11.3816 31.8948H5.76492C5.43156 31.8948 5.16133 32.165 5.16133 32.4984C5.16133 32.8317 5.43156 33.102 5.76492 33.102ZM13.0052 35.7564H4.13898C3.80562 35.7564 3.53539 35.4862 3.53539 35.1528C3.53539 34.8194 3.80562 34.5492 4.13898 34.5492H13.0052C13.3386 34.5492 13.6088 34.8195 13.6088 35.1528C13.6088 35.4862 13.3386 35.7564 13.0052 35.7564Z" fill="#3DACE3"/>
<path fill-rule="evenodd" clip-rule="evenodd" d="M28.2201 17.3364H23.8518C23.3029 17.3364 22.8536 16.8871 22.8536 16.3381V1.18773C22.8536 0.638828 23.303 0.189453 23.8519 0.189453H31.4257H39.0019C39.5509 0.189453 40.0002 0.638828 40.0002 1.18773V16.3381C40.0002 16.887 39.5508 17.3364 39.0019 17.3364H34.6336L32.2781 19.3608C31.8218 19.8217 31.1385 19.8472 30.6753 19.4488L28.2201 17.3364ZM35.5855 7.58054H27.3446C27.0481 7.58054 26.8073 7.33961 26.8073 7.04312V4.83117C26.8073 4.53468 27.0481 4.29382 27.3446 4.29382H35.5855C35.8819 4.29382 36.1228 4.53468 36.1228 4.83117V7.0432C36.1228 7.33968 35.8819 7.58054 35.5855 7.58054ZM28.6579 10.8548H34.2722C34.6056 10.8548 34.8758 10.5845 34.8758 10.2512C34.8758 9.91783 34.6056 9.64759 34.2722 9.64759H28.6579C28.3245 9.64759 28.0543 9.91775 28.0543 10.2512C28.0543 10.5845 28.3245 10.8548 28.6579 10.8548ZM35.8981 13.5091H27.0319C26.6986 13.5091 26.4283 13.2388 26.4283 12.9055C26.4283 12.5721 26.6986 12.3019 27.0319 12.3019H35.8982C36.2315 12.3019 36.5018 12.5721 36.5018 12.9055C36.5018 13.2388 36.2315 13.5091 35.8981 13.5091Z" fill="#3DACE3"/>
<path fill-rule="evenodd" clip-rule="evenodd" d="M19.1708 7.91172C19.6317 8.36805 19.6572 9.05133 19.2588 9.51227L17.1466 11.9698V16.3381C17.1466 16.887 16.6972 17.3364 16.1483 17.3364H0.998281C0.449297 17.3364 0 16.8871 0 16.3381V8.7618V1.18773C0 0.638828 0.449297 0.189453 0.998281 0.189453H16.1482C16.6972 0.189453 17.1465 0.638828 17.1465 1.18773V5.55609L19.1708 7.91172ZM13.216 4.94468V7.15898C13.216 7.45312 12.9728 7.69632 12.6763 7.69632H4.43547C4.13898 7.69632 3.89812 7.45312 3.89812 7.15898V4.94468C3.89812 4.65054 4.13898 4.40734 4.43547 4.40734H12.6763C12.9728 4.40734 13.216 4.65054 13.216 4.94468ZM5.74874 10.9681H11.363C11.6964 10.9681 11.9667 10.6979 11.9667 10.3645C11.9667 10.0311 11.6965 9.76091 11.3631 9.76091H5.74874C5.41538 9.76091 5.14515 10.0311 5.14515 10.3645C5.14515 10.6979 5.41538 10.9681 5.74874 10.9681ZM12.989 13.6225H4.12273C3.78937 13.6225 3.51913 13.3522 3.51913 13.0189C3.51913 12.6854 3.78937 12.4153 4.12273 12.4153H12.989C13.3223 12.4153 13.5926 12.6855 13.5926 13.0189C13.5926 13.3522 13.3223 13.6225 12.989 13.6225Z" fill="#3C64B1"/>
</g>
<defs>
<clipPath id="clip0">
<rect width="40" height="40" fill="white"/>
</clipPath>
</defs>
</svg>
