<svg width="41" height="41" viewBox="0 0 41 41" fill="none" xmlns="http://www.w3.org/2000/svg">
<g clip-path="url(#clip0)">
<path d="M7.6875 10.6771V2.98956C7.6875 2.5454 7.73875 2.11831 7.85833 1.70831H2.98958C1.34958 1.70831 0 3.0579 0 4.6979V12.3854C0 14.0254 1.34958 15.375 2.98958 15.375H3.62167L5.80833 18.2791C6.0475 18.5866 6.40625 18.7746 6.78208 18.7916H6.83333C7.20917 18.7916 7.55083 18.6379 7.79 18.3475L10.3525 15.4262C8.76375 14.4354 7.6875 12.6758 7.6875 10.6771Z" fill="#3C64B1"/>
<path d="M38.0104 1.70831H33.1416C33.2612 2.11831 33.3125 2.5454 33.3125 2.98956V10.6771C33.3125 12.6758 32.2362 14.4354 30.6475 15.4262L33.21 18.3475C33.4491 18.6379 33.7908 18.7916 34.1666 18.7916H34.2179C34.5937 18.7746 34.9525 18.5866 35.1916 18.2791L37.3612 15.375H38.0104C39.6504 15.375 41 14.0254 41 12.3854V4.6979C41 3.0579 39.6504 1.70831 38.0104 1.70831Z" fill="#3C64B1"/>
<path d="M20.5 17.0833C20.4846 17.0833 20.4675 17.0833 20.4522 17.0833C20.0661 17.068 19.7073 16.88 19.475 16.5708L17.2969 13.6667H13.2396C11.591 13.6667 10.25 12.3256 10.25 10.6771V2.98958C10.25 1.34104 11.591 0 13.2396 0H27.7604C29.409 0 30.75 1.34104 30.75 2.98958V10.6771C30.75 12.3256 29.409 13.6667 27.7604 13.6667H24.0704L21.4635 16.646C21.2209 16.9245 20.869 17.0833 20.5 17.0833Z" fill="#3DACE3"/>
<path d="M6.83329 29.0417C8.72026 29.0417 10.25 27.512 10.25 25.625C10.25 23.7381 8.72026 22.2084 6.83329 22.2084C4.94632 22.2084 3.41663 23.7381 3.41663 25.625C3.41663 27.512 4.94632 29.0417 6.83329 29.0417Z" fill="#3C64B1"/>
<path d="M11.3946 31.4333C9.66917 32.7317 8.54167 34.8158 8.54167 37.1562V37.5833H1.28125C0.580833 37.5833 0 37.0025 0 36.3021V35.4479C0 32.8512 2.10125 30.75 4.69792 30.75H8.96875C9.85708 30.75 10.6942 31.0062 11.3946 31.4333Z" fill="#3C64B1"/>
<path d="M34.1667 29.0417C36.0536 29.0417 37.5833 27.512 37.5833 25.625C37.5833 23.7381 36.0536 22.2084 34.1667 22.2084C32.2797 22.2084 30.75 23.7381 30.75 25.625C30.75 27.512 32.2797 29.0417 34.1667 29.0417Z" fill="#3C64B1"/>
<path d="M41.0001 35.4479V36.3021C41.0001 37.0025 40.4192 37.5833 39.7188 37.5833H32.4584V37.1562C32.4584 34.8158 31.3309 32.7317 29.6055 31.4333C30.3059 31.0062 31.143 30.75 32.0313 30.75H36.3021C38.8988 30.75 41.0001 32.8512 41.0001 35.4479Z" fill="#3C64B1"/>
<path d="M20.5 29.8958C23.3305 29.8958 25.625 27.6013 25.625 24.7708C25.625 21.9404 23.3305 19.6458 20.5 19.6458C17.6695 19.6458 15.375 21.9404 15.375 24.7708C15.375 27.6013 17.6695 29.8958 20.5 29.8958Z" fill="#3DACE3"/>
<path d="M25.1979 32.4584H15.802C13.2105 32.4584 11.1041 34.5647 11.1041 37.1563V39.7188C11.1041 40.426 11.6781 41 12.3854 41H28.6145C29.3218 41 29.8958 40.426 29.8958 39.7188V37.1563C29.8958 34.5647 27.7894 32.4584 25.1979 32.4584Z" fill="#3DACE3"/>
</g>
<defs>
<clipPath id="clip0">
<rect width="41" height="41" fill="white"/>
</clipPath>
</defs>
</svg>
