<svg width="46" height="46" viewBox="0 0 46 46" fill="none" xmlns="http://www.w3.org/2000/svg">
<g clip-path="url(#clip0)">
<path d="M27.7414 18.169L27.7362 18.1719C27.7516 18.1872 27.767 18.2017 27.7823 18.217C30.4235 20.8583 30.4261 25.1394 27.7823 27.7832C26.5584 29.0071 24.8672 29.7648 22.9992 29.7648C16.3219 29.7648 10.8228 35.1703 10.8228 41.9413V46.0001H16.2345V41.9413C16.2345 38.2053 19.2633 35.1766 22.9992 35.1766C26.3617 35.1766 29.4059 33.8137 31.6093 31.6102C35.9773 27.2423 36.3796 20.2999 32.5627 15.4624C32.3702 15.5944 30.6629 17.184 27.7414 18.169Z" fill="#4759A4"/>
<path d="M32.5624 34.4037C31.1239 35.6141 29.4912 36.5285 27.7388 37.115C28.9887 38.3426 29.7643 40.0508 29.7643 41.9413V46.0001H35.1761V41.9413C35.1761 39.0956 34.1992 36.4781 32.5631 34.4045L32.5624 34.4037Z" fill="#3DACE3"/>
<path d="M18.9405 40.5883L18.8052 41.9412V43.2941H27.1934V41.9412L27.0581 40.5883H18.9405Z" fill="#4759A4"/>
<path d="M29.7639 0V4.05882C29.7639 7.79475 26.7351 10.8235 22.9992 10.8235C16.2745 10.8235 10.8228 16.2748 10.8228 23C10.8228 25.8466 11.7996 28.4641 13.4357 30.5377C14.8017 29.4175 16.2846 28.496 18.2571 27.831L18.2622 27.8282C16.8891 26.4629 16.2346 24.7378 16.2346 23C16.2346 19.2654 19.2633 16.2353 22.9993 16.2353C29.7244 16.2353 35.1758 10.7817 35.1758 4.05882V0L29.7639 0Z" fill="#3DACE3"/>
<path d="M13.4365 11.5963C14.8749 10.3859 16.5076 9.47158 18.2601 8.88495C17.0101 7.65738 16.2345 5.94924 16.2345 4.05882V0H10.8228V4.05882C10.8228 6.90451 11.7996 9.522 13.4357 11.5956L13.4365 11.5963Z" fill="#4759A4"/>
<path d="M27.0581 5.41175L27.1934 4.05881V2.70587H18.8052V4.05881L18.9405 5.41175H27.0581Z" fill="#4759A4"/>
<path d="M26.8278 21.6471H19.0761C18.8954 22.537 18.895 23.4615 19.0761 24.353H26.8277C27.1348 23.4821 27.1353 22.5194 26.8278 21.6471Z" fill="#3DACE3"/>
</g>
<defs>
<clipPath id="clip0">
<rect width="46" height="46" fill="white"/>
</clipPath>
</defs>
</svg>
