<svg width="45" height="45" viewBox="0 0 45 45" fill="none" xmlns="http://www.w3.org/2000/svg">
<g clip-path="url(#clip0)">
<path d="M44.8224 31.1643L41.4096 17.5289C40.999 15.8825 38.9447 15.3986 37.8149 16.6087C35.6106 18.9729 31.5474 19.9898 29.8125 20.424C28.901 20.6521 27.347 21.0403 25.6337 21.2062C25.3813 21.2292 25.1399 21.3206 24.9356 21.4706C24.7312 21.6205 24.5716 21.8234 24.474 22.0573C23.7357 23.8632 22.2723 25.4442 20.0985 26.7849C19.8435 26.9415 19.6449 27.1751 19.5316 27.4521C19.4183 27.7291 19.3962 28.0349 19.4684 28.3253L21.6305 36.9671C23.238 43.3892 35.192 44.9326 35.7009 44.995C35.874 45.0163 36.0488 44.9724 36.1913 44.872C36.6099 44.5773 46.4291 37.5856 44.8224 31.1643ZM30.7441 24.6364C30.9234 24.5852 31.1157 24.6073 31.2787 24.6979C31.4418 24.7884 31.5621 24.94 31.6134 25.1193L33.0196 30.0412C33.0709 30.2205 33.0488 30.4128 32.9583 30.5759C32.8678 30.7389 32.7162 30.8593 32.5369 30.9106C32.3576 30.9619 32.1653 30.9398 32.0022 30.8493C31.8392 30.7588 31.7188 30.6072 31.6675 30.4279L30.2612 25.506C30.2358 25.4172 30.2282 25.3243 30.2387 25.2325C30.2492 25.1407 30.2777 25.0519 30.3225 24.9712C30.3673 24.8904 30.4277 24.8193 30.5 24.7619C30.5723 24.7044 30.6553 24.6618 30.7441 24.6364ZM25.86 31.4684C23.8948 31.2337 22.6257 29.1164 22.5729 29.0268C22.4946 28.8941 22.4621 28.7394 22.4804 28.5865C22.4987 28.4335 22.5667 28.2909 22.674 28.1804V28.1795C22.6753 28.1781 22.6768 28.1769 22.6784 28.176C22.6813 28.1731 22.6907 28.1631 22.6933 28.161C22.8107 28.0056 24.5815 26.3579 26.4436 26.5808C28.408 26.8154 29.6771 28.9318 29.7307 29.0224C29.809 29.155 29.8415 29.3097 29.8232 29.4626C29.805 29.6156 29.7369 29.7583 29.6297 29.8688C28.7335 30.7881 27.233 31.6252 25.86 31.4684ZM37.7595 37.2793C37.2458 37.4909 35.4423 36.1433 33.4418 36.9556C32.223 37.4469 31.1985 38.7279 31.1985 38.802C30.8542 39.1778 30.1444 39.0975 29.9891 38.5075C28.7175 33.4286 32.8664 32.7212 32.8869 32.7006C35.6 32.0281 37.4688 33.6503 38.1744 36.4588C38.2144 36.6226 38.1946 36.7953 38.1186 36.9457C38.0425 37.0962 37.9152 37.2145 37.7595 37.2793ZM38.5717 28.2551C37.4568 29.0327 35.7257 28.9642 34.5551 28.568C34.4121 28.5201 34.2884 28.4275 34.2022 28.3039C34.1159 28.1803 34.0717 28.0322 34.076 27.8815C34.0787 27.7778 34.1666 25.3274 35.7556 24.2191C37.3447 23.1108 39.6747 23.8737 39.7731 23.9062C39.9157 23.9546 40.039 24.0473 40.125 24.1709C40.2111 24.2944 40.2553 24.4422 40.2512 24.5927C40.2486 24.6973 40.1616 27.1468 38.5717 28.2551Z" fill="#4759A4"/>
<path d="M33.4629 16.8005L31.6185 15.8772L29.774 16.8005C29.6573 16.859 29.5267 16.8837 29.3967 16.8721C29.2667 16.8605 29.1425 16.8129 29.038 16.7347C28.9336 16.6566 28.8529 16.5508 28.8051 16.4294C28.7573 16.308 28.7442 16.1757 28.7673 16.0472L29.1115 14.1361L27.6465 12.7762C27.5492 12.6856 27.4795 12.5693 27.4456 12.4407C27.4117 12.3121 27.4149 12.1766 27.4549 12.0497C27.4949 11.9229 27.5699 11.81 27.6715 11.7241C27.773 11.6382 27.8967 11.5828 28.0284 11.5644L30.0821 11.2802L30.9942 9.52022C31.0536 9.40596 31.1432 9.31021 31.2533 9.24338C31.3634 9.17655 31.4897 9.1412 31.6185 9.1412C31.7472 9.1412 31.8736 9.17655 31.9836 9.24338C32.0937 9.31021 32.1833 9.40596 32.2428 9.52022L33.1549 11.2802L35.2085 11.5644C35.3402 11.5828 35.464 11.6382 35.5655 11.7241C35.667 11.81 35.7421 11.9229 35.782 12.0497C35.822 12.1766 35.8252 12.3121 35.7913 12.4407C35.7574 12.5693 35.6877 12.6856 35.5904 12.7762L34.1255 14.1361L34.4696 16.0472C34.4928 16.1757 34.4797 16.308 34.4319 16.4294C34.384 16.5508 34.3034 16.6566 34.1989 16.7347C34.0944 16.8129 33.9702 16.8605 33.8403 16.8721C33.7103 16.8837 33.5796 16.859 33.4629 16.8005Z" fill="#3DACE3"/>
<path d="M39.3105 11.0348L37.5158 8.48769L34.3827 8.54411C34.2512 8.54627 34.1217 8.51154 34.009 8.44385C33.8962 8.37616 33.8047 8.27823 33.7448 8.16116C33.6848 8.04409 33.6589 7.91257 33.67 7.78152C33.681 7.65047 33.7285 7.52513 33.8072 7.41973L35.6979 4.89401L34.7061 1.92911C34.6649 1.80521 34.659 1.67229 34.689 1.54522C34.719 1.41814 34.7838 1.30193 34.8761 1.20958C34.9684 1.11722 35.0846 1.05238 35.2117 1.02229C35.3387 0.992205 35.4717 0.998066 35.5956 1.03922L38.5605 2.03089L41.0866 0.140626C41.192 0.0619721 41.3174 0.0144315 41.4484 0.00339699C41.5795 -0.00763749 41.711 0.0182759 41.8281 0.0781975C41.9451 0.138119 42.0431 0.22965 42.1108 0.342408C42.1785 0.455166 42.2132 0.584637 42.211 0.716134L42.1546 3.84926L44.7018 5.6439C44.8087 5.71949 44.8924 5.82343 44.9435 5.94401C44.9946 6.0646 45.011 6.19706 44.9909 6.32647C44.9708 6.45588 44.915 6.57712 44.8298 6.67654C44.7445 6.77596 44.6332 6.84962 44.5084 6.88922L41.5039 7.83703L40.5559 10.8415C40.5163 10.9663 40.4426 11.0776 40.3432 11.1629C40.2438 11.2481 40.1225 11.3039 39.9931 11.324C39.8637 11.3441 39.7313 11.3277 39.6107 11.2766C39.4901 11.2255 39.3861 11.1418 39.3105 11.0348Z" fill="#3DACE3"/>
<path fill-rule="evenodd" clip-rule="evenodd" d="M7.73438 29.5312C7.54789 29.5312 7.36905 29.6053 7.23719 29.7372C7.10533 29.8691 7.03125 30.0479 7.03125 30.2344V34.4531C7.03125 34.6396 7.10533 34.8185 7.23719 34.9503C7.36905 35.0822 7.54789 35.1562 7.73438 35.1562C7.92086 35.1562 8.0997 35.0822 8.23156 34.9503C8.36342 34.8185 8.4375 34.6396 8.4375 34.4531V30.2344C8.4375 30.0479 8.36342 29.8691 8.23156 29.7372C8.0997 29.6053 7.92086 29.5312 7.73438 29.5312ZM7.73438 39.375C7.54789 39.375 7.36905 39.4491 7.23719 39.5809C7.10533 39.7128 7.03125 39.8916 7.03125 40.0781V44.2969C7.03125 44.4834 7.10533 44.6622 7.23719 44.7941C7.36905 44.9259 7.54789 45 7.73438 45C7.92086 45 8.0997 44.9259 8.23156 44.7941C8.36342 44.6622 8.4375 44.4834 8.4375 44.2969V40.0781C8.4375 39.8916 8.36342 39.7128 8.23156 39.5809C8.0997 39.4491 7.92086 39.375 7.73438 39.375ZM8.4375 37.2656C8.4375 37.6539 8.1227 37.9688 7.73438 37.9688C7.34605 37.9688 7.03125 37.6539 7.03125 37.2656C7.03125 36.8773 7.34605 36.5625 7.73438 36.5625C8.1227 36.5625 8.4375 36.8773 8.4375 37.2656ZM14.7656 36.5625H10.5469C10.3604 36.5625 10.1816 36.6366 10.0497 36.7684C9.91783 36.9003 9.84375 37.0791 9.84375 37.2656C9.84375 37.4521 9.91783 37.6309 10.0497 37.7628C10.1816 37.8947 10.3604 37.9688 10.5469 37.9688H14.7656C14.9521 37.9688 15.1309 37.8947 15.2628 37.7628C15.3947 37.6309 15.4688 37.4521 15.4688 37.2656C15.4688 37.0791 15.3947 36.9003 15.2628 36.7684C15.1309 36.6366 14.9521 36.5625 14.7656 36.5625ZM12.4503 33.5441L11.0441 34.9503C10.9122 35.0822 10.7334 35.1563 10.5469 35.1563C10.3604 35.1563 10.1816 35.0822 10.0497 34.9503C9.91783 34.8184 9.84375 34.6396 9.84375 34.4531C9.84375 34.2666 9.91783 34.0878 10.0497 33.9559L11.4559 32.5497C11.5212 32.4844 11.5987 32.4326 11.6841 32.3972C11.7694 32.3619 11.8608 32.3437 11.9531 32.3437C12.0455 32.3437 12.1369 32.3619 12.2222 32.3972C12.3075 32.4326 12.385 32.4844 12.4503 32.5497C12.5156 32.615 12.5674 32.6925 12.6028 32.7778C12.6381 32.8631 12.6563 32.9545 12.6563 33.0469C12.6563 33.1392 12.6381 33.2306 12.6028 33.3159C12.5674 33.4013 12.5156 33.4788 12.4503 33.5441ZM4.74611 35.1562C4.88501 35.1559 5.0207 35.1144 5.13609 35.0371C5.25148 34.9598 5.34141 34.85 5.39457 34.7217C5.44772 34.5934 5.46173 34.4522 5.43481 34.3159C5.40789 34.1797 5.34127 34.0544 5.24331 33.9559L3.83706 32.5497C3.77177 32.4844 3.69425 32.4326 3.60894 32.3972C3.52363 32.3619 3.4322 32.3437 3.33986 32.3437C3.24752 32.3437 3.15609 32.3619 3.07078 32.3972C2.98547 32.4326 2.90796 32.4844 2.84266 32.5497C2.77737 32.615 2.72558 32.6925 2.69024 32.7778C2.65491 32.8631 2.63672 32.9545 2.63672 33.0469C2.63672 33.1392 2.65491 33.2306 2.69024 33.3159C2.72558 33.4013 2.77737 33.4788 2.84266 33.5441C3.31342 33.9843 3.62736 34.3149 3.85851 34.5583L3.85853 34.5584C4.28005 35.0023 4.42625 35.1562 4.74611 35.1562ZM10.5469 39.375C10.7334 39.375 10.9122 39.4491 11.0441 39.5809L12.4503 40.9872C12.5822 41.119 12.6563 41.2979 12.6563 41.4844C12.6563 41.6708 12.5822 41.8497 12.4503 41.9816C12.3185 42.1134 12.1396 42.1875 11.9531 42.1875C11.7667 42.1875 11.5878 42.1134 11.4559 41.9816L10.0497 40.5753C9.91783 40.4434 9.84375 40.2646 9.84375 40.0781C9.84375 39.8916 9.91783 39.7128 10.0497 39.5809C10.1816 39.4491 10.3604 39.375 10.5469 39.375ZM4.24879 39.5809L2.84254 40.9872C2.74458 41.0856 2.67795 41.2109 2.65104 41.3472C2.62412 41.4834 2.63812 41.6246 2.69128 41.753C2.74444 41.8813 2.83437 41.991 2.94976 42.0683C3.06515 42.1457 3.20083 42.1871 3.33973 42.1875C3.66355 42.1875 3.8266 42.0155 4.25341 41.5654C4.48401 41.3221 4.79162 40.9977 5.24318 40.5753C5.37505 40.4434 5.44913 40.2646 5.44913 40.0781C5.44913 39.8916 5.37505 39.7128 5.24318 39.5809C5.11132 39.4491 4.93247 39.375 4.74598 39.375C4.5595 39.375 4.38065 39.4491 4.24879 39.5809ZM0.703125 36.5625H4.92188C5.10836 36.5625 5.2872 36.6366 5.41906 36.7684C5.55092 36.9003 5.625 37.0791 5.625 37.2656C5.625 37.4521 5.55092 37.6309 5.41906 37.7628C5.2872 37.8947 5.10836 37.9688 4.92188 37.9688H0.703125C0.516645 37.9688 0.337802 37.8947 0.205941 37.7628C0.074079 37.6309 0 37.4521 0 37.2656C0 37.0791 0.074079 36.9003 0.205941 36.7684C0.337802 36.6366 0.516645 36.5625 0.703125 36.5625Z" fill="#4759A4"/>
<path d="M24.4586 4.25752C23.2031 4.25752 22.011 5.81485 14.8513 4.22939C13.1049 3.84267 9.01624 2.9374 6.74778 0.634665C5.58701 -0.543069 3.54663 -0.00553016 3.17942 1.65156L0.141044 15.3757C-1.29069 21.8383 8.71565 28.5602 9.14192 28.8432C9.28746 28.9393 9.46341 28.9781 9.63587 28.9522C10.1421 28.8757 22.0504 27.0071 23.4813 20.5437L26.5205 6.82041C26.5892 6.51204 26.5876 6.19217 26.5158 5.88452C26.444 5.57686 26.3039 5.28931 26.1058 5.04316C25.9078 4.79701 25.6569 4.59859 25.3718 4.46259C25.0866 4.32659 24.7745 4.2565 24.4586 4.25752ZM11.9806 14.0013L13.3869 9.07938C13.4381 8.90007 13.5586 8.74849 13.7216 8.65797C13.8846 8.56744 14.077 8.5454 14.2563 8.59668C14.4356 8.64796 14.5872 8.76837 14.6777 8.93142C14.7682 9.09447 14.7903 9.28679 14.739 9.46609L13.3327 14.388C13.3073 14.4768 13.2647 14.5597 13.2073 14.632C13.1498 14.7043 13.0787 14.7646 12.998 14.8094C12.9173 14.8542 12.8285 14.8827 12.7367 14.8932C12.645 14.9037 12.5521 14.8961 12.4633 14.8707C12.3745 14.8453 12.2916 14.8026 12.2193 14.7452C12.147 14.6878 12.0867 14.6167 12.0419 14.5359C11.9971 14.4552 11.9686 14.3664 11.9581 14.2747C11.9476 14.1829 11.9552 14.09 11.9806 14.0013ZM4.5303 8.69248C4.51977 8.53872 4.55995 8.38575 4.64467 8.25701C4.7294 8.12826 4.85399 8.03085 4.99937 7.97969C6.2345 7.5463 7.9489 7.48504 9.08629 8.23281C10.2413 8.99298 10.8398 10.6092 10.9364 11.8855C10.9466 12.0391 10.9063 12.1918 10.8217 12.3204C10.737 12.4489 10.6126 12.5462 10.4675 12.5975C9.25056 13.0241 7.52148 13.094 6.38101 12.3448C5.23967 11.5936 4.62971 9.99282 4.5303 8.69248ZM15.778 19.5581C15.533 20.6473 14.8662 21.595 13.9238 22.1935C12.9813 22.792 11.8401 22.9925 10.75 22.7512C9.66003 22.5098 8.71013 21.8462 8.10846 20.9058C7.50679 19.9654 7.30242 18.8248 7.54012 17.734C7.85573 16.5461 7.75105 16.1762 8.15263 15.92C8.59445 15.6381 8.40021 15.8387 15.5477 17.3465C15.7297 17.3869 15.8883 17.4979 15.9885 17.6551C16.2446 18.0568 15.9937 18.3467 15.778 19.5581ZM22.328 12.6236C22.279 12.7151 21.1063 14.8677 19.1891 15.1497C17.8488 15.3469 16.3379 14.5202 15.4557 13.6346C15.3493 13.5278 15.2801 13.3897 15.2581 13.2406C15.2362 13.0915 15.2627 12.9393 15.3338 12.8065C15.3829 12.715 16.5555 10.5624 18.4727 10.2802C20.39 9.9981 22.1329 11.7216 22.2062 11.7955C22.3125 11.9022 22.3817 12.0403 22.4036 12.1893C22.4255 12.3383 22.399 12.4905 22.328 12.6233V12.6236Z" fill="#3DACE3"/>
</g>
<defs>
<clipPath id="clip0">
<rect width="45" height="45" fill="white"/>
</clipPath>
</defs>
</svg>
