<svg width="44" height="44" viewBox="0 0 44 44" fill="none" xmlns="http://www.w3.org/2000/svg">
<path fill-rule="evenodd" clip-rule="evenodd" d="M43.4007 2.08353C43.9343 1.77375 44.1157 1.09005 43.8059 0.556454C43.4962 0.0228563 42.8125 -0.158581 42.2789 0.151202L29.831 7.37785C29.2013 6.74865 28.3316 6.35953 27.3711 6.35953C25.4489 6.35953 23.8906 7.91778 23.8906 9.83999C23.8906 11.7622 25.4489 13.3204 27.3711 13.3204C29.2933 13.3204 30.8515 11.7622 30.8515 9.83999C30.8515 9.68614 30.8415 9.53462 30.8222 9.38605L43.4007 2.08353ZM0.556454 2.08355C0.0228561 1.77376 -0.158581 1.09007 0.151202 0.556469C0.460985 0.0228705 1.14468 -0.158567 1.67828 0.151216L14.099 7.36213C14.7274 6.74218 15.5906 6.35955 16.5431 6.35955C18.4653 6.35955 20.0236 7.9178 20.0236 9.84C20.0236 11.7622 18.4653 13.3205 16.5431 13.3205C14.6209 13.3205 13.0626 11.7622 13.0626 9.84C13.0626 9.67815 13.0737 9.51889 13.0951 9.36291L0.556454 2.08355ZM4.46893 17.5314C3.23492 17.5314 2.23456 18.5317 2.23456 19.7657C2.23456 20.9997 3.23492 22.0001 4.46893 22.0001H39.3594C40.5934 22.0001 41.5938 20.9997 41.5938 19.7657C41.5938 18.5317 40.5934 17.5314 39.3594 17.5314H4.46893Z" fill="#3DACE3"/>
<path d="M4.34033 24.2345H9.84031L4.34033 41.9375V24.2345Z" fill="#4759A4"/>
<path d="M6.10204 44L11.688 25.6524L15.1254 44H6.10204Z" fill="#4759A4"/>
<path d="M19.9809 24.2345H13.7504L16.6293 39.5742L19.9809 24.2345Z" fill="#4759A4"/>
<path d="M17.7895 44L21.9574 26.0391L26.0824 44H17.7895Z" fill="#4759A4"/>
<path d="M30.1215 24.2345H23.7621L27.3285 39.5742L30.1215 24.2345Z" fill="#4759A4"/>
<path d="M28.8324 44L32.141 25.6524L37.8128 44H28.8324Z" fill="#4759A4"/>
<path d="M39.4886 24.2345H34.0746L39.4886 41.9375V24.2345Z" fill="#4759A4"/>
</svg>
