<svg width="39" height="39" viewBox="0 0 39 39" fill="none" xmlns="http://www.w3.org/2000/svg">
<g clip-path="url(#clip0)">
<path d="M3.44141 27.5294H10.5919L4.75196 37.2628L6.71909 38.4432L13.2673 27.5294H18.3532V39H20.6473V27.5294H25.7331L32.2814 38.4432L34.2485 37.2628L28.4085 27.5294H35.5591V25.2353H3.44141V27.5294Z" fill="#4759A4"/>
<path d="M1.14746 0V21.319L13.7651 8.70128L19.1199 14.0561L27.7732 7.60209L37.8533 21.4202V0H1.14746ZM9.17687 8.02941H6.88276V4.58824H9.17687V8.02941Z" fill="#4759A4"/>
<path d="M13.765 11.9457L2.76953 22.9411H24.7605L13.765 11.9457Z" fill="#3DACE3"/>
<path d="M20.7593 15.6954L28.005 22.9411H36.1233L27.2863 10.8272L20.7593 15.6954Z" fill="#3DACE3"/>
</g>
<defs>
<clipPath id="clip0">
<rect width="39" height="39" fill="white"/>
</clipPath>
</defs>
</svg>
