<svg width="42" height="42" viewBox="0 0 42 42" fill="none" xmlns="http://www.w3.org/2000/svg">
<g clip-path="url(#clip0)">
<path d="M12.4519 14.9065C12.7568 18.6996 14.405 22.1062 16.8983 24.6913H16.0779C15.3978 24.6913 14.8475 25.2417 14.8475 25.9218C14.8475 26.6019 15.3978 27.1523 16.0779 27.1523H19.9898C22.0924 28.4604 24.4907 29.3387 27.0933 29.5478C26.5013 36.4764 20.6988 41.9999 13.617 41.9999C6.14182 41.9999 -0.000188828 35.8579 -0.000188828 28.3828C-0.000188828 21.3008 5.52338 15.4984 12.4519 14.9065ZM11.1561 24.6913H8.69512C8.015 24.6913 7.46465 25.2417 7.46465 25.9218C7.46465 26.6019 8.015 27.1523 8.69512 27.1523H11.1561C11.8362 27.1523 12.3865 26.6019 12.3865 25.9218C12.3865 25.2417 11.8362 24.6913 11.1561 24.6913ZM7.29641 34.2203C7.80181 34.6741 8.04238 34.8001 8.69512 35.2978C10.8172 36.9159 13.617 37.5318 17.4254 35.7446C18.3774 35.2978 19.4292 34.6768 19.9376 34.2203C20.4435 33.7673 20.4856 32.9898 20.0314 32.4827C18.7658 31.0697 16.2123 34.4042 13.4041 34.4042C10.2764 34.4042 8.28304 31.2765 7.20273 32.4827C6.74852 32.9898 6.79052 33.7673 7.29641 34.2203Z" fill="#3C64B1"/>
<path d="M28.3828 27.1523C20.9195 27.1523 14.8477 21.0805 14.8477 13.6172C14.8477 6.1539 20.9195 0 28.3828 0C35.8461 0 42 6.1539 42 13.6172C42 21.0805 35.8461 27.1523 28.3828 27.1523ZM25.9219 7.46484H23.4609C22.7808 7.46484 22.2305 8.01519 22.2305 8.69531C22.2305 9.37543 22.7808 9.92578 23.4609 9.92578H25.9219C26.602 9.92578 27.1523 9.37543 27.1523 8.69531C27.1523 8.01519 26.602 7.46484 25.9219 7.46484ZM33.3047 7.46484H30.8438C30.1636 7.46484 29.6133 8.01519 29.6133 8.69531C29.6133 9.37543 30.1636 9.92578 30.8438 9.92578H33.3047C33.9848 9.92578 34.5352 9.37543 34.5352 8.69531C34.5352 8.01519 33.9848 7.46484 33.3047 7.46484ZM35.7656 12.3867H21C20.3199 12.3867 19.7695 12.9371 19.7695 13.6172C19.7695 18.3661 23.6339 22.2305 28.3828 22.2305C33.1317 22.2305 36.9961 18.3661 36.9961 13.6172C36.9961 12.9371 36.4457 12.3867 35.7656 12.3867Z" fill="#6BBFE9"/>
</g>
<defs>
<clipPath id="clip0">
<rect width="42" height="42" fill="white" transform="matrix(-1 0 0 1 42 0)"/>
</clipPath>
</defs>
</svg>
