<svg width="39" height="44" viewBox="0 0 39 44" fill="none" xmlns="http://www.w3.org/2000/svg">
<path d="M15.0279 17.0142H18.2736V11.8465L16.2624 9.82855C15.8034 9.36797 15.8045 8.62255 16.2651 8.16354C16.7256 7.70445 17.4711 7.7057 17.9301 8.16629L19.4445 9.6857L20.9653 8.16495C21.4251 7.70516 22.1706 7.70516 22.6304 8.16495C23.0902 8.62475 23.0902 9.37017 22.6304 9.82996L20.6283 11.832V17.0142H23.8662C26.2435 15.5097 27.6885 12.9163 27.6885 10.057C27.6885 5.51261 23.9914 1.81549 19.447 1.81549C14.9027 1.81549 11.2056 5.51261 11.2056 10.057C11.2056 12.9161 12.6507 15.5097 15.0279 17.0142Z" fill="#3C64B1"/>
<path d="M15.1301 22.4583C15.1301 23.1085 15.6573 23.6357 16.3075 23.6357H22.5867C23.2369 23.6357 23.764 23.1085 23.764 22.4583V19.3687H15.1301V22.4583Z" fill="#3C64B1"/>
<path d="M30.1218 10.0571C30.1218 10.7073 30.649 11.2344 31.2992 11.2344H33.2614C33.9116 11.2344 34.4387 10.7073 34.4387 10.0571C34.4387 9.40684 33.9116 8.8797 33.2614 8.8797H31.2992C30.649 8.8797 30.1218 9.40684 30.1218 10.0571Z" fill="#3C64B1"/>
<path d="M29.2726 19.8384C29.7739 20.2591 30.5159 20.1882 30.9312 19.6933C31.3492 19.1952 31.2842 18.4525 30.7861 18.0347L29.283 16.7735C28.7848 16.3555 28.0423 16.4204 27.6243 16.9186C27.2064 17.4167 27.2714 18.1594 27.7695 18.5773L29.2726 19.8384Z" fill="#3C64B1"/>
<path d="M9.6109 16.7734L8.10782 18.0346C7.60972 18.4526 7.54481 19.1953 7.96269 19.6934C8.37869 20.189 9.12089 20.2584 9.62142 19.8385L11.1245 18.5773C11.6226 18.1593 11.6876 17.4166 11.2696 16.9185C10.8516 16.4204 10.1091 16.3554 9.6109 16.7734Z" fill="#3C64B1"/>
<path d="M5.63292 11.2344H7.59509C8.24531 11.2344 8.77245 10.7073 8.77245 10.0571C8.77245 9.40684 8.24531 8.8797 7.59509 8.8797H5.63292C4.98271 8.8797 4.45557 9.40684 4.45557 10.0571C4.45557 10.7073 4.98271 11.2344 5.63292 11.2344Z" fill="#3C64B1"/>
<path d="M8.10778 2.07934L9.61087 3.34059C10.107 3.75691 10.8499 3.69553 11.2696 3.19546C11.6876 2.69737 11.6226 1.95469 11.1245 1.53673L9.62146 0.275553C9.12336 -0.142407 8.38069 -0.0774952 7.96273 0.420682C7.54477 0.91878 7.60976 1.66138 8.10778 2.07934Z" fill="#3C64B1"/>
<path d="M29.2831 3.34055L30.7862 2.07929C31.2843 1.66133 31.3492 0.918661 30.9313 0.420563C30.5133 -0.0775358 29.7707 -0.142447 29.2726 0.275434L27.7695 1.53669C27.2714 1.95465 27.2064 2.69733 27.6243 3.19542C28.0403 3.69117 28.7825 3.76048 29.2831 3.34055Z" fill="#3C64B1"/>
<path fill-rule="evenodd" clip-rule="evenodd" d="M9.11585 31.4657C9.11585 33.3536 7.58536 34.8841 5.69741 34.8841C3.80945 34.8841 2.27896 33.3536 2.27896 31.4657C2.27896 29.5777 3.80945 28.0472 5.69741 28.0472C7.58536 28.0472 9.11585 29.5777 9.11585 31.4657ZM5.69741 34.8841C8.83881 34.8841 11.3948 37.4401 11.3948 40.5815V44H0V40.5815C0 37.4401 2.55601 34.8841 5.69741 34.8841ZM19.4444 34.8841C16.3041 34.8854 13.7494 37.4409 13.7494 40.5815V44H25.1442V40.5815C25.1442 37.4409 22.5895 34.8854 19.4491 34.8841H22.8652V31.4657C22.8652 29.5807 21.3318 28.0472 19.4468 28.0472C17.5618 28.0472 16.0283 29.5807 16.0283 31.4657V34.8841H19.4444ZM33.197 34.8841C35.0849 34.8841 36.6154 33.3536 36.6154 31.4657C36.6154 29.5777 35.0849 28.0472 33.197 28.0472C31.309 28.0472 29.7785 29.5777 29.7785 31.4657C29.7785 33.3536 31.309 34.8841 33.197 34.8841ZM33.197 34.8841C36.3384 34.8841 38.8944 37.4401 38.8944 40.5815V44H27.4996V40.5815C27.4996 37.4401 30.0556 34.8841 33.197 34.8841Z" fill="#3DACE3"/>
</svg>
