<svg width="38" height="38" viewBox="0 0 38 38" fill="none" xmlns="http://www.w3.org/2000/svg">
<g clip-path="url(#clip0)">
<path d="M18.9998 11.875C18.7149 11.875 18.43 11.7663 18.2126 11.5489L13.3953 6.73157C11.8578 5.19412 11.8578 2.69243 13.3953 1.15492C14.14 0.410133 15.1303 0 16.1836 0C17.2369 0 18.2271 0.410133 18.9719 1.15499C18.9812 1.16434 18.9905 1.1737 18.9998 1.18312C19.0091 1.1737 19.0183 1.16434 19.0276 1.15499C19.7725 0.410133 20.7627 0 21.816 0C22.8693 0 23.8595 0.410133 24.6043 1.15499C26.1418 2.69251 26.1418 5.19412 24.6043 6.73164L19.787 11.549C19.5697 11.7663 19.2847 11.875 18.9998 11.875Z" fill="#3DACE3"/>
<path d="M31.242 20.0391C30.9571 20.0391 30.6721 19.9304 30.4548 19.7129L25.6375 14.8956C24.1 13.3582 24.1 10.8565 25.6375 9.31898C26.3823 8.5742 27.3725 8.16406 28.4258 8.16406C29.4791 8.16406 30.4693 8.5742 31.2141 9.31905C31.2234 9.32841 31.2327 9.33776 31.242 9.34718C31.2513 9.33776 31.2605 9.32841 31.2698 9.31905C32.0148 8.5742 33.0049 8.16406 34.0583 8.16406C35.1115 8.16406 36.1018 8.5742 36.8465 9.31905C38.3841 10.8566 38.3841 13.3582 36.8465 14.8957L32.0292 19.713C31.8118 19.9304 31.5269 20.0391 31.242 20.0391Z" fill="#3DACE3"/>
<path d="M6.75762 20.0391C6.47269 20.0391 6.18777 19.9304 5.97045 19.7129L1.15314 14.8956C-0.384379 13.3582 -0.384379 10.8565 1.15314 9.31898C2.69073 7.78161 5.19235 7.78154 6.72979 9.31898C6.73914 9.32833 6.74842 9.33768 6.75769 9.34711C6.76697 9.33768 6.77617 9.32833 6.78552 9.31898C7.53031 8.5742 8.52046 8.16406 9.57385 8.16406C10.6271 8.16406 11.6173 8.5742 12.3621 9.31905C13.8996 10.8566 13.8996 13.3582 12.3621 14.8957L7.54478 19.713C7.3274 19.9304 7.04247 20.0391 6.75762 20.0391Z" fill="#3DACE3"/>
<path d="M6.19727 29.0938C4.35568 29.0938 2.85742 27.5955 2.85742 25.7539C2.85742 23.9123 4.35568 22.4141 6.19727 22.4141C8.03886 22.4141 9.53711 23.9123 9.53711 25.7539C9.53711 27.5955 8.03886 29.0938 6.19727 29.0938Z" fill="#4759A4"/>
<path d="M2.77467 30.1389C1.14542 31.2392 0.0742188 33.1029 0.0742188 35.2168V36.8867C0.0742188 37.5015 0.572672 38 1.1875 38H10.0938V35.0312C10.0938 33.7029 10.3866 32.4417 10.9103 31.3083C10.5382 30.8601 10.1032 30.4662 9.6192 30.1394C8.67439 30.8782 7.48682 31.3203 6.19727 31.3203C4.90734 31.3203 3.71955 30.8781 2.77467 30.1389Z" fill="#4759A4"/>
<path d="M35.2255 30.1389C34.2806 30.8781 33.0928 31.3203 31.8029 31.3203C30.5133 31.3203 29.3258 30.8782 28.381 30.1394C27.897 30.4662 27.462 30.8601 27.0898 31.3083C27.6135 32.4417 27.9064 33.7029 27.9064 35.0312V38H36.8127C37.4275 38 37.9259 37.5015 37.9259 36.8867V35.2168C37.9259 33.1029 36.8547 31.2392 35.2255 30.1389Z" fill="#4759A4"/>
<path d="M31.8027 29.0938C29.9611 29.0938 28.4629 27.5955 28.4629 25.7539C28.4629 23.9123 29.9611 22.4141 31.8027 22.4141C33.6443 22.4141 35.1426 23.9123 35.1426 25.7539C35.1426 27.5955 33.6443 29.0938 31.8027 29.0938Z" fill="#4759A4"/>
<path d="M22.6306 29.4239C21.6031 30.1498 20.351 30.5781 19 30.5781C17.649 30.5781 16.3969 30.1498 15.3694 29.4239C13.5344 30.6144 12.3203 32.681 12.3203 35.0313V38H25.6797V35.0313C25.6797 32.681 24.4656 30.6144 22.6306 29.4239Z" fill="#4759A4"/>
<path d="M19 28.3516C16.7492 28.3516 14.918 26.5204 14.918 24.2695C14.918 22.0187 16.7492 20.1875 19 20.1875C21.2508 20.1875 23.082 22.0187 23.082 24.2695C23.082 26.5204 21.2508 28.3516 19 28.3516Z" fill="#4759A4"/>
</g>
<defs>
<clipPath id="clip0">
<rect width="38" height="38" fill="white"/>
</clipPath>
</defs>
</svg>
