<svg width="1440" height="1069" viewBox="0 0 1440 1069" fill="none" xmlns="http://www.w3.org/2000/svg">
<rect x="-34.2469" y="-169" width="726.555" height="647.553" rx="55" transform="rotate(22.4948 -34.2469 -169)" fill="#C9E8F7" fill-opacity="0.43"/>
<rect x="1039.16" y="-771" width="726.555" height="647.553" rx="55" transform="rotate(57.3395 1039.16 -771)" fill="#ECF9FF"/>
<rect x="1568.16" y="-281" width="45.3577" height="647.553" rx="22.6788" transform="rotate(57.3395 1568.16 -281)" fill="#D9F0FB"/>
<rect x="1456.16" y="361" width="726.555" height="647.553" rx="55" transform="rotate(57.3395 1456.16 361)" fill="#ECF9FF"/>
<path opacity="0.19" fill-rule="evenodd" clip-rule="evenodd" d="M584.5 58C585.881 58 587 56.8807 587 55.5C587 54.1193 585.881 53 584.5 53C583.119 53 582 54.1193 582 55.5C582 56.8807 583.119 58 584.5 58ZM908.5 58C909.881 58 911 56.8807 911 55.5C911 54.1193 909.881 53 908.5 53C907.119 53 906 54.1193 906 55.5C906 56.8807 907.119 58 908.5 58ZM611.923 55.5C611.923 56.8807 610.804 58 609.423 58C608.042 58 606.923 56.8807 606.923 55.5C606.923 54.1193 608.042 53 609.423 53C610.804 53 611.923 54.1193 611.923 55.5ZM634.346 58C635.727 58 636.846 56.8807 636.846 55.5C636.846 54.1193 635.727 53 634.346 53C632.965 53 631.846 54.1193 631.846 55.5C631.846 56.8807 632.965 58 634.346 58ZM661.769 55.5C661.769 56.8807 660.65 58 659.269 58C657.889 58 656.769 56.8807 656.769 55.5C656.769 54.1193 657.889 53 659.269 53C660.65 53 661.769 54.1193 661.769 55.5ZM684.192 58C685.573 58 686.692 56.8807 686.692 55.5C686.692 54.1193 685.573 53 684.192 53C682.812 53 681.692 54.1193 681.692 55.5C681.692 56.8807 682.812 58 684.192 58ZM711.615 55.5C711.615 56.8807 710.496 58 709.115 58C707.735 58 706.615 56.8807 706.615 55.5C706.615 54.1193 707.735 53 709.115 53C710.496 53 711.615 54.1193 711.615 55.5ZM734.038 58C735.419 58 736.538 56.8807 736.538 55.5C736.538 54.1193 735.419 53 734.038 53C732.658 53 731.538 54.1193 731.538 55.5C731.538 56.8807 732.658 58 734.038 58ZM761.462 55.5C761.462 56.8807 760.342 58 758.962 58C757.581 58 756.462 56.8807 756.462 55.5C756.462 54.1193 757.581 53 758.962 53C760.342 53 761.462 54.1193 761.462 55.5ZM783.885 58C785.265 58 786.385 56.8807 786.385 55.5C786.385 54.1193 785.265 53 783.885 53C782.504 53 781.385 54.1193 781.385 55.5C781.385 56.8807 782.504 58 783.885 58ZM811.308 55.5C811.308 56.8807 810.188 58 808.808 58C807.427 58 806.308 56.8807 806.308 55.5C806.308 54.1193 807.427 53 808.808 53C810.188 53 811.308 54.1193 811.308 55.5ZM833.731 58C835.111 58 836.231 56.8807 836.231 55.5C836.231 54.1193 835.111 53 833.731 53C832.35 53 831.231 54.1193 831.231 55.5C831.231 56.8807 832.35 58 833.731 58ZM861.154 55.5C861.154 56.8807 860.035 58 858.654 58C857.273 58 856.154 56.8807 856.154 55.5C856.154 54.1193 857.273 53 858.654 53C860.035 53 861.154 54.1193 861.154 55.5ZM883.577 58C884.958 58 886.077 56.8807 886.077 55.5C886.077 54.1193 884.958 53 883.577 53C882.196 53 881.077 54.1193 881.077 55.5C881.077 56.8807 882.196 58 883.577 58ZM587 81.2778C587 82.6585 585.881 83.7778 584.5 83.7778C583.119 83.7778 582 82.6585 582 81.2778C582 79.8971 583.119 78.7778 584.5 78.7778C585.881 78.7778 587 79.8971 587 81.2778ZM911 81.2778C911 82.6585 909.881 83.7778 908.5 83.7778C907.119 83.7778 906 82.6585 906 81.2778C906 79.8971 907.119 78.7778 908.5 78.7778C909.881 78.7778 911 79.8971 911 81.2778ZM611.923 81.2778C611.923 82.6585 610.804 83.7778 609.423 83.7778C608.042 83.7778 606.923 82.6585 606.923 81.2778C606.923 79.8971 608.042 78.7778 609.423 78.7778C610.804 78.7778 611.923 79.8971 611.923 81.2778ZM636.846 81.2778C636.846 82.6585 635.727 83.7778 634.346 83.7778C632.965 83.7778 631.846 82.6585 631.846 81.2778C631.846 79.8971 632.965 78.7778 634.346 78.7778C635.727 78.7778 636.846 79.8971 636.846 81.2778ZM661.769 81.2778C661.769 82.6585 660.65 83.7778 659.269 83.7778C657.889 83.7778 656.769 82.6585 656.769 81.2778C656.769 79.8971 657.889 78.7778 659.269 78.7778C660.65 78.7778 661.769 79.8971 661.769 81.2778ZM686.692 81.2778C686.692 82.6585 685.573 83.7778 684.192 83.7778C682.812 83.7778 681.692 82.6585 681.692 81.2778C681.692 79.8971 682.812 78.7778 684.192 78.7778C685.573 78.7778 686.692 79.8971 686.692 81.2778ZM711.615 81.2778C711.615 82.6585 710.496 83.7778 709.115 83.7778C707.735 83.7778 706.615 82.6585 706.615 81.2778C706.615 79.8971 707.735 78.7778 709.115 78.7778C710.496 78.7778 711.615 79.8971 711.615 81.2778ZM736.538 81.2778C736.538 82.6585 735.419 83.7778 734.038 83.7778C732.658 83.7778 731.538 82.6585 731.538 81.2778C731.538 79.8971 732.658 78.7778 734.038 78.7778C735.419 78.7778 736.538 79.8971 736.538 81.2778ZM761.462 81.2778C761.462 82.6585 760.342 83.7778 758.962 83.7778C757.581 83.7778 756.462 82.6585 756.462 81.2778C756.462 79.8971 757.581 78.7778 758.962 78.7778C760.342 78.7778 761.462 79.8971 761.462 81.2778ZM786.385 81.2778C786.385 82.6585 785.265 83.7778 783.885 83.7778C782.504 83.7778 781.385 82.6585 781.385 81.2778C781.385 79.8971 782.504 78.7778 783.885 78.7778C785.265 78.7778 786.385 79.8971 786.385 81.2778ZM811.308 81.2778C811.308 82.6585 810.188 83.7778 808.808 83.7778C807.427 83.7778 806.308 82.6585 806.308 81.2778C806.308 79.8971 807.427 78.7778 808.808 78.7778C810.188 78.7778 811.308 79.8971 811.308 81.2778ZM836.231 81.2778C836.231 82.6585 835.111 83.7778 833.731 83.7778C832.35 83.7778 831.231 82.6585 831.231 81.2778C831.231 79.8971 832.35 78.7778 833.731 78.7778C835.111 78.7778 836.231 79.8971 836.231 81.2778ZM861.154 81.2778C861.154 82.6585 860.035 83.7778 858.654 83.7778C857.273 83.7778 856.154 82.6585 856.154 81.2778C856.154 79.8971 857.273 78.7778 858.654 78.7778C860.035 78.7778 861.154 79.8971 861.154 81.2778ZM886.077 81.2778C886.077 82.6585 884.958 83.7778 883.577 83.7778C882.196 83.7778 881.077 82.6585 881.077 81.2778C881.077 79.8971 882.196 78.7778 883.577 78.7778C884.958 78.7778 886.077 79.8971 886.077 81.2778ZM584.5 109.556C585.881 109.556 587 108.436 587 107.056C587 105.675 585.881 104.556 584.5 104.556C583.119 104.556 582 105.675 582 107.056C582 108.436 583.119 109.556 584.5 109.556ZM908.5 109.556C909.881 109.556 911 108.436 911 107.056C911 105.675 909.881 104.556 908.5 104.556C907.119 104.556 906 105.675 906 107.056C906 108.436 907.119 109.556 908.5 109.556ZM609.423 109.556C610.804 109.556 611.923 108.436 611.923 107.056C611.923 105.675 610.804 104.556 609.423 104.556C608.042 104.556 606.923 105.675 606.923 107.056C606.923 108.436 608.042 109.556 609.423 109.556ZM634.346 109.556C635.727 109.556 636.846 108.436 636.846 107.056C636.846 105.675 635.727 104.556 634.346 104.556C632.965 104.556 631.846 105.675 631.846 107.056C631.846 108.436 632.965 109.556 634.346 109.556ZM659.269 109.556C660.65 109.556 661.769 108.436 661.769 107.056C661.769 105.675 660.65 104.556 659.269 104.556C657.889 104.556 656.769 105.675 656.769 107.056C656.769 108.436 657.889 109.556 659.269 109.556ZM684.192 109.556C685.573 109.556 686.692 108.436 686.692 107.056C686.692 105.675 685.573 104.556 684.192 104.556C682.812 104.556 681.692 105.675 681.692 107.056C681.692 108.436 682.812 109.556 684.192 109.556ZM709.115 109.556C710.496 109.556 711.615 108.436 711.615 107.056C711.615 105.675 710.496 104.556 709.115 104.556C707.735 104.556 706.615 105.675 706.615 107.056C706.615 108.436 707.735 109.556 709.115 109.556ZM734.038 109.556C735.419 109.556 736.538 108.436 736.538 107.056C736.538 105.675 735.419 104.556 734.038 104.556C732.658 104.556 731.538 105.675 731.538 107.056C731.538 108.436 732.658 109.556 734.038 109.556ZM758.962 109.556C760.342 109.556 761.462 108.436 761.462 107.056C761.462 105.675 760.342 104.556 758.962 104.556C757.581 104.556 756.462 105.675 756.462 107.056C756.462 108.436 757.581 109.556 758.962 109.556ZM783.885 109.556C785.265 109.556 786.385 108.436 786.385 107.056C786.385 105.675 785.265 104.556 783.885 104.556C782.504 104.556 781.385 105.675 781.385 107.056C781.385 108.436 782.504 109.556 783.885 109.556ZM808.808 109.556C810.188 109.556 811.308 108.436 811.308 107.056C811.308 105.675 810.188 104.556 808.808 104.556C807.427 104.556 806.308 105.675 806.308 107.056C806.308 108.436 807.427 109.556 808.808 109.556ZM833.731 109.556C835.111 109.556 836.231 108.436 836.231 107.056C836.231 105.675 835.111 104.556 833.731 104.556C832.35 104.556 831.231 105.675 831.231 107.056C831.231 108.436 832.35 109.556 833.731 109.556ZM858.654 109.556C860.035 109.556 861.154 108.436 861.154 107.056C861.154 105.675 860.035 104.556 858.654 104.556C857.273 104.556 856.154 105.675 856.154 107.056C856.154 108.436 857.273 109.556 858.654 109.556ZM883.577 109.556C884.958 109.556 886.077 108.436 886.077 107.056C886.077 105.675 884.958 104.556 883.577 104.556C882.196 104.556 881.077 105.675 881.077 107.056C881.077 108.436 882.196 109.556 883.577 109.556ZM587 132.833C587 134.214 585.881 135.333 584.5 135.333C583.119 135.333 582 134.214 582 132.833C582 131.453 583.119 130.333 584.5 130.333C585.881 130.333 587 131.453 587 132.833ZM911 132.833C911 134.214 909.881 135.333 908.5 135.333C907.119 135.333 906 134.214 906 132.833C906 131.453 907.119 130.333 908.5 130.333C909.881 130.333 911 131.453 911 132.833ZM611.923 132.833C611.923 134.214 610.804 135.333 609.423 135.333C608.042 135.333 606.923 134.214 606.923 132.833C606.923 131.453 608.042 130.333 609.423 130.333C610.804 130.333 611.923 131.453 611.923 132.833ZM636.846 132.833C636.846 134.214 635.727 135.333 634.346 135.333C632.965 135.333 631.846 134.214 631.846 132.833C631.846 131.453 632.965 130.333 634.346 130.333C635.727 130.333 636.846 131.453 636.846 132.833ZM661.769 132.833C661.769 134.214 660.65 135.333 659.269 135.333C657.889 135.333 656.769 134.214 656.769 132.833C656.769 131.453 657.889 130.333 659.269 130.333C660.65 130.333 661.769 131.453 661.769 132.833ZM686.692 132.833C686.692 134.214 685.573 135.333 684.192 135.333C682.812 135.333 681.692 134.214 681.692 132.833C681.692 131.453 682.812 130.333 684.192 130.333C685.573 130.333 686.692 131.453 686.692 132.833ZM711.615 132.833C711.615 134.214 710.496 135.333 709.115 135.333C707.735 135.333 706.615 134.214 706.615 132.833C706.615 131.453 707.735 130.333 709.115 130.333C710.496 130.333 711.615 131.453 711.615 132.833ZM736.538 132.833C736.538 134.214 735.419 135.333 734.038 135.333C732.658 135.333 731.538 134.214 731.538 132.833C731.538 131.453 732.658 130.333 734.038 130.333C735.419 130.333 736.538 131.453 736.538 132.833ZM761.462 132.833C761.462 134.214 760.342 135.333 758.962 135.333C757.581 135.333 756.462 134.214 756.462 132.833C756.462 131.453 757.581 130.333 758.962 130.333C760.342 130.333 761.462 131.453 761.462 132.833ZM786.385 132.833C786.385 134.214 785.265 135.333 783.885 135.333C782.504 135.333 781.385 134.214 781.385 132.833C781.385 131.453 782.504 130.333 783.885 130.333C785.265 130.333 786.385 131.453 786.385 132.833ZM811.308 132.833C811.308 134.214 810.188 135.333 808.808 135.333C807.427 135.333 806.308 134.214 806.308 132.833C806.308 131.453 807.427 130.333 808.808 130.333C810.188 130.333 811.308 131.453 811.308 132.833ZM836.231 132.833C836.231 134.214 835.111 135.333 833.731 135.333C832.35 135.333 831.231 134.214 831.231 132.833C831.231 131.453 832.35 130.333 833.731 130.333C835.111 130.333 836.231 131.453 836.231 132.833ZM861.154 132.833C861.154 134.214 860.035 135.333 858.654 135.333C857.273 135.333 856.154 134.214 856.154 132.833C856.154 131.453 857.273 130.333 858.654 130.333C860.035 130.333 861.154 131.453 861.154 132.833ZM886.077 132.833C886.077 134.214 884.958 135.333 883.577 135.333C882.196 135.333 881.077 134.214 881.077 132.833C881.077 131.453 882.196 130.333 883.577 130.333C884.958 130.333 886.077 131.453 886.077 132.833ZM584.5 161.111C585.881 161.111 587 159.992 587 158.611C587 157.23 585.881 156.111 584.5 156.111C583.119 156.111 582 157.23 582 158.611C582 159.992 583.119 161.111 584.5 161.111ZM908.5 161.111C909.881 161.111 911 159.992 911 158.611C911 157.23 909.881 156.111 908.5 156.111C907.119 156.111 906 157.23 906 158.611C906 159.992 907.119 161.111 908.5 161.111ZM609.423 161.111C610.804 161.111 611.923 159.992 611.923 158.611C611.923 157.23 610.804 156.111 609.423 156.111C608.042 156.111 606.923 157.23 606.923 158.611C606.923 159.992 608.042 161.111 609.423 161.111ZM634.346 161.111C635.727 161.111 636.846 159.992 636.846 158.611C636.846 157.23 635.727 156.111 634.346 156.111C632.965 156.111 631.846 157.23 631.846 158.611C631.846 159.992 632.965 161.111 634.346 161.111ZM659.269 161.111C660.65 161.111 661.769 159.992 661.769 158.611C661.769 157.23 660.65 156.111 659.269 156.111C657.889 156.111 656.769 157.23 656.769 158.611C656.769 159.992 657.889 161.111 659.269 161.111ZM684.192 161.111C685.573 161.111 686.692 159.992 686.692 158.611C686.692 157.23 685.573 156.111 684.192 156.111C682.812 156.111 681.692 157.23 681.692 158.611C681.692 159.992 682.812 161.111 684.192 161.111ZM709.115 161.111C710.496 161.111 711.615 159.992 711.615 158.611C711.615 157.23 710.496 156.111 709.115 156.111C707.735 156.111 706.615 157.23 706.615 158.611C706.615 159.992 707.735 161.111 709.115 161.111ZM734.038 161.111C735.419 161.111 736.538 159.992 736.538 158.611C736.538 157.23 735.419 156.111 734.038 156.111C732.658 156.111 731.538 157.23 731.538 158.611C731.538 159.992 732.658 161.111 734.038 161.111ZM758.962 161.111C760.342 161.111 761.462 159.992 761.462 158.611C761.462 157.23 760.342 156.111 758.962 156.111C757.581 156.111 756.462 157.23 756.462 158.611C756.462 159.992 757.581 161.111 758.962 161.111ZM783.885 161.111C785.265 161.111 786.385 159.992 786.385 158.611C786.385 157.23 785.265 156.111 783.885 156.111C782.504 156.111 781.385 157.23 781.385 158.611C781.385 159.992 782.504 161.111 783.885 161.111ZM808.808 161.111C810.188 161.111 811.308 159.992 811.308 158.611C811.308 157.23 810.188 156.111 808.808 156.111C807.427 156.111 806.308 157.23 806.308 158.611C806.308 159.992 807.427 161.111 808.808 161.111ZM833.731 161.111C835.111 161.111 836.231 159.992 836.231 158.611C836.231 157.23 835.111 156.111 833.731 156.111C832.35 156.111 831.231 157.23 831.231 158.611C831.231 159.992 832.35 161.111 833.731 161.111ZM858.654 161.111C860.035 161.111 861.154 159.992 861.154 158.611C861.154 157.23 860.035 156.111 858.654 156.111C857.273 156.111 856.154 157.23 856.154 158.611C856.154 159.992 857.273 161.111 858.654 161.111ZM883.577 161.111C884.958 161.111 886.077 159.992 886.077 158.611C886.077 157.23 884.958 156.111 883.577 156.111C882.196 156.111 881.077 157.23 881.077 158.611C881.077 159.992 882.196 161.111 883.577 161.111Z" fill="#7EA5B9"/>
<path opacity="0.19" fill-rule="evenodd" clip-rule="evenodd" d="M77.1111 308.5C77.1111 309.881 78.2304 311 79.6111 311C80.9919 311 82.1111 309.881 82.1111 308.5C82.1111 307.119 80.9919 306 79.6111 306C78.2304 306 77.1111 307.119 77.1111 308.5ZM77.1111 632.5C77.1111 633.881 78.2304 635 79.6111 635C80.9918 635 82.1111 633.881 82.1111 632.5C82.1111 631.119 80.9918 630 79.6111 630C78.2304 630 77.1111 631.119 77.1111 632.5ZM79.6111 335.923C78.2304 335.923 77.1111 334.804 77.1111 333.423C77.1111 332.042 78.2304 330.923 79.6111 330.923C80.9919 330.923 82.1111 332.042 82.1111 333.423C82.1111 334.804 80.9919 335.923 79.6111 335.923ZM77.1111 358.346C77.1111 359.727 78.2304 360.846 79.6111 360.846C80.9919 360.846 82.1111 359.727 82.1111 358.346C82.1111 356.965 80.9919 355.846 79.6111 355.846C78.2304 355.846 77.1111 356.965 77.1111 358.346ZM79.6111 385.769C78.2304 385.769 77.1111 384.65 77.1111 383.269C77.1111 381.889 78.2304 380.769 79.6111 380.769C80.9919 380.769 82.1111 381.889 82.1111 383.269C82.1111 384.65 80.9919 385.769 79.6111 385.769ZM77.1111 408.192C77.1111 409.573 78.2304 410.692 79.6111 410.692C80.9919 410.692 82.1111 409.573 82.1111 408.192C82.1111 406.812 80.9919 405.692 79.6111 405.692C78.2304 405.692 77.1111 406.812 77.1111 408.192ZM79.6111 435.615C78.2304 435.615 77.1111 434.496 77.1111 433.115C77.1111 431.735 78.2304 430.615 79.6111 430.615C80.9919 430.615 82.1111 431.735 82.1111 433.115C82.1111 434.496 80.9919 435.615 79.6111 435.615ZM77.1111 458.038C77.1111 459.419 78.2304 460.538 79.6111 460.538C80.9919 460.538 82.1111 459.419 82.1111 458.038C82.1111 456.658 80.9919 455.538 79.6111 455.538C78.2304 455.538 77.1111 456.658 77.1111 458.038ZM79.6111 485.462C78.2304 485.462 77.1111 484.342 77.1111 482.962C77.1111 481.581 78.2304 480.462 79.6111 480.462C80.9918 480.462 82.1111 481.581 82.1111 482.962C82.1111 484.342 80.9918 485.462 79.6111 485.462ZM77.1111 507.885C77.1111 509.265 78.2304 510.385 79.6111 510.385C80.9918 510.385 82.1111 509.265 82.1111 507.885C82.1111 506.504 80.9918 505.385 79.6111 505.385C78.2304 505.385 77.1111 506.504 77.1111 507.885ZM79.6111 535.308C78.2304 535.308 77.1111 534.188 77.1111 532.808C77.1111 531.427 78.2304 530.308 79.6111 530.308C80.9918 530.308 82.1111 531.427 82.1111 532.808C82.1111 534.188 80.9918 535.308 79.6111 535.308ZM77.1111 557.731C77.1111 559.111 78.2304 560.231 79.6111 560.231C80.9918 560.231 82.1111 559.111 82.1111 557.731C82.1111 556.35 80.9918 555.231 79.6111 555.231C78.2304 555.231 77.1111 556.35 77.1111 557.731ZM79.6111 585.154C78.2304 585.154 77.1111 584.035 77.1111 582.654C77.1111 581.273 78.2304 580.154 79.6111 580.154C80.9918 580.154 82.1111 581.273 82.1111 582.654C82.1111 584.035 80.9918 585.154 79.6111 585.154ZM77.1111 607.577C77.1111 608.958 78.2304 610.077 79.6111 610.077C80.9918 610.077 82.1111 608.958 82.1111 607.577C82.1111 606.196 80.9918 605.077 79.6111 605.077C78.2304 605.077 77.1111 606.196 77.1111 607.577ZM53.8334 311C52.4527 311 51.3334 309.881 51.3334 308.5C51.3334 307.119 52.4527 306 53.8334 306C55.2141 306 56.3334 307.119 56.3334 308.5C56.3334 309.881 55.2141 311 53.8334 311ZM53.8334 635C52.4526 635 51.3334 633.881 51.3334 632.5C51.3334 631.119 52.4526 630 53.8334 630C55.2141 630 56.3334 631.119 56.3334 632.5C56.3334 633.881 55.2141 635 53.8334 635ZM53.8334 335.923C52.4527 335.923 51.3334 334.804 51.3334 333.423C51.3334 332.042 52.4527 330.923 53.8334 330.923C55.2141 330.923 56.3334 332.042 56.3334 333.423C56.3334 334.804 55.2141 335.923 53.8334 335.923ZM53.8334 360.846C52.4527 360.846 51.3334 359.727 51.3334 358.346C51.3334 356.965 52.4527 355.846 53.8334 355.846C55.2141 355.846 56.3334 356.965 56.3334 358.346C56.3334 359.727 55.2141 360.846 53.8334 360.846ZM53.8334 385.769C52.4527 385.769 51.3334 384.65 51.3334 383.269C51.3334 381.889 52.4527 380.769 53.8334 380.769C55.2141 380.769 56.3334 381.889 56.3334 383.269C56.3334 384.65 55.2141 385.769 53.8334 385.769ZM53.8334 410.692C52.4527 410.692 51.3334 409.573 51.3334 408.192C51.3334 406.812 52.4527 405.692 53.8334 405.692C55.2141 405.692 56.3334 406.812 56.3334 408.192C56.3334 409.573 55.2141 410.692 53.8334 410.692ZM53.8334 435.615C52.4527 435.615 51.3334 434.496 51.3334 433.115C51.3334 431.735 52.4527 430.615 53.8334 430.615C55.2141 430.615 56.3334 431.735 56.3334 433.115C56.3334 434.496 55.2141 435.615 53.8334 435.615ZM53.8334 460.538C52.4527 460.538 51.3334 459.419 51.3334 458.038C51.3334 456.658 52.4527 455.538 53.8334 455.538C55.2141 455.538 56.3334 456.658 56.3334 458.038C56.3334 459.419 55.2141 460.538 53.8334 460.538ZM53.8334 485.462C52.4527 485.462 51.3334 484.342 51.3334 482.962C51.3334 481.581 52.4527 480.462 53.8334 480.462C55.2141 480.462 56.3334 481.581 56.3334 482.962C56.3334 484.342 55.2141 485.462 53.8334 485.462ZM53.8334 510.385C52.4527 510.385 51.3334 509.265 51.3334 507.885C51.3334 506.504 52.4527 505.385 53.8334 505.385C55.2141 505.385 56.3334 506.504 56.3334 507.885C56.3334 509.265 55.2141 510.385 53.8334 510.385ZM53.8334 535.308C52.4527 535.308 51.3334 534.188 51.3334 532.808C51.3334 531.427 52.4527 530.308 53.8334 530.308C55.2141 530.308 56.3334 531.427 56.3334 532.808C56.3334 534.188 55.2141 535.308 53.8334 535.308ZM53.8334 560.231C52.4527 560.231 51.3334 559.111 51.3334 557.731C51.3334 556.35 52.4527 555.231 53.8334 555.231C55.2141 555.231 56.3334 556.35 56.3334 557.731C56.3334 559.111 55.2141 560.231 53.8334 560.231ZM53.8334 585.154C52.4526 585.154 51.3334 584.035 51.3334 582.654C51.3334 581.273 52.4526 580.154 53.8334 580.154C55.2141 580.154 56.3334 581.273 56.3334 582.654C56.3334 584.035 55.2141 585.154 53.8334 585.154ZM53.8334 610.077C52.4526 610.077 51.3334 608.958 51.3334 607.577C51.3334 606.196 52.4526 605.077 53.8334 605.077C55.2141 605.077 56.3334 606.196 56.3334 607.577C56.3334 608.958 55.2141 610.077 53.8334 610.077ZM25.5556 308.5C25.5556 309.881 26.6749 311 28.0556 311C29.4363 311 30.5556 309.881 30.5556 308.5C30.5556 307.119 29.4363 306 28.0556 306C26.6749 306 25.5556 307.119 25.5556 308.5ZM25.5556 632.5C25.5556 633.881 26.6749 635 28.0556 635C29.4363 635 30.5556 633.881 30.5556 632.5C30.5556 631.119 29.4363 630 28.0556 630C26.6749 630 25.5556 631.119 25.5556 632.5ZM25.5556 333.423C25.5556 334.804 26.6749 335.923 28.0556 335.923C29.4363 335.923 30.5556 334.804 30.5556 333.423C30.5556 332.042 29.4363 330.923 28.0556 330.923C26.6749 330.923 25.5556 332.042 25.5556 333.423ZM25.5556 358.346C25.5556 359.727 26.6749 360.846 28.0556 360.846C29.4363 360.846 30.5556 359.727 30.5556 358.346C30.5556 356.965 29.4363 355.846 28.0556 355.846C26.6749 355.846 25.5556 356.965 25.5556 358.346ZM25.5556 383.269C25.5556 384.65 26.6749 385.769 28.0556 385.769C29.4363 385.769 30.5556 384.65 30.5556 383.269C30.5556 381.889 29.4363 380.769 28.0556 380.769C26.6749 380.769 25.5556 381.889 25.5556 383.269ZM25.5556 408.192C25.5556 409.573 26.6749 410.692 28.0556 410.692C29.4363 410.692 30.5556 409.573 30.5556 408.192C30.5556 406.812 29.4363 405.692 28.0556 405.692C26.6749 405.692 25.5556 406.812 25.5556 408.192ZM25.5556 433.115C25.5556 434.496 26.6749 435.615 28.0556 435.615C29.4363 435.615 30.5556 434.496 30.5556 433.115C30.5556 431.735 29.4363 430.615 28.0556 430.615C26.6749 430.615 25.5556 431.735 25.5556 433.115ZM25.5556 458.038C25.5556 459.419 26.6749 460.538 28.0556 460.538C29.4363 460.538 30.5556 459.419 30.5556 458.038C30.5556 456.658 29.4363 455.538 28.0556 455.538C26.6749 455.538 25.5556 456.658 25.5556 458.038ZM25.5556 482.962C25.5556 484.342 26.6749 485.462 28.0556 485.462C29.4363 485.462 30.5556 484.342 30.5556 482.962C30.5556 481.581 29.4363 480.462 28.0556 480.462C26.6749 480.462 25.5556 481.581 25.5556 482.962ZM25.5556 507.885C25.5556 509.265 26.6749 510.385 28.0556 510.385C29.4363 510.385 30.5556 509.265 30.5556 507.885C30.5556 506.504 29.4363 505.385 28.0556 505.385C26.6749 505.385 25.5556 506.504 25.5556 507.885ZM25.5556 532.808C25.5556 534.188 26.6749 535.308 28.0556 535.308C29.4363 535.308 30.5556 534.188 30.5556 532.808C30.5556 531.427 29.4363 530.308 28.0556 530.308C26.6749 530.308 25.5556 531.427 25.5556 532.808ZM25.5556 557.731C25.5556 559.111 26.6749 560.231 28.0556 560.231C29.4363 560.231 30.5556 559.111 30.5556 557.731C30.5556 556.35 29.4363 555.231 28.0556 555.231C26.6749 555.231 25.5556 556.35 25.5556 557.731ZM25.5556 582.654C25.5556 584.035 26.6749 585.154 28.0556 585.154C29.4363 585.154 30.5556 584.035 30.5556 582.654C30.5556 581.273 29.4363 580.154 28.0556 580.154C26.6749 580.154 25.5556 581.273 25.5556 582.654ZM25.5556 607.577C25.5556 608.958 26.6749 610.077 28.0556 610.077C29.4363 610.077 30.5556 608.958 30.5556 607.577C30.5556 606.196 29.4363 605.077 28.0556 605.077C26.6749 605.077 25.5556 606.196 25.5556 607.577ZM2.2778 311C0.897087 311 -0.222199 309.881 -0.222199 308.5C-0.222199 307.119 0.897087 306 2.2778 306C3.65852 306 4.7778 307.119 4.7778 308.5C4.7778 309.881 3.65852 311 2.2778 311ZM2.27779 635C0.897073 635 -0.222213 633.881 -0.222213 632.5C-0.222213 631.119 0.897073 630 2.27779 630C3.6585 630 4.77779 631.119 4.77779 632.5C4.77779 633.881 3.6585 635 2.27779 635ZM2.2778 335.923C0.897086 335.923 -0.2222 334.804 -0.2222 333.423C-0.2222 332.042 0.897086 330.923 2.2778 330.923C3.65851 330.923 4.7778 332.042 4.7778 333.423C4.7778 334.804 3.65851 335.923 2.2778 335.923ZM2.2778 360.846C0.897085 360.846 -0.222201 359.727 -0.222201 358.346C-0.222201 356.965 0.897085 355.846 2.2778 355.846C3.65851 355.846 4.7778 356.965 4.7778 358.346C4.7778 359.727 3.65851 360.846 2.2778 360.846ZM2.2778 385.769C0.897084 385.769 -0.222202 384.65 -0.222202 383.269C-0.222202 381.889 0.897084 380.769 2.2778 380.769C3.65851 380.769 4.7778 381.889 4.7778 383.269C4.7778 384.65 3.65851 385.769 2.2778 385.769ZM2.2778 410.692C0.897083 410.692 -0.222203 409.573 -0.222203 408.192C-0.222203 406.812 0.897083 405.692 2.2778 405.692C3.65851 405.692 4.7778 406.812 4.7778 408.192C4.7778 409.573 3.65851 410.692 2.2778 410.692ZM2.2778 435.615C0.897081 435.615 -0.222204 434.496 -0.222204 433.115C-0.222204 431.735 0.897082 430.615 2.2778 430.615C3.65851 430.615 4.7778 431.735 4.7778 433.115C4.7778 434.496 3.65851 435.615 2.2778 435.615ZM2.27779 460.538C0.89708 460.538 -0.222205 459.419 -0.222205 458.038C-0.222205 456.658 0.897081 455.538 2.27779 455.538C3.65851 455.538 4.77779 456.658 4.77779 458.038C4.77779 459.419 3.65851 460.538 2.27779 460.538ZM2.27779 485.462C0.897079 485.462 -0.222206 484.342 -0.222206 482.962C-0.222206 481.581 0.897079 480.462 2.27779 480.462C3.65851 480.462 4.77779 481.581 4.77779 482.962C4.77779 484.342 3.65851 485.462 2.27779 485.462ZM2.27779 510.385C0.897078 510.385 -0.222207 509.265 -0.222207 507.885C-0.222207 506.504 0.897078 505.385 2.27779 505.385C3.65851 505.385 4.77779 506.504 4.77779 507.885C4.77779 509.265 3.65851 510.385 2.27779 510.385ZM2.27779 535.308C0.897077 535.308 -0.222208 534.188 -0.222208 532.808C-0.222208 531.427 0.897077 530.308 2.27779 530.308C3.65851 530.308 4.77779 531.427 4.77779 532.808C4.77779 534.188 3.65851 535.308 2.27779 535.308ZM2.27779 560.231C0.897076 560.231 -0.22221 559.111 -0.222209 557.731C-0.222209 556.35 0.897076 555.231 2.27779 555.231C3.65851 555.231 4.77779 556.35 4.77779 557.731C4.77779 559.111 3.6585 560.231 2.27779 560.231ZM2.27779 585.154C0.897075 585.154 -0.222211 584.035 -0.222211 582.654C-0.222211 581.273 0.897075 580.154 2.27779 580.154C3.6585 580.154 4.77779 581.273 4.77779 582.654C4.77779 584.035 3.6585 585.154 2.27779 585.154ZM2.27779 610.077C0.897074 610.077 -0.222212 608.958 -0.222212 607.577C-0.222212 606.196 0.897074 605.077 2.27779 605.077C3.6585 605.077 4.77779 606.196 4.77779 607.577C4.77779 608.958 3.6585 610.077 2.27779 610.077ZM-26 308.5C-26 309.881 -24.8807 311 -23.5 311C-22.1193 311 -21 309.881 -21 308.5C-21 307.119 -22.1193 306 -23.5 306C-24.8807 306 -26 307.119 -26 308.5ZM-26 632.5C-26 633.881 -24.8807 635 -23.5 635C-22.1193 635 -21 633.881 -21 632.5C-21 631.119 -22.1193 630 -23.5 630C-24.8807 630 -26 631.119 -26 632.5ZM-26 333.423C-26 334.804 -24.8807 335.923 -23.5 335.923C-22.1193 335.923 -21 334.804 -21 333.423C-21 332.042 -22.1193 330.923 -23.5 330.923C-24.8807 330.923 -26 332.042 -26 333.423ZM-26 358.346C-26 359.727 -24.8807 360.846 -23.5 360.846C-22.1193 360.846 -21 359.727 -21 358.346C-21 356.965 -22.1193 355.846 -23.5 355.846C-24.8807 355.846 -26 356.965 -26 358.346ZM-26 383.269C-26 384.65 -24.8807 385.769 -23.5 385.769C-22.1193 385.769 -21 384.65 -21 383.269C-21 381.889 -22.1193 380.769 -23.5 380.769C-24.8807 380.769 -26 381.889 -26 383.269ZM-26 408.192C-26 409.573 -24.8807 410.692 -23.5 410.692C-22.1193 410.692 -21 409.573 -21 408.192C-21 406.812 -22.1193 405.692 -23.5 405.692C-24.8807 405.692 -26 406.812 -26 408.192ZM-26 433.115C-26 434.496 -24.8807 435.615 -23.5 435.615C-22.1193 435.615 -21 434.496 -21 433.115C-21 431.735 -22.1193 430.615 -23.5 430.615C-24.8807 430.615 -26 431.735 -26 433.115ZM-26 458.038C-26 459.419 -24.8807 460.538 -23.5 460.538C-22.1193 460.538 -21 459.419 -21 458.038C-21 456.658 -22.1193 455.538 -23.5 455.538C-24.8807 455.538 -26 456.658 -26 458.038ZM-26 482.962C-26 484.342 -24.8807 485.462 -23.5 485.462C-22.1193 485.462 -21 484.342 -21 482.962C-21 481.581 -22.1193 480.462 -23.5 480.462C-24.8807 480.462 -26 481.581 -26 482.962ZM-26 507.885C-26 509.265 -24.8807 510.385 -23.5 510.385C-22.1193 510.385 -21 509.265 -21 507.885C-21 506.504 -22.1193 505.385 -23.5 505.385C-24.8807 505.385 -26 506.504 -26 507.885ZM-26 532.808C-26 534.188 -24.8807 535.308 -23.5 535.308C-22.1193 535.308 -21 534.188 -21 532.808C-21 531.427 -22.1193 530.308 -23.5 530.308C-24.8807 530.308 -26 531.427 -26 532.808ZM-26 557.731C-26 559.111 -24.8807 560.231 -23.5 560.231C-22.1193 560.231 -21 559.111 -21 557.731C-21 556.35 -22.1193 555.231 -23.5 555.231C-24.8807 555.231 -26 556.35 -26 557.731ZM-26 582.654C-26 584.035 -24.8807 585.154 -23.5 585.154C-22.1193 585.154 -21 584.035 -21 582.654C-21 581.273 -22.1193 580.154 -23.5 580.154C-24.8807 580.154 -26 581.273 -26 582.654ZM-26 607.577C-26 608.958 -24.8807 610.077 -23.5 610.077C-22.1193 610.077 -21 608.958 -21 607.577C-21 606.196 -22.1193 605.077 -23.5 605.077C-24.8807 605.077 -26 606.196 -26 607.577Z" fill="#7EA5B9"/>
</svg>
