<svg width="45" height="45" viewBox="0 0 45 45" fill="none" xmlns="http://www.w3.org/2000/svg">
<path fill-rule="evenodd" clip-rule="evenodd" d="M30.672 15.111C29.9717 14.4971 28.9646 14.5111 28.3867 14.6894C28.7653 14.2246 29.6469 13.8435 29.9068 13.7972C30.1046 13.8714 30.672 14.4545 30.672 15.111ZM32.9079 12.5687C32.4474 10.1052 26.7221 11.7374 23.8388 10.691C23.7835 11.4092 24.7264 12.5599 25.6283 12.9858C24.0866 14.3237 22.7025 17.0194 22.4233 20.3128C22.1449 17.0194 20.7607 14.3237 19.2191 12.9858C20.1209 12.5599 21.0646 11.4092 21.0086 10.691C18.1253 11.7374 12.3999 10.1052 11.9386 12.5687C11.8416 13.09 12.0924 13.8846 12.3635 14.113C12.4119 13.9478 12.665 13.4073 13.4631 13.2861C17.4968 12.6767 20.8645 18.8934 17.8246 21.407C17.7783 21.4452 17.8043 21.5157 17.8671 21.5157H26.9809C27.0429 21.5157 27.0691 21.4452 27.0236 21.407C23.9828 18.8934 27.3505 12.6767 31.3842 13.2861C32.183 13.4073 32.4353 13.9478 32.4839 14.113C32.7549 13.8846 33.0057 13.0902 32.9079 12.5687ZM33.889 6.91443C33.8165 6.68169 36.1816 6.67587 36.1816 8.15616C36.1816 9.1483 34.7669 9.6182 34.7669 10.6477C34.7669 11.1273 35.2828 11.479 35.4411 11.479C35.0767 9.82604 36.5834 10.691 36.9902 11.0002C36.1817 8.77734 38.0019 8.79137 37.8227 7.77214C37.698 7.05981 36.116 7.27501 35.5434 6.91443C34.5274 6.27487 33.3255 3.78622 32.5333 6.27487C34.01 7.64591 33.1507 9.66374 31.2761 9.66374C31.2761 9.66374 31.2656 9.95963 31.2828 9.98314C33.5188 9.87368 34.2981 8.23039 33.889 6.91443ZM7.80267 11.0002C8.20964 10.691 9.7161 9.82604 9.35264 11.479C9.51009 11.479 10.026 11.1273 10.026 10.6477C10.026 9.6182 8.6112 9.1483 8.6112 8.15616C8.6112 6.6758 10.9763 6.68169 10.9039 6.91443C10.4955 8.23032 11.275 9.87375 13.5109 9.98314C13.5273 9.95963 13.5168 9.66374 13.5168 9.66374C11.643 9.66374 10.7837 7.64577 12.2597 6.27487C11.4675 3.78622 10.2656 6.27487 9.24957 6.91443C8.67701 7.27508 7.09498 7.05981 6.97029 7.77214C6.79179 8.79137 8.6112 8.77741 7.80267 11.0002ZM14.1514 15.1109C14.8524 14.497 15.8595 14.511 16.4367 14.6894C16.0597 14.2245 15.1766 13.8434 14.9174 13.7971C14.7196 13.8713 14.1514 14.4545 14.1514 15.1109ZM23.4871 1.32985L22.3964 0L21.3058 1.32985L22.3965 2.72945L23.4871 1.32985ZM29.7135 5.35106L28.9378 4.40593L28.1629 5.35106L28.9378 6.2748L29.7135 5.35106ZM36.0047 32.6692L35.0215 31.6286L34.0383 32.6692L35.0215 33.5819L36.0047 32.6692ZM16.6307 5.35092L15.855 4.40579L15.0801 5.35092L15.855 6.27473L16.6307 5.35092ZM14.4089 9.983H17.3019C19.7341 9.983 20.8286 8.49015 21.1593 7.19552H23.6342C23.965 8.49022 25.0586 9.98307 27.4917 9.98307H30.3847C30.3847 9.98307 30.8907 9.29649 31.0176 8.95654C31.4746 7.73313 30.8907 7.16254 30.0389 7.16254L28.9377 8.16051L27.8365 7.16254C26.9847 7.16254 26.4009 7.73313 26.8578 8.95654C26.9161 9.11301 27.0557 9.34273 27.1878 9.54467C26.1612 9.40364 24.851 8.701 24.5636 7.19552C24.5636 7.19552 25.3221 5.99056 25.5125 5.50297C26.1964 3.74953 25.3229 3.03271 24.0455 3.03271L22.3963 4.9714L20.7473 3.03271C19.4699 3.03271 18.5964 3.74946 19.281 5.50297C19.4708 5.99063 20.23 7.19559 20.23 7.19559C19.9418 8.70107 18.6316 9.40371 17.6051 9.54474C17.738 9.3428 17.8768 9.11301 17.9351 8.95661C18.3911 7.7332 17.8089 7.16261 16.9562 7.16261L15.8551 8.16058L14.754 7.16261C13.9015 7.16261 13.3191 7.7332 13.7753 8.95661C13.9022 9.29656 14.4089 9.983 14.4089 9.983ZM44.3183 18.9506C43.7598 19.2333 40.484 20.768 36.2876 20.2003C36.331 20.0002 36.3679 19.7986 36.3981 19.596C39.191 19.2619 41.4613 18.7883 42.9081 17.9835C44.5573 17.0655 45.2784 14.8744 44.446 13.2442C44.4244 13.2031 44.3647 13.1958 44.3348 13.2301C43.8788 13.7553 41.0104 16.8754 36.4915 17.8454C36.4799 17.6113 36.4585 17.3779 36.4273 17.1456C38.6221 15.9009 40.7648 14.4667 41.7854 13.1553C43.3278 11.1725 43.1859 8.6436 41.7182 7.35409C41.703 7.34102 41.6828 7.33514 41.663 7.33796C41.6431 7.34079 41.6254 7.35203 41.6144 7.36883C41.1501 8.13469 36.8036 15.1599 32.0316 18.1926C31.9734 18.2299 31.9147 18.2664 31.8555 18.3021C31.7188 18.3851 31.7039 18.5627 31.8204 18.6685C32.3705 19.1671 32.7125 19.861 32.7125 20.6314C32.7125 21.9707 31.68 23.0847 30.3153 23.3262C29.6217 23.4606 28.6205 23.4217 27.6589 23.1038C27.6156 23.0898 27.5709 23.1184 27.5709 23.1618V27.404C27.5709 27.4722 27.6747 27.4891 27.6993 27.4236C28.2838 25.8751 30.0337 25.546 30.799 25.546C31.0745 27.2012 31.5664 28.5723 32.2055 29.3102C33.246 30.5093 34.9453 30.4925 35.6822 29.6634C35.6943 29.6497 35.6996 29.6312 35.6964 29.6131C35.6931 29.5951 35.6818 29.5795 35.6657 29.5708C35.2328 29.322 32.7556 27.8012 32.2598 25.3089C32.4556 25.2413 32.6466 25.1649 32.8296 25.0746C33.6291 26.3979 34.793 27.5765 35.7299 28.0266C37.3037 28.7816 38.7445 28.4143 39.3836 27.3092C39.4067 27.2703 39.3784 27.2218 39.3313 27.2174C38.3578 27.1395 35.3701 26.2833 34.0979 24.1971C34.2436 24.0634 34.3862 23.9239 34.519 23.7756C35.8501 24.7889 37.7323 25.6848 39.0798 25.8676C40.6565 26.0821 42.443 25.5791 42.4864 23.7455C42.4871 23.7087 42.4543 23.6786 42.4155 23.6809C41.8548 23.7146 38.1436 23.8762 35.4993 22.3583C35.5911 22.1837 35.6768 22.0059 35.7561 21.8252C35.7561 21.8252 39.7517 22.7696 41.645 22.4567C43.5263 22.1461 44.6283 20.7436 44.4155 18.9989C44.4095 18.9554 44.3587 18.93 44.3183 18.9506ZM9.03668 21.8254C9.11621 22.0061 9.2021 22.1839 9.29419 22.3585C6.65069 23.8756 2.94102 23.7155 2.37815 23.6811C2.33857 23.6788 2.30574 23.7104 2.30644 23.7464C2.35064 25.5793 4.13636 26.0822 5.71299 25.8679C7.0599 25.685 8.94273 24.7891 10.2738 23.7758C10.4074 23.9241 10.5493 24.0636 10.6948 24.1973C9.42196 26.2833 6.435 27.1396 5.46145 27.2175C5.41444 27.2219 5.38679 27.2703 5.40924 27.3093C6.04832 28.4144 7.48917 28.7816 9.06369 28.0267C9.99992 27.5765 11.1638 26.398 11.9634 25.0748C12.1469 25.165 12.3381 25.2414 12.5329 25.309C12.0372 27.8013 9.56012 29.3221 9.12706 29.5709C9.11107 29.5797 9.09993 29.5953 9.09674 29.6133C9.09355 29.6312 9.09866 29.6497 9.11064 29.6635C9.84752 30.4926 11.5475 30.5094 12.5881 29.3103C13.2273 28.5723 13.7184 27.2013 13.9939 25.5461C14.7598 25.5461 16.509 25.8752 17.0936 27.4238C17.119 27.4892 17.2227 27.4722 17.2227 27.404V23.1618C17.2227 23.1185 17.1772 23.0898 17.1339 23.1038C16.1723 23.4217 15.1712 23.4607 14.4784 23.3262C13.113 23.0847 12.0805 21.9708 12.0805 20.6314C12.0805 19.861 12.4231 19.1663 12.9726 18.6677C13.0897 18.5627 13.0741 18.3849 12.9382 18.302C12.8785 18.2663 12.8193 18.2298 12.7605 18.1926C7.99149 15.1614 3.64724 8.14128 3.17916 7.37016C3.15741 7.33416 3.10521 7.32687 3.07307 7.35472C1.60758 8.64493 1.46501 11.1732 3.00739 13.1551C4.02796 14.4665 6.17047 15.9007 8.3647 17.1455C8.33375 17.3777 8.31258 17.6111 8.30127 17.8452C3.7861 16.8759 0.920029 13.7608 0.45939 13.2322C0.428797 13.1962 0.367472 13.2035 0.346633 13.2447C-0.484131 14.8756 0.236964 17.0653 1.88467 17.9832C3.33149 18.788 5.60178 19.2617 8.39466 19.5958C8.42484 19.7984 8.46167 20 8.50511 20.2001C4.31318 20.7671 1.03875 19.2361 0.475879 18.951C0.43406 18.9298 0.38326 18.9562 0.378067 19.0003C0.166166 20.745 1.26721 22.1461 3.14857 22.4567C5.04108 22.7696 9.03668 21.8254 9.03668 21.8254ZM35.0214 34.922L33.5656 33.7765C32.9848 34.1224 32.5578 34.6718 32.392 35.3157C31.5164 35.4384 29.1288 34.9082 29.3609 34.5565C31.9776 30.876 29.9761 28.6848 27.5707 28.8067V31.2785C27.5707 32.0723 26.8779 32.7155 26.0245 32.7155H24.3636C23.172 32.7155 22.3963 33.9132 22.3963 33.9132C22.3963 33.9132 21.6208 32.7155 20.4292 32.7155H18.7681C17.9142 32.7155 17.2229 32.0723 17.2229 31.2785V28.8068C14.8174 28.6849 12.8143 30.8762 15.4319 34.5566C15.6618 34.9046 13.2078 35.462 12.0567 35.321C11.7536 35.0066 11.316 34.8084 10.8263 34.8084C10.6181 34.8085 10.4115 34.8455 10.2163 34.9179C10.2163 34.9179 5.693 30.6353 5.61013 30.5934L5.64746 30.5067C5.90497 30.025 5.51084 29.5 5.26155 29.5368C5.55112 29.1894 5.56466 27.6686 3.958 27.3169C4.00501 27.6224 4.02887 28.2459 4.02887 28.2459C4.02887 28.2459 2.7889 27.5753 2.16625 28.1539C1.61909 28.8017 2.37836 29.9766 2.37836 29.9766C2.37836 29.9766 1.74378 29.992 1.43098 29.9655C1.89091 31.5208 3.4333 31.4107 3.76701 31.1038C3.74526 31.3513 4.30308 31.7037 4.77558 31.4209L4.98313 31.3204C5.01975 31.3695 9.42519 35.5317 9.42519 35.5317C9.22283 35.832 9.12656 36.2007 9.19294 36.5936C9.29749 37.2075 9.809 37.7164 10.4622 37.8485C10.9235 37.9411 11.3573 37.8514 11.7052 37.648L12.8713 38.7305C12.9752 38.8245 13.1155 38.8831 13.2722 38.8722C13.5574 38.853 13.7709 38.6217 13.7493 38.3567C13.7403 38.237 13.6791 38.1343 13.5947 38.0564C13.5761 38.0358 12.407 36.9504 12.407 36.9504C13.3714 36.274 15.1684 35.7976 16.66 35.7976C16.9221 35.7976 17.0452 35.5759 16.9549 35.3584C16.2792 33.7333 17.7321 32.5563 19.2349 33.5145C19.8904 33.9324 20.5564 34.7556 21.0581 36.1287C18.5922 36.7258 15.4962 38.3705 14.8699 40.1661C14.6287 40.8593 15.4253 41.8043 16.3928 41.9946C16.4099 41.9984 16.4279 41.9951 16.4426 41.9856C16.4573 41.9761 16.4676 41.961 16.4712 41.9439C16.9767 39.2635 19.8591 37.2661 21.3589 36.9268C21.4344 37.1288 21.4097 37.0635 21.4851 37.2646C19.8516 38.0372 18.2674 39.6666 17.815 41.6037C17.6074 42.4908 18.5966 43.2905 19.4134 43.5094C19.4544 43.5203 19.4948 43.4917 19.497 43.4521C19.6523 41.0024 20.734 38.922 21.703 37.9755C21.7296 38.1605 21.7495 38.3464 21.7628 38.5328C21.7628 38.5328 20.7707 41.2976 20.7707 43.3148C20.7707 44.2532 22.1652 44.9082 22.3713 45C22.6288 44.9082 24.0226 44.2532 24.0226 43.3148C24.0226 41.2975 23.0305 38.5328 23.0305 38.5328C23.044 38.3464 23.0642 38.1605 23.091 37.9755C24.0593 38.922 25.1417 41.0016 25.2963 43.4512C25.2985 43.4909 25.3396 43.5203 25.3798 43.5093C26.1974 43.2906 27.1859 42.4909 26.979 41.6038C26.5257 39.6667 24.9424 38.0373 23.3088 37.2648C23.3835 37.0635 23.3589 37.1289 23.4343 36.9269C24.9349 37.2662 27.8167 39.2634 28.3221 41.9438C28.3257 41.9609 28.336 41.9759 28.3508 41.9854C28.3655 41.9949 28.3834 41.9982 28.4005 41.9945C29.3673 41.8044 30.1653 40.8592 29.9227 40.1661C29.2979 38.3706 26.2011 36.7259 23.7352 36.1288C24.2376 34.7556 24.9035 33.9324 25.559 33.5146C27.0611 32.5564 28.5139 33.7335 27.8383 35.3586C27.7479 35.5759 27.8703 35.7976 28.1332 35.7976C29.8203 35.7976 31.8987 36.4071 32.7213 37.2244C33.247 38.0131 34.2182 38.5176 35.3142 38.4095C36.5595 38.2877 37.5748 37.3521 37.7152 36.1957C37.8376 35.1822 37.3135 34.2724 36.4781 33.7768L35.0214 34.922ZM24.2911 27.5398C24.81 27.3476 25.623 27.5032 25.5953 28.2522C25.5887 28.4218 25.8269 28.4218 25.844 28.2484C25.9993 27.1272 25.2415 26.804 24.4487 26.9355C24.3502 26.5499 24.2696 26.2129 24.1777 25.8788C24.1046 25.6087 24.0777 25.1012 24.3905 25.1012C24.5593 25.1012 24.4914 25.5734 24.4757 25.7767C24.4615 25.9551 24.5257 26.0631 24.6706 26.0683C24.7609 26.0719 24.8737 25.9567 24.9408 25.8802C25.3948 25.3669 25.5001 24.5725 24.9685 24.1892C24.5236 23.8675 23.4097 24.1069 23.1035 24.5651C23.0573 24.3925 22.8363 24.1076 22.7302 23.9834C22.6273 23.8624 22.6004 23.7794 22.743 23.6729C22.8102 23.6215 23.0132 23.4196 23.0132 23.211C23.0132 23.0877 22.9177 22.86 22.6139 22.86C22.3742 22.86 22.1077 23.026 22.1077 23.3961C22.1077 23.4784 22.1278 23.5666 22.1808 23.6613C22.0292 23.6362 21.6179 23.6465 21.4067 23.6987L24.3279 31.7153C25.1641 31.3026 25.777 30.649 25.777 29.9478C25.777 29.35 24.8967 29.5483 24.469 30.0146C24.3316 29.2568 24.2092 28.557 24.0756 27.8593C24.0391 27.6669 24.1366 27.5979 24.2911 27.5398ZM20.1604 22.0943L20.7741 23.7993C20.2486 23.9242 19.4035 24.3074 19.4035 24.8148C19.4035 25.4905 20.5987 25.9303 21.29 25.8774C21.2557 26.0316 21.2953 26.1689 21.4028 26.2945C21.1519 26.2945 20.6787 26.4112 20.5233 26.5786C20.1568 26.2372 19.5834 26.1131 19.3109 26.3209C19.0369 26.5302 19.0288 26.8849 19.3147 27.2858C19.5139 27.5634 19.5887 27.8373 19.3647 28.1589C20.1978 28.1589 19.8909 27.0758 20.2172 27.0758C20.1747 27.2858 20.2008 27.5289 20.2956 27.7984C20.3584 27.9775 20.3584 28.1046 20.2509 28.2771C19.9821 28.7068 19.5641 29.6937 19.6208 30.5859C19.3476 30.5843 19.2087 30.5175 19.305 30.1445C19.3408 30.0056 19.255 29.9065 19.1416 30.0777C19.0161 30.2664 18.9556 30.5888 18.9556 30.7267C18.9556 31.5213 19.9022 31.6814 20.2635 31.5133C21.3088 32.5247 23.3618 32.2549 24.0494 31.9157L20.4346 21.9972C20.3606 21.81 20.0955 21.8996 20.1604 22.0943ZM20.035 30.2642C19.9603 29.8559 20.5285 29.126 21.2512 28.4218C21.0974 28.8807 21.1929 29.6716 21.4945 29.9441C20.9704 29.9441 20.3477 30.0425 20.035 30.2642Z" fill="#3C64B1"/>
</svg>
