<svg width="44" height="48" viewBox="0 0 44 48" fill="none" xmlns="http://www.w3.org/2000/svg">
<path d="M39.4707 23.7219C38.1188 25.2393 36.7946 26.8739 35.8703 29.1292C35.4496 30.1707 34.4496 30.8466 33.3252 30.8466C32.1941 30.8466 31.194 30.1707 30.7665 29.1224C29.6973 26.5013 28.0765 24.7151 26.5039 22.9908C26.1108 22.5563 25.7177 22.1217 25.3315 21.6734C25.3108 21.6803 25.2968 21.6872 25.2763 21.6941C23.7452 22.1561 22.5657 24.1839 23.2761 25.8324C23.7589 26.9635 27.1454 26.7497 26.8558 29.1844C26.6144 31.1776 29.2214 31.7018 30.1457 31.6053C31.0699 31.4949 32.4907 33.1227 31.7734 33.84C31.0631 34.5574 29.718 34.585 29.9249 36.4334C29.9801 36.9714 31.6079 36.9025 31.6079 37.7163C31.6079 38.537 30.7665 39.4682 31.4148 40.4131C31.5528 40.62 31.6976 40.7786 31.8493 40.9028C28.7318 43.772 24.5728 45.5308 20.0138 45.5308C10.3784 45.5308 2.54317 37.6955 2.54317 28.0602C2.54317 25.1358 3.26743 22.3769 4.54339 19.9491C4.53647 23.0873 6.2125 25.6944 6.99875 26.4807C9.56449 29.0395 13.2821 28.2325 13.7579 30.3775C14.2407 32.5157 11.206 32.5226 11.406 34.1572C11.6129 35.7987 15.565 36.2333 14.6822 37.7437C13.5165 39.7508 15.4685 39.8956 14.9029 42.3717C14.5995 43.7236 16.5513 43.9856 17.2756 42.958C17.8274 42.1717 17.717 41.2061 18.8274 40.0267C20.1862 38.5783 23.3382 38.3438 22.9864 35.9504C22.3864 31.9777 18.524 31.3569 16.841 30.4257C14.9305 29.3774 15.3996 26.8599 14.9857 25.6598C14.4063 23.9562 12.4406 26.1358 11.3922 25.1425C9.66795 23.5148 11.7026 21.2111 13.151 21.2594C16.2064 21.356 17.1444 24.3287 18.2686 24.2252C19.3653 24.1286 20.0757 22.5974 20.2688 21.7836C20.6758 20.011 19.5791 20.8042 19.1377 19.8799C18.5446 18.6454 21.2207 17.466 22.2552 16.5555C22.4139 16.4176 22.5311 16.2866 22.5932 16.1624C22.9037 15.5555 22.4967 15.0933 21.8069 14.6726C20.4276 13.838 17.9101 13.1759 17.7929 11.8724C17.7238 11.0722 19.2551 10.686 21 10.6171C21.2896 10.6309 21.5724 10.6585 21.8622 10.686C22.007 9.86523 22.2415 9.05825 22.5588 8.28582C21.7242 8.17545 20.8759 8.12023 20.0137 8.12023C9.01956 8.12023 0.0739746 17.0658 0.0739746 28.0599C0.0739011 39.0544 9.01956 48 20.0137 48C31.0078 48 39.9535 39.0544 39.9535 28.0602C39.9535 26.5705 39.7879 25.1152 39.4707 23.7219ZM32.9607 1C27.3318 1.53206 23.4765 6.98625 24.459 12.5543C25.4566 18.2102 30.6715 19.9512 33.2594 26.3C33.4926 26.8721 34.2982 26.875 34.5312 26.3028C37.4001 19.2612 43.5 17.887 43.5 10.5597C43.4999 4.94699 38.6852 0.458897 32.9607 1ZM33.8959 15.6316C31.0947 15.6316 28.8239 13.3609 28.8239 10.5597C28.8239 7.7586 31.0947 5.48787 33.8959 5.48787C36.6971 5.48787 38.9677 7.7586 38.9677 10.5597C38.9677 13.3608 36.6969 15.6316 33.8959 15.6316Z" fill="#3C64B1"/>
<path d="M32.9606 0.99998C27.3318 1.53204 23.4765 6.98623 24.4589 12.5542C25.4566 18.2102 30.6714 19.9512 33.2594 26.3C33.4926 26.8721 34.2981 26.875 34.5312 26.3028C37.4 19.2612 43.4999 17.887 43.4999 10.5597C43.4999 4.94697 38.6852 0.458877 32.9606 0.99998ZM33.8958 15.6316C31.0946 15.6316 28.8238 13.3609 28.8238 10.5597C28.8238 7.75858 31.0946 5.48785 33.8958 5.48785C36.697 5.48785 38.9677 7.75858 38.9677 10.5597C38.9677 13.3608 36.6969 15.6316 33.8958 15.6316Z" fill="#3DACE3"/>
</svg>
