<svg width="46" height="46" viewBox="0 0 46 46" fill="none" xmlns="http://www.w3.org/2000/svg">
<path d="M24.4196 15.8627C23.9602 15.7714 23.4857 15.7227 23 15.7227C18.9872 15.7227 15.7227 18.9872 15.7227 23C15.7227 27.0128 18.9872 30.2773 23 30.2773C27.0128 30.2773 30.2773 27.0128 30.2773 23C30.2773 22.5143 30.2286 22.0398 30.1373 21.5804L25.8589 25.8589C25.0952 26.6225 24.0799 27.043 23 27.043C21.9201 27.043 20.9048 26.6225 20.1411 25.8589C19.3775 25.0952 18.957 24.0799 18.957 23C18.957 21.9201 19.3775 20.9048 20.1411 20.1411L24.4196 15.8627Z" fill="#3C64B1"/>
<path d="M43.9417 13.4934L41.0421 16.393C40.7519 16.6832 40.4248 16.924 40.0717 17.1107C40.7104 18.9577 41.0586 20.9389 41.0586 23C41.0586 32.9576 32.9576 41.0586 23 41.0586C13.0424 41.0586 4.94141 32.9576 4.94141 23C4.94141 13.0424 13.0424 4.94141 23 4.94141C25.0618 4.94141 27.044 5.2899 28.8914 5.92899C29.0785 5.57558 29.3175 5.24709 29.6074 4.95755L32.5066 2.05833C29.6074 0.737 26.3884 0 23 0C10.3176 0 0 10.3176 0 23C0 35.6824 10.3176 46 23 46C35.6824 46 46 35.6824 46 23C46 19.6116 45.263 16.3926 43.9417 13.4934Z" fill="#3C64B1"/>
<path d="M28.724 11.5583L28.4784 8.64676C26.7759 7.99434 24.9292 7.63672 23 7.63672C14.5287 7.63672 7.63672 14.5287 7.63672 23C7.63672 31.4713 14.5287 38.3633 23 38.3633C31.4713 38.3633 38.3633 31.4713 38.3633 23C38.3633 21.0708 38.0057 19.2241 37.3532 17.5216L34.4417 17.276L32.3048 19.4126C32.7358 20.5265 32.9727 21.7359 32.9727 23C32.9727 28.4991 28.4991 32.9727 23 32.9727C17.5009 32.9727 13.0273 28.4991 13.0273 23C13.0273 17.5009 17.5009 13.0273 23 13.0273C24.2641 13.0273 25.4735 13.2642 26.5874 13.6952L28.724 11.5583Z" fill="#6BBFE9"/>
<path d="M31.1228 7.92979L31.5152 12.5792L22.0472 22.0472C21.5207 22.5733 21.5207 23.4268 22.0472 23.9529C22.31 24.2161 22.655 24.3477 23 24.3477C23.345 24.3477 23.69 24.2161 23.9528 23.9529L33.4208 14.4849L38.0702 14.8769C38.1081 14.88 38.1457 14.8818 38.1836 14.8818C38.5395 14.8818 38.8827 14.7407 39.1364 14.487L44.8538 8.76927C45.2247 8.39866 45.3469 7.84626 45.1668 7.35353C44.9865 6.86079 44.5369 6.51756 44.0143 6.47369L39.8752 6.12449L39.5263 1.98571C39.4821 1.46279 39.1389 1.01322 38.6465 0.833186C38.1538 0.652796 37.6014 0.775279 37.2304 1.14588L31.513 6.8636C31.2323 7.14436 31.0894 7.53427 31.1228 7.92979Z" fill="#3C64B1"/>
</svg>
