<svg width="41" height="41" viewBox="0 0 41 41" fill="none" xmlns="http://www.w3.org/2000/svg">
<path d="M39.7988 38.5977H2.40234V1.20117C2.40234 0.537244 1.8651 0 1.20117 0C0.537244 0 0 0.537244 0 1.20117V39.7988C0 40.4628 0.537244 41 1.20117 41H39.7988C40.4628 41 41 40.4628 41 39.7988C41 39.1349 40.4628 38.5977 39.7988 38.5977Z" fill="#4759A4"/>
<path d="M6.00586 36.1953H10.8906C11.5546 36.1953 12.0918 35.6581 12.0918 34.9941V27.707C12.0918 27.0431 11.5546 26.5059 10.8906 26.5059H6.00586C5.34193 26.5059 4.80469 27.0431 4.80469 27.707V34.9941C4.80469 35.6581 5.34193 36.1953 6.00586 36.1953Z" fill="#3DACE3"/>
<path d="M15.6953 21.7012C15.0314 21.7012 14.4941 22.2384 14.4941 22.9023V34.9941C14.4941 35.6581 15.0314 36.1953 15.6953 36.1953H20.5C21.1639 36.1953 21.7012 35.6581 21.7012 34.9941V22.9023C21.7012 22.2384 21.1639 21.7012 20.5 21.7012H15.6953Z" fill="#3DACE3"/>
<path d="M25.3047 16.8965C24.6408 16.8965 24.1035 17.4337 24.1035 18.0977V34.9941C24.1035 35.6581 24.6408 36.1953 25.3047 36.1953H30.1094C30.7733 36.1953 31.3105 35.6581 31.3105 34.9941V18.0977C31.3105 17.4337 30.7733 16.8965 30.1094 16.8965H25.3047Z" fill="#3DACE3"/>
<path d="M39.7988 12.0918H34.9141C34.2501 12.0918 33.7129 12.629 33.7129 13.293V34.9941C33.7129 35.6581 34.2501 36.1953 34.9141 36.1953H39.7988C40.4628 36.1953 41 35.6581 41 34.9941V13.293C41 12.629 40.4628 12.0918 39.7988 12.0918Z" fill="#3DACE3"/>
<path d="M4.94772 21.0689C5.26475 21.6582 5.99746 21.8692 6.57467 21.558L34.5449 6.5403L33.8395 7.95104C33.5427 8.54458 33.7832 9.266 34.3767 9.56277C34.9757 9.8601 35.6929 9.61498 35.9885 9.02553L38.3908 4.22084C38.5773 3.84896 38.5574 3.40676 38.338 3.0525C38.1187 2.69823 37.7327 2.48242 37.3163 2.48242H31.3105C30.6465 2.48242 30.1093 3.01967 30.1093 3.68359C30.1093 4.34752 30.6465 4.88477 31.3105 4.88477H32.5517L5.43692 19.4419C4.85275 19.7575 4.63333 20.4859 4.94772 21.0689Z" fill="#4759A4"/>
</svg>
