<svg width="26" height="26" viewBox="0 0 26 26" fill="none" xmlns="http://www.w3.org/2000/svg">
<circle cx="13" cy="13" r="12.5" fill="white"/>
<circle cx="13" cy="13" r="12.5" fill="white"/>
<circle cx="13" cy="13" r="12.5" stroke="white"/>
<g clip-path="url(#clip0)">
<path d="M20.9843 9.70404C20.9468 8.8539 20.8093 8.26944 20.6124 7.76299C20.4092 7.22541 20.0967 6.74412 19.6872 6.34401C19.2871 5.93768 18.8026 5.62195 18.2712 5.42196C17.7619 5.22502 17.1805 5.08754 16.3303 5.05006C15.4738 5.0094 15.2019 5 13.0296 5C10.8573 5 10.5854 5.0094 9.73211 5.04688C8.88197 5.08437 8.29751 5.22197 7.79118 5.41878C7.25348 5.62195 6.77219 5.93451 6.37209 6.34401C5.96576 6.74412 5.65014 7.22858 5.45003 7.75994C5.2531 8.26944 5.11562 8.85073 5.07813 9.70087C5.03748 10.5574 5.02808 10.8293 5.02808 13.0016C5.02808 15.1739 5.03748 15.4458 5.07496 16.2991C5.11244 17.1492 5.25004 17.7337 5.44698 18.2401C5.65014 18.7777 5.96576 19.259 6.37209 19.6591C6.77219 20.0654 7.25666 20.3812 7.78801 20.5812C8.29751 20.7781 8.8788 20.9156 9.72906 20.9531C10.5823 20.9907 10.8543 21 13.0266 21C15.1989 21 15.4708 20.9907 16.3241 20.9531C17.1742 20.9156 17.7587 20.7781 18.265 20.5812C19.3403 20.1654 20.1904 19.3153 20.6062 18.2401C20.803 17.7306 20.9406 17.1492 20.9781 16.2991C21.0155 15.4458 21.025 15.1739 21.025 13.0016C21.025 10.8293 21.0218 10.5574 20.9843 9.70404ZM19.5435 16.2366C19.509 17.018 19.3778 17.4399 19.2684 17.7212C18.9995 18.4183 18.4463 18.9715 17.7493 19.2403C17.468 19.3497 17.043 19.481 16.2646 19.5153C15.4207 19.5529 15.1676 19.5622 13.0328 19.5622C10.898 19.5622 10.6417 19.5529 9.80085 19.5153C9.01945 19.481 8.59749 19.3497 8.31619 19.2403C7.96932 19.1121 7.65358 18.909 7.39731 18.6433C7.13163 18.3838 6.92847 18.0713 6.80027 17.7244C6.69087 17.4431 6.55962 17.018 6.52531 16.2397C6.48771 15.3958 6.47843 15.1426 6.47843 13.0078C6.47843 10.873 6.48771 10.6167 6.52531 9.77596C6.55962 8.99455 6.69087 8.5726 6.80027 8.29129C6.92847 7.9443 7.13163 7.62869 7.40048 7.37229C7.65981 7.10661 7.97237 6.90345 8.31936 6.77537C8.60067 6.66597 9.0258 6.53472 9.80403 6.50029C10.6479 6.46281 10.9012 6.45341 13.0359 6.45341C15.1738 6.45341 15.4269 6.46281 16.2678 6.50029C17.0492 6.53472 17.4712 6.66597 17.7525 6.77537C18.0993 6.90345 18.4151 7.10661 18.6713 7.37229C18.937 7.63174 19.1402 7.9443 19.2684 8.29129C19.3778 8.5726 19.509 8.99761 19.5435 9.77596C19.5809 10.6199 19.5903 10.873 19.5903 13.0078C19.5903 15.1426 19.5809 15.3927 19.5435 16.2366Z" fill="#3C64B1"/>
<path d="M13.0297 8.8916C10.7606 8.8916 8.91956 10.7325 8.91956 13.0018C8.91956 15.271 10.7606 17.112 13.0297 17.112C15.299 17.112 17.1399 15.271 17.1399 13.0018C17.1399 10.7325 15.299 8.8916 13.0297 8.8916ZM13.0297 15.668C11.5576 15.668 10.3636 14.474 10.3636 13.0018C10.3636 11.5296 11.5576 10.3356 13.0297 10.3356C14.5019 10.3356 15.6959 11.5296 15.6959 13.0018C15.6959 14.474 14.5019 15.668 13.0297 15.668Z" fill="#3C64B1"/>
<path d="M18.262 8.72907C18.262 9.25896 17.8323 9.68861 17.3023 9.68861C16.7724 9.68861 16.3428 9.25896 16.3428 8.72907C16.3428 8.19906 16.7724 7.76953 17.3023 7.76953C17.8323 7.76953 18.262 8.19906 18.262 8.72907Z" fill="#3C64B1"/>
</g>
<defs>
<clipPath id="clip0">
<rect width="16" height="16" fill="white" transform="translate(5 5)"/>
</clipPath>
</defs>
</svg>
