<svg width="16" height="16" viewBox="0 0 16 16" fill="none" xmlns="http://www.w3.org/2000/svg">
<g clip-path="url(#clip0)">
<path d="M15.9843 4.70404C15.9468 3.8539 15.8093 3.26944 15.6124 2.76299C15.4092 2.22541 15.0966 1.74412 14.6871 1.34401C14.287 0.937683 13.8026 0.621948 13.2712 0.421957C12.7618 0.22502 12.1804 0.0875415 11.3303 0.0500586C10.4738 0.00940124 10.2019 0 8.0296 0C5.8573 0 5.5854 0.00940124 4.73208 0.0468842C3.88194 0.0843671 3.29748 0.221967 2.79115 0.418783C2.25345 0.621948 1.77216 0.934509 1.37206 1.34401C0.965727 1.74412 0.650114 2.22858 0.450002 2.75994C0.253065 3.26944 0.115587 3.85073 0.0781042 4.70087C0.0374469 5.55736 0.0280457 5.82926 0.0280457 8.00156C0.0280457 10.1739 0.0374469 10.4458 0.0749297 11.2991C0.112413 12.1492 0.250012 12.7337 0.44695 13.2401C0.650114 13.7777 0.965727 14.259 1.37206 14.6591C1.77216 15.0654 2.25663 15.3812 2.78798 15.5812C3.29748 15.7781 3.87877 15.9156 4.72903 15.9531C5.58222 15.9907 5.85425 16 8.02654 16C10.1988 16 10.4707 15.9907 11.3241 15.9531C12.1742 15.9156 12.7587 15.7781 13.265 15.5812C14.3403 15.1654 15.1904 14.3153 15.6061 13.2401C15.803 12.7306 15.9406 12.1492 15.978 11.2991C16.0155 10.4458 16.0249 10.1739 16.0249 8.00156C16.0249 5.82926 16.0217 5.55736 15.9843 4.70404ZM14.5434 11.2366C14.509 12.018 14.3778 12.4399 14.2684 12.7212C13.9995 13.4183 13.4463 13.9715 12.7493 14.2403C12.468 14.3497 12.0429 14.481 11.2646 14.5153C10.4207 14.5529 10.1676 14.5622 8.03277 14.5622C5.89796 14.5622 5.64168 14.5529 4.80082 14.5153C4.01942 14.481 3.59746 14.3497 3.31616 14.2403C2.96929 14.1121 2.65355 13.909 2.39728 13.6433C2.1316 13.3838 1.92844 13.0713 1.80024 12.7244C1.69084 12.4431 1.55959 12.018 1.52528 11.2397C1.48768 10.3958 1.4784 10.1426 1.4784 8.00779C1.4784 5.87297 1.48768 5.6167 1.52528 4.77596C1.55959 3.99455 1.69084 3.5726 1.80024 3.29129C1.92844 2.9443 2.1316 2.62869 2.40045 2.37229C2.65978 2.10661 2.97234 1.90345 3.31933 1.77537C3.60064 1.66597 4.02577 1.53472 4.804 1.50029C5.64791 1.46281 5.90113 1.45341 8.03582 1.45341C10.1738 1.45341 10.4269 1.46281 11.2678 1.50029C12.0492 1.53472 12.4711 1.66597 12.7524 1.77537C13.0993 1.90345 13.415 2.10661 13.6713 2.37229C13.937 2.63174 14.1402 2.9443 14.2684 3.29129C14.3778 3.5726 14.509 3.99761 14.5434 4.77596C14.5809 5.61987 14.5903 5.87297 14.5903 8.00779C14.5903 10.1426 14.5809 10.3927 14.5434 11.2366Z" fill="white"/>
<path d="M8.0297 3.89136C5.76058 3.89136 3.91953 5.7323 3.91953 8.00154C3.91953 10.2708 5.76058 12.1117 8.0297 12.1117C10.2989 12.1117 12.1399 10.2708 12.1399 8.00154C12.1399 5.7323 10.2989 3.89136 8.0297 3.89136ZM8.0297 10.6677C6.55761 10.6677 5.36353 9.47375 5.36353 8.00154C5.36353 6.52933 6.55761 5.33537 8.0297 5.33537C9.50191 5.33537 10.6959 6.52933 10.6959 8.00154C10.6959 9.47375 9.50191 10.6677 8.0297 10.6677Z" fill="white"/>
<path d="M13.262 3.72889C13.262 4.25878 12.8323 4.68843 12.3023 4.68843C11.7724 4.68843 11.3428 4.25878 11.3428 3.72889C11.3428 3.19888 11.7724 2.76935 12.3023 2.76935C12.8323 2.76935 13.262 3.19888 13.262 3.72889Z" fill="white"/>
</g>
<defs>
<clipPath id="clip0">
<rect width="16" height="16" fill="white"/>
</clipPath>
</defs>
</svg>
