<svg width="34" height="34" viewBox="0 0 34 34" fill="none" xmlns="http://www.w3.org/2000/svg">
<g clip-path="url(#clip0)">
<path d="M33.1359 31.9211H30.1118C29.9107 31.9211 29.8974 31.8124 29.8974 31.7571V19.0447V17.4584L30.5685 19.0104C30.831 19.6176 31.4281 20.0099 32.0898 20.0099C32.3163 20.0099 32.5373 19.964 32.7467 19.8734C33.1529 19.6978 33.4664 19.3746 33.6295 18.9631C33.7925 18.5517 33.7854 18.1014 33.6099 17.6951L30.4162 10.3101C30.1537 9.7029 29.5327 9.31046 28.8709 9.31046C28.8471 9.31046 22.7159 9.32572 22.6625 9.32572C22.0543 9.32572 21.5935 9.77088 21.3604 10.3101L18.1669 17.6951C17.9912 18.1014 17.9842 18.5517 18.1472 18.9631C18.3102 19.3745 18.6237 19.6978 19.0298 19.8734C19.2394 19.9639 19.4605 20.0099 19.6869 20.0099C20.3485 20.0099 20.9456 19.6176 21.2081 19.0104L21.825 17.5837V19.0446V31.7572C21.825 31.8124 21.8591 31.9212 21.6639 31.9212H16.0819V14.4412H17.6014C18.0616 14.4412 18.2392 14.2229 18.304 14.0928C18.3689 13.9626 18.4364 13.6894 18.1593 13.322L14.3717 8.29637C14.1802 8.04225 13.9078 7.89648 13.6244 7.89648C13.341 7.89648 13.0686 8.04225 12.8771 8.29637L9.08953 13.3218C8.81249 13.6895 8.8799 13.9626 8.94477 14.0927C9.00963 14.2229 9.18718 14.4412 9.64746 14.4412H11.1669V31.9211H7.76206V21.1151H9.28164C9.74184 21.1151 9.9194 20.8968 9.98426 20.7668C10.0491 20.6366 10.1166 20.3634 9.83956 19.9959L6.05188 14.9703C5.86042 14.7161 5.58806 14.5705 5.30462 14.5705C5.02119 14.5705 4.74883 14.7162 4.55736 14.9703L0.769756 19.9959C0.492709 20.3635 0.560197 20.6366 0.625058 20.7668C0.68992 20.8968 0.867474 21.1151 1.32768 21.1151H2.84711V31.9211H0.864139C0.386829 31.9211 0 32.3079 0 32.7852C0 33.2625 0.386829 33.6494 0.864139 33.6494H33.1359C33.6132 33.6494 34 33.2625 34 32.7852C34 32.3079 33.6131 31.9211 33.1359 31.9211ZM25.4743 31.7572V22.0895H26.2481V31.7572C26.2481 31.8124 26.2679 31.9212 26.1393 31.9212H25.6203C25.4695 31.9211 25.4743 31.8124 25.4743 31.7572Z" fill="#4759A4"/>
<path d="M25.6984 8.70294C28.0005 8.70294 29.8733 6.82961 29.8733 4.52701C29.8733 2.22441 28.0004 0.351074 25.6984 0.351074C23.3958 0.351074 21.5225 2.22434 21.5225 4.52701C21.5225 6.82968 23.3958 8.70294 25.6984 8.70294Z" fill="#3DACE3"/>
</g>
<defs>
<clipPath id="clip0">
<rect width="34" height="34" fill="white"/>
</clipPath>
</defs>
</svg>
