<svg width="48" height="48" viewBox="0 0 48 48" fill="none" xmlns="http://www.w3.org/2000/svg">
<g clip-path="url(#clip0)">
<path d="M43.2409 31.9488H41.3279C41.3785 31.6772 41.4926 31.3499 41.7254 30.989C42.4422 29.8783 42.5955 28.8973 42.7306 28.0318C42.8159 27.4864 42.8964 26.9712 43.1154 26.3768C43.3094 25.8503 43.6826 25.4226 44.0648 25.0968L45.3872 28.3565L48 27.2965L43.272 15.6053L42.1234 15.8378C41.9922 15.8643 38.8897 16.529 36.9497 20.1214C35.5337 22.7435 32.3457 24.7794 28.4673 25.5952L27.6942 22.7591L26.3157 23.1626C24.0388 23.829 22.7152 24.4293 20.678 25.6331C20.667 25.6475 20.6556 25.6624 20.6446 25.6767L15.2892 32.8681H10.8936C10.8936 32.8681 8.43069 29.5109 7.02349 27.6378C6.23906 27.9368 5.54956 28.3715 4.94878 28.9452C3.42889 30.3962 2.81017 32.7974 3.29891 34.994L0 37.1879L3.90053 44.242H5.79261L7.25451 42.5968C8.72995 40.9365 10.85 39.9843 13.071 39.9843C14.9446 39.9843 16.7587 40.6635 18.1795 41.8967C19.7965 43.3002 21.3686 44.0707 22.8472 44.235C24.5449 44.4238 25.5687 44.0083 26.9392 43.5688C27.9779 43.2358 28.7714 42.8937 30.1329 43.0702C30.7081 43.1448 31.2317 43.1804 31.7114 43.1804C34.4019 43.1803 35.6915 42.0583 36.7076 40.391C37.0586 39.8151 37.5489 39.4839 38.0158 39.3368C39.2385 38.9515 40.362 40.3854 40.362 40.3854L43.0259 39.076C43.4999 40.3805 43.7407 41.7448 43.7407 43.1375H46.5604C46.5604 41.2559 46.206 39.4159 45.5074 37.6687L43.2409 31.9488Z" fill="#3C64B1"/>
<path d="M12.3226 30.0485H13.8607L18.4039 23.9653C20.3217 21.4563 22.9482 18.0201 22.9482 13.5745C22.9482 8.13962 18.5266 3.71802 13.0917 3.71802C7.6568 3.71802 3.23511 8.13962 3.23511 13.5745C3.23511 18.0201 5.86153 21.4563 7.77936 23.9653L12.3226 30.0485ZM8.39837 13.5745C8.39837 10.9866 10.5038 8.88119 13.0917 8.88119C15.6796 8.88119 17.785 10.9866 17.785 13.5745C17.785 16.1624 15.6796 18.2678 13.0917 18.2678C10.5038 18.2678 8.39837 16.1625 8.39837 13.5745Z" fill="#3DACE3"/>
</g>
<defs>
<clipPath id="clip0">
<rect width="48" height="48" fill="white"/>
</clipPath>
</defs>
</svg>
