<svg width="40" height="40" viewBox="0 0 40 40" fill="none" xmlns="http://www.w3.org/2000/svg">
<path d="M39.1679 39.264C40.023 38.5444 40.2516 37.3084 39.7013 36.3348L34.4101 26.9207C33.9106 26.0318 32.5476 25.4392 31.0068 25.4222C29.1019 28.089 26.4267 31.1029 22.6763 34.2183C21.9313 34.8364 20.9831 35.1835 20.0095 35.1835C19.036 35.1835 18.0878 34.8448 17.3428 34.2183C13.5924 31.1029 10.9171 28.089 9.01229 25.4222C7.4715 25.4392 6.10001 26.0318 5.60899 26.9207L0.300852 36.3348C-0.249433 37.3084 -0.0293191 38.5444 0.834206 39.264C1.2575 39.6196 1.79086 39.8143 2.34114 39.8143H10.4176H29.593H37.6695C38.2113 39.8143 38.7446 39.6196 39.1679 39.264Z" fill="#3C64B1"/>
<path d="M32.7337 12.918C32.7337 5.73043 26.7822 -0.0602618 19.5438 0.193716C13.2028 0.41383 7.92857 5.3664 7.32748 11.682C7.20896 12.9434 7.27669 14.171 7.4968 15.3393C7.4968 15.3393 7.5222 15.4747 7.58146 15.7372C7.77618 16.6176 8.07249 17.4642 8.43652 18.26C9.71488 21.2908 12.6695 26.3534 19.2898 31.8563C19.6962 32.1949 20.2973 32.1949 20.7037 31.8563C27.324 26.3534 30.2786 21.2993 31.557 18.26C31.9295 17.4557 32.2173 16.6176 32.412 15.7372C32.4713 15.4747 32.4967 15.3393 32.4967 15.3393C32.6575 14.5519 32.7337 13.7392 32.7337 12.918ZM20.001 20.8083C15.7257 20.8083 12.2547 17.3372 12.2547 13.0619C12.2547 8.78664 15.7257 5.3156 20.001 5.3156C24.2763 5.3156 27.7473 8.78664 27.7473 13.0619C27.7473 17.3372 24.2763 20.8083 20.001 20.8083Z" fill="#3DACE3"/>
</svg>
