<svg width="30" height="36" viewBox="0 0 30 36" fill="none" xmlns="http://www.w3.org/2000/svg">
<g style="mix-blend-mode:multiply">
<ellipse cx="15.5" cy="30" rx="13.5" ry="6" fill="#3DACE3"/>
</g>
<g style="mix-blend-mode:multiply" clip-path="url(#clip0)">
<path d="M15.3785 0.00625279C9.28608 -0.199064 4.2829 4.67848 4.2829 10.7245C4.2829 17.586 10.8676 22.5657 14.5584 29.727C14.7458 30.0907 15.2692 30.0911 15.4572 29.7276C18.796 23.2838 24.5025 18.9628 25.56 12.755C26.655 6.33106 21.8912 0.225822 15.3785 0.00625279ZM15.0073 16.342C11.9048 16.342 9.38976 13.8268 9.38976 10.7245C9.38976 7.62213 11.9049 5.10698 15.0073 5.10698C18.1097 5.10698 20.6248 7.62213 20.6248 10.7245C20.6248 13.8268 18.1097 16.342 15.0073 16.342Z" fill="#3C64B1"/>
</g>
<defs>
<clipPath id="clip0">
<rect width="30" height="30" fill="white"/>
</clipPath>
</defs>
</svg>
