<svg width="49" height="49" viewBox="0 0 49 49" fill="none" xmlns="http://www.w3.org/2000/svg">
<g clip-path="url(#clip0)">
<path d="M24.5 9.67371C19.8828 9.67371 16.1259 13.4306 16.1259 18.0478C16.1259 22.665 19.8828 26.4219 24.5 26.4219C29.1172 26.4219 32.8741 22.665 32.8741 18.0478C32.8741 13.4306 29.1172 9.67371 24.5 9.67371Z" fill="#3DACE3"/>
<path d="M22.6187 38.2661L22.5737 38.2249L21.5067 37.2593L18.9957 34.9875L16.2655 35.2814L14.5947 35.4603L14.1986 35.5034L12.923 35.6402L8.90575 44.1771L15.1268 44.2594L19.1535 49L23.7316 39.2727L22.6187 38.2661Z" fill="#4759A4"/>
<path d="M36.077 35.6402L34.8014 35.5034L34.4053 35.4613L32.7345 35.2814L30.0043 34.9875L27.4933 37.2593L26.4263 38.2249L26.3813 38.2661L25.2684 39.2727L29.8465 49L33.8732 44.2594L40.0943 44.1771L36.077 35.6402Z" fill="#4759A4"/>
<path d="M39.166 18.0479L41.6645 12.4709L36.3651 9.42772L35.1086 3.44684L29.032 4.09944L24.5 0L19.968 4.09954L13.8914 3.44694L12.6349 9.42772L7.33536 12.4708L9.83388 18.0478L7.33536 23.6248L12.6349 26.6679L13.8914 32.6487L14.3546 32.599L16.0263 32.4191L17.6971 32.2401L18.145 32.1922H18.146L19.968 31.996L21.3384 33.2353L22.7843 34.5435L23.2351 34.9512L23.8973 35.5502L24.5001 36.0956L25.1029 35.5502L25.7651 34.9512L26.2159 34.5435L27.3403 33.5272L27.3412 33.5262L29.0321 31.9961L31.9852 32.3129H31.9862L32.2867 32.3455L32.9737 32.4191H32.9747L34.6455 32.5991L35.1087 32.6488L36.3652 26.668L41.6647 23.6249L39.166 18.0479ZM24.5 29.2928C18.3 29.2928 13.255 24.2488 13.255 18.0478C13.255 11.8478 18.3 6.80277 24.5 6.80277C30.7 6.80277 35.745 11.8478 35.745 18.0478C35.745 24.2488 30.7 29.2928 24.5 29.2928Z" fill="#4759A4"/>
</g>
<defs>
<clipPath id="clip0">
<rect width="49" height="49" fill="white"/>
</clipPath>
</defs>
</svg>
