<svg width="34" height="34" viewBox="0 0 34 34" fill="none" xmlns="http://www.w3.org/2000/svg">
<g clip-path="url(#clip0)">
<path d="M6.0014 9.93312V5.22922L8.54753 5.89925L9.05665 3.96466L4.00093 2.63422V7.10446C2.05288 6.4135 0 7.86684 0 9.93312C0 11.5877 1.34611 12.9338 3.0007 12.9338C4.65529 12.9338 6.0014 11.5877 6.0014 9.93312Z" fill="#3DACE3"/>
<path d="M29.0068 22.6329V28.1093C27.0572 27.4179 25.0059 28.8733 25.0059 30.938C25.0059 32.5927 26.3519 33.9387 28.0066 33.9387C29.6611 33.9387 31.0073 32.5927 31.0073 30.938V25.2398L33.4824 25.9028L34 23.9704L29.0068 22.6329Z" fill="#4759A4"/>
<path d="M26.5976 24.3471L24.9272 22.6767C23.5083 21.2579 21.1996 21.2579 19.7806 22.6768L11.3453 31.1122C10.1753 32.2822 8.27169 32.2822 7.10168 31.1122L5.55279 29.5633C4.84842 28.8589 4.81028 27.7372 5.43756 26.9872C6.55142 27.5139 7.92474 27.3178 8.84469 26.3978L4.60103 22.1542C3.67782 23.0774 3.48377 24.4571 4.0175 25.573C2.6147 27.1059 2.65465 29.4942 4.13819 30.9778L5.68709 32.5267C7.63708 34.4766 10.8098 34.4766 12.7598 32.5267L21.1952 24.0913C21.8341 23.4523 22.8738 23.4523 23.5126 24.0912L25.183 25.7616L26.5976 24.3471Z" fill="#4759A4"/>
<path d="M5.10156 19.8258C6.43494 21.1592 9.81233 24.5366 11.1724 25.8967C11.8713 25.8713 12.5646 25.6143 13.125 25.1198L22.9472 16.4533C22.0396 15.5457 15.4369 8.94298 14.5456 8.05164L5.87808 17.8748C5.38396 18.4348 5.12704 19.1275 5.10156 19.8258ZM15.9173 13.667L17.3319 15.0815L15.2101 17.2034L13.7955 15.7888L15.9173 13.667Z" fill="#3DACE3"/>
<path d="M28.6485 2.35061C25.7681 -0.52986 21.22 -0.750779 18.0835 1.68746L29.3116 12.9155C31.7499 9.77908 31.5289 5.23102 28.6485 2.35061Z" fill="#3DACE3"/>
<path d="M25.1129 15.7899C26.1059 15.5039 27.0505 15.0117 27.9008 14.3341L16.6647 3.09796C15.9872 3.94829 15.495 4.89285 15.209 5.88588C15.5701 6.24703 24.7863 15.4632 25.1129 15.7899Z" fill="#4759A4"/>
</g>
<defs>
<clipPath id="clip0">
<rect width="34" height="34" fill="white"/>
</clipPath>
</defs>
</svg>
