<svg width="40" height="40" viewBox="0 0 40 40" fill="none" xmlns="http://www.w3.org/2000/svg">
<g clip-path="url(#clip0)">
<path d="M28.1726 29.4749C27.8968 29.1976 27.5806 28.9531 27.2081 28.7753C25.4436 27.931 23.3519 28.6911 22.5206 30.4313C21.6836 32.1832 22.4219 34.2834 24.1777 35.1199C25.923 35.9516 28.0273 35.2146 28.8652 33.464V33.4628L31.6862 27.5554L32.953 31.1385L35.1617 30.3581L32.0089 21.4397L28.1726 29.4749Z" fill="#3DACE3"/>
<path d="M21.6783 12.4255C21.0468 11.9358 20.3086 11.5977 19.4963 11.4799C16.9347 11.1136 14.5565 12.8742 14.184 15.4441C13.7688 18.2873 15.9845 20.8057 18.8257 20.8057C21.1145 20.8057 23.1218 19.1223 23.4605 16.7923C23.4612 16.7876 23.4605 16.783 23.4612 16.7783L23.4628 16.7786L25.1748 3.84187L37.2807 2.62992L36.1783 10.9724C35.5595 10.4915 34.8258 10.1434 33.9962 10.0231C31.4505 9.65406 29.0579 11.4073 28.6839 13.9873C28.2687 16.8305 30.4844 19.3489 33.3256 19.3489C35.6144 19.3489 37.6217 17.6655 37.9604 15.3343C37.9611 15.3296 37.9603 15.325 37.961 15.3203L37.9627 15.3206L39.9953 0L23.0966 1.69719L21.6783 12.4255Z" fill="#4759A4"/>
<path d="M3.47061 40C5.67115 40 7.32514 37.9996 6.93014 35.8492L5.40467 27.4513L12.0815 24.4541L12.906 29.0292C12.5163 28.9668 12.1165 28.9576 11.7152 29.0309C9.80764 29.3808 8.53959 31.2073 8.89084 33.1221C9.20787 34.8503 10.7137 36.0038 12.3412 36.0038C14.5468 36.0038 16.2025 34.0135 15.8065 31.8542L13.8461 21.0781L2.77022 26.0734L4.03053 33.0274C3.64397 32.9643 3.24404 32.9514 2.83779 33.026C0.931154 33.375 -0.284783 35.2118 0.0653728 37.1184C0.375529 38.811 1.80779 40 3.47061 40Z" fill="#4759A4"/>
<path d="M3.52458 18.2902C5.14122 19.3606 7.32146 18.9245 8.3963 17.3015C8.91583 16.5187 9.09896 15.5803 8.91239 14.6602L7.60888 8.24462L10.7766 10.3446L12.0721 8.38993L4.18716 3.16571L5.95856 11.8953C4.49731 11.6856 3.23989 12.3542 2.53575 13.4174C1.45864 15.0438 1.91122 17.2218 3.52458 18.2902Z" fill="#3DACE3"/>
</g>
<defs>
<clipPath id="clip0">
<rect width="40" height="40" fill="white"/>
</clipPath>
</defs>
</svg>
