<svg width="109" height="329" viewBox="0 0 109 329" fill="none" xmlns="http://www.w3.org/2000/svg">
<path opacity="0.19" fill-rule="evenodd" clip-rule="evenodd" d="M5 326.5C5 325.119 3.88071 324 2.5 324C1.11929 324 -1.69631e-07 325.119 -1.09278e-07 326.5C-4.89256e-08 327.881 1.11929 329 2.5 329C3.88071 329 5 327.881 5 326.5ZM4.99999 2.5C4.99999 1.11929 3.8807 -1.69631e-07 2.49999 -1.09278e-07C1.11927 -4.89256e-08 -1.43321e-05 1.11929 -1.42718e-05 2.5C-1.42114e-05 3.88071 1.11927 5 2.49999 5C3.8807 5 4.99999 3.88071 4.99999 2.5ZM2.5 299.077C3.88071 299.077 5 300.196 5 301.577C5 302.958 3.88071 304.077 2.5 304.077C1.11929 304.077 -1.13835e-06 302.958 -1.1987e-06 301.577C-1.25905e-06 300.196 1.11929 299.077 2.5 299.077ZM5 276.654C5 275.273 3.88071 274.154 2.5 274.154C1.11929 274.154 -2.34847e-06 275.273 -2.28812e-06 276.654C-2.22777e-06 278.035 1.11929 279.154 2.5 279.154C3.88071 279.154 5 278.035 5 276.654ZM2.5 249.231C3.88071 249.231 5 250.35 5 251.731C5 253.111 3.88071 254.231 2.5 254.231C1.11928 254.231 -3.31719e-06 253.111 -3.37755e-06 251.731C-3.4379e-06 250.35 1.11928 249.231 2.5 249.231ZM5 226.808C5 225.427 3.88071 224.308 2.5 224.308C1.11928 224.308 -4.52732e-06 225.427 -4.46697e-06 226.808C-4.40661e-06 228.188 1.11928 229.308 2.5 229.308C3.88071 229.308 5 228.188 5 226.808ZM2.49999 199.385C3.88071 199.385 4.99999 200.504 4.99999 201.885C4.99999 203.265 3.88071 204.385 2.49999 204.385C1.11928 204.385 -5.49604e-06 203.265 -5.55639e-06 201.885C-5.61674e-06 200.504 1.11928 199.385 2.49999 199.385ZM4.99999 176.962C4.99999 175.581 3.88071 174.462 2.49999 174.462C1.11928 174.462 -6.70616e-06 175.581 -6.64581e-06 176.962C-6.58546e-06 178.342 1.11928 179.462 2.49999 179.462C3.88071 179.462 4.99999 178.342 4.99999 176.962ZM2.49999 149.538C3.8807 149.538 4.99999 150.658 4.99999 152.038C4.99999 153.419 3.8807 154.538 2.49999 154.538C1.11928 154.538 -7.67488e-06 153.419 -7.73523e-06 152.038C-7.79559e-06 150.658 1.11928 149.538 2.49999 149.538ZM4.99999 127.115C4.99999 125.735 3.8807 124.615 2.49999 124.615C1.11928 124.615 -8.88501e-06 125.735 -8.82466e-06 127.115C-8.76431e-06 128.496 1.11928 129.615 2.49999 129.615C3.8807 129.615 4.99999 128.496 4.99999 127.115ZM2.49999 99.6923C3.8807 99.6923 4.99999 100.812 4.99999 102.192C4.99999 103.573 3.8807 104.692 2.49999 104.692C1.11928 104.692 -9.85373e-06 103.573 -9.91408e-06 102.192C-9.97443e-06 100.812 1.11928 99.6923 2.49999 99.6923ZM4.99999 77.2693C4.99999 75.8886 3.8807 74.7693 2.49999 74.7693C1.11928 74.7693 -1.10639e-05 75.8886 -1.10035e-05 77.2693C-1.09431e-05 78.65 1.11928 79.7693 2.49999 79.7693C3.8807 79.7693 4.99999 78.65 4.99999 77.2693ZM2.49999 49.8462C3.8807 49.8462 4.99999 50.9655 4.99999 52.3462C4.99999 53.7269 3.8807 54.8462 2.49999 54.8462C1.11928 54.8462 -1.20326e-05 53.7269 -1.20929e-05 52.3462C-1.21533e-05 50.9655 1.11928 49.8462 2.49999 49.8462ZM4.99999 27.4231C4.99999 26.0424 3.8807 24.9231 2.49999 24.9231C1.11927 24.9231 -1.32427e-05 26.0424 -1.31823e-05 27.4231C-1.3122e-05 28.8038 1.11928 29.9231 2.49999 29.9231C3.8807 29.9231 4.99999 28.8038 4.99999 27.4231ZM28.2778 324C29.6585 324 30.7778 325.119 30.7778 326.5C30.7778 327.881 29.6585 329 28.2778 329C26.8971 329 25.7778 327.881 25.7778 326.5C25.7778 325.119 26.8971 324 28.2778 324ZM28.2778 -1.23606e-06C29.6585 -1.29641e-06 30.7778 1.11929 30.7778 2.5C30.7778 3.88071 29.6585 5 28.2778 5C26.897 5 25.7778 3.88071 25.7778 2.5C25.7778 1.11929 26.897 -1.17571e-06 28.2778 -1.23606e-06ZM28.2778 299.077C29.6585 299.077 30.7778 300.196 30.7778 301.577C30.7778 302.958 29.6585 304.077 28.2778 304.077C26.8971 304.077 25.7778 302.958 25.7778 301.577C25.7778 300.196 26.8971 299.077 28.2778 299.077ZM28.2778 274.154C29.6585 274.154 30.7778 275.273 30.7778 276.654C30.7778 278.035 29.6585 279.154 28.2778 279.154C26.8971 279.154 25.7778 278.035 25.7778 276.654C25.7778 275.273 26.8971 274.154 28.2778 274.154ZM28.2778 249.231C29.6585 249.231 30.7778 250.35 30.7778 251.731C30.7778 253.111 29.6585 254.231 28.2778 254.231C26.8971 254.231 25.7778 253.111 25.7778 251.731C25.7778 250.35 26.8971 249.231 28.2778 249.231ZM28.2778 224.308C29.6585 224.308 30.7778 225.427 30.7778 226.808C30.7778 228.188 29.6585 229.308 28.2778 229.308C26.8971 229.308 25.7778 228.188 25.7778 226.808C25.7778 225.427 26.8971 224.308 28.2778 224.308ZM28.2778 199.385C29.6585 199.385 30.7778 200.504 30.7778 201.885C30.7778 203.265 29.6585 204.385 28.2778 204.385C26.8971 204.385 25.7778 203.265 25.7778 201.885C25.7778 200.504 26.8971 199.385 28.2778 199.385ZM28.2778 174.462C29.6585 174.462 30.7778 175.581 30.7778 176.962C30.7778 178.342 29.6585 179.462 28.2778 179.462C26.8971 179.462 25.7778 178.342 25.7778 176.962C25.7778 175.581 26.8971 174.462 28.2778 174.462ZM28.2778 149.538C29.6585 149.538 30.7778 150.658 30.7778 152.038C30.7778 153.419 29.6585 154.538 28.2778 154.538C26.8971 154.538 25.7778 153.419 25.7778 152.038C25.7778 150.658 26.8971 149.538 28.2778 149.538ZM28.2778 124.615C29.6585 124.615 30.7778 125.735 30.7778 127.115C30.7778 128.496 29.6585 129.615 28.2778 129.615C26.897 129.615 25.7778 128.496 25.7778 127.115C25.7778 125.735 26.897 124.615 28.2778 124.615ZM28.2778 99.6923C29.6585 99.6923 30.7778 100.812 30.7778 102.192C30.7778 103.573 29.6585 104.692 28.2778 104.692C26.897 104.692 25.7778 103.573 25.7778 102.192C25.7778 100.812 26.897 99.6923 28.2778 99.6923ZM28.2778 74.7693C29.6585 74.7693 30.7778 75.8886 30.7778 77.2693C30.7778 78.65 29.6585 79.7693 28.2778 79.7693C26.897 79.7693 25.7778 78.65 25.7778 77.2693C25.7778 75.8886 26.897 74.7693 28.2778 74.7693ZM28.2778 49.8462C29.6585 49.8462 30.7778 50.9655 30.7778 52.3462C30.7778 53.7269 29.6585 54.8462 28.2778 54.8462C26.897 54.8462 25.7778 53.7269 25.7778 52.3462C25.7778 50.9655 26.897 49.8462 28.2778 49.8462ZM28.2778 24.9231C29.6585 24.9231 30.7778 26.0424 30.7778 27.4231C30.7778 28.8038 29.6585 29.9231 28.2778 29.9231C26.897 29.9231 25.7778 28.8038 25.7778 27.4231C25.7778 26.0424 26.897 24.9231 28.2778 24.9231ZM56.5555 326.5C56.5555 325.119 55.4363 324 54.0555 324C52.6748 324 51.5555 325.119 51.5555 326.5C51.5555 327.881 52.6748 329 54.0555 329C55.4363 329 56.5555 327.881 56.5555 326.5ZM56.5555 2.5C56.5555 1.11929 55.4362 -2.4232e-06 54.0555 -2.36284e-06C52.6748 -2.30249e-06 51.5555 1.11929 51.5555 2.5C51.5555 3.8807 52.6748 5 54.0555 5C55.4362 5 56.5555 3.8807 56.5555 2.5ZM56.5555 301.577C56.5555 300.196 55.4363 299.077 54.0555 299.077C52.6748 299.077 51.5555 300.196 51.5555 301.577C51.5555 302.958 52.6748 304.077 54.0555 304.077C55.4363 304.077 56.5555 302.958 56.5555 301.577ZM56.5555 276.654C56.5555 275.273 55.4363 274.154 54.0555 274.154C52.6748 274.154 51.5555 275.273 51.5555 276.654C51.5555 278.035 52.6748 279.154 54.0555 279.154C55.4363 279.154 56.5555 278.035 56.5555 276.654ZM56.5555 251.731C56.5555 250.35 55.4362 249.231 54.0555 249.231C52.6748 249.231 51.5555 250.35 51.5555 251.731C51.5555 253.111 52.6748 254.231 54.0555 254.231C55.4362 254.231 56.5555 253.111 56.5555 251.731ZM56.5555 226.808C56.5555 225.427 55.4362 224.308 54.0555 224.308C52.6748 224.308 51.5555 225.427 51.5555 226.808C51.5555 228.188 52.6748 229.308 54.0555 229.308C55.4362 229.308 56.5555 228.188 56.5555 226.808ZM56.5555 201.885C56.5555 200.504 55.4362 199.385 54.0555 199.385C52.6748 199.385 51.5555 200.504 51.5555 201.885C51.5555 203.265 52.6748 204.385 54.0555 204.385C55.4362 204.385 56.5555 203.265 56.5555 201.885ZM56.5555 176.962C56.5555 175.581 55.4362 174.462 54.0555 174.462C52.6748 174.462 51.5555 175.581 51.5555 176.962C51.5555 178.342 52.6748 179.462 54.0555 179.462C55.4362 179.462 56.5555 178.342 56.5555 176.962ZM56.5555 152.038C56.5555 150.658 55.4362 149.538 54.0555 149.538C52.6748 149.538 51.5555 150.658 51.5555 152.038C51.5555 153.419 52.6748 154.538 54.0555 154.538C55.4362 154.538 56.5555 153.419 56.5555 152.038ZM56.5555 127.115C56.5555 125.735 55.4362 124.615 54.0555 124.615C52.6748 124.615 51.5555 125.735 51.5555 127.115C51.5555 128.496 52.6748 129.615 54.0555 129.615C55.4362 129.615 56.5555 128.496 56.5555 127.115ZM56.5555 102.192C56.5555 100.812 55.4362 99.6923 54.0555 99.6923C52.6748 99.6923 51.5555 100.812 51.5555 102.192C51.5555 103.573 52.6748 104.692 54.0555 104.692C55.4362 104.692 56.5555 103.573 56.5555 102.192ZM56.5555 77.2693C56.5555 75.8886 55.4362 74.7693 54.0555 74.7693C52.6748 74.7693 51.5555 75.8886 51.5555 77.2693C51.5555 78.65 52.6748 79.7693 54.0555 79.7693C55.4362 79.7693 56.5555 78.65 56.5555 77.2693ZM56.5555 52.3462C56.5555 50.9655 55.4362 49.8462 54.0555 49.8462C52.6748 49.8462 51.5555 50.9655 51.5555 52.3462C51.5555 53.7269 52.6748 54.8462 54.0555 54.8462C55.4362 54.8462 56.5555 53.7269 56.5555 52.3462ZM56.5555 27.4231C56.5555 26.0424 55.4362 24.9231 54.0555 24.9231C52.6748 24.9231 51.5555 26.0424 51.5555 27.4231C51.5555 28.8038 52.6748 29.9231 54.0555 29.9231C55.4362 29.9231 56.5555 28.8038 56.5555 27.4231ZM79.8333 324C81.2141 324 82.3333 325.119 82.3333 326.5C82.3333 327.881 81.2141 329 79.8333 329C78.4526 329 77.3333 327.881 77.3333 326.5C77.3333 325.119 78.4526 324 79.8333 324ZM79.8333 -3.48963e-06C81.214 -3.54998e-06 82.3333 1.11929 82.3333 2.5C82.3333 3.8807 81.214 5 79.8333 5C78.4526 5 77.3333 3.8807 77.3333 2.5C77.3333 1.11929 78.4526 -3.42927e-06 79.8333 -3.48963e-06ZM79.8333 299.077C81.2141 299.077 82.3333 300.196 82.3333 301.577C82.3333 302.958 81.2141 304.077 79.8333 304.077C78.4526 304.077 77.3333 302.958 77.3333 301.577C77.3333 300.196 78.4526 299.077 79.8333 299.077ZM79.8333 274.154C81.2141 274.154 82.3333 275.273 82.3333 276.654C82.3333 278.035 81.2141 279.154 79.8333 279.154C78.4526 279.154 77.3333 278.035 77.3333 276.654C77.3333 275.273 78.4526 274.154 79.8333 274.154ZM79.8333 249.231C81.2141 249.231 82.3333 250.35 82.3333 251.731C82.3333 253.111 81.2141 254.231 79.8333 254.231C78.4526 254.231 77.3333 253.111 77.3333 251.731C77.3333 250.35 78.4526 249.231 79.8333 249.231ZM79.8333 224.308C81.2141 224.308 82.3333 225.427 82.3333 226.808C82.3333 228.188 81.2141 229.308 79.8333 229.308C78.4526 229.308 77.3333 228.188 77.3333 226.808C77.3333 225.427 78.4526 224.308 79.8333 224.308ZM79.8333 199.385C81.2141 199.385 82.3333 200.504 82.3333 201.885C82.3333 203.265 81.2141 204.385 79.8333 204.385C78.4526 204.385 77.3333 203.265 77.3333 201.885C77.3333 200.504 78.4526 199.385 79.8333 199.385ZM79.8333 174.462C81.2141 174.462 82.3333 175.581 82.3333 176.962C82.3333 178.342 81.2141 179.462 79.8333 179.462C78.4526 179.462 77.3333 178.342 77.3333 176.962C77.3333 175.581 78.4526 174.462 79.8333 174.462ZM79.8333 149.538C81.2141 149.538 82.3333 150.658 82.3333 152.038C82.3333 153.419 81.2141 154.538 79.8333 154.538C78.4526 154.538 77.3333 153.419 77.3333 152.038C77.3333 150.658 78.4526 149.538 79.8333 149.538ZM79.8333 124.615C81.214 124.615 82.3333 125.735 82.3333 127.115C82.3333 128.496 81.214 129.615 79.8333 129.615C78.4526 129.615 77.3333 128.496 77.3333 127.115C77.3333 125.735 78.4526 124.615 79.8333 124.615ZM79.8333 99.6923C81.214 99.6923 82.3333 100.812 82.3333 102.192C82.3333 103.573 81.214 104.692 79.8333 104.692C78.4526 104.692 77.3333 103.573 77.3333 102.192C77.3333 100.812 78.4526 99.6923 79.8333 99.6923ZM79.8333 74.7693C81.214 74.7693 82.3333 75.8886 82.3333 77.2693C82.3333 78.65 81.214 79.7693 79.8333 79.7693C78.4526 79.7693 77.3333 78.65 77.3333 77.2693C77.3333 75.8886 78.4526 74.7693 79.8333 74.7693ZM79.8333 49.8462C81.214 49.8462 82.3333 50.9655 82.3333 52.3462C82.3333 53.7269 81.214 54.8462 79.8333 54.8462C78.4526 54.8462 77.3333 53.7269 77.3333 52.3462C77.3333 50.9655 78.4526 49.8462 79.8333 49.8462ZM79.8333 24.9231C81.214 24.9231 82.3333 26.0424 82.3333 27.4231C82.3333 28.8038 81.214 29.9231 79.8333 29.9231C78.4526 29.9231 77.3333 28.8038 77.3333 27.4231C77.3333 26.0424 78.4526 24.9231 79.8333 24.9231ZM108.111 326.5C108.111 325.119 106.992 324 105.611 324C104.23 324 103.111 325.119 103.111 326.5C103.111 327.881 104.23 329 105.611 329C106.992 329 108.111 327.881 108.111 326.5ZM108.111 2.5C108.111 1.11929 106.992 -4.67676e-06 105.611 -4.61641e-06C104.23 -4.55606e-06 103.111 1.11929 103.111 2.5C103.111 3.8807 104.23 5 105.611 5C106.992 5 108.111 3.8807 108.111 2.5ZM108.111 301.577C108.111 300.196 106.992 299.077 105.611 299.077C104.23 299.077 103.111 300.196 103.111 301.577C103.111 302.958 104.23 304.077 105.611 304.077C106.992 304.077 108.111 302.958 108.111 301.577ZM108.111 276.654C108.111 275.273 106.992 274.154 105.611 274.154C104.23 274.154 103.111 275.273 103.111 276.654C103.111 278.035 104.23 279.154 105.611 279.154C106.992 279.154 108.111 278.035 108.111 276.654ZM108.111 251.731C108.111 250.35 106.992 249.231 105.611 249.231C104.23 249.231 103.111 250.35 103.111 251.731C103.111 253.111 104.23 254.231 105.611 254.231C106.992 254.231 108.111 253.111 108.111 251.731ZM108.111 226.808C108.111 225.427 106.992 224.308 105.611 224.308C104.23 224.308 103.111 225.427 103.111 226.808C103.111 228.188 104.23 229.308 105.611 229.308C106.992 229.308 108.111 228.188 108.111 226.808ZM108.111 201.885C108.111 200.504 106.992 199.385 105.611 199.385C104.23 199.385 103.111 200.504 103.111 201.885C103.111 203.265 104.23 204.385 105.611 204.385C106.992 204.385 108.111 203.265 108.111 201.885ZM108.111 176.962C108.111 175.581 106.992 174.462 105.611 174.462C104.23 174.462 103.111 175.581 103.111 176.962C103.111 178.342 104.23 179.462 105.611 179.462C106.992 179.462 108.111 178.342 108.111 176.962ZM108.111 152.038C108.111 150.658 106.992 149.538 105.611 149.538C104.23 149.538 103.111 150.658 103.111 152.038C103.111 153.419 104.23 154.538 105.611 154.538C106.992 154.538 108.111 153.419 108.111 152.038ZM108.111 127.115C108.111 125.735 106.992 124.615 105.611 124.615C104.23 124.615 103.111 125.735 103.111 127.115C103.111 128.496 104.23 129.615 105.611 129.615C106.992 129.615 108.111 128.496 108.111 127.115ZM108.111 102.192C108.111 100.812 106.992 99.6923 105.611 99.6923C104.23 99.6923 103.111 100.812 103.111 102.192C103.111 103.573 104.23 104.692 105.611 104.692C106.992 104.692 108.111 103.573 108.111 102.192ZM108.111 77.2693C108.111 75.8886 106.992 74.7693 105.611 74.7693C104.23 74.7693 103.111 75.8886 103.111 77.2693C103.111 78.65 104.23 79.7693 105.611 79.7693C106.992 79.7693 108.111 78.65 108.111 77.2693ZM108.111 52.3462C108.111 50.9655 106.992 49.8462 105.611 49.8462C104.23 49.8462 103.111 50.9655 103.111 52.3462C103.111 53.7269 104.23 54.8462 105.611 54.8462C106.992 54.8462 108.111 53.7269 108.111 52.3462ZM108.111 27.4231C108.111 26.0424 106.992 24.9231 105.611 24.9231C104.23 24.9231 103.111 26.0424 103.111 27.4231C103.111 28.8038 104.23 29.9231 105.611 29.9231C106.992 29.9231 108.111 28.8038 108.111 27.4231Z" fill="white"/>
</svg>
