<svg width="329" height="109" viewBox="0 0 329 109" fill="none" xmlns="http://www.w3.org/2000/svg">
<path opacity="0.19" fill-rule="evenodd" clip-rule="evenodd" d="M2.5 5C3.88071 5 5 3.88071 5 2.5C5 1.11929 3.88071 0 2.5 0C1.11929 0 0 1.11929 0 2.5C0 3.88071 1.11929 5 2.5 5ZM326.5 5C327.881 5 329 3.88071 329 2.5C329 1.11929 327.881 0 326.5 0C325.119 0 324 1.11929 324 2.5C324 3.88071 325.119 5 326.5 5ZM29.9231 2.5C29.9231 3.88071 28.8038 5 27.4231 5C26.0424 5 24.9231 3.88071 24.9231 2.5C24.9231 1.11929 26.0424 0 27.4231 0C28.8038 0 29.9231 1.11929 29.9231 2.5ZM52.3461 5C53.7268 5 54.8461 3.88071 54.8461 2.5C54.8461 1.11929 53.7268 0 52.3461 0C50.9654 0 49.8461 1.11929 49.8461 2.5C49.8461 3.88071 50.9654 5 52.3461 5ZM79.7692 2.5C79.7692 3.88071 78.6499 5 77.2692 5C75.8885 5 74.7692 3.88071 74.7692 2.5C74.7692 1.11929 75.8885 0 77.2692 0C78.6499 0 79.7692 1.11929 79.7692 2.5ZM102.192 5C103.573 5 104.692 3.88071 104.692 2.5C104.692 1.11929 103.573 0 102.192 0C100.812 0 99.6923 1.11929 99.6923 2.5C99.6923 3.88071 100.812 5 102.192 5ZM129.615 2.5C129.615 3.88071 128.496 5 127.115 5C125.735 5 124.615 3.88071 124.615 2.5C124.615 1.11929 125.735 0 127.115 0C128.496 0 129.615 1.11929 129.615 2.5ZM152.038 5C153.419 5 154.538 3.88071 154.538 2.5C154.538 1.11929 153.419 0 152.038 0C150.658 0 149.538 1.11929 149.538 2.5C149.538 3.88071 150.658 5 152.038 5ZM179.462 2.5C179.462 3.88071 178.342 5 176.962 5C175.581 5 174.462 3.88071 174.462 2.5C174.462 1.11929 175.581 0 176.962 0C178.342 0 179.462 1.11929 179.462 2.5ZM201.885 5C203.265 5 204.385 3.88071 204.385 2.5C204.385 1.11929 203.265 0 201.885 0C200.504 0 199.385 1.11929 199.385 2.5C199.385 3.88071 200.504 5 201.885 5ZM229.308 2.5C229.308 3.88071 228.188 5 226.808 5C225.427 5 224.308 3.88071 224.308 2.5C224.308 1.11929 225.427 0 226.808 0C228.188 0 229.308 1.11929 229.308 2.5ZM251.731 5C253.111 5 254.231 3.88071 254.231 2.5C254.231 1.11929 253.111 0 251.731 0C250.35 0 249.231 1.11929 249.231 2.5C249.231 3.88071 250.35 5 251.731 5ZM279.154 2.5C279.154 3.88071 278.035 5 276.654 5C275.273 5 274.154 3.88071 274.154 2.5C274.154 1.11929 275.273 0 276.654 0C278.035 0 279.154 1.11929 279.154 2.5ZM301.577 5C302.958 5 304.077 3.88071 304.077 2.5C304.077 1.11929 302.958 0 301.577 0C300.196 0 299.077 1.11929 299.077 2.5C299.077 3.88071 300.196 5 301.577 5ZM5 28.2778C5 29.6585 3.88071 30.7778 2.5 30.7778C1.11929 30.7778 0 29.6585 0 28.2778C0 26.8971 1.11929 25.7778 2.5 25.7778C3.88071 25.7778 5 26.8971 5 28.2778ZM329 28.2778C329 29.6585 327.881 30.7778 326.5 30.7778C325.119 30.7778 324 29.6585 324 28.2778C324 26.8971 325.119 25.7778 326.5 25.7778C327.881 25.7778 329 26.8971 329 28.2778ZM29.9231 28.2778C29.9231 29.6585 28.8038 30.7778 27.4231 30.7778C26.0424 30.7778 24.9231 29.6585 24.9231 28.2778C24.9231 26.8971 26.0424 25.7778 27.4231 25.7778C28.8038 25.7778 29.9231 26.8971 29.9231 28.2778ZM54.8461 28.2778C54.8461 29.6585 53.7268 30.7778 52.3461 30.7778C50.9654 30.7778 49.8461 29.6585 49.8461 28.2778C49.8461 26.8971 50.9654 25.7778 52.3461 25.7778C53.7268 25.7778 54.8461 26.8971 54.8461 28.2778ZM79.7692 28.2778C79.7692 29.6585 78.6499 30.7778 77.2692 30.7778C75.8885 30.7778 74.7692 29.6585 74.7692 28.2778C74.7692 26.8971 75.8885 25.7778 77.2692 25.7778C78.6499 25.7778 79.7692 26.8971 79.7692 28.2778ZM104.692 28.2778C104.692 29.6585 103.573 30.7778 102.192 30.7778C100.812 30.7778 99.6923 29.6585 99.6923 28.2778C99.6923 26.8971 100.812 25.7778 102.192 25.7778C103.573 25.7778 104.692 26.8971 104.692 28.2778ZM129.615 28.2778C129.615 29.6585 128.496 30.7778 127.115 30.7778C125.735 30.7778 124.615 29.6585 124.615 28.2778C124.615 26.8971 125.735 25.7778 127.115 25.7778C128.496 25.7778 129.615 26.8971 129.615 28.2778ZM154.538 28.2778C154.538 29.6585 153.419 30.7778 152.038 30.7778C150.658 30.7778 149.538 29.6585 149.538 28.2778C149.538 26.8971 150.658 25.7778 152.038 25.7778C153.419 25.7778 154.538 26.8971 154.538 28.2778ZM179.462 28.2778C179.462 29.6585 178.342 30.7778 176.962 30.7778C175.581 30.7778 174.462 29.6585 174.462 28.2778C174.462 26.8971 175.581 25.7778 176.962 25.7778C178.342 25.7778 179.462 26.8971 179.462 28.2778ZM204.385 28.2778C204.385 29.6585 203.265 30.7778 201.885 30.7778C200.504 30.7778 199.385 29.6585 199.385 28.2778C199.385 26.8971 200.504 25.7778 201.885 25.7778C203.265 25.7778 204.385 26.8971 204.385 28.2778ZM229.308 28.2778C229.308 29.6585 228.188 30.7778 226.808 30.7778C225.427 30.7778 224.308 29.6585 224.308 28.2778C224.308 26.8971 225.427 25.7778 226.808 25.7778C228.188 25.7778 229.308 26.8971 229.308 28.2778ZM254.231 28.2778C254.231 29.6585 253.111 30.7778 251.731 30.7778C250.35 30.7778 249.231 29.6585 249.231 28.2778C249.231 26.8971 250.35 25.7778 251.731 25.7778C253.111 25.7778 254.231 26.8971 254.231 28.2778ZM279.154 28.2778C279.154 29.6585 278.035 30.7778 276.654 30.7778C275.273 30.7778 274.154 29.6585 274.154 28.2778C274.154 26.8971 275.273 25.7778 276.654 25.7778C278.035 25.7778 279.154 26.8971 279.154 28.2778ZM304.077 28.2778C304.077 29.6585 302.958 30.7778 301.577 30.7778C300.196 30.7778 299.077 29.6585 299.077 28.2778C299.077 26.8971 300.196 25.7778 301.577 25.7778C302.958 25.7778 304.077 26.8971 304.077 28.2778ZM2.5 56.5555C3.88071 56.5555 5 55.4363 5 54.0555C5 52.6748 3.88071 51.5555 2.5 51.5555C1.11929 51.5555 0 52.6748 0 54.0555C0 55.4363 1.11929 56.5555 2.5 56.5555ZM326.5 56.5555C327.881 56.5555 329 55.4363 329 54.0555C329 52.6748 327.881 51.5555 326.5 51.5555C325.119 51.5555 324 52.6748 324 54.0555C324 55.4363 325.119 56.5555 326.5 56.5555ZM27.4231 56.5555C28.8038 56.5555 29.9231 55.4363 29.9231 54.0555C29.9231 52.6748 28.8038 51.5555 27.4231 51.5555C26.0424 51.5555 24.9231 52.6748 24.9231 54.0555C24.9231 55.4363 26.0424 56.5555 27.4231 56.5555ZM52.3461 56.5555C53.7268 56.5555 54.8461 55.4363 54.8461 54.0555C54.8461 52.6748 53.7268 51.5555 52.3461 51.5555C50.9654 51.5555 49.8461 52.6748 49.8461 54.0555C49.8461 55.4363 50.9654 56.5555 52.3461 56.5555ZM77.2692 56.5555C78.6499 56.5555 79.7692 55.4363 79.7692 54.0555C79.7692 52.6748 78.6499 51.5555 77.2692 51.5555C75.8885 51.5555 74.7692 52.6748 74.7692 54.0555C74.7692 55.4363 75.8885 56.5555 77.2692 56.5555ZM102.192 56.5555C103.573 56.5555 104.692 55.4363 104.692 54.0555C104.692 52.6748 103.573 51.5555 102.192 51.5555C100.812 51.5555 99.6923 52.6748 99.6923 54.0555C99.6923 55.4363 100.812 56.5555 102.192 56.5555ZM127.115 56.5555C128.496 56.5555 129.615 55.4363 129.615 54.0555C129.615 52.6748 128.496 51.5555 127.115 51.5555C125.735 51.5555 124.615 52.6748 124.615 54.0555C124.615 55.4363 125.735 56.5555 127.115 56.5555ZM152.038 56.5555C153.419 56.5555 154.538 55.4363 154.538 54.0555C154.538 52.6748 153.419 51.5555 152.038 51.5555C150.658 51.5555 149.538 52.6748 149.538 54.0555C149.538 55.4363 150.658 56.5555 152.038 56.5555ZM176.962 56.5555C178.342 56.5555 179.462 55.4363 179.462 54.0555C179.462 52.6748 178.342 51.5555 176.962 51.5555C175.581 51.5555 174.462 52.6748 174.462 54.0555C174.462 55.4363 175.581 56.5555 176.962 56.5555ZM201.885 56.5555C203.265 56.5555 204.385 55.4363 204.385 54.0555C204.385 52.6748 203.265 51.5555 201.885 51.5555C200.504 51.5555 199.385 52.6748 199.385 54.0555C199.385 55.4363 200.504 56.5555 201.885 56.5555ZM226.808 56.5555C228.188 56.5555 229.308 55.4363 229.308 54.0555C229.308 52.6748 228.188 51.5555 226.808 51.5555C225.427 51.5555 224.308 52.6748 224.308 54.0555C224.308 55.4363 225.427 56.5555 226.808 56.5555ZM251.731 56.5555C253.111 56.5555 254.231 55.4363 254.231 54.0555C254.231 52.6748 253.111 51.5555 251.731 51.5555C250.35 51.5555 249.231 52.6748 249.231 54.0555C249.231 55.4363 250.35 56.5555 251.731 56.5555ZM276.654 56.5555C278.035 56.5555 279.154 55.4363 279.154 54.0555C279.154 52.6748 278.035 51.5555 276.654 51.5555C275.273 51.5555 274.154 52.6748 274.154 54.0555C274.154 55.4363 275.273 56.5555 276.654 56.5555ZM301.577 56.5555C302.958 56.5555 304.077 55.4363 304.077 54.0555C304.077 52.6748 302.958 51.5555 301.577 51.5555C300.196 51.5555 299.077 52.6748 299.077 54.0555C299.077 55.4363 300.196 56.5555 301.577 56.5555ZM5 79.8333C5 81.2141 3.88071 82.3333 2.5 82.3333C1.11929 82.3333 0 81.2141 0 79.8333C0 78.4526 1.11929 77.3333 2.5 77.3333C3.88071 77.3333 5 78.4526 5 79.8333ZM329 79.8333C329 81.2141 327.881 82.3333 326.5 82.3333C325.119 82.3333 324 81.2141 324 79.8333C324 78.4526 325.119 77.3333 326.5 77.3333C327.881 77.3333 329 78.4526 329 79.8333ZM29.9231 79.8333C29.9231 81.2141 28.8038 82.3333 27.4231 82.3333C26.0424 82.3333 24.9231 81.2141 24.9231 79.8333C24.9231 78.4526 26.0424 77.3333 27.4231 77.3333C28.8038 77.3333 29.9231 78.4526 29.9231 79.8333ZM54.8461 79.8333C54.8461 81.2141 53.7268 82.3333 52.3461 82.3333C50.9654 82.3333 49.8461 81.2141 49.8461 79.8333C49.8461 78.4526 50.9654 77.3333 52.3461 77.3333C53.7268 77.3333 54.8461 78.4526 54.8461 79.8333ZM79.7692 79.8333C79.7692 81.2141 78.6499 82.3333 77.2692 82.3333C75.8885 82.3333 74.7692 81.2141 74.7692 79.8333C74.7692 78.4526 75.8885 77.3333 77.2692 77.3333C78.6499 77.3333 79.7692 78.4526 79.7692 79.8333ZM104.692 79.8333C104.692 81.2141 103.573 82.3333 102.192 82.3333C100.812 82.3333 99.6923 81.2141 99.6923 79.8333C99.6923 78.4526 100.812 77.3333 102.192 77.3333C103.573 77.3333 104.692 78.4526 104.692 79.8333ZM129.615 79.8333C129.615 81.2141 128.496 82.3333 127.115 82.3333C125.735 82.3333 124.615 81.2141 124.615 79.8333C124.615 78.4526 125.735 77.3333 127.115 77.3333C128.496 77.3333 129.615 78.4526 129.615 79.8333ZM154.538 79.8333C154.538 81.2141 153.419 82.3333 152.038 82.3333C150.658 82.3333 149.538 81.2141 149.538 79.8333C149.538 78.4526 150.658 77.3333 152.038 77.3333C153.419 77.3333 154.538 78.4526 154.538 79.8333ZM179.462 79.8333C179.462 81.2141 178.342 82.3333 176.962 82.3333C175.581 82.3333 174.462 81.2141 174.462 79.8333C174.462 78.4526 175.581 77.3333 176.962 77.3333C178.342 77.3333 179.462 78.4526 179.462 79.8333ZM204.385 79.8333C204.385 81.2141 203.265 82.3333 201.885 82.3333C200.504 82.3333 199.385 81.2141 199.385 79.8333C199.385 78.4526 200.504 77.3333 201.885 77.3333C203.265 77.3333 204.385 78.4526 204.385 79.8333ZM229.308 79.8333C229.308 81.2141 228.188 82.3333 226.808 82.3333C225.427 82.3333 224.308 81.2141 224.308 79.8333C224.308 78.4526 225.427 77.3333 226.808 77.3333C228.188 77.3333 229.308 78.4526 229.308 79.8333ZM254.231 79.8333C254.231 81.2141 253.111 82.3333 251.731 82.3333C250.35 82.3333 249.231 81.2141 249.231 79.8333C249.231 78.4526 250.35 77.3333 251.731 77.3333C253.111 77.3333 254.231 78.4526 254.231 79.8333ZM279.154 79.8333C279.154 81.2141 278.035 82.3333 276.654 82.3333C275.273 82.3333 274.154 81.2141 274.154 79.8333C274.154 78.4526 275.273 77.3333 276.654 77.3333C278.035 77.3333 279.154 78.4526 279.154 79.8333ZM304.077 79.8333C304.077 81.2141 302.958 82.3333 301.577 82.3333C300.196 82.3333 299.077 81.2141 299.077 79.8333C299.077 78.4526 300.196 77.3333 301.577 77.3333C302.958 77.3333 304.077 78.4526 304.077 79.8333ZM2.5 108.111C3.88071 108.111 5 106.992 5 105.611C5 104.23 3.88071 103.111 2.5 103.111C1.11929 103.111 0 104.23 0 105.611C0 106.992 1.11929 108.111 2.5 108.111ZM326.5 108.111C327.881 108.111 329 106.992 329 105.611C329 104.23 327.881 103.111 326.5 103.111C325.119 103.111 324 104.23 324 105.611C324 106.992 325.119 108.111 326.5 108.111ZM27.4231 108.111C28.8038 108.111 29.9231 106.992 29.9231 105.611C29.9231 104.23 28.8038 103.111 27.4231 103.111C26.0424 103.111 24.9231 104.23 24.9231 105.611C24.9231 106.992 26.0424 108.111 27.4231 108.111ZM52.3461 108.111C53.7268 108.111 54.8461 106.992 54.8461 105.611C54.8461 104.23 53.7268 103.111 52.3461 103.111C50.9654 103.111 49.8461 104.23 49.8461 105.611C49.8461 106.992 50.9654 108.111 52.3461 108.111ZM77.2692 108.111C78.6499 108.111 79.7692 106.992 79.7692 105.611C79.7692 104.23 78.6499 103.111 77.2692 103.111C75.8885 103.111 74.7692 104.23 74.7692 105.611C74.7692 106.992 75.8885 108.111 77.2692 108.111ZM102.192 108.111C103.573 108.111 104.692 106.992 104.692 105.611C104.692 104.23 103.573 103.111 102.192 103.111C100.812 103.111 99.6923 104.23 99.6923 105.611C99.6923 106.992 100.812 108.111 102.192 108.111ZM127.115 108.111C128.496 108.111 129.615 106.992 129.615 105.611C129.615 104.23 128.496 103.111 127.115 103.111C125.735 103.111 124.615 104.23 124.615 105.611C124.615 106.992 125.735 108.111 127.115 108.111ZM152.038 108.111C153.419 108.111 154.538 106.992 154.538 105.611C154.538 104.23 153.419 103.111 152.038 103.111C150.658 103.111 149.538 104.23 149.538 105.611C149.538 106.992 150.658 108.111 152.038 108.111ZM176.962 108.111C178.342 108.111 179.462 106.992 179.462 105.611C179.462 104.23 178.342 103.111 176.962 103.111C175.581 103.111 174.462 104.23 174.462 105.611C174.462 106.992 175.581 108.111 176.962 108.111ZM201.885 108.111C203.265 108.111 204.385 106.992 204.385 105.611C204.385 104.23 203.265 103.111 201.885 103.111C200.504 103.111 199.385 104.23 199.385 105.611C199.385 106.992 200.504 108.111 201.885 108.111ZM226.808 108.111C228.188 108.111 229.308 106.992 229.308 105.611C229.308 104.23 228.188 103.111 226.808 103.111C225.427 103.111 224.308 104.23 224.308 105.611C224.308 106.992 225.427 108.111 226.808 108.111ZM251.731 108.111C253.111 108.111 254.231 106.992 254.231 105.611C254.231 104.23 253.111 103.111 251.731 103.111C250.35 103.111 249.231 104.23 249.231 105.611C249.231 106.992 250.35 108.111 251.731 108.111ZM276.654 108.111C278.035 108.111 279.154 106.992 279.154 105.611C279.154 104.23 278.035 103.111 276.654 103.111C275.273 103.111 274.154 104.23 274.154 105.611C274.154 106.992 275.273 108.111 276.654 108.111ZM301.577 108.111C302.958 108.111 304.077 106.992 304.077 105.611C304.077 104.23 302.958 103.111 301.577 103.111C300.196 103.111 299.077 104.23 299.077 105.611C299.077 106.992 300.196 108.111 301.577 108.111Z" fill="white"/>
</svg>
