<svg width="40" height="40" viewBox="0 0 40 40" fill="none" xmlns="http://www.w3.org/2000/svg">
<path d="M20 0C12.096 0 5.66602 6.43 5.66602 14.333C5.66602 25.712 18.462 37.143 19.007 37.625C19.292 37.875 19.646 38 20 38C20.368 38 20.736 37.865 21.023 37.596C21.566 37.088 34.334 25.028 34.334 14.334C34.334 6.431 27.902 0 20 0ZM20 21.168C16.225 21.168 13.166 18.107 13.166 14.335C13.166 10.563 16.225 7.502 20 7.502C23.773 7.502 26.832 10.562 26.832 14.335C26.832 18.108 23.773 21.168 20 21.168Z" fill="#3DACE3"/>
</svg>
