<svg width="41" height="33" viewBox="0 0 41 33" fill="none" xmlns="http://www.w3.org/2000/svg">
<path fill-rule="evenodd" clip-rule="evenodd" d="M6 0C2.68629 0 0 2.68629 0 6V27C0 30.3137 2.68629 33 6 33H18.9242V0H6ZM6.85179 12.2945L5.8266 14.7014H3.83565L8.51586 4.30095H10.4177L15.1127 14.7014H13.0921L12.052 12.2945H6.85179ZM11.4131 10.779L9.4519 6.23246L7.50553 10.779H11.4131ZM3.59716 18.846C3.59716 18.1981 4.12232 17.673 4.77014 17.673H13.9976C14.6455 17.673 15.1706 18.1981 15.1706 18.846C15.1706 19.4938 14.6455 20.019 13.9976 20.019H4.77014C4.12232 20.019 3.59716 19.4938 3.59716 18.846ZM4.77014 22.2085C4.12232 22.2085 3.59716 22.7337 3.59716 23.3815C3.59716 24.0293 4.12232 24.5545 4.77014 24.5545H13.9976C14.6455 24.5545 15.1706 24.0293 15.1706 23.3815C15.1706 22.7337 14.6455 22.2085 13.9976 22.2085H4.77014ZM3.59716 27.9171C3.59716 27.2692 4.12232 26.7441 4.77014 26.7441H13.9976C14.6455 26.7441 15.1706 27.2692 15.1706 27.9171C15.1706 28.5649 14.6455 29.09 13.9976 29.09H4.77014C4.12232 29.09 3.59716 28.5649 3.59716 27.9171Z" fill="#3C64B1"/>
<path fill-rule="evenodd" clip-rule="evenodd" d="M34.1944 0C37.5081 0 40.1944 2.68629 40.1944 6V27C40.1944 30.3137 37.5081 33 34.1944 33H21.2703V0H34.1944ZM33.9462 9.29322C34.5207 9.48142 34.9764 9.79838 35.3132 10.2441C35.6499 10.6799 35.8183 11.2247 35.8183 11.8785C35.8183 12.7799 35.4716 13.4782 34.7783 13.9734C34.0849 14.4588 33.0746 14.7015 31.7473 14.7015H26.5768V4.30099H31.4501C32.6784 4.30099 33.6243 4.54367 34.288 5.02903C34.9516 5.50448 35.2834 6.16317 35.2834 7.00512C35.2834 7.52019 35.1646 7.97583 34.9269 8.37204C34.6891 8.76824 34.3623 9.0753 33.9462 9.29322ZM28.5083 5.81649V8.68405H31.2421C31.9157 8.68405 32.4307 8.56519 32.7873 8.32746C33.1538 8.07983 33.3371 7.72324 33.3371 7.2577C33.3371 6.78225 33.1538 6.42566 32.7873 6.18794C32.4307 5.9403 31.9157 5.81649 31.2421 5.81649H28.5083ZM31.6284 13.186C33.1241 13.186 33.8719 12.6858 33.8719 11.6853C33.8719 10.6849 33.1241 10.1847 31.6284 10.1847H28.5083V13.186H31.6284ZM24.8673 18.846C24.8673 18.1982 25.3925 17.673 26.0403 17.673H35.2678C35.9156 17.673 36.4408 18.1982 36.4408 18.846C36.4408 19.4938 35.9156 20.019 35.2678 20.019H26.0403C25.3925 20.019 24.8673 19.4938 24.8673 18.846ZM26.0403 22.2086C25.3925 22.2086 24.8673 22.7337 24.8673 23.3816C24.8673 24.0294 25.3925 24.5545 26.0403 24.5545H35.2678C35.9156 24.5545 36.4408 24.0294 36.4408 23.3816C36.4408 22.7337 35.9156 22.2086 35.2678 22.2086H26.0403ZM24.8673 27.9171C24.8673 27.2693 25.3925 26.7441 26.0403 26.7441H35.2678C35.9156 26.7441 36.4408 27.2693 36.4408 27.9171C36.4408 28.5649 35.9156 29.0901 35.2678 29.0901H26.0403C25.3925 29.0901 24.8673 28.5649 24.8673 27.9171Z" fill="#3DACE3"/>
</svg>
