<svg width="44" height="44" viewBox="0 0 44 44" fill="none" xmlns="http://www.w3.org/2000/svg">
<path d="M12.2013 20.7319L0.381012 32.5514L0.261583 33.0857C0.144936 33.6105 0.304692 34.1586 0.685083 34.5385L1.57137 35.4248L13.0381 23.9581L12.2013 20.7319Z" fill="#3DACE3"/>
<path d="M10.9064 15.7402L8.41259 18.2341L2.17794 24.4687L1.01587 29.6937L11.7432 18.9672L10.9064 15.7402Z" fill="#3DACE3"/>
<path d="M2.28402 10.7645C2.30612 10.9377 2.38485 11.0987 2.50794 11.2226L7.85709 16.5678L10.7642 13.6606L13.2039 11.221C13.327 11.0972 13.4057 10.9361 13.4278 10.7629L13.8152 7.66171C13.8718 7.2143 13.7334 6.76414 13.4353 6.42574C13.1372 6.08734 12.7081 5.89333 12.2571 5.89307H3.45709C3.00617 5.89274 2.57683 6.08614 2.27828 6.42408C1.97974 6.76201 1.84074 7.21191 1.89666 7.65935L2.28402 10.7645Z" fill="#3DACE3"/>
<path d="M6.74603 17.6788L4.24353 15.1763L2.81274 21.6121L6.74603 17.6788Z" fill="#3DACE3"/>
<path d="M13.4954 25.7227L2.68237 36.5357L4.71423 38.5675L14.3322 28.9496L13.4954 25.7227Z" fill="#3DACE3"/>
<path d="M39.2857 23.9642V20.8214C39.2857 20.3874 38.9339 20.0356 38.5 20.0356H33.7857C33.3518 20.0356 33 20.3874 33 20.8214V23.9642H35.3571V22.3928C35.3571 21.9588 35.7089 21.6071 36.1429 21.6071C36.5768 21.6071 36.9286 21.9588 36.9286 22.3928V23.9642H39.2857Z" fill="#4759A4"/>
<path d="M15.3999 33.0705L14.7886 30.7134L5.8252 39.6784L6.74605 40.5992C7.3597 41.2127 8.35441 41.2127 8.96805 40.5992L12.8008 36.7712L14.989 34.5838C15.3845 34.1879 15.5409 33.6121 15.3999 33.0705Z" fill="#3DACE3"/>
<path d="M33 27.1071C33 27.541 33.3518 27.8928 33.7857 27.8928H36.9286C37.3625 27.8928 37.7143 27.541 37.7143 27.1071V25.5356H33V27.1071Z" fill="#4759A4"/>
<path d="M43.2142 11.3929H35.3571V6.67857C35.3545 4.50996 33.5971 2.7526 31.4285 2.75H23.5714C21.4028 2.7526 19.6454 4.50996 19.6428 6.67857V11.3929H14.8869C14.7727 11.7453 14.5777 12.066 14.3172 12.3294L12.1958 14.4509L16.9219 32.6794C17.1988 33.7576 16.8874 34.9019 16.1024 35.6911L15.2538 36.5357H40.8571C41.725 36.5357 42.4285 35.8322 42.4285 34.9643V25.5357H39.2857V27.1071C39.2857 28.409 38.2303 29.4643 36.9285 29.4643H33.7857C32.4838 29.4643 31.4285 28.409 31.4285 27.1071V25.5357H23.5714V27.1071C23.5714 28.409 22.516 29.4643 21.2142 29.4643H18.3228C17.8889 29.4643 17.5371 29.1125 17.5371 28.6786C17.5371 28.2446 17.8889 27.8929 18.3228 27.8929H21.2142C21.6482 27.8929 21.9999 27.5411 21.9999 27.1071V25.5357H17.0971C16.6631 25.5357 16.3114 25.1839 16.3114 24.75C16.3114 24.3161 16.6631 23.9643 17.0971 23.9643H18.0714V22.3929C18.0714 21.9589 18.4231 21.6071 18.8571 21.6071C19.291 21.6071 19.6428 21.9589 19.6428 22.3929V23.9643H21.9999V20.8214C21.9999 20.3875 21.6482 20.0357 21.2142 20.0357H16.4999C16.066 20.0357 15.7142 19.6839 15.7142 19.25C15.7142 18.8161 16.066 18.4643 16.4999 18.4643H21.2142C22.516 18.4643 23.5714 19.5196 23.5714 20.8214V23.9643H31.4285V20.8214C31.4285 19.5196 32.4838 18.4643 33.7857 18.4643H38.4999C39.8018 18.4643 40.8571 19.5196 40.8571 20.8214V23.9643H43.2142C43.6482 23.9643 43.9999 23.6125 43.9999 23.1786V12.1786C43.9999 11.7446 43.6482 11.3929 43.2142 11.3929ZM37.7142 33.3929H39.2857V31.8214C39.2857 31.3875 39.6374 31.0357 40.0714 31.0357C40.5053 31.0357 40.8571 31.3875 40.8571 31.8214V34.1786C40.8571 34.6125 40.5053 34.9643 40.0714 34.9643H37.7142C37.2803 34.9643 36.9285 34.6125 36.9285 34.1786C36.9285 33.7446 37.2803 33.3929 37.7142 33.3929ZM21.2142 11.3929V6.67857C21.2142 5.37676 22.2696 4.32143 23.5714 4.32143H31.4285C32.7303 4.32143 33.7857 5.37676 33.7857 6.67857V11.3929H21.2142Z" fill="#4759A4"/>
</svg>
