<svg width="40" height="40" viewBox="0 0 40 40" fill="none" xmlns="http://www.w3.org/2000/svg">
<g clip-path="url(#clip0)">
<path d="M20 40.0001C19.31 40.0001 18.75 39.4401 18.75 38.7501V29.1667C18.75 28.4767 19.31 27.9167 20 27.9167C20.69 27.9167 21.25 28.4767 21.25 29.1667V38.7501C21.25 39.4401 20.69 40.0001 20 40.0001Z" fill="#3DACE3"/>
<path d="M20 5.83333C19.31 5.83333 18.75 5.27333 18.75 4.58333V1.25C18.75 0.56 19.31 0 20 0C20.69 0 21.25 0.56 21.25 1.25V4.58333C21.25 5.27333 20.69 5.83333 20 5.83333Z" fill="#3DACE3"/>
<path d="M2.91667 29.9999H37.0833C38.6917 29.9999 40 28.6916 40 27.0833V6.24992C40 4.64159 38.6917 3.33325 37.0833 3.33325H2.91667C1.30833 3.33325 0 4.64159 0 6.24992V27.0833C0 28.6916 1.30833 29.9999 2.91667 29.9999Z" fill="#4759A4"/>
<path d="M27.4999 39.9999C27.2616 39.9999 27.0199 39.9316 26.8066 39.7899L19.3066 34.7899C18.7316 34.4066 18.5766 33.6316 18.9599 33.0566C19.3416 32.4816 20.1182 32.3266 20.6932 32.7099L28.1932 37.7099C28.7682 38.0932 28.9232 38.8683 28.5399 39.4433C28.2982 39.8049 27.9032 39.9999 27.4999 39.9999Z" fill="#3DACE3"/>
<path d="M12.5001 40C12.0968 40 11.7001 39.805 11.4584 39.4434C11.0751 38.8684 11.2301 38.0934 11.8051 37.71L19.3051 32.71C19.8768 32.325 20.6551 32.4817 21.0385 33.0567C21.4218 33.6317 21.2668 34.4067 20.6918 34.79L13.1918 39.79C12.9801 39.9317 12.7401 40 12.5001 40Z" fill="#3DACE3"/>
<path fill-rule="evenodd" clip-rule="evenodd" d="M25.8337 17.0834C25.8337 17.7734 26.3937 18.3334 27.0837 18.3334C27.7737 18.3334 28.3337 17.7734 28.3337 17.0834V12.9676C28.3471 12.6311 28.2253 12.2903 27.9684 12.0334C27.847 11.9119 27.7068 11.8207 27.5571 11.7596C27.4111 11.6998 27.2512 11.6667 27.0837 11.6667H22.917C22.227 11.6667 21.667 12.2267 21.667 12.9167C21.667 13.6067 22.227 14.1667 22.917 14.1667H24.0646L21.0884 17.14L19.4417 16.0417C18.9767 15.7317 18.3601 15.7684 17.9351 16.1334L12.1017 21.1334C11.5784 21.5834 11.5167 22.3734 11.9667 22.8967C12.2151 23.185 12.5651 23.3334 12.9167 23.3334C13.2051 23.3334 13.4951 23.2334 13.7334 23.0334L18.8467 18.65L20.5584 19.7917C21.0567 20.1234 21.7151 20.055 22.1351 19.635L25.8337 15.9364V17.0834Z" fill="white"/>
</g>
<defs>
<clipPath id="clip0">
<rect width="40" height="40" fill="white"/>
</clipPath>
</defs>
</svg>
