<svg width="39" height="39" viewBox="0 0 39 39" fill="none" xmlns="http://www.w3.org/2000/svg">
<path d="M18.3574 15.7568V20.9585L22.9099 18.3577L18.3574 15.7568Z" fill="#3DACE3"/>
<path d="M37.8574 2.28516H31.8732C31.401 0.955124 30.1301 0 28.6406 0C27.1511 0 25.8803 0.955124 25.4081 2.28516H13.5919C13.1197 0.955124 11.8489 0 10.3594 0C8.86986 0 7.59904 0.955124 7.12683 2.28516H1.14258C0.511482 2.28516 0 2.79664 0 3.42773V5.78906C0 6.42016 0.511482 6.93164 1.14258 6.93164H37.8574C38.4885 6.93164 39 6.42016 39 5.78906V3.42773C39 2.79664 38.4885 2.28516 37.8574 2.28516Z" fill="#3DACE3"/>
<path d="M2.36133 28.6406C2.36133 29.2717 2.87281 29.7832 3.50391 29.7832H18.3574V32.3549C17.0304 32.8283 16.0723 34.0845 16.0723 35.5723C16.0723 37.4623 17.61 39 19.5 39C21.39 39 22.9277 37.4623 22.9277 35.5723C22.9277 34.0845 21.9696 32.8283 20.6426 32.3549V29.7832H35.4961C36.1272 29.7832 36.6387 29.2717 36.6387 28.6406V9.2168H2.36133V28.6406ZM16.0723 13.7871C16.0723 13.3798 16.2889 13.004 16.6415 12.7984C16.9941 12.5954 17.4291 12.5922 17.7817 12.7951L25.7797 17.3654C26.1356 17.5686 26.3555 17.948 26.3555 18.3574C26.3555 18.7668 26.1356 19.1462 25.7797 19.3494L17.7817 23.9198C17.4309 24.1206 16.9961 24.1215 16.6412 23.9162C16.2889 23.7109 16.0723 23.3351 16.0723 22.9277V13.7871Z" fill="#4759A4"/>
</svg>
