<svg width="40" height="40" viewBox="0 0 40 40" fill="none" xmlns="http://www.w3.org/2000/svg">
<path d="M17.814 18.3265L19.9608 21.4555L22.1077 18.3265C20.7267 18.6427 19.2362 18.6522 17.814 18.3265Z" fill="#3DACE3"/>
<path d="M21.3688 5.4875C23.012 6.81898 25.2668 7.02586 27.0993 6.09375C26.558 2.64719 23.5705 0 19.961 0C16.496 0 13.3935 2.56453 12.8547 6.13984C15.5105 7.79406 18.9675 7.54875 21.3688 5.4875Z" fill="#3DACE3"/>
<path d="M19.961 16.2235C23.6614 16.2235 27.1883 13.4159 27.1883 8.59376C25.2762 9.25173 23.2267 9.11564 21.4563 8.28595C18.7898 9.82736 15.5336 9.99056 12.7336 8.72579C12.7336 13.3536 16.2421 16.2235 19.961 16.2235Z" fill="#3DACE3"/>
<path d="M37.8234 21.4555C37.5926 20.1781 37.0387 18.9549 36.1992 17.9227C36.8445 16.368 36.143 14.5633 34.5992 13.8602C33.0219 13.1414 31.1539 13.8399 30.4352 15.4172C29.7172 16.9946 30.4156 18.8625 31.993 19.5813C32.8312 19.9633 33.7523 19.9446 34.5391 19.6063C34.9511 20.165 35.2441 20.78 35.4242 21.4555H28.4047C28.4047 20.375 28.6019 18.0461 26.4602 16.1258L22.8031 21.4555H17.1187L13.4914 16.1696C11.3877 18.0985 11.5953 20.4165 11.5953 21.4555H4.57578C4.75609 20.7792 5.04945 20.1643 5.46094 19.6063C6.24766 19.9446 7.16875 19.9633 8.00703 19.5813C9.58437 18.8625 10.2828 16.9946 9.56484 15.4172C8.84609 13.8399 6.97812 13.1414 5.40078 13.8602C3.85703 14.5633 3.15547 16.368 3.80078 17.9227C2.96063 18.9558 2.40727 20.1792 2.17656 21.4555H0V40H40V21.4555H37.8234ZM20 37.4023C16.3137 37.4023 13.3255 34.414 13.3255 30.7278C13.3255 27.0415 16.3137 24.0532 20 24.0532C23.6863 24.0532 26.6745 27.0415 26.6745 30.7278C26.6745 34.414 23.6863 37.4023 20 37.4023Z" fill="#4759A4"/>
</svg>
