<svg width="40" height="40" viewBox="0 0 40 40" fill="none" xmlns="http://www.w3.org/2000/svg">
<path d="M32.8904 7.10938V11.8016C33.6756 11.6891 34.4732 11.693 35.2342 11.8016V5.9375C35.2342 5.29063 34.7092 4.76562 34.0623 4.76562H28.1982C28.3104 5.5507 28.3069 6.34883 28.1982 7.10938H32.8904Z" fill="#3DACE3"/>
<path d="M25.8639 21.1719C25.7514 20.3867 25.7553 19.5891 25.8639 18.8281H14.1357C14.2479 19.6132 14.2444 20.4113 14.1357 21.1719H25.8639Z" fill="#3DACE3"/>
<path d="M39.4928 33.0976L34.4662 29.6328C33.6872 29.0965 32.6287 29.6579 32.6287 30.5976V32.8906H28.1982C28.3104 33.6758 28.3069 34.4737 28.1982 35.2343H32.6287V37.5273C32.6287 38.4748 33.6949 39.0246 34.4662 38.4922L39.4928 35.0273C40.1675 34.5621 40.1689 33.5639 39.4928 33.0976Z" fill="#3DACE3"/>
<path d="M7.10938 32.8906V28.1984C6.31953 28.3109 5.52188 28.3062 4.76562 28.1984V34.0625C4.76562 34.7094 5.29063 35.2344 5.9375 35.2344H11.8016C11.6894 34.4492 11.6929 33.6512 11.8016 32.8906H7.10938Z" fill="#3DACE3"/>
<path d="M20 0C16.8327 0 14.2368 2.49305 14.0712 5.61992C14.0013 5.36914 13.8488 5.13734 13.6098 4.97258L8.58266 1.50797C7.80609 0.972891 6.74578 1.53031 6.74578 2.47289V4.76562H3.59375C2.94656 4.76562 2.42188 5.29031 2.42188 5.9375C2.42188 6.58469 2.94656 7.10938 3.59375 7.10938H6.74586V9.40211C6.74586 10.352 7.81297 10.8977 8.58273 10.367L13.6098 6.90242C13.8486 6.73789 14.0013 6.50594 14.0712 6.25469C14.2366 9.38172 16.8325 11.875 20 11.875C23.2739 11.875 25.9375 9.21148 25.9375 5.9375C25.9375 2.66352 23.2739 0 20 0Z" fill="#3C64B1"/>
<path d="M20 40C23.2792 40 25.9375 37.3417 25.9375 34.0625C25.9375 30.7833 23.2792 28.125 20 28.125C16.7208 28.125 14.0625 30.7833 14.0625 34.0625C14.0625 37.3417 16.7208 40 20 40Z" fill="#3C64B1"/>
<path d="M34.0625 25.9375C37.3417 25.9375 40 23.2792 40 20C40 16.7208 37.3417 14.0625 34.0625 14.0625C30.7833 14.0625 28.125 16.7208 28.125 20C28.125 23.2792 30.7833 25.9375 34.0625 25.9375Z" fill="#3C64B1"/>
<path d="M5.9375 25.9375C9.21669 25.9375 11.875 23.2792 11.875 20C11.875 16.7208 9.21669 14.0625 5.9375 14.0625C2.65831 14.0625 0 16.7208 0 20C0 23.2792 2.65831 25.9375 5.9375 25.9375Z" fill="#3C64B1"/>
</svg>
