<svg width="41" height="41" viewBox="0 0 41 41" fill="none" xmlns="http://www.w3.org/2000/svg">
<path d="M3.20316 14.0938H4.48441V13.3891C5.2085 13.242 5.8595 12.8492 6.32709 12.2771C6.79469 11.705 7.05012 10.9889 7.05012 10.25C7.05012 9.51113 6.79469 8.79498 6.32709 8.2229C5.8595 7.65081 5.2085 7.25797 4.48441 7.11094V3.321C4.85784 3.45302 5.18135 3.6972 5.4107 4.02011C5.64005 4.34303 5.76402 4.72893 5.76566 5.125H7.04691C7.04598 4.38687 6.79061 3.67163 6.32383 3.09982C5.85705 2.52802 5.20741 2.13462 4.48441 1.98594V1.28125H3.20316V1.98594C2.47907 2.13297 1.82808 2.52581 1.36048 3.0979C0.892889 3.66998 0.637451 4.38613 0.637451 5.125C0.637451 5.86387 0.892889 6.58002 1.36048 7.1521C1.82808 7.72419 2.47907 8.11703 3.20316 8.26406V12.0546C2.82963 11.9226 2.50605 11.6783 2.27669 11.3553C2.04734 11.0322 1.92342 10.6462 1.92191 10.25H0.640662C0.641594 10.9881 0.89697 11.7034 1.36375 12.2752C1.83052 12.847 2.48016 13.2404 3.20316 13.3891V14.0938ZM4.48441 8.446C4.85889 8.57646 5.18348 8.82022 5.41317 9.14348C5.64286 9.46673 5.76627 9.85345 5.76627 10.25C5.76627 10.6465 5.64286 11.0333 5.41317 11.3565C5.18348 11.6798 4.85889 11.9235 4.48441 12.054V8.446ZM1.92191 5.125C1.92355 4.72893 2.04753 4.34303 2.27688 4.02011C2.50622 3.6972 2.82974 3.45302 3.20316 3.321V6.929C2.82974 6.79698 2.50622 6.5528 2.27688 6.22989C2.04753 5.90697 1.92355 5.52107 1.92191 5.125Z" fill="#4759A4"/>
<path d="M11.5312 7.04688C11.3613 7.04688 11.1984 6.97938 11.0783 6.85924C10.9581 6.7391 10.8906 6.57615 10.8906 6.40625H9.60938C9.61102 6.80232 9.73499 7.18822 9.96434 7.51114C10.1937 7.83405 10.5172 8.07823 10.8906 8.21025V8.96875H12.1719V8.21025C12.599 8.05982 12.959 7.76309 13.1883 7.37261C13.4176 6.98214 13.5013 6.52312 13.4245 6.07685C13.3478 5.63059 13.1156 5.22588 12.7691 4.93441C12.4226 4.64294 11.9841 4.48352 11.5312 4.48438C11.4045 4.48438 11.2807 4.4468 11.1753 4.37641C11.07 4.30602 10.9879 4.20597 10.9394 4.08891C10.8909 3.97185 10.8782 3.84304 10.9029 3.71877C10.9277 3.5945 10.9887 3.48035 11.0783 3.39076C11.1679 3.30117 11.282 3.24015 11.4063 3.21543C11.5305 3.19072 11.6593 3.2034 11.7764 3.25189C11.8935 3.30038 11.9935 3.38249 12.0639 3.48784C12.1343 3.59319 12.1719 3.71705 12.1719 3.84375H13.4531C13.4515 3.44768 13.3275 3.06178 13.0982 2.73886C12.8688 2.41595 12.5453 2.17177 12.1719 2.03975V1.28125H10.8906V2.03975C10.4635 2.19018 10.1035 2.48691 9.87418 2.87739C9.64491 3.26786 9.56122 3.72688 9.63796 4.17315C9.71469 4.61941 9.94688 5.02412 10.2934 5.31559C10.6399 5.60706 11.0784 5.76648 11.5312 5.76562C11.7012 5.76562 11.8641 5.83312 11.9842 5.95326C12.1044 6.0734 12.1719 6.23635 12.1719 6.40625C12.1719 6.57615 12.1044 6.7391 11.9842 6.85924C11.8641 6.97938 11.7012 7.04688 11.5312 7.04688Z" fill="#4759A4"/>
<path d="M17.297 12.1718V16.8823C18.7211 17.451 20.0252 18.2832 21.1408 19.3353V12.1718C21.1408 12.0019 21.2083 11.8389 21.3284 11.7188C21.4486 11.5987 21.6115 11.5312 21.7814 11.5312H24.0787L19.2189 6.67139L14.3591 11.5312H16.6564C16.8263 11.5312 16.9893 11.5987 17.1094 11.7188C17.2295 11.8389 17.297 12.0019 17.297 12.1718Z" fill="#3DACE3"/>
<path d="M12.8125 19.8594C11.1654 19.8594 9.5552 20.3478 8.18564 21.2629C6.81609 22.178 5.74865 23.4787 5.11832 25.0005C4.48798 26.5222 4.32306 28.1967 4.6444 29.8122C4.96574 31.4277 5.75892 32.9117 6.92363 34.0764C8.08834 35.2411 9.57227 36.0343 11.1878 36.3556C12.8033 36.6769 14.4778 36.512 15.9995 35.8817C17.5213 35.2513 18.822 34.1839 19.7371 32.8143C20.6522 31.4448 21.1406 29.8346 21.1406 28.1875C21.1381 25.9795 20.2598 23.8627 18.6986 22.3014C17.1373 20.7402 15.0205 19.8619 12.8125 19.8594ZM12.8125 27.5469C13.4354 27.5461 14.0371 27.7727 14.5048 28.1841C14.9725 28.5955 15.274 29.1635 15.3526 29.7814C15.4312 30.3993 15.2816 31.0247 14.9319 31.5401C14.5822 32.0556 14.0564 32.4256 13.4531 32.5809V33.9531H12.1719V32.5809C11.6234 32.4393 11.1373 32.1199 10.7896 31.6728C10.4419 31.2256 10.2521 30.6758 10.25 30.1094H11.5312C11.5312 30.3628 11.6064 30.6105 11.7472 30.8212C11.888 31.0319 12.0881 31.1961 12.3222 31.2931C12.5563 31.3901 12.8139 31.4154 13.0625 31.366C13.311 31.3166 13.5393 31.1945 13.7185 31.0153C13.8977 30.8362 14.0197 30.6079 14.0691 30.3593C14.1186 30.1108 14.0932 29.8532 13.9962 29.6191C13.8992 29.3849 13.735 29.1848 13.5243 29.044C13.3136 28.9033 13.0659 28.8281 12.8125 28.8281C12.1896 28.8289 11.5878 28.6023 11.1202 28.1909C10.6525 27.7795 10.351 27.2115 10.2724 26.5936C10.1938 25.9757 10.3434 25.3503 10.6931 24.8349C11.0428 24.3194 11.5686 23.9493 12.1719 23.7941V22.4219H13.4531V23.7941C14.0016 23.9357 14.4877 24.2551 14.8354 24.7022C15.1831 25.1494 15.3729 25.6992 15.375 26.2656H14.0937C14.0937 26.0122 14.0186 25.7645 13.8778 25.5538C13.737 25.3431 13.5369 25.1789 13.3028 25.0819C13.0687 24.9849 12.8111 24.9596 12.5625 25.009C12.314 25.0584 12.0857 25.1805 11.9065 25.3596C11.7273 25.5388 11.6053 25.7671 11.5559 26.0157C11.5064 26.2642 11.5318 26.5218 11.6288 26.7559C11.7258 26.9901 11.89 27.1902 12.1007 27.3309C12.3114 27.4717 12.5591 27.5469 12.8125 27.5469Z" fill="#4759A4"/>
<path d="M28.4529 28.828H30.7502C30.9201 28.828 31.083 28.8955 31.2032 29.0157C31.3233 29.1358 31.3908 29.2988 31.3908 29.4687V39.078H35.2345V29.4687C35.2345 29.2988 35.302 29.1358 35.4222 29.0157C35.5423 28.8955 35.7053 28.828 35.8752 28.828H38.1724L33.3127 23.9683L28.4529 28.828Z" fill="#3DACE3"/>
<path d="M26.3145 29.714C26.266 29.5969 26.2533 29.4681 26.278 29.3438C26.3028 29.2195 26.3638 29.1053 26.4535 29.0157L31.3908 24.0784V18.578C31.3908 18.4081 31.4583 18.2452 31.5784 18.1251C31.6986 18.0049 31.8615 17.9374 32.0314 17.9374H33.0474L28.1877 13.0776L23.3279 17.9374H24.3439C24.5138 17.9374 24.6768 18.0049 24.7969 18.1251C24.917 18.2452 24.9845 18.4081 24.9845 18.578V39.078H30.1095V30.1093H26.9064C26.7797 30.1093 26.6559 30.0718 26.5505 30.0014C26.4451 29.9311 26.363 29.8311 26.3145 29.714Z" fill="#3DACE3"/>
<path d="M30.1095 7.68742V13.1878L35.0468 18.1251C35.1364 18.2147 35.1974 18.3288 35.2221 18.4531C35.2468 18.5774 35.2341 18.7061 35.1856 18.8232C35.1372 18.9402 35.0551 19.0403 34.9498 19.1107C34.8444 19.1811 34.7206 19.2186 34.5939 19.2187H32.672V22.7972L32.8597 22.6095C32.9799 22.4894 33.1428 22.4219 33.3127 22.4219C33.4825 22.4219 33.6455 22.4894 33.7656 22.6095L36.5158 25.3597V7.68742C36.5158 7.51751 36.5833 7.35457 36.7034 7.23443C36.8236 7.11429 36.9865 7.04679 37.1564 7.04679H38.1724L33.3127 2.18701L28.4529 7.04679H29.4689C29.6388 7.04679 29.8018 7.11429 29.9219 7.23443C30.042 7.35457 30.1095 7.51751 30.1095 7.68742Z" fill="#3DACE3"/>
<path d="M12.8125 17.2969C10.6585 17.2969 8.55295 17.9356 6.762 19.1323C4.97104 20.329 3.57516 22.0298 2.75088 24.0198C1.92659 26.0098 1.71092 28.1996 2.13114 30.3122C2.55136 32.4247 3.58859 34.3653 5.11167 35.8883C6.63475 37.4114 8.57527 38.4487 10.6878 38.8689C12.8004 39.2891 14.9902 39.0734 16.9802 38.2491C18.9702 37.4248 20.671 36.029 21.8677 34.238C23.0644 32.4471 23.7031 30.3415 23.7031 28.1875C23.6999 25.3001 22.5515 22.5319 20.5098 20.4902C18.4681 18.4485 15.6999 17.3001 12.8125 17.2969ZM12.8125 37.7969C10.9119 37.7969 9.05408 37.2333 7.47382 36.1774C5.89357 35.1215 4.66191 33.6207 3.9346 31.8648C3.20729 30.109 3.01699 28.1768 3.38777 26.3128C3.75855 24.4488 4.67376 22.7365 6.01765 21.3926C7.36155 20.0488 9.07377 19.1335 10.9378 18.7628C12.8018 18.392 14.734 18.5823 16.4899 19.3096C18.2457 20.0369 19.7465 21.2686 20.8024 22.8488C21.8583 24.4291 22.4219 26.2869 22.4219 28.1875C22.419 30.7352 21.4057 33.1777 19.6042 34.9792C17.8027 36.7807 15.3602 37.794 12.8125 37.7969Z" fill="#4759A4"/>
</svg>
