<svg width="39" height="39" viewBox="0 0 39 39" fill="none" xmlns="http://www.w3.org/2000/svg">
<g clip-path="url(#clip0)">
<path d="M38.7205 23.2454L36.2573 20.4058C38.0327 18.1848 39 15.4388 39 12.5684C39 5.63817 33.3619 0 26.4316 0C19.5014 0 13.8633 5.63817 13.8633 12.5684C13.8633 19.4986 19.5014 25.1367 26.4316 25.1367H37.8574C38.3049 25.1367 38.7112 24.8755 38.8969 24.4685C39.0826 24.0615 39.0137 23.5835 38.7205 23.2454ZM26.4316 20.3379C25.8006 20.3379 25.2891 19.8263 25.2891 19.1953C25.2891 18.5643 25.8006 18.0527 26.4316 18.0527C27.0626 18.0527 27.5742 18.5643 27.5742 19.1953C27.5742 19.8263 27.0627 20.3379 26.4316 20.3379ZM29.6105 12.1236C29.0538 12.71 28.3445 13.1275 27.5743 13.3366V15.736C27.5743 16.3671 27.0627 16.8786 26.4317 16.8786C25.8007 16.8786 25.2891 16.3671 25.2891 15.736V12.3471C25.2891 11.7161 25.8007 11.2045 26.4317 11.2045C27.0124 11.2045 27.5527 10.9721 27.9534 10.5502C28.3536 10.1287 28.5574 9.57564 28.5271 8.993C28.4705 7.90215 27.5693 7.03028 26.4756 7.00827C26.4613 7.00796 26.4469 7.00781 26.4326 7.00781C25.3879 7.00781 24.4982 7.77646 24.3537 8.8121C24.3402 8.90853 24.3334 9.00748 24.3334 9.1062C24.3334 9.7372 23.8218 10.2488 23.1908 10.2488C22.5598 10.2488 22.0483 9.7372 22.0483 9.1062C22.0483 8.90221 22.0625 8.69708 22.0905 8.49629C22.3968 6.30079 24.3043 4.6781 26.5216 4.72357C28.8074 4.76965 30.6908 6.59298 30.8092 8.87456C30.8722 10.0892 30.4465 11.2431 29.6105 12.1236Z" fill="#4759A4"/>
<path d="M16.3769 25.2891H8.75976C8.12875 25.2891 7.61718 24.7775 7.61718 24.1465C7.61718 23.5155 8.12875 23.0039 8.75976 23.0039H15.8738C13.5128 20.6155 11.9533 17.4331 11.6383 13.8977C5.14075 14.3753 -1.09481e-05 19.8143 -1.09481e-05 26.4316C-1.09481e-05 29.3021 0.967296 32.048 2.74271 34.2691L0.279464 37.1087C-0.0137219 37.4468 -0.0826574 37.9248 0.103126 38.3318C0.288909 38.7388 0.695134 39 1.14257 39H12.5683C19.1858 39 24.6247 33.8592 25.1023 27.3617C22.2586 27.1083 19.6437 26.0494 17.4861 24.4165C17.3646 24.917 16.9148 25.2891 16.3769 25.2891ZM16.3769 29.8594H8.75976C8.12875 29.8594 7.61718 29.3478 7.61718 28.7168C7.61718 28.0858 8.12875 27.5742 8.75976 27.5742H16.3769C17.008 27.5742 17.5195 28.0858 17.5195 28.7168C17.5195 29.3478 17.008 29.8594 16.3769 29.8594Z" fill="#3DACE3"/>
</g>
<defs>
<clipPath id="clip0">
<rect width="39" height="39" fill="white"/>
</clipPath>
</defs>
</svg>
