<svg width="83" height="329" viewBox="0 0 83 329" fill="none" xmlns="http://www.w3.org/2000/svg">
<path opacity="0.19" fill-rule="evenodd" clip-rule="evenodd" d="M77.1111 2.5C77.1111 3.88071 78.2304 5 79.6111 5C80.9919 5 82.1111 3.88071 82.1111 2.5C82.1111 1.11929 80.9919 -4.89256e-08 79.6111 -1.09278e-07C78.2304 -1.69631e-07 77.1111 1.11929 77.1111 2.5ZM77.1111 326.5C77.1111 327.881 78.2304 329 79.6111 329C80.9918 329 82.1111 327.881 82.1111 326.5C82.1111 325.119 80.9918 324 79.6111 324C78.2304 324 77.1111 325.119 77.1111 326.5ZM79.6111 29.9231C78.2304 29.9231 77.1111 28.8038 77.1111 27.4231C77.1111 26.0424 78.2304 24.9231 79.6111 24.9231C80.9919 24.9231 82.1111 26.0424 82.1111 27.4231C82.1111 28.8038 80.9919 29.9231 79.6111 29.9231ZM77.1111 52.3461C77.1111 53.7268 78.2304 54.8461 79.6111 54.8461C80.9919 54.8461 82.1111 53.7268 82.1111 52.3461C82.1111 50.9654 80.9919 49.8461 79.6111 49.8461C78.2304 49.8461 77.1111 50.9654 77.1111 52.3461ZM79.6111 79.7692C78.2304 79.7692 77.1111 78.6499 77.1111 77.2692C77.1111 75.8885 78.2304 74.7692 79.6111 74.7692C80.9919 74.7692 82.1111 75.8885 82.1111 77.2692C82.1111 78.6499 80.9919 79.7692 79.6111 79.7692ZM77.1111 102.192C77.1111 103.573 78.2304 104.692 79.6111 104.692C80.9919 104.692 82.1111 103.573 82.1111 102.192C82.1111 100.812 80.9919 99.6923 79.6111 99.6923C78.2304 99.6923 77.1111 100.812 77.1111 102.192ZM79.6111 129.615C78.2304 129.615 77.1111 128.496 77.1111 127.115C77.1111 125.735 78.2304 124.615 79.6111 124.615C80.9919 124.615 82.1111 125.735 82.1111 127.115C82.1111 128.496 80.9919 129.615 79.6111 129.615ZM77.1111 152.038C77.1111 153.419 78.2304 154.538 79.6111 154.538C80.9919 154.538 82.1111 153.419 82.1111 152.038C82.1111 150.658 80.9919 149.538 79.6111 149.538C78.2304 149.538 77.1111 150.658 77.1111 152.038ZM79.6111 179.462C78.2304 179.462 77.1111 178.342 77.1111 176.962C77.1111 175.581 78.2304 174.462 79.6111 174.462C80.9918 174.462 82.1111 175.581 82.1111 176.962C82.1111 178.342 80.9918 179.462 79.6111 179.462ZM77.1111 201.885C77.1111 203.265 78.2304 204.385 79.6111 204.385C80.9918 204.385 82.1111 203.265 82.1111 201.885C82.1111 200.504 80.9918 199.385 79.6111 199.385C78.2304 199.385 77.1111 200.504 77.1111 201.885ZM79.6111 229.308C78.2304 229.308 77.1111 228.188 77.1111 226.808C77.1111 225.427 78.2304 224.308 79.6111 224.308C80.9918 224.308 82.1111 225.427 82.1111 226.808C82.1111 228.188 80.9918 229.308 79.6111 229.308ZM77.1111 251.731C77.1111 253.111 78.2304 254.231 79.6111 254.231C80.9918 254.231 82.1111 253.111 82.1111 251.731C82.1111 250.35 80.9918 249.231 79.6111 249.231C78.2304 249.231 77.1111 250.35 77.1111 251.731ZM79.6111 279.154C78.2304 279.154 77.1111 278.035 77.1111 276.654C77.1111 275.273 78.2304 274.154 79.6111 274.154C80.9918 274.154 82.1111 275.273 82.1111 276.654C82.1111 278.035 80.9918 279.154 79.6111 279.154ZM77.1111 301.577C77.1111 302.958 78.2304 304.077 79.6111 304.077C80.9918 304.077 82.1111 302.958 82.1111 301.577C82.1111 300.196 80.9918 299.077 79.6111 299.077C78.2304 299.077 77.1111 300.196 77.1111 301.577ZM53.8334 5C52.4527 5 51.3334 3.88071 51.3334 2.5C51.3334 1.11929 52.4527 -1.29641e-06 53.8334 -1.23606e-06C55.2141 -1.17571e-06 56.3334 1.11929 56.3334 2.5C56.3334 3.88071 55.2141 5 53.8334 5ZM53.8334 329C52.4526 329 51.3334 327.881 51.3334 326.5C51.3334 325.119 52.4526 324 53.8334 324C55.2141 324 56.3334 325.119 56.3334 326.5C56.3334 327.881 55.2141 329 53.8334 329ZM53.8334 29.9231C52.4527 29.9231 51.3334 28.8038 51.3334 27.4231C51.3334 26.0424 52.4527 24.9231 53.8334 24.9231C55.2141 24.9231 56.3334 26.0424 56.3334 27.4231C56.3334 28.8038 55.2141 29.9231 53.8334 29.9231ZM53.8334 54.8461C52.4527 54.8461 51.3334 53.7268 51.3334 52.3461C51.3334 50.9654 52.4527 49.8461 53.8334 49.8461C55.2141 49.8461 56.3334 50.9654 56.3334 52.3461C56.3334 53.7268 55.2141 54.8461 53.8334 54.8461ZM53.8334 79.7692C52.4527 79.7692 51.3334 78.6499 51.3334 77.2692C51.3334 75.8885 52.4527 74.7692 53.8334 74.7692C55.2141 74.7692 56.3334 75.8885 56.3334 77.2692C56.3334 78.6499 55.2141 79.7692 53.8334 79.7692ZM53.8334 104.692C52.4527 104.692 51.3334 103.573 51.3334 102.192C51.3334 100.812 52.4527 99.6923 53.8334 99.6923C55.2141 99.6923 56.3334 100.812 56.3334 102.192C56.3334 103.573 55.2141 104.692 53.8334 104.692ZM53.8334 129.615C52.4527 129.615 51.3334 128.496 51.3334 127.115C51.3334 125.735 52.4527 124.615 53.8334 124.615C55.2141 124.615 56.3334 125.735 56.3334 127.115C56.3334 128.496 55.2141 129.615 53.8334 129.615ZM53.8334 154.538C52.4527 154.538 51.3334 153.419 51.3334 152.038C51.3334 150.658 52.4527 149.538 53.8334 149.538C55.2141 149.538 56.3334 150.658 56.3334 152.038C56.3334 153.419 55.2141 154.538 53.8334 154.538ZM53.8334 179.462C52.4527 179.462 51.3334 178.342 51.3334 176.962C51.3334 175.581 52.4527 174.462 53.8334 174.462C55.2141 174.462 56.3334 175.581 56.3334 176.962C56.3334 178.342 55.2141 179.462 53.8334 179.462ZM53.8334 204.385C52.4527 204.385 51.3334 203.265 51.3334 201.885C51.3334 200.504 52.4527 199.385 53.8334 199.385C55.2141 199.385 56.3334 200.504 56.3334 201.885C56.3334 203.265 55.2141 204.385 53.8334 204.385ZM53.8334 229.308C52.4527 229.308 51.3334 228.188 51.3334 226.808C51.3334 225.427 52.4527 224.308 53.8334 224.308C55.2141 224.308 56.3334 225.427 56.3334 226.808C56.3334 228.188 55.2141 229.308 53.8334 229.308ZM53.8334 254.231C52.4527 254.231 51.3334 253.111 51.3334 251.731C51.3334 250.35 52.4527 249.231 53.8334 249.231C55.2141 249.231 56.3334 250.35 56.3334 251.731C56.3334 253.111 55.2141 254.231 53.8334 254.231ZM53.8334 279.154C52.4526 279.154 51.3334 278.035 51.3334 276.654C51.3334 275.273 52.4526 274.154 53.8334 274.154C55.2141 274.154 56.3334 275.273 56.3334 276.654C56.3334 278.035 55.2141 279.154 53.8334 279.154ZM53.8334 304.077C52.4526 304.077 51.3334 302.958 51.3334 301.577C51.3334 300.196 52.4526 299.077 53.8334 299.077C55.2141 299.077 56.3334 300.196 56.3334 301.577C56.3334 302.958 55.2141 304.077 53.8334 304.077ZM25.5556 2.5C25.5556 3.88071 26.6749 5 28.0556 5C29.4363 5 30.5556 3.88071 30.5556 2.5C30.5556 1.11929 29.4363 -2.30249e-06 28.0556 -2.36284e-06C26.6749 -2.4232e-06 25.5556 1.11929 25.5556 2.5ZM25.5556 326.5C25.5556 327.881 26.6749 329 28.0556 329C29.4363 329 30.5556 327.881 30.5556 326.5C30.5556 325.119 29.4363 324 28.0556 324C26.6749 324 25.5556 325.119 25.5556 326.5ZM25.5556 27.4231C25.5556 28.8038 26.6749 29.9231 28.0556 29.9231C29.4363 29.9231 30.5556 28.8038 30.5556 27.4231C30.5556 26.0424 29.4363 24.9231 28.0556 24.9231C26.6749 24.9231 25.5556 26.0424 25.5556 27.4231ZM25.5556 52.3461C25.5556 53.7268 26.6749 54.8461 28.0556 54.8461C29.4363 54.8461 30.5556 53.7268 30.5556 52.3461C30.5556 50.9654 29.4363 49.8461 28.0556 49.8461C26.6749 49.8461 25.5556 50.9654 25.5556 52.3461ZM25.5556 77.2692C25.5556 78.6499 26.6749 79.7692 28.0556 79.7692C29.4363 79.7692 30.5556 78.6499 30.5556 77.2692C30.5556 75.8885 29.4363 74.7692 28.0556 74.7692C26.6749 74.7692 25.5556 75.8885 25.5556 77.2692ZM25.5556 102.192C25.5556 103.573 26.6749 104.692 28.0556 104.692C29.4363 104.692 30.5556 103.573 30.5556 102.192C30.5556 100.812 29.4363 99.6923 28.0556 99.6923C26.6749 99.6923 25.5556 100.812 25.5556 102.192ZM25.5556 127.115C25.5556 128.496 26.6749 129.615 28.0556 129.615C29.4363 129.615 30.5556 128.496 30.5556 127.115C30.5556 125.735 29.4363 124.615 28.0556 124.615C26.6749 124.615 25.5556 125.735 25.5556 127.115ZM25.5556 152.038C25.5556 153.419 26.6749 154.538 28.0556 154.538C29.4363 154.538 30.5556 153.419 30.5556 152.038C30.5556 150.658 29.4363 149.538 28.0556 149.538C26.6749 149.538 25.5556 150.658 25.5556 152.038ZM25.5556 176.962C25.5556 178.342 26.6749 179.462 28.0556 179.462C29.4363 179.462 30.5556 178.342 30.5556 176.962C30.5556 175.581 29.4363 174.462 28.0556 174.462C26.6749 174.462 25.5556 175.581 25.5556 176.962ZM25.5556 201.885C25.5556 203.265 26.6749 204.385 28.0556 204.385C29.4363 204.385 30.5556 203.265 30.5556 201.885C30.5556 200.504 29.4363 199.385 28.0556 199.385C26.6749 199.385 25.5556 200.504 25.5556 201.885ZM25.5556 226.808C25.5556 228.188 26.6749 229.308 28.0556 229.308C29.4363 229.308 30.5556 228.188 30.5556 226.808C30.5556 225.427 29.4363 224.308 28.0556 224.308C26.6749 224.308 25.5556 225.427 25.5556 226.808ZM25.5556 251.731C25.5556 253.111 26.6749 254.231 28.0556 254.231C29.4363 254.231 30.5556 253.111 30.5556 251.731C30.5556 250.35 29.4363 249.231 28.0556 249.231C26.6749 249.231 25.5556 250.35 25.5556 251.731ZM25.5556 276.654C25.5556 278.035 26.6749 279.154 28.0556 279.154C29.4363 279.154 30.5556 278.035 30.5556 276.654C30.5556 275.273 29.4363 274.154 28.0556 274.154C26.6749 274.154 25.5556 275.273 25.5556 276.654ZM25.5556 301.577C25.5556 302.958 26.6749 304.077 28.0556 304.077C29.4363 304.077 30.5556 302.958 30.5556 301.577C30.5556 300.196 29.4363 299.077 28.0556 299.077C26.6749 299.077 25.5556 300.196 25.5556 301.577ZM2.2778 5C0.897087 5 -0.222199 3.88071 -0.222199 2.5C-0.222199 1.11928 0.897087 -3.54998e-06 2.2778 -3.48963e-06C3.65852 -3.42927e-06 4.7778 1.11928 4.7778 2.5C4.7778 3.88071 3.65852 5 2.2778 5ZM2.27779 329C0.897073 329 -0.222213 327.881 -0.222213 326.5C-0.222213 325.119 0.897073 324 2.27779 324C3.6585 324 4.77779 325.119 4.77779 326.5C4.77779 327.881 3.6585 329 2.27779 329ZM2.2778 29.9231C0.897086 29.9231 -0.2222 28.8038 -0.2222 27.4231C-0.2222 26.0424 0.897086 24.9231 2.2778 24.9231C3.65851 24.9231 4.7778 26.0424 4.7778 27.4231C4.7778 28.8038 3.65851 29.9231 2.2778 29.9231ZM2.2778 54.8461C0.897085 54.8461 -0.222201 53.7268 -0.222201 52.3461C-0.222201 50.9654 0.897085 49.8461 2.2778 49.8461C3.65851 49.8461 4.7778 50.9654 4.7778 52.3461C4.7778 53.7268 3.65851 54.8461 2.2778 54.8461ZM2.2778 79.7692C0.897084 79.7692 -0.222202 78.6499 -0.222202 77.2692C-0.222202 75.8885 0.897084 74.7692 2.2778 74.7692C3.65851 74.7692 4.7778 75.8885 4.7778 77.2692C4.7778 78.6499 3.65851 79.7692 2.2778 79.7692ZM2.2778 104.692C0.897083 104.692 -0.222203 103.573 -0.222203 102.192C-0.222203 100.812 0.897083 99.6923 2.2778 99.6923C3.65851 99.6923 4.7778 100.812 4.7778 102.192C4.7778 103.573 3.65851 104.692 2.2778 104.692ZM2.2778 129.615C0.897081 129.615 -0.222204 128.496 -0.222204 127.115C-0.222204 125.735 0.897082 124.615 2.2778 124.615C3.65851 124.615 4.7778 125.735 4.7778 127.115C4.7778 128.496 3.65851 129.615 2.2778 129.615ZM2.27779 154.538C0.89708 154.538 -0.222205 153.419 -0.222205 152.038C-0.222205 150.658 0.897081 149.538 2.27779 149.538C3.65851 149.538 4.77779 150.658 4.77779 152.038C4.77779 153.419 3.65851 154.538 2.27779 154.538ZM2.27779 179.462C0.897079 179.462 -0.222206 178.342 -0.222206 176.962C-0.222206 175.581 0.897079 174.462 2.27779 174.462C3.65851 174.462 4.77779 175.581 4.77779 176.962C4.77779 178.342 3.65851 179.462 2.27779 179.462ZM2.27779 204.385C0.897078 204.385 -0.222207 203.265 -0.222207 201.885C-0.222207 200.504 0.897078 199.385 2.27779 199.385C3.65851 199.385 4.77779 200.504 4.77779 201.885C4.77779 203.265 3.65851 204.385 2.27779 204.385ZM2.27779 229.308C0.897077 229.308 -0.222208 228.188 -0.222208 226.808C-0.222208 225.427 0.897077 224.308 2.27779 224.308C3.65851 224.308 4.77779 225.427 4.77779 226.808C4.77779 228.188 3.65851 229.308 2.27779 229.308ZM2.27779 254.231C0.897076 254.231 -0.22221 253.111 -0.222209 251.731C-0.222209 250.35 0.897076 249.231 2.27779 249.231C3.65851 249.231 4.77779 250.35 4.77779 251.731C4.77779 253.111 3.6585 254.231 2.27779 254.231ZM2.27779 279.154C0.897075 279.154 -0.222211 278.035 -0.222211 276.654C-0.222211 275.273 0.897075 274.154 2.27779 274.154C3.6585 274.154 4.77779 275.273 4.77779 276.654C4.77779 278.035 3.6585 279.154 2.27779 279.154ZM2.27779 304.077C0.897074 304.077 -0.222212 302.958 -0.222212 301.577C-0.222212 300.196 0.897074 299.077 2.27779 299.077C3.6585 299.077 4.77779 300.196 4.77779 301.577C4.77779 302.958 3.6585 304.077 2.27779 304.077ZM-26 2.5C-26 3.88071 -24.8807 5 -23.5 5C-22.1193 5 -21 3.88071 -21 2.5C-21 1.11928 -22.1193 -4.55606e-06 -23.5 -4.61641e-06C-24.8807 -4.67676e-06 -26 1.11928 -26 2.5ZM-26 326.5C-26 327.881 -24.8807 329 -23.5 329C-22.1193 329 -21 327.881 -21 326.5C-21 325.119 -22.1193 324 -23.5 324C-24.8807 324 -26 325.119 -26 326.5ZM-26 27.4231C-26 28.8038 -24.8807 29.9231 -23.5 29.9231C-22.1193 29.9231 -21 28.8038 -21 27.4231C-21 26.0424 -22.1193 24.9231 -23.5 24.9231C-24.8807 24.9231 -26 26.0424 -26 27.4231ZM-26 52.3461C-26 53.7268 -24.8807 54.8461 -23.5 54.8461C-22.1193 54.8461 -21 53.7268 -21 52.3461C-21 50.9654 -22.1193 49.8461 -23.5 49.8461C-24.8807 49.8461 -26 50.9654 -26 52.3461ZM-26 77.2692C-26 78.6499 -24.8807 79.7692 -23.5 79.7692C-22.1193 79.7692 -21 78.6499 -21 77.2692C-21 75.8885 -22.1193 74.7692 -23.5 74.7692C-24.8807 74.7692 -26 75.8885 -26 77.2692ZM-26 102.192C-26 103.573 -24.8807 104.692 -23.5 104.692C-22.1193 104.692 -21 103.573 -21 102.192C-21 100.812 -22.1193 99.6923 -23.5 99.6923C-24.8807 99.6923 -26 100.812 -26 102.192ZM-26 127.115C-26 128.496 -24.8807 129.615 -23.5 129.615C-22.1193 129.615 -21 128.496 -21 127.115C-21 125.735 -22.1193 124.615 -23.5 124.615C-24.8807 124.615 -26 125.735 -26 127.115ZM-26 152.038C-26 153.419 -24.8807 154.538 -23.5 154.538C-22.1193 154.538 -21 153.419 -21 152.038C-21 150.658 -22.1193 149.538 -23.5 149.538C-24.8807 149.538 -26 150.658 -26 152.038ZM-26 176.962C-26 178.342 -24.8807 179.462 -23.5 179.462C-22.1193 179.462 -21 178.342 -21 176.962C-21 175.581 -22.1193 174.462 -23.5 174.462C-24.8807 174.462 -26 175.581 -26 176.962ZM-26 201.885C-26 203.265 -24.8807 204.385 -23.5 204.385C-22.1193 204.385 -21 203.265 -21 201.885C-21 200.504 -22.1193 199.385 -23.5 199.385C-24.8807 199.385 -26 200.504 -26 201.885ZM-26 226.808C-26 228.188 -24.8807 229.308 -23.5 229.308C-22.1193 229.308 -21 228.188 -21 226.808C-21 225.427 -22.1193 224.308 -23.5 224.308C-24.8807 224.308 -26 225.427 -26 226.808ZM-26 251.731C-26 253.111 -24.8807 254.231 -23.5 254.231C-22.1193 254.231 -21 253.111 -21 251.731C-21 250.35 -22.1193 249.231 -23.5 249.231C-24.8807 249.231 -26 250.35 -26 251.731ZM-26 276.654C-26 278.035 -24.8807 279.154 -23.5 279.154C-22.1193 279.154 -21 278.035 -21 276.654C-21 275.273 -22.1193 274.154 -23.5 274.154C-24.8807 274.154 -26 275.273 -26 276.654ZM-26 301.577C-26 302.958 -24.8807 304.077 -23.5 304.077C-22.1193 304.077 -21 302.958 -21 301.577C-21 300.196 -22.1193 299.077 -23.5 299.077C-24.8807 299.077 -26 300.196 -26 301.577Z" fill="#7EA5B9"/>
</svg>
