<svg width="55" height="55" viewBox="0 0 55 55" fill="none" xmlns="http://www.w3.org/2000/svg">
<g clip-path="url(#clip0)">
<path d="M27.4613 27.384C30.392 27.384 32.7679 25.0081 32.7679 22.0775C32.7679 19.1468 30.392 16.7709 27.4613 16.7709C24.5307 16.7709 22.1553 19.1468 22.1553 22.0775C22.1679 25.0081 24.5438 27.384 27.4613 27.384Z" fill="#3DACE3"/>
<path d="M46.5693 12.2007C45.8204 11.9939 45.0458 11.9682 44.2842 12.0585C43.3159 12.1876 42.4767 12.704 42.4767 12.704C40.9017 13.6078 39.8946 15.2604 39.8169 17.0811C41.4439 16.8486 44.8783 15.9317 46.5693 12.2007Z" fill="#3C64B1"/>
<path d="M46.0655 16.0225C45.1743 16.8743 44.1414 17.5587 43.0057 18.0494C42.0631 18.4493 41.0691 18.7338 40.0488 18.8755C40.7332 21.0961 42.7858 22.6196 45.1229 22.6196C47.4983 22.6453 49.6028 21.0703 50.2357 18.7721C48.2729 18.2557 46.8789 16.9908 46.0655 16.0225Z" fill="#3DACE3"/>
<path d="M47.2666 14.6281C47.8476 15.3639 48.9062 16.4482 50.4166 16.9389C50.3132 15.4027 49.5386 13.9951 48.3121 13.0788L48.2087 13.0011C47.9379 13.5564 47.6151 14.1242 47.2666 14.6281Z" fill="#3C64B1"/>
<path d="M17.6489 37.3636V45.8333C17.6489 46.1173 17.8814 46.3498 18.1654 46.3498H26.8544V39.7138L23.6913 29.4109C20.1277 30.4049 17.6489 33.6583 17.6489 37.3636Z" fill="#3C64B1"/>
<path d="M19.2114 29.8628C18.3334 27.3452 16.2934 25.3954 13.7501 24.6208L10.5869 36.0857V41.5213H15.8415V37.3636C15.8415 34.4975 17.068 31.7606 19.2114 29.8628ZM15.3639 32.5352H13.6855C13.1822 32.5352 12.7817 32.1348 12.7817 31.6315C12.7817 31.1281 13.1822 30.7277 13.6855 30.7277H15.3639C15.8672 30.7277 16.2677 31.1281 16.2677 31.6315C16.2677 32.1348 15.8672 32.5352 15.3639 32.5352Z" fill="#3C64B1"/>
<path d="M49.0355 24.5951L47.5376 31.0248C47.3314 31.9154 46.6984 32.6512 45.8335 32.974V41.5214H54.4837C54.7677 41.5214 55.0002 41.2889 55.0002 41.0049V32.5352C55.0002 28.8425 52.5602 25.6148 49.0355 24.5951ZM51.3851 32.9226H49.1903C48.687 32.9226 48.2865 32.5221 48.2865 32.0188C48.2865 31.5155 48.687 31.115 49.1903 31.115H51.3851C51.8885 31.115 52.2889 31.5155 52.2889 32.0188C52.2889 32.5221 51.8885 32.9226 51.3851 32.9226Z" fill="#3C64B1"/>
<path d="M31.7738 29.5789L28.6621 39.7138V46.3498H36.7702C37.0541 46.3498 37.2866 46.1173 37.2866 45.8333V37.3637C37.2866 33.8651 35.0661 30.7408 31.7738 29.5789ZM34.2138 38.0869H32.0189C31.5156 38.0869 31.1152 37.6864 31.1152 37.1831C31.1152 36.6798 31.5156 36.2794 32.0189 36.2794H34.2138C34.7171 36.2794 35.1175 36.6798 35.1175 37.1831C35.1175 37.6864 34.7171 38.0869 34.2138 38.0869Z" fill="#3C64B1"/>
<path d="M0 32.5221V41.0049C0 41.2889 0.232495 41.5214 0.516432 41.5214H8.77934V36.0857L5.64192 24.6985C2.2725 25.8216 0 28.9717 0 32.5221Z" fill="#3C64B1"/>
<path d="M11.3873 24.2723H8.24992C7.96598 24.2723 7.69516 24.2854 7.42383 24.3111L9.69633 32.5483L11.9683 24.2854C11.7621 24.2854 11.581 24.2723 11.3873 24.2723Z" fill="#3C64B1"/>
<path d="M29.0364 29.1138H25.8995C25.7572 29.1138 25.6281 29.1138 25.499 29.1269L27.7584 36.4987L30.0047 29.1653C29.6819 29.1269 29.3592 29.1138 29.0364 29.1138Z" fill="#3C64B1"/>
<path d="M42.3214 31.0116L40.8624 24.7499C38.4739 25.6022 36.5887 27.4869 35.7495 29.8754C37.8798 31.7737 39.0937 34.4975 39.0937 37.351V41.5082H44.0255V32.9613C43.1732 32.6386 42.5277 31.9028 42.3214 31.0116Z" fill="#3C64B1"/>
<path d="M46.7501 24.2723H43.6127C43.2768 24.2723 42.954 24.298 42.6187 24.3368L44.0772 30.6117C44.1679 31.0116 44.5033 31.3087 44.9164 31.3218H44.9809C45.3683 31.2829 45.6784 30.999 45.7556 30.6117L47.2277 24.298C47.0855 24.2854 46.9175 24.2723 46.7501 24.2723Z" fill="#3C64B1"/>
<path d="M9.81196 22.6196C12.73 22.6196 15.0539 20.283 15.1185 17.3004C15.1185 14.3698 12.73 11.9939 9.79885 12.007C6.8682 12.007 4.49281 14.3955 4.50542 17.3262C4.51853 20.2442 6.89392 22.6196 9.81196 22.6196Z" fill="#3DACE3"/>
<path d="M44.2841 11.4906C44.2841 10.8451 44.8005 10.3286 45.446 10.3286C46.0916 10.3286 46.608 10.8451 46.608 11.4906C46.608 11.4906 46.608 11.9036 46.5692 12.2007C47.0987 12.3686 47.7569 12.6783 48.1961 12.9885C48.1961 12.9885 48.2476 13.0268 48.2995 13.0656L48.4155 13.1559V11.4906C48.4155 9.85103 47.0856 8.52112 45.446 8.52112C43.8065 8.52112 42.4766 9.85103 42.4766 11.4906V12.704C43.0187 12.3944 43.6385 12.175 44.2841 12.0716V11.4906Z" fill="#3C64B1"/>
<path d="M44.2841 12.0716C43.6385 12.175 43.0187 12.3944 42.4766 12.704C43.0318 12.3813 43.6516 12.1619 44.2841 12.0716Z" fill="black"/>
</g>
<defs>
<clipPath id="clip0">
<rect width="55" height="55" fill="white"/>
</clipPath>
</defs>
</svg>
