<svg width="31" height="31" viewBox="0 0 31 31" fill="none" xmlns="http://www.w3.org/2000/svg">
<g clip-path="url(#clip0)">
<path d="M7.88552 8.37158L5.1998 8.57907C4.45248 8.63684 3.78689 9.02851 3.3736 9.65365L0.276228 14.3382C-0.0372209 14.8123 -0.0870506 15.4056 0.142844 15.9253C0.372799 16.4451 0.845364 16.8073 1.40693 16.8943L3.86602 17.2751C4.44128 14.2224 5.81834 11.1771 7.88552 8.37158Z" fill="#3DACE3"/>
<path d="M13.7246 27.134L14.1055 29.5931C14.1925 30.1546 14.5547 30.6272 15.0744 30.8571C15.2906 30.9528 15.5194 31 15.7472 31C16.067 31 16.3847 30.9068 16.6615 30.7237L21.3462 27.6264C21.9714 27.2131 22.3631 26.5474 22.4207 25.8002L22.6282 23.1145C19.8226 25.1817 16.7774 26.5588 13.7246 27.134Z" fill="#3DACE3"/>
<path d="M12.7997 25.4296C12.8851 25.4296 12.971 25.4226 13.0566 25.4083C14.3356 25.1944 15.5683 24.8342 16.7443 24.3626L6.63726 14.2556C6.16573 15.4315 5.80548 16.6642 5.59163 17.9433C5.50735 18.4474 5.67645 18.961 6.03785 19.3225L11.6774 24.962C11.9775 25.262 12.3825 25.4296 12.7997 25.4296Z" fill="#4759A4"/>
<path d="M28.5276 13.7442C31.0009 8.96262 31.0925 3.90966 30.9632 1.53988C30.9189 0.727889 30.2716 0.0805267 29.4595 0.0362673C29.0737 0.0151971 28.6164 0 28.1009 0C25.4511 0 21.2582 0.401362 17.2552 2.47187C14.074 4.11734 9.9025 7.74049 7.44141 12.502C7.47047 12.5247 7.49886 12.5488 7.52563 12.5755L18.424 23.4739C18.4507 23.5007 18.4748 23.529 18.4975 23.5581C23.259 21.0969 26.8821 16.9254 28.5276 13.7442ZM18.024 6.55354C19.7944 4.7831 22.6753 4.78292 24.4459 6.55354C25.3036 7.41118 25.7759 8.55157 25.7759 9.7645C25.7759 10.9774 25.3036 12.1178 24.4459 12.9755C23.5607 13.8606 22.3976 14.3032 21.235 14.3034C20.0719 14.3034 18.9094 13.8608 18.024 12.9755C17.1663 12.1178 16.6939 10.9774 16.6939 9.7645C16.6939 8.55157 17.1663 7.41118 18.024 6.55354Z" fill="#3DACE3"/>
<path d="M19.3088 11.6911C20.371 12.7534 22.0997 12.7535 23.162 11.6911C23.6765 11.1765 23.96 10.4923 23.96 9.76454C23.96 9.03676 23.6765 8.35258 23.162 7.838C22.6308 7.30682 21.9331 7.04126 21.2354 7.04126C20.5377 7.04126 19.8399 7.30682 19.3088 7.838C18.7942 8.35258 18.5107 9.03676 18.5107 9.76454C18.5107 10.4923 18.7942 11.1766 19.3088 11.6911Z" fill="#4759A4"/>
<path d="M0.926788 25.5467C1.15923 25.5467 1.39167 25.4581 1.56895 25.2807L4.53411 22.3155C4.88879 21.9608 4.88879 21.3858 4.53411 21.0311C4.17949 20.6765 3.60441 20.6765 3.24973 21.0311L0.284567 23.9963C-0.0701162 24.351 -0.0701162 24.926 0.284567 25.2807C0.461909 25.458 0.694349 25.5467 0.926788 25.5467Z" fill="#4759A4"/>
<path d="M7.25118 23.7487C6.89656 23.394 6.32149 23.394 5.9668 23.7487L0.266013 29.4495C-0.0886709 29.8042 -0.0886709 30.3792 0.266013 30.7338C0.443354 30.9112 0.675794 30.9998 0.908233 30.9998C1.14067 30.9998 1.37311 30.9112 1.55039 30.7338L7.25112 25.0331C7.60587 24.6784 7.60587 24.1034 7.25118 23.7487Z" fill="#4759A4"/>
<path d="M8.68424 26.466L5.71914 29.4311C5.36445 29.7858 5.36445 30.3608 5.71914 30.7155C5.89648 30.8929 6.12892 30.9816 6.3613 30.9816C6.59368 30.9816 6.82618 30.8929 7.00346 30.7155L9.96862 27.7503C10.3233 27.3957 10.3233 26.8206 9.96862 26.466C9.61399 26.1113 9.03892 26.1113 8.68424 26.466Z" fill="#4759A4"/>
</g>
<defs>
<clipPath id="clip0">
<rect width="31" height="31" fill="white"/>
</clipPath>
</defs>
</svg>
