<svg width="40" height="40" viewBox="0 0 40 40" fill="none" xmlns="http://www.w3.org/2000/svg">
<path d="M36.887 19.9882C36.7378 15.478 34.8409 11.2952 31.5456 8.21085C28.387 5.25382 24.3073 3.646 19.9995 3.64991C19.8136 3.64991 19.6276 3.65303 19.4409 3.65928C14.9308 3.8085 10.748 5.70538 7.66358 9.00069C4.57921 12.2952 2.9628 16.5944 3.11202 21.1054C3.26124 25.6155 5.15811 29.7983 8.45342 32.8827C11.6089 35.8366 15.6839 37.4437 19.9855 37.4437H19.9995C20.1847 37.4437 20.3714 37.4405 20.5581 37.4343C25.0683 37.2851 29.2511 35.3882 32.3354 32.0929C35.4198 28.7983 37.0362 24.4991 36.887 19.9882ZM30.6245 30.4913C27.9683 33.3296 24.3651 34.9632 20.48 35.0921C20.319 35.0976 20.1597 35.0999 19.9995 35.0999H19.987C16.2831 35.0999 12.7722 33.7155 10.055 31.1718C7.21671 28.5155 5.58311 24.9124 5.45421 21.028C5.32608 17.1429 6.71827 13.4398 9.37452 10.6023C12.0308 7.76397 15.6339 6.13038 19.519 6.00147C19.68 5.996 19.8394 5.99366 19.9995 5.99366H20.012C23.7159 5.99366 27.2269 7.37803 29.944 9.92178C32.7823 12.578 34.4159 16.1812 34.5448 20.0655C34.6729 23.9507 33.2808 27.6538 30.6245 30.4913Z" fill="#4759A4"/>
<path d="M40 28.5938V37.6562C40 38.9508 38.9508 40 37.6562 40H28.5938C27.2992 40 26.25 38.9508 26.25 37.6562V28.5938C26.25 27.2992 27.2992 26.25 28.5938 26.25H37.6562C38.9508 26.25 40 27.2992 40 28.5938Z" fill="#3DACE3"/>
<path d="M33.125 29.4531C31.1 29.4531 29.4531 31.1 29.4531 33.125C29.4531 35.15 31.1 36.7969 33.125 36.7969C35.15 36.7969 36.7969 35.15 36.7969 33.125C36.7969 31.1 35.15 29.4531 33.125 29.4531ZM33.125 34.4531C32.393 34.4531 31.7969 33.857 31.7969 33.125C31.7969 32.393 32.393 31.7969 33.125 31.7969C33.857 31.7969 34.4531 32.393 34.4531 33.125C34.4531 33.857 33.857 34.4531 33.125 34.4531Z" fill="#F9F1F1"/>
<path d="M13.75 28.5938V37.6562C13.75 38.9508 12.7008 40 11.4062 40H2.34375C1.04922 40 0 38.9508 0 37.6562V28.5938C0 27.2992 1.04922 26.25 2.34375 26.25H11.4062C12.7008 26.25 13.75 27.2992 13.75 28.5938Z" fill="#3DACE3"/>
<path d="M9.29699 33.1251C9.29699 33.4939 9.12355 33.8415 8.82824 34.0626L6.32823 35.9376C6.1173 36.0954 5.87042 36.172 5.62589 36.172C5.26964 36.172 4.91808 36.0103 4.68761 35.7032C4.29933 35.1853 4.40402 34.4509 4.92198 34.0626L6.17198 33.1251L4.92198 32.1876C4.40402 31.7993 4.29933 31.065 4.68761 30.547C5.07589 30.029 5.81027 29.9243 6.32823 30.3126L8.82824 32.1876C9.12355 32.4087 9.29699 32.7564 9.29699 33.1251Z" fill="#F9F1F1"/>
<path d="M26.875 2.34375V11.4062C26.875 12.7008 25.8258 13.75 24.5312 13.75H15.4688C14.1742 13.75 13.125 12.7008 13.125 11.4062V2.34375C13.125 1.04922 14.1742 0 15.4688 0H24.5312C25.8258 0 26.875 1.04922 26.875 2.34375Z" fill="#3DACE3"/>
<path d="M24.2188 8.75C24.2188 9.39687 23.6937 9.92188 23.0469 9.92188H21.0938V13.75H18.75V9.92188H18.0469C17.4 9.92188 16.875 9.39687 16.875 8.75C16.875 8.10313 17.4 7.57812 18.0469 7.57812H18.75V6.71875C18.75 5.64297 19.2359 4.67812 20 4.03281C20.6117 3.51562 21.4039 3.20312 22.2656 3.20312H23.0469C23.6937 3.20312 24.2188 3.72813 24.2188 4.375C24.2188 5.02188 23.6937 5.54688 23.0469 5.54688H22.2656C21.6195 5.54688 21.0938 6.07266 21.0938 6.71875V7.57812H23.0469C23.6937 7.57812 24.2188 8.10313 24.2188 8.75Z" fill="#F9F1F1"/>
</svg>
