<svg width="43" height="43" viewBox="0 0 43 43" fill="none" xmlns="http://www.w3.org/2000/svg">
<path d="M36.2812 2.01562H26.875C26.5041 2.01562 26.2031 2.3173 26.2031 2.6875V5.375H24.8594C24.1183 5.375 23.5156 5.97767 23.5156 6.71875C23.5156 7.45983 24.1183 8.0625 24.8594 8.0625H26.2031V11.4219H28.8906C28.8906 9.93972 30.096 8.73438 31.5781 8.73438C33.0603 8.73438 34.2656 9.93972 34.2656 11.4219H36.2812C36.6521 11.4219 36.9531 11.1202 36.9531 10.75V2.6875C36.9531 2.3173 36.6521 2.01562 36.2812 2.01562Z" fill="#3DACE3"/>
<path d="M12.7656 14.1094C14.2478 14.1094 15.4531 15.3147 15.4531 16.7969H18.1406V14.7812C16.6585 14.7812 15.4531 13.5759 15.4531 12.0938C15.4531 10.6116 16.6585 9.40625 18.1406 9.40625V6.04688H17.6831C11.565 6.04688 6.53465 10.793 6.08046 16.7969H10.0781C10.0781 15.3147 11.2835 14.1094 12.7656 14.1094Z" fill="#3A61AE"/>
<path d="M13.4375 31.5781H18.1406V26.2031C16.6585 26.2031 15.4531 24.9978 15.4531 23.5156C15.4531 22.0335 16.6585 20.8281 18.1406 20.8281V18.1406H14.1094V16.7969C14.1094 16.0558 13.5067 15.4531 12.7656 15.4531C12.0245 15.4531 11.4219 16.0558 11.4219 16.7969V18.1406H6.05627C6.1846 21.4718 7.72118 24.5664 10.3146 26.6889L13.4375 29.244V31.5781Z" fill="#3DACE3"/>
<path d="M26.2031 16.7969C26.2031 16.0558 25.6005 15.4531 24.8594 15.4531C24.1183 15.4531 23.5156 16.0558 23.5156 16.7969V18.1406H19.4844V22.1719H18.1406C17.3995 22.1719 16.7969 22.7745 16.7969 23.5156C16.7969 24.2567 17.3995 24.8594 18.1406 24.8594H19.4844V31.5781H22.8437V29.244L25.9666 26.6889C28.5601 24.5664 30.096 21.4718 30.225 18.1406H26.2031V16.7969Z" fill="#3A61AE"/>
<path fill-rule="evenodd" clip-rule="evenodd" d="M12.7656 32.9219H23.5156C23.8865 32.9219 24.1875 33.2235 24.1875 33.5938C24.1875 33.964 23.8865 34.2656 23.5156 34.2656H22.1719H14.1094H12.7656C12.3947 34.2656 12.0938 33.964 12.0938 33.5938C12.0938 33.2235 12.3947 32.9219 12.7656 32.9219ZM22.1719 35.6094H14.1094C13.7385 35.6094 13.4375 35.911 13.4375 36.2812C13.4375 36.6515 13.7385 36.9531 14.1094 36.9531H22.1719C22.5428 36.9531 22.8438 36.6515 22.8438 36.2812C22.8438 35.911 22.5428 35.6094 22.1719 35.6094ZM18.1406 40.9844C19.7625 40.9844 21.1197 39.8281 21.4321 38.2969H14.8491C15.1615 39.8281 16.5187 40.9844 18.1406 40.9844Z" fill="#3A61AE"/>
</svg>
