<svg width="44" height="44" viewBox="0 0 44 44" fill="none" xmlns="http://www.w3.org/2000/svg">
<path d="M5.12453 17.1729C6.1097 20.9339 9.28711 24.3986 13.3143 24.3986C17.4015 24.3986 20.6299 20.9494 21.6395 17.1984C22.0234 17.1551 22.3407 16.8623 22.3751 16.4629L22.5026 14.9807C22.5348 14.5946 22.293 14.264 21.9413 14.1419C21.9346 14.0532 21.9324 13.9633 21.9224 13.8757C21.847 10.4786 21.2567 7.73608 18.583 6.60225C15.7606 5.40628 13.2733 5.38964 11.4472 6.09967C11.3273 6.14738 11.0178 6.55898 10.8969 6.63331C10.776 6.70764 10.1358 6.49685 9.89286 6.55343C5.88781 7.1259 4.56648 10.8991 4.85826 13.8413C4.84939 13.9234 4.84384 14.0066 4.83718 14.0898C4.44999 14.1863 4.17264 14.538 4.20814 14.9485L4.33461 16.4307C4.37122 16.8501 4.71515 17.154 5.12453 17.1729ZM5.97768 14.2373C7.73169 13.595 11.1055 12.2515 11.4716 11.5459C13.0059 13.1401 18.4244 14.0354 20.803 14.3339C20.813 14.4881 20.8263 14.6378 20.8263 14.7932C20.8263 18.7039 17.5446 23.2504 13.3143 23.2504C9.09961 23.2504 5.94994 18.786 5.94994 14.7932C5.94883 14.6057 5.96326 14.4226 5.97768 14.2373Z" fill="#3C64B1"/>
<path d="M19.7678 23.0507C19.557 23.0185 19.3507 23.0662 19.2153 23.1206L15.8416 27.6837L13.2821 25.6423L13.2666 25.6556V25.6701L13.2632 25.6667L10.7038 27.7081L7.33001 23.145C7.19576 23.0895 6.9883 23.0418 6.77751 23.074C0.403833 23.9726 0 38.3686 0 38.3686L13.2788 38.3775V38.3542L26.5453 38.3453C26.5464 38.3453 26.1404 23.9493 19.7678 23.0507Z" fill="#3C64B1"/>
<path d="M26.623 16.9765C27.4218 20.0274 30.0001 22.8354 33.2651 22.8354C36.5801 22.8354 39.1995 20.0385 40.0182 16.9953C40.3289 16.9598 40.5874 16.7235 40.6151 16.3996L40.7183 15.198C40.7449 14.8841 40.5474 14.6156 40.2623 14.5169C40.2579 14.447 40.2546 14.3726 40.2468 14.3027C40.1858 11.548 39.7076 9.32139 37.5398 8.40279C35.251 7.43314 33.233 7.41872 31.7519 7.99452C31.6554 8.03335 31.4046 8.36728 31.307 8.42941C31.2072 8.49043 30.6891 8.31736 30.4927 8.36396C27.2443 8.8277 26.1715 11.8886 26.4078 14.275C26.4 14.3427 26.3967 14.4092 26.3911 14.4769C26.0772 14.5557 25.853 14.8408 25.8819 15.1725L25.984 16.374C26.0117 16.7135 26.2913 16.9609 26.623 16.9765ZM27.3142 14.5945C28.7365 14.0731 31.4745 12.9836 31.7707 12.4112C33.0166 13.7025 37.4111 14.4281 39.3393 14.6733C39.3482 14.7953 39.3592 14.9196 39.3592 15.0449C39.3592 18.2157 36.6988 21.9046 33.2663 21.9046C29.847 21.9046 27.292 18.2834 27.292 15.0449C27.292 14.8941 27.302 14.7443 27.3142 14.5945Z" fill="#3DACE3"/>
<path d="M38.5004 21.7448C38.3296 21.7182 38.162 21.757 38.0544 21.8003L35.3164 25.5025L33.2406 23.8472L33.2284 23.8572V23.8694L33.2251 23.8672L31.1493 25.5224L28.4113 21.8203C28.3025 21.7759 28.1339 21.7393 27.9653 21.7648C26.2778 22.0022 25.1096 23.409 24.2964 25.1918C24.7768 25.934 25.4535 27.1178 26.0271 28.6754C26.5985 30.2231 26.9768 32.331 27.2231 34.176L33.2384 34.1793V34.1593L43.9999 34.1527C43.9988 34.1493 43.6704 22.4704 38.5004 21.7448Z" fill="#3DACE3"/>
</svg>
