<svg width="40" height="40" viewBox="0 0 40 40" fill="none" xmlns="http://www.w3.org/2000/svg">
<g clip-path="url(#clip0)">
<path d="M24.0406 36.4328C23.7108 36.515 23.3745 36.588 23.0407 36.6495C22.1681 36.8117 21.5913 37.651 21.7527 38.5243C21.8324 38.954 22.0764 39.3118 22.4077 39.5455C22.7491 39.7858 23.1837 39.8943 23.6265 39.8119C24.024 39.7381 24.4246 39.6514 24.8177 39.5533C25.6794 39.3388 26.2043 38.4659 25.9894 37.6047C25.7749 36.7427 24.9028 36.2182 24.0406 36.4328Z" fill="#6BBFE9"/>
<path d="M35.9318 14.8793C36.0444 15.2188 36.2594 15.4959 36.5311 15.6874C36.9338 15.9711 37.4608 16.0665 37.9637 15.9002C38.8069 15.6202 39.2637 14.711 38.9848 13.8683C38.8577 13.4841 38.7167 13.0988 38.5665 12.7235C38.2367 11.8989 37.3013 11.4975 36.4763 11.8273C35.6521 12.157 35.2505 13.0926 35.5806 13.9174C35.7068 14.2328 35.8251 14.5565 35.9318 14.8793Z" fill="#6BBFE9"/>
<path d="M29.2655 34.1369C28.9818 34.3242 28.689 34.5055 28.3941 34.6753C27.6246 35.1191 27.3611 36.1027 27.8048 36.8718C27.9252 37.0811 28.0857 37.2521 28.2705 37.3828C28.7665 37.7318 29.4402 37.7841 30.0011 37.4609C30.3517 37.2587 30.7004 37.0436 31.0382 36.8202C31.7789 36.3308 31.9828 35.3332 31.4932 34.5921C31.0037 33.8509 30.0064 33.6473 29.2655 34.1369Z" fill="#6BBFE9"/>
<path d="M39.9845 19.3705C39.9495 18.483 39.202 17.7922 38.3142 17.8268C37.4275 17.8618 36.7362 18.6096 36.771 19.4968C36.7844 19.836 36.7878 20.1803 36.78 20.5192C36.7675 21.0757 37.0397 21.5719 37.4628 21.8701C37.7148 22.0475 38.0206 22.1549 38.3523 22.1625C39.2398 22.1822 39.9753 21.4782 39.995 20.5903C40.0039 20.1854 40.0005 19.7751 39.9845 19.3705Z" fill="#6BBFE9"/>
<path d="M35.6695 29.9068C34.9578 29.3729 33.9509 29.5178 33.4179 30.2282C33.2137 30.5003 32.9988 30.769 32.7787 31.0277C32.2034 31.7036 32.2847 32.7187 32.9605 33.2944C32.999 33.327 33.038 33.357 33.0784 33.3852C33.7503 33.8589 34.6841 33.7501 35.2273 33.1126C35.4902 32.8039 35.7464 32.4829 35.9904 32.158C36.5235 31.4476 36.3792 30.44 35.6695 29.9068Z" fill="#6BBFE9"/>
<path d="M38.033 24.0941C37.1857 23.8284 36.2833 24.3001 36.0177 25.1475C35.9161 25.4712 35.8035 25.7965 35.6819 26.1151C35.4149 26.8164 35.6707 27.588 36.2571 28.0015C36.3647 28.0771 36.4832 28.1411 36.6119 28.1898C37.4416 28.5064 38.3706 28.0901 38.6869 27.2601C38.8312 26.8814 38.9652 26.4943 39.0863 26.1095C39.3516 25.2619 38.8802 24.3598 38.033 24.0941Z" fill="#6BBFE9"/>
<path d="M17.0248 36.664C15.5872 36.4059 14.208 35.9663 12.9003 35.3533C12.8848 35.3452 12.871 35.336 12.8547 35.3286C12.5466 35.1835 12.2389 35.0281 11.9407 34.8658C11.9397 34.8646 11.9378 34.8638 11.9362 34.8631C11.389 34.5619 10.8551 34.2285 10.3363 33.8633C2.77211 28.5349 0.953363 18.0458 6.28217 10.4816C7.44089 8.83743 8.84313 7.46572 10.4064 6.37853C10.4257 6.36512 10.4449 6.35179 10.464 6.33829C15.9728 2.54259 23.4528 2.28679 29.3023 6.18722L28.046 8.00244C27.6967 8.50768 27.9116 8.87587 28.523 8.82084L33.9802 8.33227C34.5924 8.27724 34.9585 7.74766 34.7939 7.15644L33.3284 1.87647C33.1644 1.28455 32.7443 1.2137 32.3947 1.71886L31.1355 3.53838C26.8428 0.656779 21.6941 -0.442017 16.5838 0.444139C16.0691 0.533219 15.5616 0.642247 15.0611 0.769161C15.0572 0.769848 15.0541 0.770278 15.051 0.770966C15.0317 0.775695 15.0121 0.781972 14.9933 0.787217C10.5866 1.91886 6.74176 4.48902 3.99825 8.15609C3.97512 8.18352 3.9513 8.21035 3.92946 8.24018C3.83823 8.36306 3.74769 8.48876 3.65904 8.61447C3.51407 8.82049 3.37116 9.03167 3.23445 9.24285C3.21734 9.2683 3.20427 9.29418 3.18931 9.31989C0.925333 12.8281 -0.166671 16.884 0.0206037 21.0132C0.0210336 21.0268 0.0202597 21.0404 0.0206037 21.0544C0.0387464 21.4577 0.0707326 21.8667 0.114155 22.2692C0.116476 22.2952 0.122237 22.3198 0.126623 22.3458C0.171507 22.7506 0.227826 23.1564 0.29842 23.562C1.01587 27.7011 2.96841 31.4257 5.89421 34.3238C5.901 34.3306 5.90805 34.338 5.91493 34.3451C5.91734 34.3478 5.92 34.3491 5.92232 34.3516C6.70839 35.1269 7.56342 35.8441 8.48406 36.4925C10.8933 38.1901 13.5761 39.3123 16.4573 39.8294C17.3315 39.9864 18.1666 39.4045 18.3234 38.5307C18.4802 37.6564 17.8988 36.8206 17.0248 36.664Z" fill="#3C64B1"/>
<path d="M19.0132 7.15381C18.2941 7.15381 17.7117 7.73678 17.7117 8.45484V21.4168L29.5664 27.545C29.7572 27.6437 29.9615 27.6903 30.1625 27.6903C30.6333 27.6903 31.0881 27.4339 31.3193 26.9865C31.6491 26.348 31.3995 25.5635 30.761 25.2338L20.3133 19.8324V8.45484C20.3132 7.73678 19.7314 7.15381 19.0132 7.15381Z" fill="#3C64B1"/>
</g>
<defs>
<clipPath id="clip0">
<rect width="40" height="40" fill="white"/>
</clipPath>
</defs>
</svg>
