<svg width="31" height="28" viewBox="0 0 31 28" fill="none" xmlns="http://www.w3.org/2000/svg">
<path d="M4.59611 21.7715C3.09543 21.7715 1.87464 22.9923 1.87464 24.493C1.87464 25.9936 3.09543 27.2144 4.59611 27.2144C5.77723 27.2144 6.77474 26.4537 7.15048 25.4001L12.9276 25.4001C13.3034 26.4537 14.3009 27.2144 15.482 27.2144C16.6631 27.2144 17.6606 26.4537 18.0364 25.4001L23.8135 25.4001C24.1893 26.4537 25.1868 27.2144 26.3679 27.2144C27.8686 27.2144 29.0894 25.9936 29.0894 24.493C29.0894 22.9923 27.8686 21.7715 26.3679 21.7715C25.1868 21.7715 24.1893 22.5322 23.8135 23.5858L18.0364 23.5858C17.6606 22.5322 16.6631 21.7715 15.482 21.7715C14.3009 21.7715 13.3034 22.5322 12.9276 23.5858L7.15048 23.5858C6.77474 22.5322 5.77723 21.7715 4.59611 21.7715Z" fill="#4759A4"/>
<path d="M9.13184 19.0496L9.13184 4.53509C9.13184 4.03367 8.72609 3.62793 8.22468 3.62793L0.906944 3.62793C0.405529 3.62793 -0.000212687 4.03367 -0.000212709 4.53509L-0.000213343 19.0496C-0.000213365 19.551 0.405528 19.9568 0.906944 19.9568L8.22468 19.9568C8.72609 19.9568 9.13184 19.551 9.13184 19.0496ZM3.68889 8.16372C3.68889 7.66272 4.09506 7.25656 4.59605 7.25656C5.09716 7.25656 5.50321 7.66272 5.50321 8.16372C5.50321 8.66471 5.09716 9.07087 4.59605 9.07087C4.09506 9.07087 3.68889 8.66471 3.68889 8.16372ZM3.68889 15.421L3.68889 11.7923C3.68889 11.2909 4.09463 10.8852 4.59605 10.8852C5.09747 10.8852 5.50321 11.2909 5.50321 11.7923L5.50321 15.421C5.50321 15.9224 5.09747 16.3281 4.59605 16.3281C4.09463 16.3281 3.68889 15.9224 3.68889 15.421Z" fill="#4759A4"/>
<path d="M19.1104 -3.96531e-08L11.8532 -3.56878e-07C11.3517 -3.78795e-07 10.946 0.405741 10.946 0.907157L10.946 19.0503C10.946 19.5517 11.3517 19.9575 11.8532 19.9575L19.1104 19.9575C19.6118 19.9575 20.0176 19.5517 20.0176 19.0503L20.0176 0.907157C20.0176 0.405741 19.6118 -1.77355e-08 19.1104 -3.96531e-08ZM16.3889 8.16442L16.3889 15.4217C16.3889 15.9231 15.9832 16.3288 15.4818 16.3288C14.9804 16.3288 14.5746 15.9231 14.5746 15.4217L14.5746 8.16442C14.5746 7.663 14.9804 7.25726 15.4818 7.25726C15.9832 7.25726 16.3889 7.663 16.3889 8.16442ZM16.3889 4.53579C16.3889 5.03678 15.9829 5.44294 15.4818 5.44294C14.9808 5.44294 14.5746 5.03678 14.5746 4.53579C14.5746 4.03479 14.9808 3.62863 15.4818 3.62863C15.9829 3.62863 16.3889 4.03479 16.3889 4.53579Z" fill="#4759A4"/>
<path d="M21.8318 19.0496C21.8318 19.551 22.2376 19.9568 22.739 19.9568L30.0567 19.9568C30.5581 19.9568 30.9639 19.551 30.9639 19.0496L30.9639 4.53509C30.9639 4.03367 30.5581 3.62793 30.0567 3.62793L22.739 3.62793C22.2376 3.62793 21.8318 4.03367 21.8318 4.53509L21.8318 19.0496ZM27.2748 11.7923L27.2748 15.421C27.2748 15.9224 26.869 16.3281 26.3676 16.3281C25.8662 16.3281 25.4604 15.9224 25.4604 15.421L25.4604 11.7923C25.4604 11.2909 25.8662 10.8852 26.3676 10.8852C26.869 10.8852 27.2748 11.2909 27.2748 11.7923ZM27.2748 8.16372C27.2748 8.66471 26.8687 9.07087 26.3676 9.07087C25.8666 9.07087 25.4604 8.66471 25.4604 8.16372C25.4604 7.66272 25.8666 7.25656 26.3676 7.25656C26.8687 7.25656 27.2748 7.66272 27.2748 8.16372Z" fill="#4759A4"/>
</svg>
