<svg width="37" height="37" viewBox="0 0 37 37" fill="none" xmlns="http://www.w3.org/2000/svg">
<g clip-path="url(#clip0)">
<path d="M13.0791 7.58796H23.9194C24.5156 7.58796 25.0034 7.10017 25.0034 6.50398V3.25195C25.0034 2.65576 24.5156 2.16797 23.9194 2.16797H20.6672C20.6672 0.970599 19.6966 0 18.4992 0C17.3019 0 16.3313 0.970599 16.3313 2.16797H13.0791C12.4829 2.16797 11.9951 2.65576 11.9951 3.25195V6.50391C11.9951 7.10017 12.4829 7.58796 13.0791 7.58796Z" fill="#3DACE3"/>
<path d="M31.1465 4.33618H27.1716V6.50408C27.1716 8.29721 25.7128 9.75603 23.9197 9.75603H13.0794C11.2863 9.75603 9.82744 8.29721 9.82744 6.50408V4.33618H5.85254C5.25389 4.33618 4.76855 4.82152 4.76855 5.42017V35.9161C4.76855 36.5148 5.25389 37.0001 5.85254 37.0001H31.1465C31.7452 37.0001 32.2305 36.5148 32.2305 35.9161V5.42017C32.2305 4.82152 31.7452 4.33618 31.1465 4.33618ZM10.9116 31.1474C10.313 31.1474 9.82766 30.662 9.82766 30.0634C9.82766 29.4647 10.313 28.9794 10.9116 28.9794C11.5103 28.9794 11.9956 29.4647 11.9956 30.0634C11.9956 30.662 11.5103 31.1474 10.9116 31.1474ZM10.9116 23.9208C10.313 23.9208 9.82766 23.4355 9.82766 22.8368C9.82766 22.2382 10.313 21.7528 10.9116 21.7528C11.5103 21.7528 11.9956 22.2382 11.9956 22.8368C11.9956 23.4355 11.5103 23.9208 10.9116 23.9208ZM10.9116 16.6935C10.313 16.6935 9.82766 16.2082 9.82766 15.6095C9.82766 15.0109 10.313 14.5256 10.9116 14.5256C11.5103 14.5256 11.9956 15.0109 11.9956 15.6095C11.9956 16.2083 11.5103 16.6935 10.9116 16.6935ZM17.4155 31.1474H15.2475C14.6489 31.1474 14.1635 30.662 14.1635 30.0634C14.1635 29.4647 14.6489 28.9794 15.2475 28.9794H17.4155C18.0141 28.9794 18.4995 29.4647 18.4995 30.0634C18.4995 30.662 18.0141 31.1474 17.4155 31.1474ZM17.4155 23.9206H15.2475C14.6489 23.9206 14.1635 23.4353 14.1635 22.8366C14.1635 22.238 14.6489 21.7526 15.2475 21.7526H17.4155C18.0141 21.7526 18.4995 22.238 18.4995 22.8366C18.4995 23.4353 18.0141 23.9206 17.4155 23.9206ZM17.4155 16.6939H15.2475C14.6489 16.6939 14.1635 16.2086 14.1635 15.6099C14.1635 15.0113 14.6489 14.5259 15.2475 14.5259H17.4155C18.0141 14.5259 18.4995 15.0113 18.4995 15.6099C18.4995 16.2086 18.0141 16.6939 17.4155 16.6939ZM26.9662 28.892L24.3525 32.5053C24.1485 32.7873 23.8217 32.954 23.4743 32.954C23.469 32.954 23.4638 32.9539 23.4586 32.9539C23.1053 32.9488 22.7767 32.7718 22.578 32.4796L21.5784 31.01C21.2417 30.515 21.3701 29.8407 21.8651 29.5041C22.3602 29.1674 23.0343 29.2958 23.371 29.7907L23.5016 29.9827L25.2097 27.6214C25.5606 27.1363 26.2382 27.0276 26.7233 27.3784C27.2083 27.7293 27.317 28.4069 26.9662 28.892ZM26.9662 21.6653L24.3525 25.2785C24.1485 25.5605 23.8217 25.7272 23.4743 25.7272C23.469 25.7272 23.4638 25.7272 23.4586 25.7271C23.1053 25.722 22.7767 25.545 22.578 25.2528L21.5784 23.7832C21.2417 23.2882 21.3701 22.614 21.8651 22.2773C22.3602 21.9405 23.0343 22.0689 23.371 22.564L23.5016 22.756L25.2097 20.3946C25.5606 19.9096 26.2382 19.8007 26.7233 20.1517C27.2083 20.5025 27.317 21.1801 26.9662 21.6653ZM26.9662 14.4386L24.3525 18.0518C24.1485 18.3338 23.8217 18.5005 23.4743 18.5005C23.469 18.5005 23.4638 18.5005 23.4586 18.5004C23.1053 18.4953 22.7767 18.3183 22.578 18.0261L21.5784 16.5565C21.2417 16.0615 21.3701 15.3873 21.8651 15.0506C22.3602 14.7138 23.0343 14.8422 23.371 15.3372L23.5016 15.5293L25.2097 13.1679C25.5606 12.6829 26.2382 12.5741 26.7233 12.925C27.2083 13.2758 27.317 13.9535 26.9662 14.4386Z" fill="#4759A4"/>
</g>
<defs>
<clipPath id="clip0">
<rect width="37" height="37" fill="white"/>
</clipPath>
</defs>
</svg>
