<svg width="37" height="45" viewBox="0 0 37 45" fill="none" xmlns="http://www.w3.org/2000/svg">
<path d="M21.1037 17.3426C21.1621 16.0866 21.5989 14.924 22.3016 13.963C21.8084 13.8607 21.2987 13.8064 20.7757 13.8064H15.8317C15.3102 13.8064 14.8011 13.8603 14.3105 13.9613C15.0583 14.9881 15.5056 16.2421 15.5129 17.5997C16.4219 17.1047 17.4649 16.8229 18.5728 16.8229C19.4715 16.8229 20.327 17.0083 21.1037 17.3426ZM22.09 17.8604C23.7826 18.9111 24.9695 20.6883 25.1865 22.7522C25.8762 23.0712 26.6426 23.2553 27.4545 23.2553C30.4197 23.2553 32.8231 20.8758 32.8231 17.9406C32.8231 15.005 30.4197 12.626 27.4545 12.626C24.5165 12.6261 22.1346 14.9628 22.09 17.8604ZM20.85 29.1043H16.295C12.5048 29.1043 9.42059 32.1573 9.42059 35.9098V41.4252L9.43509 41.5116L9.81855 41.6296C13.4358 42.748 16.5784 43.1221 19.1652 43.1221C24.2166 43.1221 27.1458 41.6961 27.3262 41.6049L27.685 41.4251H27.7231V35.9098C27.7232 32.1573 24.6407 29.1043 20.85 29.1043ZM29.733 23.6181H25.2121C25.163 25.4088 24.3911 27.0213 23.1702 28.1804C26.5393 29.1722 29.0043 32.2649 29.0043 35.9182V37.6177C33.4671 37.455 36.0393 36.2036 36.2088 36.1192L36.5676 35.9386H36.6057V30.4222C36.6062 26.6706 33.5222 23.6181 29.733 23.6181ZM9.15272 23.2554C10.203 23.2554 11.1796 22.9517 12.0078 22.4347C12.2712 20.7356 13.1914 19.2505 14.5054 18.2396C14.511 18.1399 14.5202 18.0414 14.5202 17.9407C14.5202 15.005 12.1161 12.6261 9.15272 12.6261C6.18678 12.6261 3.78372 15.005 3.78372 17.9407C3.78372 20.8764 6.18669 23.2554 9.15272 23.2554ZM13.9741 28.1804C12.7589 27.0269 11.9895 25.4231 11.9329 23.6428C11.7657 23.6305 11.5998 23.6181 11.4289 23.6181H6.8744C3.08372 23.6181 0 26.6706 0 30.4227V35.9386L0.0140763 36.0244L0.398036 36.143C3.29928 37.0411 5.88957 37.4538 8.13931 37.5829V35.9177C8.13974 32.2649 10.6042 29.1717 13.9741 28.1804Z" fill="#4759A4"/>
<path d="M23.941 23.4279C23.941 26.3623 21.5374 28.7425 18.5728 28.7425C15.6078 28.7425 13.2033 26.3623 13.2032 23.4279C13.2032 20.4929 15.6078 18.1133 18.5728 18.1133C21.5374 18.1133 23.941 20.493 23.941 23.4279Z" fill="#3DACE3"/>
<path d="M18.3033 2C15.0848 2 12.476 4.58263 12.476 7.76831C12.476 10.954 15.0848 13.5366 18.3033 13.5365C21.5213 13.5365 24.1304 10.954 24.1304 7.76831C24.1304 4.58263 21.5213 2 18.3033 2Z" fill="#3DACE3"/>
</svg>
