<svg width="26" height="26" viewBox="0 0 26 26" fill="none" xmlns="http://www.w3.org/2000/svg">
<circle cx="13" cy="13" r="12.5" fill="white" stroke="white"/>
<path d="M17.8062 12.3797C18.984 12.3797 19.8707 11.8541 20.5245 10.9391L19.6507 10.225C19.4349 10.5297 19.1559 10.7765 18.8358 10.946C18.5158 11.1156 18.1633 11.2031 17.8062 11.2019C16.528 11.2019 15.6018 10.0864 15.6018 8.71771C15.6018 7.34898 16.5129 6.1707 17.8427 6.1707C18.4338 6.1707 18.8516 6.32019 19.216 6.56204V7.76555H20.3156V6.01074L20.1049 5.83316C19.5005 5.32376 18.5774 5.05334 17.8058 5.05334C15.9196 5.05334 14.3854 6.69677 14.3854 8.71724C14.3854 10.7358 15.9187 12.3797 17.8058 12.3797H17.8062ZM20.0876 19.6065L20.0485 17.9198V13.8036H17.7551V14.9819H18.8902V17.7746C18.8902 18.9777 18.0325 19.8293 17.1671 19.8293C16.3018 19.8293 15.8502 19.1867 15.8502 17.9841V13.8032H13.708V14.9815H14.692V18.1883C14.692 19.8203 15.5462 20.9448 17.0698 20.9448C17.9454 20.9448 18.612 20.4244 19.0098 19.6223H19.0276L19.1845 20.7439H20.9467V19.608H20.0889V19.6056L20.0876 19.6065ZM14.132 5.22616H12.2209L10.5587 10.3964H10.5329L8.87958 5.22616H6.84313V6.40492H7.98847L9.95958 12.2978H11.0067V12.2964L13.0622 6.4054H14.1311V5.22664L14.132 5.22616ZM5.05469 20.7591H6.18713V19.5466H5.05513V20.7591H5.05469ZM9.42802 15.17H9.41558L9.34447 13.8036H7.32313V14.8777H8.39869V19.607H7.32313V20.7434H12.3187V19.6294H9.53735V16.7753C9.66313 15.7422 10.3862 14.8601 11.3729 14.8601H11.3907L11.3707 15.916H12.4702V13.7841H11.6009C10.6054 13.7813 9.86669 14.3583 9.42758 15.1705L9.42802 15.17Z" fill="#4E64B4"/>
</svg>
