<svg width="35" height="35" viewBox="0 0 35 35" fill="none" xmlns="http://www.w3.org/2000/svg">
<path d="M9.29688 25.7031C9.86318 25.7031 10.3223 25.244 10.3223 24.6777C10.3223 24.1114 9.86318 23.6523 9.29688 23.6523C8.73057 23.6523 8.27148 24.1114 8.27148 24.6777C8.27148 25.244 8.73057 25.7031 9.29688 25.7031Z" fill="#3DACE3"/>
<path d="M14.4238 11.9814V16.8661L19.3084 14.4238L14.4238 11.9814Z" fill="#3DACE3"/>
<path d="M31.9238 3.14453H3.07617C1.3799 3.14453 0 4.52443 0 6.2207V28.7793C0 30.4756 1.3799 31.8555 3.07617 31.8555H31.9238C33.6201 31.8555 35 30.4756 35 28.7793V6.2207C35 4.52443 33.6201 3.14453 31.9238 3.14453ZM12.373 10.3223C12.373 9.9668 12.5573 9.6373 12.8597 9.45007C13.1611 9.26283 13.5376 9.24779 13.8571 9.40502L22.0602 13.5066C22.4077 13.6808 22.627 14.0353 22.627 14.4238C22.627 14.8124 22.4077 15.1668 22.0602 15.3411L13.8571 19.4426C13.5334 19.6033 13.1564 19.5821 12.8597 19.3976C12.5573 19.2104 12.373 18.8809 12.373 18.5254V10.3223ZM29.8047 25.7031H12.1842C11.7595 26.8941 10.6319 27.7539 9.29688 27.7539C7.96182 27.7539 6.8343 26.8941 6.40958 25.7031H5.19531C4.62854 25.7031 4.16992 25.2445 4.16992 24.6777C4.16992 24.111 4.62854 23.6523 5.19531 23.6523H6.40958C6.8343 22.4614 7.96182 21.6016 9.29688 21.6016C10.6319 21.6016 11.7595 22.4614 12.1842 23.6523H29.8047C30.3715 23.6523 30.8301 24.111 30.8301 24.6777C30.8301 25.2445 30.3715 25.7031 29.8047 25.7031Z" fill="#4759A4"/>
</svg>
