<svg width="36" height="36" viewBox="0 0 36 36" fill="none" xmlns="http://www.w3.org/2000/svg">
<path d="M18 16.4951C17.8455 16.4951 17.691 16.4636 17.547 16.4006L8.172 12.2756C7.764 12.0941 7.5 11.6921 7.5 11.2451C7.5 10.7981 7.764 10.3961 8.172 10.2146L17.547 6.08962C17.835 5.96362 18.165 5.96362 18.453 6.08962L27.828 10.2146C28.236 10.3961 28.5 10.7981 28.5 11.2451C28.5 11.6921 28.236 12.0941 27.828 12.2756L18.453 16.4006C18.309 16.4636 18.1545 16.4951 18 16.4951Z" fill="#3DACE3"/>
<path d="M19.359 18.4608C18.9225 18.6513 18.468 18.7458 18 18.7458C17.532 18.7458 17.0775 18.6513 16.647 18.4638L10.5 15.7578V16.7898C10.5 17.7048 10.9785 18.5658 11.748 19.0323C13.9095 20.3448 15.9555 21.0003 18 21.0003C20.0445 21.0003 22.0905 20.3433 24.252 19.0323C25.0215 18.5658 25.5 17.7063 25.5 16.7898V15.7578L19.359 18.4608Z" fill="#3DACE3"/>
<path d="M31.5 0H4.5C2.019 0 0 2.019 0 4.5V31.5C0 33.981 2.019 36 4.5 36H31.5C33.981 36 36 33.981 36 31.5V4.5C36 2.019 33.981 0 31.5 0ZM30 31.5H13.5C13.5 32.328 12.828 33 12 33C11.172 33 10.5 32.328 10.5 31.5H6C5.172 31.5 4.5 30.828 4.5 30C4.5 29.172 5.172 28.5 6 28.5H10.5C10.5 27.672 11.172 27 12 27C12.828 27 13.5 27.672 13.5 28.5H30C30.828 28.5 31.5 29.172 31.5 30C31.5 30.828 30.828 31.5 30 31.5ZM33 24H3V4.5C3 3.6735 3.6735 3 4.5 3H31.5C32.3265 3 33 3.6735 33 4.5V24Z" fill="#4759A4"/>
</svg>
