<svg width="42" height="42" viewBox="0 0 42 42" fill="none" xmlns="http://www.w3.org/2000/svg">
<path d="M40.7697 35.9927C40.4959 35.9927 40.2244 35.9014 40.0021 35.7242L32.2912 29.5718C31.9986 29.3383 31.8281 28.9843 31.8281 28.6099V19.6861C31.8281 19.3117 31.9986 18.9577 32.2912 18.7242L40.0021 12.5718C40.3716 12.2771 40.8772 12.22 41.3033 12.425C41.7292 12.6301 42 13.061 42 13.5337V34.7622C42 35.2349 41.7292 35.6658 41.3033 35.8709C41.1336 35.9526 40.9511 35.9927 40.7697 35.9927Z" fill="#3C64B1"/>
<path d="M6.72656 8.46826H23.2148C23.8933 8.46826 24.4453 9.02025 24.4453 9.69873V10.193H26.9062V9.69873C26.9062 7.66329 25.2503 6.00732 23.2148 6.00732H6.72656C6.04702 6.00732 5.49609 6.55825 5.49609 7.23779C5.49609 7.91734 6.04702 8.46826 6.72656 8.46826Z" fill="#3DACE3"/>
<path d="M7.38281 20.0371H15.542V25.2704H7.38281V20.0371Z" fill="#3DACE3"/>
<path d="M25.6758 12.6543H3.69141C1.65596 12.6543 0 14.3103 0 16.3457V31.9508C0 33.9864 1.65596 35.6422 3.69141 35.6422H25.6758C27.7112 35.6422 29.3672 33.9864 29.3672 31.9508V16.3457C29.3672 14.3102 27.7112 12.6543 25.6758 12.6543ZM18.0029 26.5008C18.0029 27.1804 17.452 27.7313 16.7724 27.7313H6.15234C5.4728 27.7313 4.92188 27.1804 4.92188 26.5008V18.8066C4.92188 18.1271 5.4728 17.5762 6.15234 17.5762H16.7724C17.452 17.5762 18.0029 18.1271 18.0029 18.8066V26.5008ZM21.7383 26.5547C21.0587 26.5547 20.5078 26.0037 20.5078 25.3242C20.5078 24.6446 21.0587 24.0937 21.7383 24.0937C22.4178 24.0937 22.9688 24.6446 22.9688 25.3242C22.9688 26.0037 22.4178 26.5547 21.7383 26.5547ZM21.7383 21.2136C21.0587 21.2136 20.5078 20.6627 20.5078 19.9831C20.5078 19.3036 21.0587 18.7527 21.7383 18.7527C22.4178 18.7527 22.9688 19.3036 22.9688 19.9831C22.9688 20.6627 22.4178 21.2136 21.7383 21.2136Z" fill="#3C64B1"/>
</svg>
