<svg width="39" height="39" viewBox="0 0 39 39" fill="none" xmlns="http://www.w3.org/2000/svg">
<path d="M37.775 6.51057C37.7733 4.78487 36.3749 3.38684 34.6492 3.38477H4.33833C2.61263 3.38684 1.2143 4.78487 1.21252 6.51057V9.61093H37.775V6.51057ZM4.66749 8.57373C3.52847 8.57373 2.60434 7.6499 2.60434 6.51057C2.60434 5.37096 3.52847 4.44713 4.66808 4.44713C5.80711 4.44713 6.73124 5.37096 6.73124 6.51057C6.72976 7.6496 5.80681 8.57284 4.66749 8.57373ZM9.44501 8.57373C8.30539 8.57373 7.38185 7.6499 7.38185 6.51028C7.38245 5.37066 8.30628 4.44713 9.4456 4.44713C10.5852 4.44742 11.5088 5.37096 11.5088 6.51057C11.5076 7.6499 10.584 8.57284 9.44501 8.57373ZM14.2222 8.57373C13.0826 8.57373 12.1588 7.65019 12.1588 6.51057C12.1588 5.37096 13.0826 4.44713 14.2222 4.44713C15.3618 4.44713 16.2854 5.37096 16.2854 6.51057C16.2845 7.6496 15.3613 8.57284 14.2222 8.57373Z" fill="#3DACE3"/>
<path d="M9.44487 5.77344C9.03756 5.77344 8.70752 6.10348 8.70752 6.51049C8.70752 6.9175 9.03756 7.24754 9.44487 7.24754C9.85217 7.24754 10.1819 6.9175 10.1819 6.51049C10.1816 6.10348 9.85217 5.77403 9.44487 5.77344Z" fill="#3DACE3"/>
<path d="M4.33833 35.3354H34.6492C36.3749 35.3336 37.7733 33.935 37.775 32.2096V10.9375H1.21252V32.2096C1.2143 33.935 2.61263 35.3336 4.33833 35.3354ZM22.6977 15.6247H33.1171C33.4833 15.6247 33.7801 15.9219 33.7801 16.2878C33.7801 16.6542 33.4833 16.9508 33.1171 16.9508H22.6977C22.3313 16.9508 22.0347 16.6542 22.0347 16.2878C22.0347 15.9219 22.3313 15.6247 22.6977 15.6247ZM22.6977 20.4185H33.1171C33.4833 20.4185 33.7801 20.7157 33.7801 21.0816C33.7801 21.448 33.4833 21.7446 33.1171 21.7446H22.6977C22.3313 21.7446 22.0347 21.448 22.0347 21.0816C22.0347 20.7157 22.3313 20.4185 22.6977 20.4185ZM22.6977 25.2123H33.1171C33.4833 25.2123 33.7801 25.5095 33.7801 25.8754C33.7801 26.2418 33.4833 26.5384 33.1171 26.5384H22.6977C22.3313 26.5384 22.0347 26.2418 22.0347 25.8754C22.0347 25.5095 22.3313 25.2123 22.6977 25.2123ZM22.6977 30.0061H33.1171C33.4833 30.0061 33.7801 30.3033 33.7801 30.6692C33.7801 31.0356 33.4833 31.3322 33.1171 31.3322H22.6977C22.3313 31.3322 22.0347 31.0356 22.0347 30.6692C22.0347 30.3033 22.3313 30.0061 22.6977 30.0061ZM5.00138 16.2878C5.00138 15.9219 5.29798 15.6247 5.66443 15.6247H17.6941C18.0605 15.6247 18.3571 15.9219 18.3571 16.2878V30.6692C18.3571 31.0356 18.0605 31.3322 17.6941 31.3322H5.66443C5.29798 31.3322 5.00138 31.0356 5.00138 30.6692V16.2878Z" fill="#5D6CAF"/>
<path d="M14.2222 5.77344C13.8152 5.77314 13.4849 6.10319 13.4849 6.51049C13.4849 6.9175 13.8149 7.24754 14.2222 7.24754C14.6292 7.24754 14.9593 6.9175 14.9593 6.51049C14.959 6.10348 14.6292 5.77403 14.2222 5.77344Z" fill="#3DACE3"/>
<path d="M4.66735 5.77344C4.26064 5.77344 3.9303 6.10348 3.9303 6.51049C3.9303 6.9175 4.26064 7.24754 4.66735 7.24754C5.07494 7.24754 5.40499 6.9175 5.40499 6.51049C5.4044 6.10348 5.07465 5.77403 4.66735 5.77344Z" fill="#3DACE3"/>
<path d="M6.32739 16.9502H17.0309V30.0055H6.32739V16.9502Z" fill="#5D6CAF"/>
</svg>
