<svg width="23" height="23" viewBox="0 0 23 23" fill="none" xmlns="http://www.w3.org/2000/svg">
<g clip-path="url(#clip0)">
<path d="M16.7777 13.7109L16.769 13.7827C14.6617 12.7324 14.4413 12.5925 14.1691 13.0007C13.9803 13.2834 13.4302 13.9246 13.2644 14.1143C13.0967 14.3012 12.93 14.3156 12.6453 14.1862C12.3578 14.0424 11.435 13.7406 10.3425 12.7631C9.49146 12.0012 8.9203 11.0668 8.75163 10.7793C8.47084 10.2944 9.0583 10.2254 9.59305 9.21341C9.68888 9.01216 9.64001 8.85403 9.56909 8.71124C9.49721 8.56749 8.92509 7.15874 8.68551 6.59716C8.45551 6.03749 8.2188 6.10841 8.04151 6.10841C7.48951 6.06049 7.08605 6.06816 6.73051 6.43807C5.18376 8.13816 5.5738 9.89191 6.89726 11.7568C9.49817 15.1608 10.8839 15.7876 13.4178 16.6577C14.102 16.8753 14.7259 16.8446 15.2194 16.7737C15.7695 16.6865 16.9128 16.0827 17.1514 15.4071C17.3958 14.7315 17.3958 14.1709 17.3239 14.0415C17.253 13.9121 17.0652 13.8402 16.7777 13.7109Z" fill="#363F6A"/>
<path d="M19.665 3.30543C12.2964 -3.81786 0.101583 1.34851 0.0967917 11.3976C0.0967917 13.4063 0.622917 15.3651 1.62533 17.0949L0 23.0001L6.07104 21.417C13.6467 25.5091 22.9962 20.0753 23 11.4033C23 8.35968 21.8117 5.49522 19.6506 3.34281L19.665 3.30543ZM21.0853 11.3717C21.0795 18.6867 13.0496 23.2551 6.69875 19.5214L6.35375 19.3163L2.76 20.2507L3.72312 16.7576L3.49408 16.3982C-0.458083 10.1067 4.0825 1.88422 11.569 1.88422C14.1124 1.88422 16.4996 2.8761 18.2975 4.67297C20.0943 6.45451 21.0853 8.84172 21.0853 11.3717Z" fill="#363F6A"/>
</g>
<defs>
<clipPath id="clip0">
<rect width="23" height="23" fill="white"/>
</clipPath>
</defs>
</svg>
