<svg width="39" height="39" viewBox="0 0 39 39" fill="none" xmlns="http://www.w3.org/2000/svg">
<path d="M37.8574 19.5762H0V24.1465H39V20.7188C39 20.0877 38.4884 19.5762 37.8574 19.5762Z" fill="#3C64B1"/>
<path d="M36.334 0H21.0996C19.6296 0 18.4336 1.19597 18.4336 2.66602V10.0547H39V2.66602C39 1.19597 37.804 0 36.334 0Z" fill="#6BBFE9"/>
<path d="M9.90234 27.9551C9.90234 28.5861 9.39077 29.0977 8.75977 29.0977C8.12876 29.0977 7.61719 28.5861 7.61719 27.9551V26.4316H0V31.5732H17.5195V26.4316H9.90234V27.9551Z" fill="#3C64B1"/>
<path d="M9.90234 35.3818C9.90234 36.0312 9.36069 36.554 8.70454 36.5231C8.08999 36.4942 7.61719 35.9648 7.61719 35.3495V33.8584H0V37.8574C0 38.4884 0.51157 39 1.14258 39H16.377C17.008 39 17.5195 38.4884 17.5195 37.8574V33.8584H9.90234V35.3818Z" fill="#3C64B1"/>
<path d="M33.2109 27.5742H21.0234C20.3924 27.5742 19.8809 28.0858 19.8809 28.7168V31.002C19.8809 31.633 20.3924 32.1445 21.0234 32.1445H21.4043V37.8574C21.4043 38.4884 21.9159 39 22.5469 39C23.1779 39 23.6895 38.4884 23.6895 37.8574V32.1445H30.5449V37.8574C30.5449 38.4884 31.0565 39 31.6875 39C32.3185 39 32.8301 38.4884 32.8301 37.8574V32.1445H33.2109C33.8419 32.1445 34.3535 31.633 34.3535 31.002V28.7168C34.3535 28.0858 33.8419 27.5742 33.2109 27.5742Z" fill="#3C64B1"/>
<path d="M9.90234 16.5293C9.90234 15.0569 8.70873 13.8633 7.23633 13.8633H6.09375V4.18945C6.09375 3.13942 6.94802 2.28516 7.99805 2.28516H8.5749C8.44837 2.64278 8.37891 3.0273 8.37891 3.42827V4.57031C8.37891 5.20132 8.89048 5.71289 9.52148 5.71289H14.0918C14.7228 5.71289 15.2344 5.20132 15.2344 4.57031V3.42827C15.2344 1.53517 13.6997 0.000533203 11.8066 0.000533203V0H7.99805C5.68798 0 3.80859 1.87939 3.80859 4.18945V13.8633H2.66602C1.19361 13.8633 0 15.0569 0 16.5293V17.291H9.90234V16.5293Z" fill="#6BBFE9"/>
<path d="M18.4336 12.7207C18.4336 14.1931 19.6272 15.3867 21.0996 15.3867H25.2098L24.8924 17.291H32.5412L32.2238 15.3867H36.334C37.8064 15.3867 39 14.1931 39 12.7207V12.3398H18.4336V12.7207Z" fill="#6BBFE9"/>
<path d="M36.7148 37.8574C36.7148 38.4884 37.2264 39 37.8574 39C38.4884 39 39 38.4884 39 37.8574V26.4316H36.7148V37.8574Z" fill="#3C64B1"/>
</svg>
