<svg width="18" height="18" viewBox="0 0 18 18" fill="none" xmlns="http://www.w3.org/2000/svg">
<g clip-path="url(#clip0)">
<path d="M8.99933 15.5388C8.99782 15.5388 8.99617 15.5388 8.99453 15.5388C8.45139 15.5351 3.64981 15.4913 2.28942 15.1234C1.33869 14.8678 0.588185 14.1182 0.331929 13.1673C-0.0240289 11.8309 -0.00136957 9.25806 0.00110236 9.05262C-0.00123224 8.84813 -0.0241662 6.25398 0.33083 4.90664C0.331242 4.9054 0.331517 4.90403 0.331929 4.90279C0.585301 3.96277 1.3527 3.18988 2.28709 2.93363C2.28942 2.93294 2.29189 2.93239 2.29423 2.9317C3.63923 2.57822 8.45029 2.53496 8.99453 2.53125H9.00428C9.54879 2.53496 14.3631 2.57877 15.711 2.94722C16.6593 3.2021 17.4092 3.95083 17.6662 4.90046C18.0355 6.24876 18.0013 8.84855 17.9976 9.068C18.0002 9.28415 18.0217 11.834 17.6678 13.177C17.6676 13.1784 17.6671 13.1796 17.6669 13.1809C17.4105 14.1317 16.6601 14.8814 15.7083 15.1373C15.707 15.1377 15.7057 15.138 15.7044 15.1384C14.3596 15.4917 9.54838 15.535 9.00428 15.5388C9.00263 15.5388 9.00098 15.5388 8.99933 15.5388ZM1.69012 5.26727C1.37755 6.45654 1.40708 9.0176 1.40735 9.04342V9.06196C1.39802 9.77222 1.43084 11.8291 1.69025 12.8034C1.81605 13.2699 2.18615 13.6394 2.65554 13.7656C3.65928 14.0371 7.57001 14.1225 8.99933 14.1326C10.4324 14.1225 14.3489 14.0395 15.3452 13.7788C15.8131 13.6522 16.1819 13.2839 16.3085 12.8168C16.5682 11.8283 16.6008 9.78142 16.5913 9.07569C16.5913 9.06827 16.5913 9.06086 16.5914 9.05344C16.6044 8.33466 16.579 6.2537 16.3098 5.27166C16.3095 5.2707 16.3092 5.26974 16.3091 5.26878C16.1828 4.80021 15.8125 4.43065 15.3431 4.30445C14.3491 4.03267 10.4321 3.94753 8.99933 3.9375C7.56726 3.94753 3.65461 4.03048 2.65527 4.29085C2.1948 4.41857 1.81632 4.80131 1.69012 5.26727ZM16.9879 12.998H16.9883H16.9879ZM7.20705 11.8826V6.18737L12.1289 9.03504L7.20705 11.8826Z" fill="white"/>
</g>
<defs>
<clipPath id="clip0">
<rect width="18" height="18" fill="white"/>
</clipPath>
</defs>
</svg>
