<svg width="29" height="29" viewBox="0 0 29 29" fill="none" xmlns="http://www.w3.org/2000/svg">
<g clip-path="url(#clip0)">
<path d="M14.499 25.0348C14.4965 25.0348 14.4939 25.0348 14.4912 25.0348C13.6162 25.0288 5.88029 24.9582 3.68856 24.3655C2.15683 23.9537 0.947681 22.7459 0.534823 21.2139C-0.0386641 19.0609 -0.00215737 14.9158 0.00182518 14.5848C-0.00193611 14.2553 -0.0388853 10.0758 0.533053 7.90513C0.533717 7.90313 0.534159 7.90092 0.534823 7.89893C0.943035 6.38445 2.1794 5.13924 3.6848 4.72638C3.68856 4.72528 3.69254 4.72439 3.6963 4.72328C5.86325 4.15378 13.6144 4.08408 14.4912 4.07811H14.5069C15.3842 4.08408 23.1407 4.15466 25.3123 4.74829C26.84 5.15893 28.0483 6.3652 28.4622 7.89517C29.0572 10.0674 29.0021 14.256 28.9961 14.6095C29.0003 14.9578 29.0351 19.0658 28.4649 21.2297C28.4645 21.2319 28.4638 21.2339 28.4633 21.2358C28.0503 22.7678 26.8413 23.9756 25.3078 24.3878C25.3058 24.3885 25.3036 24.3889 25.3016 24.3896C23.1349 24.9589 15.3835 25.0286 14.5069 25.0348C14.5043 25.0348 14.5016 25.0348 14.499 25.0348ZM2.72301 8.48614C2.21944 10.4022 2.26701 14.5283 2.26745 14.5699V14.5998C2.25241 15.7441 2.30529 19.0581 2.72323 20.6276C2.9259 21.3792 3.52218 21.9746 4.27842 22.1779C5.89556 22.6154 12.1962 22.753 14.499 22.7691C16.8077 22.753 23.1177 22.6191 24.7228 22.1992C25.4767 21.9952 26.0709 21.4018 26.2749 20.6493C26.6933 19.0567 26.7458 15.7589 26.7305 14.6219C26.7305 14.61 26.7305 14.598 26.7307 14.5861C26.7515 13.428 26.7106 10.0754 26.2769 8.49322C26.2765 8.49167 26.276 8.49012 26.2758 8.48857C26.0723 7.73365 25.4758 7.13826 24.7195 6.93493C23.1181 6.49707 16.8073 6.35989 14.499 6.34374C12.1917 6.35989 5.88803 6.49353 4.27798 6.91303C3.53612 7.11879 2.92634 7.73542 2.72301 8.48614ZM27.3695 20.9411H27.3701H27.3695ZM11.6114 19.1441V9.96853L19.5411 14.5564L11.6114 19.1441Z" fill="#E36262"/>
</g>
<defs>
<clipPath id="clip0">
<rect width="29" height="29" fill="white"/>
</clipPath>
</defs>
</svg>
