<svg width="26" height="26" viewBox="0 0 26 26" fill="none" xmlns="http://www.w3.org/2000/svg">
<circle cx="13" cy="13" r="12.5" fill="white"/>
<circle cx="13" cy="13" r="12.5" fill="white"/>
<circle cx="13" cy="13" r="12.5" stroke="white"/>
<g clip-path="url(#clip0)">
<path d="M12.9994 19.5388C12.9979 19.5388 12.9962 19.5388 12.9946 19.5388C12.4514 19.5351 7.64984 19.4913 6.28945 19.1234C5.33872 18.8678 4.58822 18.1182 4.33196 17.1673C3.976 15.8309 3.99866 13.2581 4.00113 13.0526C3.9988 12.8481 3.97586 10.254 4.33086 8.90664C4.33127 8.9054 4.33155 8.90403 4.33196 8.90279C4.58533 7.96277 5.35273 7.18988 6.28712 6.93363C6.28945 6.93294 6.29192 6.93239 6.29426 6.9317C7.63926 6.57822 12.4503 6.53496 12.9946 6.53125H13.0043C13.5488 6.53496 18.3632 6.57877 19.7111 6.94722C20.6593 7.2021 21.4093 7.95083 21.6662 8.90046C22.0355 10.2488 22.0013 12.8485 21.9976 13.068C22.0002 13.2842 22.0218 15.834 21.6679 17.177C21.6676 17.1784 21.6672 17.1796 21.6669 17.1809C21.4105 18.1317 20.6601 18.8814 19.7083 19.1373C19.7071 19.1377 19.7057 19.138 19.7045 19.1384C18.3596 19.4917 13.5484 19.535 13.0043 19.5388C13.0027 19.5388 13.001 19.5388 12.9994 19.5388ZM5.69015 9.26727C5.37758 10.4565 5.40711 13.0176 5.40739 13.0434V13.062C5.39805 13.7722 5.43087 15.8291 5.69028 16.8034C5.81608 17.2699 6.18618 17.6394 6.65557 17.7656C7.65931 18.0371 11.57 18.1225 12.9994 18.1326C14.4324 18.1225 18.3489 18.0395 19.3452 17.7788C19.8131 17.6522 20.182 17.2839 20.3086 16.8168C20.5683 15.8283 20.6008 13.7814 20.5913 13.0757C20.5913 13.0683 20.5913 13.0609 20.5915 13.0534C20.6044 12.3347 20.579 10.2537 20.3098 9.27166C20.3095 9.2707 20.3093 9.26974 20.3091 9.26878C20.1828 8.80021 19.8125 8.43065 19.3432 8.30445C18.3492 8.03267 14.4321 7.94753 12.9994 7.9375C11.5673 7.94753 7.65464 8.03048 6.6553 8.29085C6.19483 8.41857 5.81635 8.80131 5.69015 9.26727ZM20.9879 16.998H20.9884H20.9879ZM11.2071 15.8826V10.1874L16.129 13.035L11.2071 15.8826Z" fill="#3C64B1"/>
</g>
<defs>
<clipPath id="clip0">
<rect width="18" height="18" fill="white" transform="translate(4 4)"/>
</clipPath>
</defs>
</svg>
