<svg width="45" height="45" viewBox="0 0 45 45" fill="none" xmlns="http://www.w3.org/2000/svg">
<g clip-path="url(#clip0)">
<path d="M24.2523 27.962C30.8656 26.8517 35.625 19.6415 35.625 13.1251C35.6249 5.88779 29.7372 0 22.5 0C15.2627 0 9.375 5.88779 9.375 13.125C9.375 19.6414 14.1345 26.8517 20.7477 27.9619L18.9377 30.3754C18.7244 30.6592 18.6904 31.0391 18.8489 31.3568C19.0083 31.6746 19.3323 31.875 19.6876 31.875H21.4924C21.3641 32.6721 21.0734 33.185 20.7487 33.7537C20.2515 34.6243 19.6875 35.6104 19.6875 37.5C19.6875 39.3897 20.2515 40.3757 20.7486 41.2464C21.1853 42.0108 21.5624 42.6709 21.5624 44.0626C21.5624 44.5808 21.9818 45.0001 22.5 45.0001C23.0182 45.0001 23.4375 44.5808 23.4375 44.0626C23.4375 42.1729 22.8735 41.1869 22.3764 40.3162C21.9397 39.5518 21.5625 38.8917 21.5625 37.5C21.5625 36.1084 21.9398 35.4483 22.3764 34.6838C22.781 33.9751 23.2132 33.1619 23.3662 31.875H25.3125C25.6677 31.875 25.9918 31.6746 26.1511 31.3568C26.3095 31.0391 26.2757 30.6592 26.0624 30.3754L24.2523 27.962ZM19.1674 6.40591C16.8686 7.55218 15.3277 9.75129 15.0467 12.2909C14.9936 12.7706 14.5871 13.125 14.1156 13.125C14.0817 13.125 14.0459 13.1231 14.0111 13.1194C13.4966 13.0618 13.1258 12.5985 13.1826 12.084C13.535 8.90895 15.4595 6.15867 18.3306 4.7286C18.7985 4.49701 19.3569 4.6865 19.5886 5.14881C19.8193 5.61217 19.6307 6.1752 19.1674 6.40591Z" fill="#4759A4"/>
<path d="M45 18.75C45 14.7134 42.4026 11.1474 38.5363 9.87758C38.226 9.77686 37.8872 9.84093 37.6391 10.0515C37.3901 10.2621 37.2683 10.5853 37.3159 10.9066C37.4414 11.7461 37.5 12.4511 37.5 13.125C37.5 18.1604 34.9136 23.5382 30.9119 26.8268C30.6913 27.0081 30.5649 27.2809 30.5695 27.5665C30.574 27.8531 30.7096 28.1214 30.9366 28.2953C31.9595 29.0795 33.0664 29.5876 34.1931 29.8297L33.8488 30.5182C33.7033 30.8084 33.7188 31.1535 33.8901 31.43C34.0613 31.7065 34.3625 31.875 34.6875 31.875H34.7876C34.983 32.7936 35.4401 33.3791 35.8301 33.8672C36.2714 34.4184 36.5625 34.7818 36.5625 35.6251C36.5625 36.4683 36.2713 36.8317 35.8301 37.3829C35.321 38.0201 34.6875 38.812 34.6875 40.3125C34.6875 40.8307 35.1068 41.2501 35.625 41.2501C36.1432 41.2501 36.5625 40.8307 36.5625 40.3125C36.5625 39.4693 36.8537 39.1059 37.2949 38.5547C37.804 37.9175 38.4375 37.1256 38.4375 35.6251C38.4375 34.1245 37.804 33.3326 37.2949 32.6954C37.0503 32.3898 36.8594 32.1352 36.7309 31.8313C36.9859 31.7821 37.2203 31.6556 37.3599 31.4301C37.5311 31.1536 37.5467 30.8085 37.4011 30.5183L37.0555 29.827C41.5631 28.8368 45 23.367 45 18.75Z" fill="#3DACE3"/>
<path d="M15.0623 27.5537C10.5396 24.3951 7.49997 18.5961 7.49997 13.125C7.49997 11.217 7.86621 9.34012 8.58762 7.54575C8.72587 7.20245 8.64896 6.80967 8.39171 6.54415C8.13173 6.27678 7.73982 6.18705 7.39652 6.31528C2.97272 7.93124 0 12.1747 0 16.875C0 22.4726 4.18315 28.894 9.80209 29.8619L9.47391 30.5182C9.32836 30.8084 9.34392 31.1535 9.51513 31.43C9.66595 31.6736 9.92382 31.8119 10.2037 31.8466C10.0711 32.3944 9.82767 32.7872 9.53253 33.23C9.04447 33.9615 8.4375 34.8724 8.4375 36.5625C8.4375 38.2525 9.04447 39.1635 9.53244 39.895C9.9682 40.5488 10.3125 41.0651 10.3125 42.1875C10.3125 42.7057 10.7318 43.125 11.25 43.125C11.7682 43.125 12.1875 42.7057 12.1875 42.1875C12.1875 40.4974 11.5806 39.5865 11.0926 38.8549C10.6568 38.2012 10.3126 37.6849 10.3126 36.5625C10.3126 35.44 10.6568 34.9237 11.0926 34.27C11.4794 33.6901 11.9279 32.9791 12.1026 31.875H12.1875C12.5125 31.875 12.8138 31.7065 12.985 31.43C13.1562 31.1535 13.1717 30.8084 13.0262 30.5182L12.6863 29.8382C13.4329 29.707 14.1775 29.5094 14.9122 29.1769C15.2198 29.0377 15.4286 28.7447 15.4597 28.4087C15.4907 28.0737 15.3388 27.7469 15.0623 27.5537Z" fill="#3DACE3"/>
</g>
<defs>
<clipPath id="clip0">
<rect width="45" height="45" fill="white"/>
</clipPath>
</defs>
</svg>
