<svg width="48" height="48" viewBox="0 0 48 48" fill="none" xmlns="http://www.w3.org/2000/svg">
<g clip-path="url(#clip0)">
<path d="M23.9918 15.1011C26.0115 15.1011 27.6488 13.4638 27.6488 11.4443C27.6488 9.42423 26.0115 7.78711 23.9918 7.78711C21.9722 7.78711 20.335 9.42423 20.335 11.4443C20.335 13.4638 21.9722 15.1011 23.9918 15.1011Z" fill="#3DACE3"/>
<path d="M31.0623 26.1567C31.3106 24.0688 31.6333 17.5303 26.2006 15.7307C26.0916 15.6943 25.2343 15.3834 24.9028 15.3027L24.0018 16.23L23.1092 15.3031C23.105 15.3039 23.1028 15.3039 23.0997 15.3046C22.7601 15.3864 21.907 15.6972 21.8085 15.7314C16.3456 17.6412 16.6868 24.0882 16.9441 26.1575H13.6167V28.6006H14.7836V40.1238H17.052V28.5999H19.399C19.2247 28.905 19.1409 29.2633 19.1821 29.6342L20.2627 38.6029C20.359 39.4723 21.0955 40.1167 21.9526 40.1167C22.0146 40.1167 22.0775 40.1129 22.1401 40.1069C23.0742 40.0021 23.7481 39.1619 23.6444 38.2281L22.7038 30.5323L23.9967 30.0038L25.2474 30.5248L24.3141 38.2359C24.2123 39.1705 24.8877 40.0098 25.8212 40.1109C25.8843 40.1182 25.9456 40.122 26.0068 40.122C26.864 40.122 27.6017 39.4768 27.6972 38.6062L28.7693 29.631C28.8101 29.2624 28.7268 28.9043 28.5528 28.5997H30.932V40.1223H33.1998V28.5999H34.3834V26.1567H31.0623ZM20.249 26.157H19.8141C19.7223 25.5453 19.3757 22.7561 20.249 20.6727V26.157ZM24.0053 23.4673H23.989L23.1021 22.2598L23.989 16.3649H24.0053L24.8827 22.2598L24.0053 23.4673ZM28.1946 26.157H27.735V20.6539C28.6405 22.746 28.2862 25.546 28.1946 26.157Z" fill="#3C64B1"/>
<path d="M7.12453 16.8326C9.05943 16.8326 10.628 15.264 10.628 13.3291C10.628 11.3942 9.05943 9.82568 7.12453 9.82568C5.18964 9.82568 3.62109 11.3942 3.62109 13.3291C3.62109 15.264 5.18964 16.8326 7.12453 16.8326Z" fill="#3DACE3"/>
<path d="M15.1877 22.9518C11.0123 23.2611 10.4685 21.8013 9.4509 19.0754C9.0956 18.0784 8.11019 17.4044 7.17057 17.1724C7.17057 17.1724 6.80223 17.0617 6.41072 17.0693C6.03321 17.078 5.61465 17.1655 5.61465 17.1655L5.60439 17.1662C4.425 17.4533 3.17052 18.4122 3.16717 19.853L3.15967 27.5844C3.1576 29.2638 4.30739 30.1598 5.85373 30.1619C5.87623 30.1619 8.01418 30.1594 8.01418 30.1594C8.01418 30.1594 10.3082 30.0854 10.0986 32.5397C9.94849 34.2967 9.7183 36.2592 9.53517 38.364C9.45386 39.2993 10.1457 40.1248 11.0825 40.2066C11.1329 40.2112 11.1825 40.2128 11.2322 40.2128C12.1045 40.2128 12.8474 39.5463 12.9249 38.6606C13.7284 29.4658 13.3691 28.9034 13.1218 28.3239C12.8539 27.8192 12.3257 27.1196 9.58865 26.9286L9.59151 24.6599C10.5407 25.3868 11.8173 25.73 13.7595 25.73C14.2575 25.73 14.7976 25.7079 15.3888 25.6652C16.1369 25.6096 16.6991 24.956 16.6445 24.2074C16.5889 23.4584 15.9361 22.8977 15.1877 22.9518Z" fill="#3C64B1"/>
<path d="M8.16506 30.8521C7.88276 30.8521 7.23056 30.8521 5.84338 30.8521C2.25429 30.8521 2.61818 27.6063 2.61818 27.6063V20.774C2.61818 20.0512 2.03258 19.4658 1.30904 19.4658C0.585897 19.4658 0 20.0512 0 20.774V32.1606C0 32.5867 0.2076 32.9625 0.523735 33.2017V40.0878H2.09395V33.4707H6.80658V40.0878H8.3766V33.4486C8.99773 33.3465 9.47311 32.8111 9.47311 32.1614C9.47321 31.4366 8.8886 30.8521 8.16506 30.8521Z" fill="#3DACE3"/>
<path d="M40.876 16.8326C42.8109 16.8326 44.3794 15.264 44.3794 13.3291C44.3794 11.3942 42.8109 9.82568 40.876 9.82568C38.9411 9.82568 37.3726 11.3942 37.3726 13.3291C37.3726 15.264 38.9411 16.8326 40.876 16.8326Z" fill="#3DACE3"/>
<path d="M37.902 32.5398C37.6924 30.0854 39.9864 30.1594 39.9864 30.1594C39.9864 30.1594 42.1245 30.1619 42.1469 30.1619C43.6932 30.1598 44.8431 29.2639 44.8409 27.5844L44.8334 19.853C44.8301 18.4122 43.5756 17.4533 42.3962 17.1662L42.3859 17.1655C42.3859 17.1655 41.9674 17.078 41.5899 17.0693C41.1984 17.0617 40.83 17.1724 40.83 17.1724C39.8904 17.4044 38.9049 18.0784 38.5497 19.0754C37.5321 21.8013 36.9883 23.2611 32.8129 22.9518C32.0644 22.8977 31.4118 23.4584 31.3562 24.2074C31.3015 24.956 31.8638 25.6096 32.6119 25.6651C33.2031 25.7079 33.7432 25.7299 34.2412 25.7299C36.1835 25.7299 37.4601 25.3868 38.4092 24.6599L38.412 26.9286C35.6752 27.1195 35.1468 27.819 34.879 28.3238C34.6315 28.9033 34.2724 29.4656 35.0757 38.6605C35.1534 39.5464 35.8962 40.2128 36.7685 40.2128C36.8182 40.2128 36.8678 40.2111 36.9183 40.2065C37.8549 40.1248 38.5468 39.2992 38.4655 38.3639C38.2824 36.2592 38.0521 34.2967 37.902 32.5398Z" fill="#3C64B1"/>
<path d="M46.6915 19.4658C45.968 19.4658 45.3825 20.0512 45.3825 20.774V27.6063C45.3825 27.6063 45.7464 30.8521 42.1572 30.8521C40.7699 30.8521 40.1178 30.8521 39.8356 30.8521C39.112 30.8521 38.5272 31.4366 38.5273 32.1615C38.5273 32.8112 39.0028 33.3466 39.6239 33.4487V40.0879H41.194V33.4708H45.9065V40.0879H47.4767V33.2018C47.7928 32.9625 48.0005 32.5869 48.0005 32.1607V20.774C48.0005 20.0512 47.4147 19.4658 46.6915 19.4658Z" fill="#3DACE3"/>
<path fill-rule="evenodd" clip-rule="evenodd" d="M13 26H35V29H34V40H31V29H17V40H14V29H13V26Z" fill="#3DACE3"/>
</g>
<defs>
<clipPath id="clip0">
<rect width="48" height="48" fill="white"/>
</clipPath>
</defs>
</svg>
