<svg width="41" height="41" viewBox="0 0 41 41" fill="none" xmlns="http://www.w3.org/2000/svg">
<path d="M41 31.0703C41 26.3579 37.7161 22.4148 33.3125 21.3979C32.5914 21.2316 31.8419 21.1406 31.0703 21.1406C30.8547 21.1406 30.6417 21.1499 30.4297 21.1634C25.6176 21.4702 21.7389 25.2025 21.2053 29.9493C21.164 30.3173 21.1406 30.6911 21.1406 31.0703C21.1406 31.7846 21.2178 32.4807 21.361 33.1524C22.3181 37.6364 26.3005 41 31.0703 41C36.5544 41 41 36.5544 41 31.0703ZM31.0703 37.6368C27.4437 37.6368 24.5038 34.6969 24.5038 31.0703C24.5038 27.4438 27.4437 24.5039 31.0703 24.5039C34.6968 24.5039 37.6367 27.4438 37.6367 31.0703C37.6367 34.6969 34.6968 37.6368 31.0703 37.6368Z" fill="#3DACE3"/>
<path d="M32.3515 26.5859H30.1094V30.1094H26.5859V32.3515H32.3515V30.1094V26.5859Z" fill="#3DACE3"/>
<path d="M7.36716 0C6.74895 0 6.24609 0.50292 6.24609 1.12107V3.68357V6.40625C6.24609 7.02447 6.74895 7.52732 7.36716 7.52732H8.32812C8.94633 7.52732 9.44918 7.0244 9.44918 6.40625V3.68357V1.12107C9.44918 0.50292 8.94633 0 8.32805 0H7.36716Z" fill="#3C64B1"/>
<path d="M24.9843 0C24.3661 0 23.8633 0.50292 23.8633 1.12107V3.68357V6.40625C23.8633 7.02447 24.3662 7.52732 24.9843 7.52732H25.9453C26.5635 7.52732 27.0663 7.0244 27.0663 6.40625V3.68357V1.12107C27.0663 0.50292 26.5634 0 25.9452 0H24.9843Z" fill="#3C64B1"/>
<path d="M2.5625 33.1523H18.418C18.2617 32.3752 18.1787 31.5722 18.1787 30.75C18.1787 30.4806 18.1905 30.2141 18.2078 29.9493H4.8047C3.74319 29.9493 2.8828 29.0889 2.8828 28.0273V12.6523H30.4297V18.5951C30.6417 18.5842 30.8554 18.5782 31.0703 18.5782C31.8365 18.5782 32.585 18.6525 33.3125 18.7886V6.24609C33.3125 4.83092 32.1652 3.68359 30.75 3.68359H28.668V6.40628C28.668 7.9076 27.4467 9.12896 25.9453 9.12896H24.9843C23.483 9.12896 22.2617 7.9076 22.2617 6.40628V3.68359H11.0508V6.40628C11.0508 7.9076 9.82942 9.12896 8.32809 9.12896H7.36714C5.86581 9.12896 4.64446 7.9076 4.64446 6.40628V3.68359H2.5625C1.14733 3.68359 0 4.83099 0 6.24609V30.5898C0 32.005 1.14733 33.1523 2.5625 33.1523Z" fill="#3C64B1"/>
<path d="M9.029 19.9994C10.4333 19.9994 11.5717 18.861 11.5717 17.4567C11.5717 16.0525 10.4333 14.9141 9.029 14.9141C7.62472 14.9141 6.48633 16.0525 6.48633 17.4567C6.48633 18.861 7.62472 19.9994 9.029 19.9994Z" fill="#3C64B1"/>
<path d="M16.6564 19.9994C18.0607 19.9994 19.1991 18.861 19.1991 17.4567C19.1991 16.0525 18.0607 14.9141 16.6564 14.9141C15.2522 14.9141 14.1138 16.0525 14.1138 17.4567C14.1138 18.861 15.2522 19.9994 16.6564 19.9994Z" fill="#3C64B1"/>
<path d="M24.2836 19.9994C25.6879 19.9994 26.8263 18.861 26.8263 17.4567C26.8263 16.0525 25.6879 14.9141 24.2836 14.9141C22.8794 14.9141 21.741 16.0525 21.741 17.4567C21.741 18.861 22.8794 19.9994 24.2836 19.9994Z" fill="#3C64B1"/>
<path d="M16.6564 27.6867C18.0606 27.6867 19.199 26.5484 19.199 25.1442C19.199 23.7399 18.0606 22.6016 16.6564 22.6016C15.2521 22.6016 14.1138 23.7399 14.1138 25.1442C14.1138 26.5484 15.2521 27.6867 16.6564 27.6867Z" fill="#3C64B1"/>
<path d="M9.02893 27.6867C10.4332 27.6867 11.5715 26.5484 11.5715 25.1442C11.5715 23.7399 10.4332 22.6016 9.02893 22.6016C7.62469 22.6016 6.48633 23.7399 6.48633 25.1442C6.48633 26.5484 7.62469 27.6867 9.02893 27.6867Z" fill="#3C64B1"/>
</svg>
