<svg width="34" height="34" viewBox="0 0 34 34" fill="none" xmlns="http://www.w3.org/2000/svg">
<g clip-path="url(#clip0)">
<path d="M32.5186 10.8319L28.1271 12.9112C29.8853 16.7104 29.3449 21.3091 26.491 24.6116L24.0986 22.2192V30.5435H32.4229L29.9452 28.0658C34.2852 23.2717 35.1384 16.4364 32.5186 10.8319Z" fill="#3C64B1"/>
<path d="M23.1684 32.5172L21.0871 28.1276C17.2896 29.8875 12.689 29.3454 9.38679 26.4915L11.7792 24.0991H3.4548V32.4234L5.93252 29.9457C10.727 34.2854 17.5624 35.1385 23.1684 32.5172Z" fill="#3DACE3"/>
<path d="M7.50752 9.38705L9.89989 11.7794V3.45508H1.5752L4.05258 5.93245C-0.285147 10.7288 -1.13836 17.5642 1.48143 23.1687L5.87129 21.0875C4.11152 17.2898 4.65358 12.6893 7.50752 9.38705Z" fill="#3C64B1"/>
<path d="M30.5435 9.8998V1.57546L28.0662 4.05284C23.2698 -0.284807 16.4344 -1.13802 10.8299 1.48176L12.9109 5.87135C16.7101 4.11313 21.309 4.65357 24.6112 7.5075L22.2189 9.89987H30.5435V9.8998Z" fill="#3DACE3"/>
<path d="M16.9992 23.6498C20.6722 23.6498 23.6497 20.6723 23.6497 16.9993C23.6497 13.3263 20.6722 10.3488 16.9992 10.3488C13.3262 10.3488 10.3486 13.3263 10.3486 16.9993C10.3486 20.6723 13.3262 23.6498 16.9992 23.6498Z" fill="#4759A4"/>
</g>
<defs>
<clipPath id="clip0">
<rect width="34" height="34" fill="white"/>
</clipPath>
</defs>
</svg>
