<svg width="38" height="38" viewBox="0 0 38 38" fill="none" xmlns="http://www.w3.org/2000/svg">
<g clip-path="url(#clip0)">
<path d="M6.33325 10.6875C6.33325 6.54075 9.70733 3.16667 13.8541 3.16667H28.3147C27.7937 1.34425 26.1328 0 24.1458 0H5.93742C3.5355 0 1.58325 1.95225 1.58325 4.35417V28.8958C1.58325 31.2978 3.5355 33.25 5.93742 33.25H6.33325V10.6875Z" fill="#3C64B1"/>
<path d="M32.0625 6.33301H13.8542C11.4523 6.33301 9.5 8.28526 9.5 10.6872V33.6455C9.5 36.0474 11.4523 37.9997 13.8542 37.9997H32.0625C34.4644 37.9997 36.4167 36.0474 36.4167 33.6455V10.6872C36.4167 8.28526 34.4644 6.33301 32.0625 6.33301ZM28.8958 33.2497H17.0208C16.3653 33.2497 15.8333 32.7177 15.8333 32.0622C15.8333 31.4067 16.3653 30.8747 17.0208 30.8747H28.8958C29.5513 30.8747 30.0833 31.4067 30.0833 32.0622C30.0833 32.7177 29.5513 33.2497 28.8958 33.2497ZM28.8958 26.9163H17.0208C16.3653 26.9163 15.8333 26.3843 15.8333 25.7288C15.8333 25.0733 16.3653 24.5413 17.0208 24.5413H28.8958C29.5513 24.5413 30.0833 25.0733 30.0833 25.7288C30.0833 26.3843 29.5513 26.9163 28.8958 26.9163ZM28.8958 21.3747H17.0208C16.3653 21.3747 15.8333 20.8427 15.8333 20.1872C15.8333 19.5317 16.3653 18.9997 17.0208 18.9997H28.8958C29.5513 18.9997 30.0833 19.5317 30.0833 20.1872C30.0833 20.8427 29.5513 21.3747 28.8958 21.3747ZM28.8958 15.0413H17.0208C16.3653 15.0413 15.8333 14.5093 15.8333 13.8538C15.8333 13.1983 16.3653 12.6663 17.0208 12.6663H28.8958C29.5513 12.6663 30.0833 13.1983 30.0833 13.8538C30.0833 14.5093 29.5513 15.0413 28.8958 15.0413Z" fill="#3DACE3"/>
</g>
<defs>
<clipPath id="clip0">
<rect width="38" height="38" fill="white"/>
</clipPath>
</defs>
</svg>
