<svg width="41" height="41" viewBox="0 0 41 41" fill="none" xmlns="http://www.w3.org/2000/svg">
<g clip-path="url(#clip0)">
<path d="M13.5249 24.1731L18.0128 41L3.1748 24.1731H13.5249Z" fill="#3C64B1"/>
<path d="M13.6107 21.7693H3.1748L10.0346 14.9095C10.2605 14.6843 10.5658 14.5577 10.8847 14.5577H17.7317L13.6107 21.7693Z" fill="#3C64B1"/>
<path d="M24.6214 21.7693H16.3794L20.5004 14.5577L24.6214 21.7693Z" fill="#3C64B1"/>
<path d="M24.9875 24.1731L20.5004 41L16.0132 24.1731H24.9875Z" fill="#3C64B1"/>
<path d="M27.3895 21.7693L23.2686 14.5577H30.1155C30.4344 14.5577 30.7397 14.6843 30.9657 14.9095L37.8254 21.7693H27.3895Z" fill="#3C64B1"/>
<path d="M27.4751 24.1731H37.8253L22.9873 41L27.4751 24.1731Z" fill="#3C64B1"/>
<path d="M20.4998 6.85351C19.836 6.85351 19.2979 6.31537 19.2979 5.65159V1.20192C19.2979 0.53814 19.836 0 20.4998 0C21.1635 0 21.7017 0.53814 21.7017 1.20192V5.65159C21.7017 6.31537 21.1636 6.85351 20.4998 6.85351Z" fill="#6BBFE9"/>
<path d="M8.55262 9.33517L6.32778 5.48165C5.99581 4.90682 6.19276 4.17172 6.76768 3.83983C7.34252 3.50794 8.0777 3.70481 8.40951 4.27973L10.6343 8.13325C10.9663 8.70809 10.7694 9.44318 10.1944 9.77507C9.622 10.1056 8.88595 9.91265 8.55262 9.33517Z" fill="#6BBFE9"/>
<path d="M30.8063 9.77523C30.2313 9.44334 30.0344 8.70825 30.3664 8.13341L32.5912 4.27989C32.9232 3.70497 33.6581 3.50802 34.233 3.83999C34.8079 4.17188 35.0049 4.90697 34.6729 5.48181L32.4481 9.33533C32.1151 9.91193 31.3793 10.1062 30.8063 9.77523Z" fill="#6BBFE9"/>
</g>
<defs>
<clipPath id="clip0">
<rect width="41" height="41" fill="white"/>
</clipPath>
</defs>
</svg>
