<svg width="44" height="44" viewBox="0 0 44 44" fill="none" xmlns="http://www.w3.org/2000/svg">
<g clip-path="url(#clip0)">
<path d="M22.3148 15.0734C23.2394 14.1446 24.3974 13.4823 25.6668 13.1562V3.66667C25.6668 2.69421 25.2805 1.76158 24.5929 1.07394C23.9053 0.386308 22.9726 0 22.0002 0L5.50016 0C4.5277 0 3.59507 0.386308 2.90744 1.07394C2.2198 1.76158 1.8335 2.69421 1.8335 3.66667V20.1667C1.8335 21.1391 2.2198 22.0718 2.90744 22.7594C3.59507 23.447 4.5277 23.8333 5.50016 23.8333H13.5549L22.3148 15.0734ZM18.3335 5.5C18.6961 5.5 19.0506 5.60752 19.352 5.80897C19.6535 6.01042 19.8885 6.29675 20.0273 6.63175C20.166 6.96674 20.2023 7.33537 20.1316 7.691C20.0609 8.04663 19.8863 8.3733 19.6299 8.6297C19.3735 8.88609 19.0468 9.0607 18.6912 9.13144C18.3355 9.20218 17.9669 9.16587 17.6319 9.02711C17.2969 8.88835 17.0106 8.65337 16.8091 8.35188C16.6077 8.05039 16.5002 7.69593 16.5002 7.33333C16.5002 6.8471 16.6933 6.38079 17.0371 6.03697C17.381 5.69315 17.8473 5.5 18.3335 5.5ZM18.3335 12.8333C18.6961 12.8333 19.0506 12.9409 19.352 13.1423C19.6535 13.3438 19.8885 13.6301 20.0273 13.9651C20.166 14.3001 20.2023 14.6687 20.1316 15.0243C20.0609 15.38 19.8863 15.7066 19.6299 15.963C19.3735 16.2194 19.0468 16.394 18.6912 16.4648C18.3355 16.5355 17.9669 16.4992 17.6319 16.3604C17.2969 16.2217 17.0106 15.9867 16.8091 15.6852C16.6077 15.3837 16.5002 15.0293 16.5002 14.6667C16.5002 14.1804 16.6933 13.7141 17.0371 13.3703C17.381 13.0265 17.8473 12.8333 18.3335 12.8333ZM9.16683 5.5C9.52943 5.5 9.88388 5.60752 10.1854 5.80897C10.4869 6.01042 10.7218 6.29675 10.8606 6.63175C10.9994 6.96674 11.0357 7.33537 10.9649 7.691C10.8942 8.04663 10.7196 8.3733 10.4632 8.6297C10.2068 8.88609 9.88013 9.0607 9.5245 9.13144C9.16886 9.20218 8.80024 9.16587 8.46524 9.02711C8.13025 8.88835 7.84392 8.65337 7.64247 8.35188C7.44102 8.05039 7.3335 7.69593 7.3335 7.33333C7.3335 6.8471 7.52665 6.38079 7.87047 6.03697C8.21428 5.69315 8.6806 5.5 9.16683 5.5ZM9.16683 18.3333C8.80423 18.3333 8.44977 18.2258 8.14828 18.0244C7.84679 17.8229 7.61181 17.5366 7.47305 17.2016C7.33429 16.8666 7.29798 16.498 7.36872 16.1423C7.43946 15.7867 7.61407 15.46 7.87047 15.2036C8.12686 14.9472 8.45353 14.7726 8.80916 14.7019C9.1648 14.6312 9.53342 14.6675 9.86842 14.8062C10.2034 14.945 10.4897 15.18 10.6912 15.4815C10.8926 15.7829 11.0002 16.1374 11.0002 16.5C11.0002 16.9862 10.807 17.4525 10.4632 17.7964C10.1194 18.1402 9.65306 18.3333 9.16683 18.3333Z" fill="#3C64B1"/>
<path d="M40.4638 25.4444L31.0827 16.063C30.7725 15.7518 30.4088 15.4989 30.009 15.3166C27.6873 14.264 25.2323 14.7485 23.6114 16.3708L14.23 25.751C13.9188 26.0612 13.6659 26.4249 13.4836 26.8247C12.431 29.1463 12.9155 31.6014 14.5378 33.2223L23.9189 42.6037C24.2291 42.9149 24.5928 43.1677 24.9926 43.3501C27.3143 44.4027 29.7693 43.9182 31.3902 42.2959L40.7716 32.9148C41.0828 32.6046 41.3357 32.2409 41.518 31.8411C42.5696 29.5203 42.0852 27.0646 40.4638 25.4444ZM27.5003 31.1667C27.1377 31.1667 26.7833 31.0592 26.4818 30.8577C26.1803 30.6563 25.9453 30.3699 25.8066 30.0349C25.6678 29.6999 25.6315 29.3313 25.7022 28.9757C25.773 28.62 25.9476 28.2934 26.204 28.037C26.4604 27.7806 26.787 27.606 27.1427 27.5352C27.4983 27.4645 27.8669 27.5008 28.2019 27.6396C28.5369 27.7783 28.8232 28.0133 29.0247 28.3148C29.2261 28.6163 29.3337 28.9707 29.3337 29.3333C29.3337 29.8196 29.1405 30.2859 28.7967 30.6297C28.4529 30.9735 27.9866 31.1667 27.5003 31.1667Z" fill="#3DACE3"/>
</g>
<defs>
<clipPath id="clip0">
<rect width="44" height="44" fill="white"/>
</clipPath>
</defs>
</svg>
