<svg width="40" height="40" viewBox="0 0 40 40" fill="none" xmlns="http://www.w3.org/2000/svg">
<g clip-path="url(#clip0)">
<path d="M5.34395 19.7493C5.01059 19.7493 4.74036 20.0195 4.74036 20.3529V24.5595C4.74036 24.8929 5.01059 25.1631 5.34395 25.1631C5.67731 25.1631 5.94755 24.8929 5.94755 24.5595V20.3529C5.94763 20.0196 5.67739 19.7493 5.34395 19.7493Z" fill="#3DACE3"/>
<path d="M20 19.7493C19.6666 19.7493 19.3964 20.0195 19.3964 20.3529V24.5595C19.3964 24.8929 19.6666 25.1631 20 25.1631C20.3333 25.1631 20.6035 24.8929 20.6035 24.5595V20.3529C20.6035 20.0196 20.3333 19.7493 20 19.7493Z" fill="#3DACE3"/>
<path d="M34.6536 19.7493C34.3203 19.7493 34.05 20.0195 34.05 20.3529V24.5595C34.05 24.8929 34.3203 25.1631 34.6536 25.1631C34.987 25.1631 35.2572 24.8929 35.2572 24.5595V20.3529C35.2572 20.0196 34.987 19.7493 34.6536 19.7493Z" fill="#3DACE3"/>
<path d="M20 29.5741C19.6666 29.5741 19.3964 29.8443 19.3964 30.1777V34.3843C19.3964 34.7177 19.6666 34.9879 20 34.9879C20.3333 34.9879 20.6035 34.7177 20.6035 34.3843V30.1777C20.6035 29.8443 20.3333 29.5741 20 29.5741Z" fill="#3DACE3"/>
<path d="M14.8732 26.7649H10.4707C10.1373 26.7649 9.86707 27.0351 9.86707 27.3685C9.86707 27.7018 10.1373 27.9721 10.4707 27.9721H14.8732C15.2066 27.9721 15.4768 27.7018 15.4768 27.3685C15.4769 27.0351 15.2066 26.7649 14.8732 26.7649Z" fill="#3DACE3"/>
<path d="M29.5291 26.7649H25.1265C24.7932 26.7649 24.5229 27.0351 24.5229 27.3685C24.5229 27.7018 24.7932 27.9721 25.1265 27.9721H29.5291C29.8625 27.9721 30.1327 27.7018 30.1327 27.3685C30.1328 27.0351 29.8625 26.7649 29.5291 26.7649Z" fill="#3DACE3"/>
<path d="M34.6536 9.92684H20.6036V6.92122C20.6036 6.58786 20.3333 6.31763 20 6.31763C19.6666 6.31763 19.3964 6.58786 19.3964 6.92122V9.92692H5.34395C5.01059 9.92692 4.74036 10.1972 4.74036 10.5305V14.7372C4.74036 15.0705 5.01059 15.3407 5.34395 15.3407C5.67731 15.3407 5.94754 15.0705 5.94754 14.7372V11.1341H19.3963V14.7372C19.3963 15.0705 19.6665 15.3407 19.9999 15.3407C20.3332 15.3407 20.6035 15.0705 20.6035 14.7372V11.1341H34.0499V14.7372C34.0499 15.0705 34.3201 15.3407 34.6535 15.3407C34.9868 15.3407 35.2571 15.0705 35.2571 14.7372V10.5305C35.2572 10.1972 34.987 9.92684 34.6536 9.92684Z" fill="#3DACE3"/>
<path fill-rule="evenodd" clip-rule="evenodd" d="M14.8733 16.1785V18.9137C14.8733 19.7047 15.5213 20.3528 16.3147 20.3528H20H23.6853C24.4787 20.3528 25.1267 19.7048 25.1267 18.9137V16.1785C25.1267 15.3851 24.4787 14.7371 23.6853 14.7371H20H16.3147C15.5213 14.7371 14.8733 15.3851 14.8733 16.1785Z" fill="#3C64B1"/>
<path fill-rule="evenodd" clip-rule="evenodd" d="M29.5293 16.1785V18.9137C29.5293 19.7047 30.1773 20.3528 30.9684 20.3528H34.6537H38.339C39.1323 20.3528 39.7804 19.7048 39.7804 18.9137V16.1785C39.7804 15.3851 39.1323 14.7371 38.339 14.7371H34.6537H30.9684C30.1773 14.7371 29.5293 15.3851 29.5293 16.1785Z" fill="#3C64B1"/>
<path fill-rule="evenodd" clip-rule="evenodd" d="M10.4707 28.7362V27.3685V26.0009C10.4707 25.2075 9.82265 24.5594 9.03164 24.5594H5.34406H1.65867C0.867651 24.5594 0.219604 25.2075 0.219604 26.0009V28.7361C0.219604 29.5271 0.867651 30.1775 1.65867 30.1775H9.03164C9.82265 30.1776 10.4707 29.5272 10.4707 28.7362Z" fill="#3C64B1"/>
<path fill-rule="evenodd" clip-rule="evenodd" d="M14.8733 27.3685V28.7362C14.8733 29.5272 15.5213 30.1776 16.3147 30.1776H20H23.6853C24.4787 30.1776 25.1267 29.5272 25.1267 28.7362V27.3685V26.0009C25.1267 25.2075 24.4787 24.5594 23.6853 24.5594H20H16.3147C15.5213 24.5594 14.8733 25.2075 14.8733 26.0009V27.3685Z" fill="#3C64B1"/>
<path fill-rule="evenodd" clip-rule="evenodd" d="M29.5293 27.3684V28.7361C29.5293 29.5271 30.1773 30.1775 30.9684 30.1775H38.339C39.1323 30.1775 39.7804 29.5271 39.7804 28.7361V26.0009C39.7804 25.2075 39.1323 24.5594 38.339 24.5594H34.6537H30.9684C30.1773 24.5594 29.5293 25.2075 29.5293 26.0009V27.3684Z" fill="#3C64B1"/>
<path fill-rule="evenodd" clip-rule="evenodd" d="M25.1267 35.8234C25.1267 35.0324 24.4787 34.3843 23.6853 34.3843H20H16.3147C15.5213 34.3843 14.8733 35.0323 14.8733 35.8234V38.5586C14.8733 39.352 15.5213 40.0001 16.3147 40.0001H23.6853C24.4787 40.0001 25.1267 39.352 25.1267 38.5586V35.8234Z" fill="#3C64B1"/>
<path fill-rule="evenodd" clip-rule="evenodd" d="M14.818 6.92109H20H25.1821C26.1599 6.92109 26.9579 6.12313 26.9579 5.14523V1.77586C26.9579 0.797969 26.16 0 25.1821 0H14.818C13.8402 0 13.0422 0.797969 13.0422 1.77586V5.14531C13.0422 6.12313 13.8401 6.92109 14.818 6.92109Z" fill="#3C64B1"/>
<path fill-rule="evenodd" clip-rule="evenodd" d="M9.03164 14.7371C9.82265 14.7371 10.4707 15.3851 10.4707 16.1785V18.9137C10.4707 19.0467 10.4524 19.1757 10.4181 19.2982C10.2742 19.8133 9.84885 20.2145 9.32058 20.3234C9.22715 20.3427 9.13051 20.3528 9.03164 20.3528H6.37492H5.34398H1.65867C0.867651 20.3528 0.219604 19.7047 0.219604 18.9137V16.1785C0.219604 15.3851 0.867651 14.7371 1.65867 14.7371H5.34406H6.37492H9.03164Z" fill="#3C64B1"/>
</g>
<defs>
<clipPath id="clip0">
<rect width="40" height="40" fill="white"/>
</clipPath>
</defs>
</svg>
