<svg width="39" height="39" viewBox="0 0 39 39" fill="none" xmlns="http://www.w3.org/2000/svg">
<g clip-path="url(#clip0)">
<path d="M20.6427 2.46134V1.14258C20.6427 0.511037 20.1317 0 19.5001 0C18.8686 0 18.3575 0.511037 18.3575 1.14258V2.41404C10.7576 2.93696 6.45127 8.59127 5.11133 13.7871H33.9384C32.4711 7.60987 27.1336 2.96385 20.6427 2.46134Z" fill="#4759A4"/>
<path d="M37.8574 16.0723H1.14258C0.509213 16.0723 -0.00167167 16.5969 4.11084e-06 17.2303C0.000689658 17.4872 0.0191232 17.7398 0.05401 17.9869C0.274223 19.5529 1.74358 20.6426 3.32468 20.6426H35.6691C37.2502 20.6426 38.7216 19.5558 38.9451 17.9906C38.9804 17.7429 38.9992 17.4896 39 17.2317C39.0018 16.5978 38.4913 16.0723 37.8574 16.0723Z" fill="#4759A4"/>
<path d="M32.9474 22.9278H29.3911C28.1789 22.9278 27.0165 23.4092 26.1593 24.2664L22.4545 27.9712C22.0258 28.3999 21.4446 28.6406 20.8385 28.6406H14.6333C14.4501 28.6406 14.2894 28.5182 14.2412 28.3414C14.1928 28.1647 14.2685 27.9776 14.4261 27.8843C14.4261 27.8843 18.5789 25.4239 20.5251 24.2681C20.5743 24.1009 20.661 23.942 20.6749 23.7668C20.6939 23.528 20.6563 23.2365 20.5708 22.9277H12.6801C11.9399 22.9277 11.2096 23.101 10.5568 23.4503C9.81835 23.8453 9.03249 24.2828 8.17464 24.7832C6.29228 25.8823 5.64398 27.4344 4.89422 29.2319C4.38539 30.4537 3.8074 31.8384 2.71174 33.482C2.02216 34.5119 3.05429 35.3598 4.36201 36.4344C6.61692 38.2878 7.54416 39 8.15118 39C8.44215 39 8.65902 38.8936 8.91312 38.6338C10.196 37.3221 12.0389 36.6387 13.8735 36.6387H18.3395C20.6023 36.6387 22.7703 35.6735 24.2822 33.9942L33.4028 23.9565C33.5667 23.7759 33.6086 23.5162 33.5099 23.2936C33.4113 23.071 33.1908 22.9278 32.9474 22.9278Z" fill="#3DACE3"/>
</g>
<defs>
<clipPath id="clip0">
<rect width="39" height="39" fill="white"/>
</clipPath>
</defs>
</svg>
