<svg width="49" height="49" viewBox="0 0 49 49" fill="none" xmlns="http://www.w3.org/2000/svg">
<g clip-path="url(#clip0)">
<path d="M25.081 14.1709C26.4397 12.8474 26.465 10.673 25.1433 9.3195C23.8198 7.96232 21.6503 7.93215 20.2951 9.25567C18.938 10.5788 18.9077 12.7486 20.2327 14.1038C21.5514 15.4622 23.7257 15.4893 25.081 14.1709Z" fill="#3DACE3"/>
<path d="M20.9768 37.1368C19.6215 38.4571 19.5926 40.6282 20.9145 41.9837C22.233 43.3421 24.4075 43.3709 25.7659 42.0504C27.1214 40.7271 27.1485 38.5527 25.825 37.1991C24.5016 35.8406 22.3338 35.8135 20.9768 37.1368Z" fill="#4759A4"/>
<path d="M26.6278 24.6753L21.6678 23.2544L20.919 20.8278C21.9153 19.68 21.8977 17.9478 20.8168 16.8384L19.937 15.9365C19.5427 15.5295 18.8692 15.1878 18.5468 15.1063L11.2783 13.2417C10.6157 13.0693 9.9102 13.28 9.44712 13.7859L5.073 18.5531C4.38007 19.3097 4.42952 20.4863 5.18467 21.179C5.54068 21.5063 5.99087 21.6691 6.44097 21.6691C6.94381 21.6691 7.44355 21.4648 7.81084 21.0673L11.4314 17.1178L13.8547 17.739L8.67927 22.7819C7.88446 23.4621 7.16606 24.5411 7.62245 25.6268L9.66757 30.4927L1.20512 34.881C0.111438 35.4478 -0.316284 36.7951 0.250383 37.8872C0.815452 38.9728 2.15476 39.407 3.25633 38.8402L13.5469 33.505C13.8421 33.3518 14.0723 33.1329 14.2652 32.8856L15.3892 34.1293L13.7448 40.2116C13.424 41.3979 14.1278 42.6238 15.3158 42.9446C16.5164 43.2656 17.7311 42.5519 18.0488 41.3737L20.0107 34.1179C20.2072 33.3869 20.022 32.6061 19.5127 32.0442L14.8001 26.8238L17.937 23.7667L18.4144 25.3102C18.5996 25.9107 19.0737 26.3769 19.6772 26.5492L25.6046 28.2461C26.5944 28.5304 27.6208 27.9541 27.9019 26.9724C28.1844 25.9858 27.6144 24.9578 26.6278 24.6753Z" fill="#3DACE3"/>
<path d="M48.8914 22.8248L46.7187 16.7298C46.4886 16.0848 45.922 15.6185 45.2451 15.5165L37.8233 14.4006C37.4848 14.3511 36.7409 14.4055 36.2206 14.6242L35.0569 15.1127C33.6313 15.7143 32.9352 17.303 33.4095 18.7492L31.7761 20.6906L26.6532 20.0696C25.6107 19.9467 24.7072 20.6715 24.5844 21.6899C24.4615 22.7099 25.1862 23.6345 26.2048 23.7574L32.3269 24.4997C32.9367 24.5762 33.5595 24.3399 33.9745 23.8515L35.0104 22.6173L36.8767 27.0506L33.7958 29.2521C33.4986 29.4661 33.2577 29.7486 33.0949 30.0744L28.2641 39.8012C27.7165 40.9027 28.1666 42.2422 29.2697 42.7897C30.3681 43.3326 31.7075 42.8935 32.26 41.7841L36.021 34.2073L42.6654 42.2166C43.4477 43.1569 44.8509 43.2958 45.8055 42.509C46.7537 41.7218 46.8847 40.3169 46.0977 39.3687L40.0105 32.0315L43.7894 28.3439C44.613 27.5408 44.4024 26.377 43.9552 25.3855L41.1217 18.6554L43.5929 19.0255L45.3921 24.0718C45.7385 25.0457 46.8096 25.5437 47.7661 25.1973C48.7317 24.854 49.2361 23.7908 48.8914 22.8248Z" fill="#4759A4"/>
<path d="M36.6615 12.568C38.4082 11.8354 39.2255 9.82544 38.4911 8.07749C37.7567 6.33413 35.7467 5.51175 34.0021 6.24793C32.2555 6.98211 31.4334 8.99367 32.1677 10.7417C32.9053 12.4849 34.9166 13.3072 36.6615 12.568Z" fill="#4759A4"/>
</g>
<defs>
<clipPath id="clip0">
<rect width="49" height="49" fill="white"/>
</clipPath>
</defs>
</svg>
