<svg width="42" height="42" viewBox="0 0 42 42" fill="none" xmlns="http://www.w3.org/2000/svg">
<g clip-path="url(#clip0)">
<path d="M40.6462 6.82201L41.6397 5.82844C42.1203 5.3479 42.1203 4.56885 41.6397 4.08831L37.9119 0.360404C37.4314 -0.120135 36.6523 -0.120135 36.1718 0.360404L35.178 1.35421L34.1838 0.360486C33.7033 -0.119889 32.9242 -0.119725 32.4437 0.360814C31.9632 0.841353 31.9634 1.62049 32.444 2.10094L33.4378 3.09442L31.4503 5.08204L30.4568 4.08848C29.9764 3.60802 29.1972 3.60802 28.7167 4.08848C28.2362 4.56894 28.2362 5.34807 28.7167 5.82861L29.7103 6.82217L28.7164 7.81598C28.2358 8.29652 28.2358 9.07557 28.7164 9.55611L32.4442 13.2839C32.9247 13.7645 33.7038 13.7645 34.1843 13.2839L35.1781 12.29L36.1716 13.2836C36.6522 13.7641 37.4312 13.7641 37.9118 13.2836C38.3923 12.8032 38.3923 12.024 37.9118 11.5435L36.9182 10.5499L38.9059 8.56222L39.8995 9.55578C40.3801 10.0363 41.159 10.0363 41.6396 9.55578C42.1201 9.07532 42.1201 8.29619 41.6396 7.81565L40.6462 6.82201Z" fill="#4759A4"/>
<path d="M20.176 28.2238C18.4087 29.9911 15.5434 29.9911 13.7761 28.2238C12.0089 26.4565 12.0089 23.5912 13.7761 21.824L23.8381 11.762C21.6625 10.3076 18.1401 9.07311 15.1881 12.025C13.0954 14.117 13.965 15.1122 12.3919 16.685C10.1419 18.9347 7.08017 16.4052 3.07253 20.4128C-2.75226 26.2377 0.755806 32.8834 4.93612 37.0638C9.11651 41.2441 15.7624 44.7522 21.5871 38.9274C25.5947 34.9198 23.0651 31.858 25.3149 29.608C26.8875 28.0349 27.8828 28.9045 29.9748 26.8119C32.9267 23.8598 31.6923 20.3376 30.2379 18.1618L20.176 28.2238ZM13.1872 34.2807C12.7065 34.7614 11.9276 34.7612 11.4471 34.2807L7.71919 30.5529C7.23865 30.0725 7.23865 29.2933 7.71919 28.8128C8.19965 28.3323 8.97878 28.3323 9.45932 28.8128L13.1872 32.5406C13.6678 33.0211 13.6678 33.8003 13.1872 34.2807Z" fill="#3DACE3"/>
<path d="M16.9755 27.0884C18.1157 27.0884 19.0399 26.1641 19.0399 25.024C19.0399 23.8839 18.1157 22.9596 16.9755 22.9596C15.8354 22.9596 14.9111 23.8839 14.9111 25.024C14.9111 26.1641 15.8354 27.0884 16.9755 27.0884Z" fill="#4759A4"/>
<path d="M21.2828 23.6365L30.2994 14.62L27.3799 11.7004L18.3633 20.717C19.026 20.9299 19.6496 21.298 20.1757 21.8241C20.7017 22.3501 21.0699 22.9738 21.2828 23.6365Z" fill="#4759A4"/>
</g>
<defs>
<clipPath id="clip0">
<rect width="42" height="42" fill="white"/>
</clipPath>
</defs>
</svg>
