<svg width="37" height="37" viewBox="0 0 37 37" fill="none" xmlns="http://www.w3.org/2000/svg">
<circle cx="18.5" cy="18.5" r="3.03516" fill="#F5F7FB"/>
<path d="M6.50391 13.1523C4.11256 13.1523 2.16797 11.2077 2.16797 8.81641C2.16797 6.42506 4.11256 4.48047 6.50391 4.48047C8.89525 4.48047 10.8398 6.42506 10.8398 8.81641C10.8398 11.2077 8.89525 13.1523 6.50391 13.1523Z" fill="#3C64B1"/>
<path d="M30.4961 13.1523C28.1048 13.1523 26.1602 11.2077 26.1602 8.81641C26.1602 6.42506 28.1048 4.48047 30.4961 4.48047C32.8874 4.48047 34.832 6.42506 34.832 8.81641C34.832 11.2077 32.8874 13.1523 30.4961 13.1523Z" fill="#3C64B1"/>
<path d="M18.5 10.8398C15.5116 10.8398 13.0801 8.40832 13.0801 5.41992C13.0801 2.43152 15.5116 0 18.5 0C21.4884 0 23.9199 2.43152 23.9199 5.41992C23.9199 8.40832 21.4884 10.8398 18.5 10.8398Z" fill="#3DACE3"/>
<path d="M19.584 10.9494V18.4277C19.584 19.0269 19.0992 19.5117 18.5 19.5117C17.9008 19.5117 17.416 19.0269 17.416 18.4277V10.9494C13.7485 11.4811 10.9121 14.6154 10.9121 18.4277V24.9316C10.9121 25.5308 11.3969 26.0156 11.9961 26.0156H14.4245L15.2523 36.0071C15.2989 36.5681 15.7689 37 16.332 37H20.668C21.2311 37 21.7012 36.5681 21.7477 36.0071L22.5755 26.0156H25.0039C25.6031 26.0156 26.0879 25.5308 26.0879 24.9316V18.4277C26.0879 14.6154 23.2515 11.4811 19.584 10.9494Z" fill="#3DACE3"/>
<path d="M8.67188 25.0762V18.5723C8.67188 16.9474 9.10908 15.4375 9.81447 14.0888C8.84112 13.5077 7.71754 13.1523 6.50391 13.1523C2.91744 13.1523 0 16.0698 0 19.6562V25.0762C0 25.6753 0.48483 26.1602 1.08398 26.1602H2.27066L3.25723 36.024C3.31229 36.5776 3.77913 37 4.33594 37H8.67188C9.22868 37 9.69552 36.5776 9.75058 36.024L10.5518 28.0138C9.44505 27.4945 8.67188 26.3775 8.67188 25.0762Z" fill="#3C64B1"/>
<path d="M37 19.6562C37 16.0698 34.0826 13.1523 30.4961 13.1523C29.2825 13.1523 28.1589 13.5077 27.1856 14.0888C27.891 15.4375 28.3282 16.9474 28.3282 18.5723V25.0762C28.3282 26.3775 27.555 27.4945 26.4482 28.0138L27.2495 36.024C27.3045 36.5776 27.7714 37 28.3282 37H32.6641C33.2209 37 33.6877 36.5776 33.7428 36.024L34.7294 26.1602H35.916C36.5152 26.1602 37 25.6753 37 25.0762V19.6562Z" fill="#3C64B1"/>
</svg>
