<svg width="44" height="44" viewBox="0 0 44 44" fill="none" xmlns="http://www.w3.org/2000/svg">
<path d="M34.84 25.6786C26.9494 17.7879 30.6608 21.5009 26.4145 17.2454C26.4145 17.2454 25.1383 15.9749 23.4563 16.7129C22.2756 17.2303 20.7554 17.9355 19.6116 18.4738C18.3547 19.1329 17.4502 19.3369 17.0254 19.3341C14.5956 19.3182 12.6242 17.3652 12.6242 14.9377C12.6242 13.363 13.4602 11.992 14.7071 11.2138C16.4605 10.0005 20.4963 7.85385 20.4963 7.85385C20.4963 7.85385 19.2668 6.2959 16.5735 6.2959C13.881 6.2959 8.25549 9.98122 8.25549 9.98122C8.25549 9.98122 6.65963 11.0034 4.38471 10.0827L0 8.55581V23.7968C0 23.7968 1.25203 24.1592 2.37701 24.6187C2.63109 23.8941 3.04107 23.225 3.60978 22.6724C5.47614 20.8947 8.56968 20.8762 10.2677 22.6247C10.7793 23.1562 11.1362 23.7903 11.3184 24.4912C12.0026 24.7024 12.6224 25.0765 13.1204 25.5896C13.6334 26.1176 13.9891 26.7552 14.1728 27.4525C14.8562 27.6639 15.475 28.0394 15.9748 28.5529C16.5375 29.1332 16.9124 29.8342 17.0875 30.5937C17.8019 30.8018 18.4475 31.189 18.9675 31.7206C19.9879 32.7688 20.3502 34.1909 20.1307 35.5627C20.1307 35.5627 20.1359 35.5627 20.1375 35.5658C20.1541 35.5876 20.7697 36.2739 21.1536 36.6609C21.9059 37.414 23.1343 37.414 23.8889 36.6609C24.6386 35.9082 24.6418 34.6822 23.8889 33.9256C23.8619 33.8987 21.1748 31.088 21.3911 30.8701C21.6057 30.6536 25.0293 34.2159 25.093 34.2811C25.8443 35.0326 27.0719 35.0326 27.8266 34.2811C28.5796 33.5283 28.578 32.3023 27.8266 31.5475C27.7897 31.5124 27.6356 31.3648 27.5784 31.306C27.5784 31.306 24.1841 28.2822 24.4424 28.0239C24.704 27.7639 28.9202 31.6986 28.927 31.6986C29.6849 32.3811 30.8523 32.376 31.5815 31.6465C32.2909 30.9372 32.3061 29.8151 31.6772 29.059C31.6639 29.0188 28.464 25.6747 28.7137 25.4232C28.9671 25.1683 32.1333 28.4285 32.14 28.4353C32.8896 29.1866 34.1189 29.1866 34.8736 28.4353C35.6249 27.6839 35.6249 26.4563 34.8736 25.6983C34.8634 25.6919 34.85 25.6851 34.84 25.6786Z" fill="#4759A4"/>
<path d="M44 10.0398V23.359C44 23.359 41.1493 23.9206 40.5621 23.9945C39.9767 24.0682 38.137 24.6622 36.8038 23.3807C34.7477 21.4101 27.4425 14.1452 27.4425 14.1452C27.4425 14.1452 26.1829 12.9092 24.1605 13.9774C22.304 14.9559 19.5519 16.3899 18.4025 16.9483C16.2295 18.1049 14.4284 16.2699 14.4284 14.8721C14.4284 13.7879 15.105 13.052 16.0721 12.5108C18.6932 10.9219 24.2176 7.82095 26.5186 6.5984C27.9172 5.85453 28.9249 5.79079 30.845 7.4084C33.2099 9.39728 35.3144 11.2102 35.3144 11.2102C35.3144 11.2102 36.0009 11.7831 37.0956 11.5523C39.7838 10.984 44 10.0398 44 10.0398ZM14.9233 32.6079C15.2771 31.699 15.1588 30.6824 14.4805 29.985C13.8711 29.3612 12.9813 29.1968 12.1328 29.3912C12.3701 28.5497 12.2391 27.654 11.6263 27.0219C11.015 26.3996 10.1269 26.2319 9.27854 26.4281C9.51407 25.5879 9.38339 24.6923 8.77029 24.0621C7.81026 23.0773 6.14967 23.1196 5.05878 24.1594C3.97365 25.2007 3.27853 27.0872 4.247 28.1977C5.21387 29.3025 6.32483 28.6303 7.17177 28.4373C6.93615 29.2775 6.2302 30.0591 7.09959 31.159C7.96819 32.2594 9.17734 31.5918 10.0252 31.4006C9.78875 32.2376 9.11359 33.0977 9.94961 34.1175C10.7932 35.1404 12.1748 34.5954 13.0874 34.3119C12.7352 35.2174 11.9814 36.1934 12.9498 37.2871C13.9168 38.3888 16.1514 37.8791 17.2429 36.8376C18.3315 35.7964 18.436 34.1461 17.4785 33.1583C16.8175 32.4805 15.8321 32.3229 14.9233 32.6079Z" fill="#3DACE3"/>
</svg>
