<svg width="46" height="34" viewBox="0 0 46 34" fill="none" xmlns="http://www.w3.org/2000/svg">
<g clip-path="url(#clip0)">
<path fill-rule="evenodd" clip-rule="evenodd" d="M26.7734 13H19V15.7762H26.7734V13ZM26.7734 18.5524H19V21.3287H26.7734V18.5524Z" fill="#3C64B1"/>
<path d="M37.9802 5.3104C39.4466 5.3104 40.6353 4.12163 40.6353 2.6552C40.6353 1.18877 39.4466 0 37.9802 0C36.5137 0 35.325 1.18877 35.325 2.6552C35.325 4.12163 36.5137 5.3104 37.9802 5.3104Z" fill="#3C64B1"/>
<path d="M38.9053 6.57646C38.2437 6.44214 37.5244 6.44803 36.8746 6.6012C32.4602 7.11846 31.0269 12.228 31.4316 16.1239C31.6072 17.8082 34.2624 17.8259 34.085 16.1239C33.9377 14.7041 34.0008 12.5614 34.7555 11.0385C34.7555 12.8896 34.7555 14.7406 34.7555 16.591C34.7555 16.6564 34.7619 16.7177 34.7649 16.7807C34.7631 16.8108 34.756 16.8361 34.756 16.8668C34.756 21.2728 34.7484 25.6772 34.5663 30.0797C34.4856 32.0368 37.5202 32.0291 37.6004 30.0797C37.7429 26.6292 37.7789 23.1769 37.7871 19.724C37.9309 19.7334 38.0746 19.7334 38.2184 19.7252C38.2272 23.1781 38.2619 26.6304 38.4033 30.0797C38.484 32.0291 41.5186 32.0368 41.4373 30.0797C41.2553 25.6772 41.2488 21.2728 41.2488 16.8668C41.2488 16.7301 41.2306 16.6058 41.2029 16.4862C41.1987 14.5733 41.1257 12.6586 41.1481 10.7469C42.0518 12.2769 42.1343 14.6104 41.9776 16.1227C41.7997 17.8235 44.4554 17.8064 44.631 16.1227C45.0452 12.1461 43.5429 6.90401 38.9053 6.57646Z" fill="#3C64B1"/>
<path fill-rule="evenodd" clip-rule="evenodd" d="M10.2013 3.57215C10.2013 4.99271 9.04974 6.1443 7.62918 6.1443C6.20863 6.1443 5.05704 4.99271 5.05704 3.57215C5.05704 2.15159 6.20863 1 7.62918 1C9.04974 1 10.2013 2.15159 10.2013 3.57215ZM12.3972 9.40039C13.2441 11.8645 15.1671 17.1258 15.1864 17.1786C15.4098 17.7895 15.0957 18.4658 14.4847 18.6891C13.8739 18.9124 13.1976 18.5983 12.9742 17.9874L12.9712 17.9792C12.8997 17.7834 11.6187 14.2771 10.6994 11.6801C10.6152 11.9562 10.4434 12.1933 10.217 12.3614L10.2142 14.087L12.2396 19.1942C12.3504 19.4736 12.1859 19.7849 11.8974 19.854C11.5949 19.9266 11.1948 20.0254 10.7608 20.1339V29.5868C10.7608 30.3673 10.128 31 9.34751 31C8.56698 31 7.93423 30.3673 7.93423 29.5868V20.8029C7.7312 20.8211 7.52706 20.8212 7.32409 20.8033V29.5868C7.32409 30.3673 6.69134 31 5.91081 31C5.13028 31 4.49753 30.3673 4.49753 29.5868V20.1352C4.06311 20.0267 3.66263 19.9276 3.36022 19.855C3.06966 19.7851 2.90794 19.4739 3.01839 19.1953L5.04415 14.0871L5.04134 12.3614C4.81499 12.1933 4.64302 11.9562 4.55893 11.6802C3.63923 14.278 2.35771 17.786 2.287 17.9795L2.28409 17.9875C2.06079 18.5983 1.38444 18.9125 0.773602 18.6891C0.162703 18.4658 -0.151418 17.7895 0.0719415 17.1786C0.091336 17.1259 2.01438 11.8645 2.86118 9.40039C3.40757 7.81039 4.3238 7.00419 5.58427 7.00419H9.67411C10.9346 7.00419 11.8508 7.81039 12.3972 9.40039Z" fill="#3DACE3"/>
</g>
<defs>
<clipPath id="clip0">
<rect width="46" height="34" fill="white"/>
</clipPath>
</defs>
</svg>
