<svg width="42" height="42" viewBox="0 0 42 42" fill="none" xmlns="http://www.w3.org/2000/svg">
<path fill-rule="evenodd" clip-rule="evenodd" d="M26.6001 12.6C28.5331 12.6 30.1001 11.033 30.1001 9.09998C30.1001 7.16698 28.5331 5.59998 26.6001 5.59998C24.6671 5.59998 23.1001 7.16698 23.1001 9.09998C23.1001 11.033 24.6671 12.6 26.6001 12.6ZM23.4074 21.5893L21.0002 25.2L18.2002 28L20.3002 30.1L23.8002 26.6L26.9159 22.238L28.7002 22.4V26.6H32.2002V20.783C32.2096 20.0917 31.7131 19.497 31.0312 19.383L28.0002 18.9L28.7002 15.4H35.7002V12.6H24.5002L18.2002 18.2L19.6002 20.3L22.3302 18.242C21.8478 19.4954 22.3274 20.8824 23.4074 21.5893Z" fill="#3C64B1"/>
<path fill-rule="evenodd" clip-rule="evenodd" d="M9.11354 19.6C11.0404 19.5927 12.6001 18.0285 12.6001 16.1C12.6001 14.167 11.0331 12.6 9.1001 12.6C7.1671 12.6 5.6001 14.167 5.6001 16.1C5.6001 18.0285 7.15984 19.5927 9.08665 19.6H7.00013L4.83013 25.242C4.34778 26.4954 4.82733 27.8824 5.90734 28.5893L3.5002 32.2L0.700195 35L2.8002 37.1L6.3002 33.6L9.41589 29.238L11.2001 29.4V33.6H14.7001V27.783C14.6993 27.0996 14.2051 26.5167 13.5311 26.404L10.5001 25.9L11.2001 23.1H14.7001L19.6001 20.3L18.2001 18.2L14.0001 20.3L9.80013 19.6H9.11354Z" fill="#6BBFE9"/>
<path d="M0 42V41.3L9.8 39.2V33.6H21L27.3 26.6H42V42H0Z" fill="#3C64B1"/>
<path fill-rule="evenodd" clip-rule="evenodd" d="M35.6997 0H35V20.3H36.4V6.61095L41.9997 3.5L36.4 0.389053V0H35.6997Z" fill="#6BBFE9"/>
</svg>
