<svg width="40" height="40" viewBox="0 0 40 40" fill="none" xmlns="http://www.w3.org/2000/svg">
<path d="M18.0341 10.133V7.10562H15.2798V10.133H15.3845C16.2625 10.133 17.0695 10.133 17.9293 10.133H18.0341Z" fill="#3C64B1"/>
<path d="M7.51121 10.1953C9.98839 10.1953 11.9965 8.18718 11.9965 5.71C11.9965 3.23282 9.98839 1.22467 7.51121 1.22467C5.03403 1.22467 3.02588 3.23282 3.02588 5.71C3.02588 8.18718 5.03403 10.1953 7.51121 10.1953Z" fill="#3DACE3"/>
<path d="M22.1385 10.8501H10.6526L10.0919 14.3377L9.5829 17.5043H8.91702L8.4881 12.6314L8.99042 10.8503H6.03208L6.5344 12.6314L6.10547 17.5043H5.4396L5.03727 15.0014L4.53143 11.8549L4.36988 10.8502H2.51863H2.51234V10.8503C1.12417 10.8537 0 11.9799 0 13.3688V24.0977C0 25.4886 1.12764 26.6163 2.51863 26.6163V36.0636C2.51863 37.4546 3.64628 38.5822 5.03727 38.5822C6.26717 38.5822 7.29049 37.7004 7.51117 36.5348C7.73191 37.7005 8.75533 38.5822 9.98523 38.5822C11.3762 38.5822 12.5039 37.4546 12.5039 36.0636V25.3577V20.884V15.8875H22.1386C23.5295 15.8875 24.6572 14.7598 24.6572 13.3689C24.6571 11.9778 23.5295 10.8501 22.1385 10.8501Z" fill="#3DACE3"/>
<path fill-rule="evenodd" clip-rule="evenodd" d="M39.0607 3.6677C38.808 3.58673 38.5244 3.58789 38.2492 3.58902L38.2491 3.58902C38.2112 3.58917 38.1734 3.58933 38.1359 3.58927C35.8888 3.58523 33.6416 3.58558 31.3944 3.58594L29.475 3.58614H28.8461C28.757 2.63994 27.9611 1.89957 26.9917 1.89957C26.0222 1.89957 25.226 2.63999 25.1371 3.58614H24.4419L22.7716 3.58614C20.5458 3.58612 18.3199 3.5861 16.0938 3.58634C16.0239 3.58636 15.9537 3.5849 15.8836 3.58344H15.8836C15.7096 3.57983 15.5355 3.57621 15.3638 3.59506C14.652 3.67294 14.014 4.33549 14.026 4.96323C14.0381 5.58669 14.6922 6.22335 15.4039 6.29392C15.526 6.30606 15.6496 6.30358 15.7731 6.3011L15.7732 6.3011C15.824 6.30008 15.8748 6.29906 15.9255 6.29906C23.3345 6.29921 30.7435 6.29921 38.1524 6.29911C38.2044 6.29911 38.2565 6.30018 38.3086 6.30124L38.3086 6.30125C38.4309 6.30375 38.553 6.30625 38.674 6.29498C39.3472 6.23242 39.9365 5.66945 39.9963 5.04206C40.0441 4.53491 39.6092 3.8435 39.0607 3.6677ZM35.9305 9.40731H35.9307V22.9976C29.9026 23.0238 23.9757 23.0289 17.9466 23.0199V16.5979H15.3265C15.3265 17.2743 15.3191 17.9402 15.3119 18.5985V18.5986C15.2953 20.1153 15.279 21.5919 15.3537 23.0638C15.429 24.5486 16.8243 25.6671 18.3291 25.6703C20.5231 25.6751 22.7172 25.6773 24.9112 25.6795C28.4943 25.683 32.0773 25.6866 35.6604 25.7015C37.378 25.7088 38.6929 24.4915 38.6847 22.6518C38.6709 19.5106 38.674 16.3693 38.6772 13.228C38.6785 11.9544 38.6797 10.6807 38.6799 9.40705H38.6847V7.10538H35.9305L35.9305 9.40731ZM34.4339 36.1725L34.432 36.1745C34.9829 36.7253 34.9829 37.6183 34.4321 38.1691C33.8812 38.72 32.9882 38.72 32.4374 38.1691L28.4082 34.1399V37.3649H28.4054C28.4054 38.1439 27.7739 38.7753 26.995 38.7753C26.2159 38.7753 25.5845 38.1439 25.5845 37.3649V34.1399L21.5553 38.1691C21.0044 38.72 20.1115 38.72 19.5606 38.1691C19.0097 37.6183 19.0097 36.7253 19.5606 36.1745L19.5587 36.1725L25.5845 30.1467V29.8967V26.6697H28.4081V30.1467L34.4339 36.1725Z" fill="#3C64B1"/>
</svg>
