<svg width="35" height="33" viewBox="0 0 35 33" fill="none" xmlns="http://www.w3.org/2000/svg">
<path fill-rule="evenodd" clip-rule="evenodd" d="M22.9865 0.836257C22.9865 0.374406 23.3609 0 23.8227 0H33.6648C34.1267 0 34.5011 0.374406 34.5011 0.836257V8.87719C34.5011 9.33904 34.1267 9.71345 33.6648 9.71345H23.8227C23.3609 9.71345 22.9865 9.33904 22.9865 8.87719V7.2342L20.3475 5.41887C19.976 5.16325 19.976 4.61452 20.3475 4.3589L22.9865 2.54357V0.836257ZM27.618 3.79532C26.9075 3.79532 26.3315 4.37133 26.3315 5.08187C26.3315 5.79241 26.9075 6.36842 27.618 6.36842H29.2262C29.9368 6.36842 30.5128 5.79241 30.5128 5.08187C30.5128 4.37133 29.9368 3.79532 29.2262 3.79532H27.618Z" fill="#3DACE3"/>
<path fill-rule="evenodd" clip-rule="evenodd" d="M22.9865 12.4151C22.9865 11.9533 23.3609 11.5789 23.8227 11.5789H33.6648C34.1267 11.5789 34.5011 11.9533 34.5011 12.4151V20.456C34.5011 20.9179 34.1267 21.2923 33.6648 21.2923H23.8227C23.3609 21.2923 22.9865 20.9179 22.9865 20.456V18.8131L20.3475 16.9977C19.976 16.7421 19.976 16.1934 20.3475 15.9378L22.9865 14.1224V12.4151ZM27.618 15.3742C26.9075 15.3742 26.3315 15.9502 26.3315 16.6607C26.3315 17.3713 26.9075 17.9473 27.618 17.9473H29.2262C29.9368 17.9473 30.5128 17.3713 30.5128 16.6607C30.5128 15.9502 29.9368 15.3742 29.2262 15.3742H27.618Z" fill="#3DACE3"/>
<path fill-rule="evenodd" clip-rule="evenodd" d="M22.9865 24.1229C22.9865 23.661 23.3609 23.2866 23.8227 23.2866H33.6648C34.1267 23.2866 34.5011 23.661 34.5011 24.1229V32.1638C34.5011 32.6257 34.1267 33.0001 33.6648 33.0001H23.8227C23.3609 33.0001 22.9865 32.6257 22.9865 32.1638V30.5208L20.3475 28.7055C19.976 28.4499 19.976 27.9011 20.3475 27.6455L22.9865 25.8302V24.1229ZM27.618 27.0819C26.9075 27.0819 26.3315 27.658 26.3315 28.3685C26.3315 29.079 26.9075 29.655 27.618 29.655H29.2262C29.9368 29.655 30.5128 29.079 30.5128 28.3685C30.5128 27.658 29.9368 27.0819 29.2262 27.0819H27.618Z" fill="#3DACE3"/>
<path fill-rule="evenodd" clip-rule="evenodd" d="M16.2 7.71904C17.781 7.71904 19.0626 6.43742 19.0626 4.85647C19.0626 3.27551 17.781 1.9939 16.2 1.9939C14.9698 1.9939 13.9207 2.77002 13.5159 3.85935H10.9894C10.4742 3.85935 10.0566 4.27695 10.0566 4.7921C10.0566 5.30724 10.4742 5.72485 10.9894 5.72485H13.4716C13.8393 6.88126 14.9218 7.71904 16.2 7.71904Z" fill="#3C64B1"/>
<path fill-rule="evenodd" clip-rule="evenodd" d="M16.2 19.2981C17.781 19.2981 19.0626 18.0165 19.0626 16.4356C19.0626 14.8546 17.781 13.573 16.2 13.573C14.9698 13.573 13.9208 14.3491 13.5159 15.4385H10.9894C10.4742 15.4385 10.0566 15.8561 10.0566 16.3712C10.0566 16.8863 10.4742 17.3039 10.9894 17.3039H13.4716C13.8393 18.4604 14.9218 19.2981 16.2 19.2981Z" fill="#3C64B1"/>
<path fill-rule="evenodd" clip-rule="evenodd" d="M16.2 31.0059C17.781 31.0059 19.0626 29.7243 19.0626 28.1433C19.0626 26.5624 17.781 25.2808 16.2 25.2808C14.9698 25.2808 13.9207 26.0569 13.5159 27.1462H10.9894C10.4742 27.1462 10.0566 27.5638 10.0566 28.079C10.0566 28.5941 10.4742 29.0117 10.9894 29.0117H13.4716C13.8393 30.1681 14.9218 31.0059 16.2 31.0059Z" fill="#3C64B1"/>
<path d="M5.05009 0.450439C5.40536 0.450439 5.69337 0.738443 5.69337 1.09371V8.67792C5.69337 9.03319 5.40536 9.3212 5.05009 9.3212H4.68922C4.33395 9.3212 4.04594 9.03319 4.04594 8.67792V2.47502C4.04594 2.11975 3.75794 1.83174 3.40267 1.83174H2.81368C2.45841 1.83174 2.17041 1.54374 2.17041 1.18847V1.09371C2.17041 0.738443 2.45841 0.450439 2.81368 0.450439H5.05009Z" fill="#3C64B1"/>
<path d="M6.73547 19.5767C7.09074 19.5767 7.37874 19.8647 7.37874 20.2199V20.3274C7.37874 20.6826 7.09074 20.9706 6.73547 20.9706H1.483C1.12773 20.9706 0.839728 20.6826 0.839728 20.3274V20.1444C0.839728 19.968 0.912144 19.7993 1.04004 19.6779L4.36269 16.5226C4.75976 16.1424 5.02588 15.8129 5.16105 15.5341C5.30468 15.2469 5.37649 14.9639 5.37649 14.6851C5.37649 14.2711 5.23709 13.9543 4.95829 13.7346C4.6795 13.515 4.26975 13.4051 3.72906 13.4051C3.07839 13.4051 2.53715 13.5649 2.10534 13.8844C1.82121 14.0947 1.42473 14.1564 1.14457 13.9408L0.999798 13.8295C0.721206 13.6152 0.662565 13.2108 0.924412 12.9763C1.19913 12.7303 1.52151 12.5269 1.89155 12.366C2.48293 12.1041 3.1419 11.9731 3.86846 11.9731C4.83157 11.9731 5.60037 12.2012 6.17486 12.6575C6.74934 13.1137 7.03659 13.7346 7.03659 14.5203C7.03659 15.0019 6.93521 15.4539 6.73245 15.8763C6.52969 16.2987 6.14106 16.7803 5.56657 17.3209L4.36211 18.4674C3.94144 18.8679 4.22485 19.5767 4.80562 19.5767H6.73547Z" fill="#3C64B1"/>
<path d="M5.49374 26.4343C5.16507 26.8248 5.40773 27.4342 5.86939 27.6519C6.15784 27.788 6.40335 27.9632 6.60591 28.1777C7.03677 28.6339 7.25221 29.2042 7.25221 29.8885C7.25221 30.4038 7.12126 30.8727 6.85936 31.2951C6.59746 31.7176 6.20039 32.0555 5.66814 32.3089C5.14435 32.5539 4.50227 32.6764 3.74192 32.6764C3.10829 32.6764 2.49579 32.5877 1.90441 32.4103C1.52206 32.2884 1.17607 32.1374 0.866412 31.9574C0.592092 31.7979 0.522591 31.4452 0.676464 31.1677L0.739675 31.0537C0.936038 30.6995 1.40972 30.6146 1.77076 30.798C1.93127 30.8795 2.10255 30.9523 2.28458 31.0163C2.74924 31.1684 3.22657 31.2444 3.71658 31.2444C4.29951 31.2444 4.75572 31.1262 5.08521 30.8896C5.42314 30.6446 5.59211 30.3151 5.59211 29.9012C5.59211 29.4872 5.43159 29.1662 5.11055 28.938C4.79796 28.7015 4.31641 28.5832 3.66589 28.5832H3.49812C3.14285 28.5832 2.85484 28.2952 2.85484 27.9399V27.69C2.85484 27.5384 2.90833 27.3918 3.00587 27.2758L3.98022 26.1176C4.33223 25.6992 4.03477 25.0603 3.48797 25.0603H1.48319C1.12792 25.0603 0.839915 24.7723 0.839915 24.417V24.3222C0.839915 23.967 1.12792 23.679 1.48319 23.679H6.24143C6.5967 23.679 6.8847 23.967 6.8847 24.3222V24.5468C6.8847 24.6984 6.83119 24.845 6.7336 24.961L5.49374 26.4343Z" fill="#3C64B1"/>
</svg>
