<svg width="41" height="41" viewBox="0 0 41 41" fill="none" xmlns="http://www.w3.org/2000/svg">
<path d="M25.625 8.00781H15.375C15.1201 8.00781 14.8757 8.10905 14.6955 8.28926C14.5153 8.46948 14.4141 8.71389 14.4141 8.96875V25.3047H18.2578V20.5C18.2578 20.2451 18.3591 20.0007 18.5393 19.8205C18.7195 19.6403 18.9639 19.5391 19.2188 19.5391H21.7812C22.0361 19.5391 22.2805 19.6403 22.4607 19.8205C22.6409 20.0007 22.7422 20.2451 22.7422 20.5V25.3047H26.5859V8.96875C26.5859 8.71389 26.4847 8.46948 26.3045 8.28926C26.1243 8.10905 25.8799 8.00781 25.625 8.00781ZM17.6172 16.6562C17.6172 16.9111 17.5159 17.1555 17.3357 17.3357C17.1555 17.5159 16.9111 17.6172 16.6562 17.6172C16.4014 17.6172 16.157 17.5159 15.9768 17.3357C15.7966 17.1555 15.6953 16.9111 15.6953 16.6562V15.375C15.6953 15.1201 15.7966 14.8757 15.9768 14.6955C16.157 14.5153 16.4014 14.4141 16.6562 14.4141C16.9111 14.4141 17.1555 14.5153 17.3357 14.6955C17.5159 14.8757 17.6172 15.1201 17.6172 15.375V16.6562ZM17.6172 11.5312C17.6172 11.7861 17.5159 12.0305 17.3357 12.2107C17.1555 12.3909 16.9111 12.4922 16.6562 12.4922C16.4014 12.4922 16.157 12.3909 15.9768 12.2107C15.7966 12.0305 15.6953 11.7861 15.6953 11.5312V10.25C15.6953 9.99514 15.7966 9.75073 15.9768 9.57051C16.157 9.3903 16.4014 9.28906 16.6562 9.28906C16.9111 9.28906 17.1555 9.3903 17.3357 9.57051C17.5159 9.75073 17.6172 9.99514 17.6172 10.25V11.5312ZM21.4609 16.6562C21.4609 16.9111 21.3597 17.1555 21.1795 17.3357C20.9993 17.5159 20.7549 17.6172 20.5 17.6172C20.2451 17.6172 20.0007 17.5159 19.8205 17.3357C19.6403 17.1555 19.5391 16.9111 19.5391 16.6562V15.375C19.5391 15.1201 19.6403 14.8757 19.8205 14.6955C20.0007 14.5153 20.2451 14.4141 20.5 14.4141C20.7549 14.4141 20.9993 14.5153 21.1795 14.6955C21.3597 14.8757 21.4609 15.1201 21.4609 15.375V16.6562ZM21.4609 11.5312C21.4609 11.7861 21.3597 12.0305 21.1795 12.2107C20.9993 12.3909 20.7549 12.4922 20.5 12.4922C20.2451 12.4922 20.0007 12.3909 19.8205 12.2107C19.6403 12.0305 19.5391 11.7861 19.5391 11.5312V10.25C19.5391 9.99514 19.6403 9.75073 19.8205 9.57051C20.0007 9.3903 20.2451 9.28906 20.5 9.28906C20.7549 9.28906 20.9993 9.3903 21.1795 9.57051C21.3597 9.75073 21.4609 9.99514 21.4609 10.25V11.5312ZM25.3047 16.6562C25.3047 16.9111 25.2034 17.1555 25.0232 17.3357C24.843 17.5159 24.5986 17.6172 24.3438 17.6172C24.0889 17.6172 23.8445 17.5159 23.6643 17.3357C23.4841 17.1555 23.3828 16.9111 23.3828 16.6562V15.375C23.3828 15.1201 23.4841 14.8757 23.6643 14.6955C23.8445 14.5153 24.0889 14.4141 24.3438 14.4141C24.5986 14.4141 24.843 14.5153 25.0232 14.6955C25.2034 14.8757 25.3047 15.1201 25.3047 15.375V16.6562ZM25.3047 11.5312C25.3047 11.7861 25.2034 12.0305 25.0232 12.2107C24.843 12.3909 24.5986 12.4922 24.3438 12.4922C24.0889 12.4922 23.8445 12.3909 23.6643 12.2107C23.4841 12.0305 23.3828 11.7861 23.3828 11.5312V10.25C23.3828 9.99514 23.4841 9.75073 23.6643 9.57051C23.8445 9.3903 24.0889 9.28906 24.3438 9.28906C24.5986 9.28906 24.843 9.3903 25.0232 9.57051C25.2034 9.75073 25.3047 9.99514 25.3047 10.25V11.5312Z" fill="#3DACE3"/>
<path d="M20.5 0.320312C11.4923 0.320312 4.16406 7.64858 4.16406 16.6562C4.16406 19.4459 5.01033 22.4471 6.67948 25.577C7.99044 28.035 9.81221 30.583 12.0943 33.1504C15.9579 37.4967 19.7633 40.3674 19.9234 40.4875C20.0898 40.6123 20.2921 40.6797 20.5 40.6797C20.7079 40.6797 20.9102 40.6123 21.0766 40.4875C21.2367 40.3674 25.0421 37.4967 28.9057 33.1502C31.1879 30.5828 33.0096 28.0347 34.3205 25.5767C35.9897 22.4471 36.8359 19.4459 36.8359 16.6562C36.8359 7.64858 29.5077 0.320312 20.5 0.320312ZM20.5 29.4688C18.7227 29.4695 16.9649 29.0995 15.3387 28.3825C13.7125 27.6655 12.2536 26.6173 11.0554 25.3047H13.4531V16.9766H7.69158C7.68892 16.8698 7.68755 16.763 7.6875 16.6562C7.6875 9.59144 13.4352 3.84375 20.5 3.84375C27.5648 3.84375 33.3125 9.59144 33.3125 16.6562C33.3125 16.7633 33.3111 16.8701 33.3084 16.9766H27.5469V25.3047H29.9446C28.7464 26.6173 27.2875 27.6655 25.6613 28.3825C24.0351 29.0995 22.2773 29.4695 20.5 29.4688Z" fill="#3C64B1"/>
</svg>
