<svg width="16" height="16" viewBox="0 0 16 16" fill="none" xmlns="http://www.w3.org/2000/svg">
<path fill-rule="evenodd" clip-rule="evenodd" d="M15.9449 7.75902C15.9514 7.77248 15.9573 7.78615 15.9627 7.80005C16.0178 7.94289 16.0116 8.10266 15.9452 8.24069C15.2356 9.71437 14.1315 10.961 12.7519 11.8457C11.3346 12.7548 9.69136 13.2353 8.0001 13.2353C6.30876 13.2353 4.66556 12.7548 3.24814 11.8457C1.86857 10.9609 0.764331 9.71414 0.0548827 8.24032C-0.0224498 8.07966 -0.0165353 7.89543 0.0630152 7.74305C0.772833 6.27654 1.87397 5.03582 3.24836 4.15441C4.66571 3.24534 6.30891 2.76486 8.0001 2.76486C9.69129 2.76486 11.3344 3.24527 12.7518 4.15426C14.1312 5.03893 15.2354 6.28541 15.9449 7.75902ZM5.56641 8C5.56641 6.65814 6.65815 5.56639 8 5.56639C9.34186 5.56639 10.4336 6.65814 10.4336 8C10.4336 9.34186 9.34186 10.4336 8 10.4336C6.65815 10.4336 5.56641 9.34186 5.56641 8ZM6.67538 8C6.67538 8.73037 7.26964 9.32463 8 9.32463C8.73037 9.32463 9.32463 8.73037 9.32463 8C9.32463 7.26963 8.73037 6.67537 8 6.67537C7.26964 6.67537 6.67538 7.26963 6.67538 8Z" fill="#C0C0C0"/>
</svg>
