<svg width="47" height="47" viewBox="0 0 47 47" fill="none" xmlns="http://www.w3.org/2000/svg">
<g clip-path="url(#clip0)">
<path d="M2.06148 34.6316H1.23691C0.781522 34.6316 0.412354 34.2624 0.412354 33.807V23.9123C0.412354 23.4569 0.781522 23.0877 1.23691 23.0877H2.06148V34.6316ZM8.65797 21.4386V36.2807C8.65797 36.7361 8.2888 37.1053 7.83341 37.1053H3.7106V20.614H7.83341C8.2888 20.614 8.65797 20.9832 8.65797 21.4386ZM23.5001 2.47368C14.2657 2.48519 6.66524 9.74105 6.22551 18.9649H4.53516C4.53516 8.49088 13.026 0 23.5001 0C33.9741 0 42.465 8.49088 42.465 18.9649H40.8159C40.3754 9.72512 32.7504 2.46319 23.5001 2.47368ZM43.2895 22.2632V37.1053H39.1667C38.7113 37.1053 38.3422 36.7361 38.3422 36.2807V21.4386C38.3422 20.9832 38.7113 20.614 39.1667 20.614H43.2895V22.2632ZM46.5878 33.807C46.5878 34.2624 46.2186 34.6316 45.7632 34.6316H44.9387V23.0877H45.7632C46.2186 23.0877 46.5878 23.4569 46.5878 23.9123V33.807Z" fill="#3C64B1"/>
<path d="M34.2606 13.3C34.4533 13.3004 34.64 13.2333 34.7883 13.1104C34.9569 12.9706 35.063 12.7694 35.0831 12.5513C35.1032 12.3332 35.0357 12.116 34.8955 11.9478C32.0756 8.56859 27.9013 6.61523 23.5001 6.61523C19.0988 6.61523 14.9246 8.56859 12.1046 11.9478C11.8132 12.2984 11.8612 12.8189 12.2118 13.1104C12.5625 13.4019 13.083 13.3539 13.3745 13.0032C15.8811 10.0021 19.5899 8.26757 23.5001 8.26757C27.4103 8.26757 31.119 10.0021 33.6257 13.0032C33.7826 13.1917 34.0153 13.3004 34.2606 13.3Z" fill="#3DACE3"/>
<path d="M32.4878 15.5511C32.8468 15.2729 32.9131 14.7567 32.6362 14.3967C30.4503 11.5665 27.0762 9.90918 23.5001 9.90918C19.924 9.90918 16.5499 11.5665 14.3639 14.3967C14.1195 14.7573 14.1976 15.2459 14.5425 15.5121C14.8873 15.7784 15.3797 15.7304 15.6668 15.4027C17.5403 12.975 20.4335 11.5532 23.5001 11.5532C26.5666 11.5532 29.4599 12.975 31.3334 15.4027C31.4891 15.6049 31.7296 15.7237 31.9848 15.7243C32.167 15.7237 32.3439 15.6628 32.4878 15.5511Z" fill="#3DACE3"/>
<path d="M16.9036 29.6844H21.0264C21.4818 29.6844 21.8509 29.3152 21.8509 28.8598C21.8509 28.4044 21.4818 28.0353 21.0264 28.0353H16.9036V26.3861H21.0264C21.4818 26.3861 21.8509 26.017 21.8509 25.5616C21.8509 25.1062 21.4818 24.737 21.0264 24.737H16.9036V23.0879H21.0264C21.4818 23.0879 21.8509 22.7187 21.8509 22.2633C21.8509 21.8079 21.4818 21.4388 21.0264 21.4388H16.9036C16.9036 17.7956 19.8569 14.8423 23.5001 14.8423C27.1432 14.8423 30.0965 17.7956 30.0965 21.4388H25.9737C25.5183 21.4388 25.1492 21.8079 25.1492 22.2633C25.1492 22.7187 25.5183 23.0879 25.9737 23.0879H30.0965V24.737H25.9737C25.5183 24.737 25.1492 25.1062 25.1492 25.5616C25.1492 26.017 25.5183 26.3861 25.9737 26.3861H30.0965V28.0353H25.9737C25.5183 28.0353 25.1492 28.4044 25.1492 28.8598C25.1492 29.3152 25.5183 29.6844 25.9737 29.6844H30.0965V31.3335H16.9036V29.6844ZM29.272 45.3511C29.7274 45.3511 30.0965 45.7202 30.0965 46.1756V47.0002H16.9036V46.1756C16.9036 45.7202 17.2727 45.3511 17.7281 45.3511H29.272ZM22.6755 43.7019V41.2282H23.5001H24.3246V43.7019H22.6755ZM23.5001 39.5791C19.8569 39.5791 16.9036 36.6258 16.9036 32.9826H30.0965C30.0965 36.6258 27.1432 39.5791 23.5001 39.5791Z" fill="#3DACE3"/>
</g>
<defs>
<clipPath id="clip0">
<rect width="47" height="47" fill="white"/>
</clipPath>
</defs>
</svg>
