<svg width="36" height="36" viewBox="0 0 36 36" fill="none" xmlns="http://www.w3.org/2000/svg">
<g clip-path="url(#clip0)">
<path d="M31.7647 4.23529V8.47059H29.6471V4.23529H27.5294V2.11765H29.6471V4.23529H31.7647V0H25.4118V4.23529H21.1765V8.47059H19.0588V4.23529H16.9412V2.11765H19.0588V4.23529H21.1765V0H14.8235V4.23529H10.5882V8.47059H8.47059V4.23529H6.35294V2.11765H8.47059V4.23529H10.5882V0H4.23529V4.23529H0V10.5882H36V4.23529H31.7647Z" fill="#3DACE3"/>
<path d="M0 36.0002H36V12.7061H0V36.0002ZM12.3957 29.9574L10.8983 31.4548L9.52941 30.0858L8.16042 31.4548L6.66304 29.9574L8.03202 28.5884L6.66304 27.2194L8.16042 25.722L9.52941 27.091L10.8984 25.722L12.3958 27.2194L11.0268 28.5884L12.3957 29.9574ZM23.6043 18.7488L25.1017 17.2514L26.4706 18.6204L27.8396 17.2514L29.337 18.7488L27.968 20.1178L29.337 21.4868L27.8396 22.9842L26.4706 21.6152L25.1016 22.9842L23.6042 21.4868L24.9732 20.1178L23.6043 18.7488ZM23.2941 25.4119H29.6471V31.7649H23.2941V25.4119ZM15.1337 18.7488L16.6311 17.2514L18 18.6204L19.369 17.2514L20.8664 18.7488L19.4974 20.1178L20.8664 21.4868L19.369 22.9842L18 21.6152L16.631 22.9842L15.1336 21.4868L16.5026 20.1178L15.1337 18.7488ZM15.1337 27.2194L16.6311 25.722L18 27.091L19.369 25.722L20.8664 27.2194L19.4974 28.5884L20.8664 29.9574L19.369 31.4548L18 30.0858L16.631 31.4548L15.1336 29.9574L16.5026 28.5884L15.1337 27.2194ZM6.35294 16.9413H12.7059V23.2943H6.35294V16.9413Z" fill="#4759A4"/>
<path d="M25.4117 27.5293H27.5294V29.6469H25.4117V27.5293Z" fill="#4759A4"/>
<path d="M8.47058 19.0586H10.5882V21.1762H8.47058V19.0586Z" fill="#4759A4"/>
</g>
<defs>
<clipPath id="clip0">
<rect width="36" height="36" fill="white"/>
</clipPath>
</defs>
</svg>
