<svg width="25" height="25" viewBox="0 0 25 25" fill="none" xmlns="http://www.w3.org/2000/svg">
<path d="M22.059 2.9412V5.88239H20.5884V2.9412H19.1178V1.4706H20.5884V2.9412H22.059V0H17.6472V2.9412H14.706V5.88239H13.2354V2.9412H11.7648V1.4706H13.2354V2.9412H14.706V0H10.2942V2.9412H7.35299V5.88239H5.88239V2.9412H4.41179V1.4706H5.88239V2.9412H7.35299V0H2.9412V2.9412H0V7.35299H25.0002V2.9412H22.059Z" fill="#363F6A"/>
<path d="M0 24.9998H25.0002V8.82324H0V24.9998ZM8.60819 20.8034L7.56833 21.8433L6.61769 20.8926L5.667 21.8433L4.62714 20.8034L5.57783 19.8527L4.62714 18.902L5.667 17.8622L6.61769 18.8129L7.56838 17.8622L8.60824 18.902L7.65755 19.8527L8.60819 20.8034ZM16.392 13.0196L17.4318 11.9798L18.3825 12.9305L19.3332 11.9798L20.373 13.0196L19.4223 13.9703L20.373 14.921L19.3332 15.9609L18.3825 15.0102L17.4318 15.9609L16.3919 14.921L17.3426 13.9703L16.392 13.0196ZM16.1766 17.6468H20.5884V22.0586H16.1766V17.6468ZM10.5096 13.0196L11.5494 11.9798L12.5001 12.9305L13.4508 11.9798L14.4906 13.0196L13.5399 13.9703L14.4906 14.921L13.4508 15.9609L12.5001 15.0102L11.5494 15.9609L10.5095 14.921L11.4602 13.9703L10.5096 13.0196ZM10.5096 18.902L11.5494 17.8622L12.5001 18.8129L13.4508 17.8622L14.4906 18.902L13.5399 19.8527L14.4906 20.8034L13.4508 21.8433L12.5001 20.8926L11.5494 21.8433L10.5095 20.8034L11.4602 19.8527L10.5096 18.902ZM4.41179 11.7644H8.82359V16.1762H4.41179V11.7644Z" fill="#363F6A"/>
<path d="M17.647 19.1182H19.1176V20.5888H17.647V19.1182Z" fill="#363F6A"/>
<path d="M5.88232 13.2354H7.35292V14.706H5.88232V13.2354Z" fill="#363F6A"/>
</svg>
