<svg width="38" height="38" viewBox="0 0 38 38" fill="none" xmlns="http://www.w3.org/2000/svg">
<g clip-path="url(#clip0)">
<path d="M21.6137 20.3237H16.9393C13.0501 20.3237 9.88605 23.4883 9.88605 27.3775V33.0939L9.90059 33.1834L10.2943 33.3067C14.0059 34.4664 17.2304 34.8531 19.8845 34.8531C25.0684 34.8531 28.0731 33.3751 28.2583 33.2809L28.6262 33.0948H28.6656V27.3775C28.667 23.4883 25.5029 20.3237 21.6137 20.3237ZM30.7276 14.6368H26.0894C26.0392 16.4926 25.247 18.1637 23.994 19.3656C27.4511 20.3936 29.9804 23.5993 29.9804 27.3859V29.1475C34.5601 28.9797 37.1992 27.6817 37.3731 27.5945L37.7411 27.4079H37.7805V21.6897C37.7805 17.8009 34.6164 14.6368 30.7276 14.6368ZM14.5581 19.3656C13.3112 18.1698 12.5218 16.5076 12.4642 14.6631C12.2922 14.6504 12.122 14.6368 11.9467 14.6368H7.27277C3.38355 14.6368 0.219482 17.8009 0.219482 21.6897V27.407L0.234014 27.4951L0.627764 27.6194C3.60527 28.5489 6.26261 28.9773 8.57074 29.1123V27.3859C8.57168 23.5993 11.1001 20.3945 14.5581 19.3656Z" fill="#3A61AE"/>
<path d="M24.7857 14.1955C24.7857 17.2377 22.3196 19.7043 19.277 19.7043C16.2348 19.7043 13.7673 17.2382 13.7673 14.196C13.7673 11.1538 16.2348 8.68726 19.277 8.68726C22.3192 8.68726 24.7857 11.1534 24.7857 14.1955Z" fill="#3DACE3"/>
<path d="M13.9696 7.8253C13.9696 10.8675 11.5035 13.3341 8.46086 13.3341C5.41867 13.3341 2.95117 10.868 2.95117 7.82577C2.95117 4.78358 5.41867 2.31702 8.46086 2.31702C11.5031 2.31702 13.9696 4.78311 13.9696 7.8253Z" fill="#3DACE3"/>
<path d="M35.8233 7.8253C35.8233 10.8675 33.3572 13.3341 30.3146 13.3341C27.2724 13.3341 24.8049 10.868 24.8049 7.82577C24.8049 4.78358 27.2724 2.31702 30.3146 2.31702C33.3568 2.31702 35.8233 4.78311 35.8233 7.8253Z" fill="#3DACE3"/>
</g>
<defs>
<clipPath id="clip0">
<rect width="37.561" height="37.561" fill="white" transform="translate(0.219482 0.268311)"/>
</clipPath>
</defs>
</svg>
