<svg width="50" height="50" viewBox="0 0 50 50" fill="none" xmlns="http://www.w3.org/2000/svg">
<path d="M3.28613 36.812L9.68521 32.335L16.8473 42.5718L10.4482 47.0488L3.28613 36.812Z" fill="#3C64B1"/>
<path d="M46.4062 31.8906C46.4552 31.6203 46.4281 31.3418 46.3281 31.0859C46.1871 30.6965 45.8972 30.379 45.5222 30.2032C45.1472 30.0274 44.7177 30.0077 44.3281 30.1484L36.5469 32.9844C36.3515 33.628 35.9544 34.1918 35.4143 34.5927C34.8742 34.9936 34.2195 35.2103 33.5469 35.2109C33.3606 35.2121 33.1747 35.1938 32.9922 35.1562L24.5547 33.6641L24.8203 32.1328L33.2656 33.625C33.6483 33.6946 34.0432 33.6197 34.3737 33.4147C34.7043 33.2097 34.9469 32.8893 35.0547 32.5156C35.1203 32.3032 35.1337 32.0781 35.0937 31.8594C35.0609 31.6185 34.9727 31.3885 34.8359 31.1875C34.5948 30.8472 34.2304 30.6146 33.8203 30.5391L25.9766 29.1562C23.6698 28.7593 21.3023 28.9064 19.0625 29.5859L18.9219 29.625C17.4396 30.0766 16.0391 30.7623 14.7734 31.6562L12.3203 33.3672L17.25 40.414C19.0956 39.1464 21.3667 38.6579 23.5703 39.0547L24.9687 39.2891C26.4558 39.5541 27.9865 39.422 29.4062 38.9062L45.3984 33.0859C45.6566 32.9928 45.8857 32.8332 46.0626 32.6234C46.2395 32.4136 46.358 32.1608 46.4062 31.8906Z" fill="#3DACE3"/>
<path d="M44.5312 9.375V7.03125C44.5312 6.82405 44.4489 6.62534 44.3024 6.47882C44.1559 6.33231 43.9572 6.25 43.75 6.25H35.1562V9.375H44.5312Z" fill="#3C64B1"/>
<path d="M30.6953 11.1641C30.8428 11.0177 31.0422 10.9356 31.25 10.9356C31.4578 10.9356 31.6572 11.0177 31.8047 11.1641L33.5938 12.9609V6.25H28.9062V12.9609L30.6953 11.1641Z" fill="#3DACE3"/>
<path d="M17.9688 7.03125V9.375H27.3438V6.25H18.75C18.5428 6.25 18.3441 6.33231 18.1976 6.47882C18.0511 6.62534 17.9688 6.82405 17.9688 7.03125Z" fill="#3C64B1"/>
<path d="M27.8281 15.5625C27.6847 15.505 27.5618 15.4058 27.4754 15.2776C27.389 15.1495 27.3432 14.9983 27.3438 14.8438V10.9375H17.9688V28.3047C18.1406 28.2422 18.3125 28.1719 18.4922 28.125L18.6328 28.0781C21.0985 27.3315 23.7053 27.1763 26.2422 27.625L34.0938 29.0078C34.6277 29.1008 35.1269 29.3356 35.5391 29.6875H41.0312L43.7969 28.6797C44.0342 28.5971 44.2809 28.5446 44.5312 28.5234V10.9375H35.1562V14.8438C35.1568 14.9983 35.111 15.1495 35.0246 15.2776C34.9382 15.4058 34.8153 15.505 34.6719 15.5625C34.5792 15.6063 34.4775 15.6277 34.375 15.625C34.1675 15.6256 33.9681 15.5442 33.8203 15.3984L31.25 12.8203L28.6797 15.3984C28.5698 15.5068 28.4303 15.5803 28.2788 15.6095C28.1272 15.6387 27.9704 15.6223 27.8281 15.5625Z" fill="#3C64B1"/>
</svg>
