<svg width="329" height="109" viewBox="0 0 329 109" fill="none" xmlns="http://www.w3.org/2000/svg">
<path opacity="0.19" fill-rule="evenodd" clip-rule="evenodd" d="M326.5 103.111C325.119 103.111 324 104.23 324 105.611C324 106.992 325.119 108.111 326.5 108.111C327.881 108.111 329 106.992 329 105.611C329 104.23 327.881 103.111 326.5 103.111ZM2.5 103.111C1.11929 103.111 -3.39263e-07 104.23 -2.18557e-07 105.611C-9.78513e-08 106.992 1.11929 108.111 2.5 108.111C3.88071 108.111 5 106.992 5 105.611C5 104.23 3.88071 103.111 2.5 103.111ZM299.077 105.611C299.077 104.23 300.196 103.111 301.577 103.111C302.958 103.111 304.077 104.23 304.077 105.611C304.077 106.992 302.958 108.111 301.577 108.111C300.196 108.111 299.077 106.992 299.077 105.611ZM276.654 103.111C275.273 103.111 274.154 104.23 274.154 105.611C274.154 106.992 275.273 108.111 276.654 108.111C278.035 108.111 279.154 106.992 279.154 105.611C279.154 104.23 278.035 103.111 276.654 103.111ZM249.231 105.611C249.231 104.23 250.35 103.111 251.731 103.111C253.111 103.111 254.231 104.23 254.231 105.611C254.231 106.992 253.111 108.111 251.731 108.111C250.35 108.111 249.231 106.992 249.231 105.611ZM226.808 103.111C225.427 103.111 224.308 104.23 224.308 105.611C224.308 106.992 225.427 108.111 226.808 108.111C228.188 108.111 229.308 106.992 229.308 105.611C229.308 104.23 228.188 103.111 226.808 103.111ZM199.385 105.611C199.385 104.23 200.504 103.111 201.885 103.111C203.265 103.111 204.385 104.23 204.385 105.611C204.385 106.992 203.265 108.111 201.885 108.111C200.504 108.111 199.385 106.992 199.385 105.611ZM176.962 103.111C175.581 103.111 174.462 104.23 174.462 105.611C174.462 106.992 175.581 108.111 176.962 108.111C178.342 108.111 179.462 106.992 179.462 105.611C179.462 104.23 178.342 103.111 176.962 103.111ZM149.538 105.611C149.538 104.23 150.658 103.111 152.038 103.111C153.419 103.111 154.538 104.23 154.538 105.611C154.538 106.992 153.419 108.111 152.038 108.111C150.658 108.111 149.538 106.992 149.538 105.611ZM127.115 103.111C125.735 103.111 124.615 104.23 124.615 105.611C124.615 106.992 125.735 108.111 127.115 108.111C128.496 108.111 129.615 106.992 129.615 105.611C129.615 104.23 128.496 103.111 127.115 103.111ZM99.6923 105.611C99.6923 104.23 100.812 103.111 102.192 103.111C103.573 103.111 104.692 104.23 104.692 105.611C104.692 106.992 103.573 108.111 102.192 108.111C100.812 108.111 99.6923 106.992 99.6923 105.611ZM77.2693 103.111C75.8886 103.111 74.7693 104.23 74.7693 105.611C74.7693 106.992 75.8886 108.111 77.2693 108.111C78.65 108.111 79.7693 106.992 79.7693 105.611C79.7693 104.23 78.65 103.111 77.2693 103.111ZM49.8462 105.611C49.8462 104.23 50.9655 103.111 52.3462 103.111C53.7269 103.111 54.8462 104.23 54.8462 105.611C54.8462 106.992 53.7269 108.111 52.3462 108.111C50.9655 108.111 49.8462 106.992 49.8462 105.611ZM27.4231 103.111C26.0424 103.111 24.9231 104.23 24.9231 105.611C24.9231 106.992 26.0424 108.111 27.4231 108.111C28.8038 108.111 29.9231 106.992 29.9231 105.611C29.9231 104.23 28.8038 103.111 27.4231 103.111ZM324 79.8333C324 78.4526 325.119 77.3333 326.5 77.3333C327.881 77.3333 329 78.4526 329 79.8333C329 81.214 327.881 82.3333 326.5 82.3333C325.119 82.3333 324 81.214 324 79.8333ZM-2.47212e-06 79.8333C-2.59283e-06 78.4526 1.11929 77.3333 2.5 77.3333C3.8807 77.3333 5 78.4526 5 79.8333C5 81.2141 3.8807 82.3333 2.5 82.3333C1.11929 82.3333 -2.35142e-06 81.2141 -2.47212e-06 79.8333ZM299.077 79.8333C299.077 78.4526 300.196 77.3333 301.577 77.3333C302.958 77.3333 304.077 78.4526 304.077 79.8333C304.077 81.214 302.958 82.3333 301.577 82.3333C300.196 82.3333 299.077 81.214 299.077 79.8333ZM274.154 79.8333C274.154 78.4526 275.273 77.3333 276.654 77.3333C278.035 77.3333 279.154 78.4526 279.154 79.8333C279.154 81.214 278.035 82.3333 276.654 82.3333C275.273 82.3333 274.154 81.214 274.154 79.8333ZM249.231 79.8333C249.231 78.4526 250.35 77.3333 251.731 77.3333C253.111 77.3333 254.231 78.4526 254.231 79.8333C254.231 81.214 253.111 82.3333 251.731 82.3333C250.35 82.3333 249.231 81.214 249.231 79.8333ZM224.308 79.8333C224.308 78.4526 225.427 77.3333 226.808 77.3333C228.188 77.3333 229.308 78.4526 229.308 79.8333C229.308 81.214 228.188 82.3333 226.808 82.3333C225.427 82.3333 224.308 81.214 224.308 79.8333ZM199.385 79.8333C199.385 78.4526 200.504 77.3333 201.885 77.3333C203.265 77.3333 204.385 78.4526 204.385 79.8333C204.385 81.214 203.265 82.3333 201.885 82.3333C200.504 82.3333 199.385 81.214 199.385 79.8333ZM174.462 79.8333C174.462 78.4526 175.581 77.3333 176.962 77.3333C178.342 77.3333 179.462 78.4526 179.462 79.8333C179.462 81.214 178.342 82.3333 176.962 82.3333C175.581 82.3333 174.462 81.214 174.462 79.8333ZM149.538 79.8333C149.538 78.4526 150.658 77.3333 152.038 77.3333C153.419 77.3333 154.538 78.4526 154.538 79.8333C154.538 81.214 153.419 82.3333 152.038 82.3333C150.658 82.3333 149.538 81.214 149.538 79.8333ZM124.615 79.8333C124.615 78.4526 125.735 77.3333 127.115 77.3333C128.496 77.3333 129.615 78.4526 129.615 79.8333C129.615 81.214 128.496 82.3333 127.115 82.3333C125.735 82.3333 124.615 81.214 124.615 79.8333ZM99.6923 79.8333C99.6923 78.4526 100.812 77.3333 102.192 77.3333C103.573 77.3333 104.692 78.4526 104.692 79.8333C104.692 81.214 103.573 82.3333 102.192 82.3333C100.812 82.3333 99.6923 81.214 99.6923 79.8333ZM74.7693 79.8333C74.7693 78.4526 75.8886 77.3333 77.2693 77.3333C78.65 77.3333 79.7693 78.4526 79.7693 79.8333C79.7693 81.214 78.65 82.3333 77.2693 82.3333C75.8886 82.3333 74.7693 81.214 74.7693 79.8333ZM49.8462 79.8333C49.8462 78.4526 50.9655 77.3333 52.3462 77.3333C53.7269 77.3333 54.8462 78.4526 54.8462 79.8333C54.8462 81.214 53.7269 82.3333 52.3462 82.3333C50.9655 82.3333 49.8462 81.214 49.8462 79.8333ZM24.9231 79.8333C24.9231 78.4526 26.0424 77.3333 27.4231 77.3333C28.8038 77.3333 29.9231 78.4526 29.9231 79.8333C29.9231 81.2141 28.8038 82.3333 27.4231 82.3333C26.0424 82.3333 24.9231 81.2141 24.9231 79.8333ZM326.5 51.5555C325.119 51.5555 324 52.6748 324 54.0555C324 55.4363 325.119 56.5555 326.5 56.5555C327.881 56.5555 329 55.4363 329 54.0555C329 52.6748 327.881 51.5555 326.5 51.5555ZM2.5 51.5556C1.11929 51.5556 -4.84639e-06 52.6749 -4.72569e-06 54.0556C-4.60498e-06 55.4363 1.11929 56.5556 2.5 56.5556C3.8807 56.5556 5 55.4363 5 54.0556C5 52.6749 3.8807 51.5556 2.5 51.5556ZM301.577 51.5555C300.196 51.5555 299.077 52.6748 299.077 54.0555C299.077 55.4363 300.196 56.5555 301.577 56.5555C302.958 56.5555 304.077 55.4363 304.077 54.0555C304.077 52.6748 302.958 51.5555 301.577 51.5555ZM276.654 51.5555C275.273 51.5555 274.154 52.6748 274.154 54.0555C274.154 55.4363 275.273 56.5555 276.654 56.5555C278.035 56.5555 279.154 55.4363 279.154 54.0555C279.154 52.6748 278.035 51.5555 276.654 51.5555ZM251.731 51.5555C250.35 51.5555 249.231 52.6748 249.231 54.0555C249.231 55.4363 250.35 56.5555 251.731 56.5555C253.111 56.5555 254.231 55.4363 254.231 54.0555C254.231 52.6748 253.111 51.5555 251.731 51.5555ZM226.808 51.5556C225.427 51.5556 224.308 52.6748 224.308 54.0556C224.308 55.4363 225.427 56.5556 226.808 56.5556C228.188 56.5556 229.308 55.4363 229.308 54.0556C229.308 52.6748 228.188 51.5556 226.808 51.5556ZM201.885 51.5556C200.504 51.5556 199.385 52.6748 199.385 54.0556C199.385 55.4363 200.504 56.5556 201.885 56.5556C203.265 56.5556 204.385 55.4363 204.385 54.0556C204.385 52.6748 203.265 51.5556 201.885 51.5556ZM176.962 51.5556C175.581 51.5556 174.462 52.6748 174.462 54.0556C174.462 55.4363 175.581 56.5556 176.962 56.5556C178.342 56.5556 179.462 55.4363 179.462 54.0556C179.462 52.6748 178.342 51.5556 176.962 51.5556ZM152.038 51.5556C150.658 51.5556 149.538 52.6748 149.538 54.0556C149.538 55.4363 150.658 56.5556 152.038 56.5556C153.419 56.5556 154.538 55.4363 154.538 54.0556C154.538 52.6748 153.419 51.5556 152.038 51.5556ZM127.115 51.5556C125.735 51.5556 124.615 52.6748 124.615 54.0556C124.615 55.4363 125.735 56.5556 127.115 56.5556C128.496 56.5556 129.615 55.4363 129.615 54.0556C129.615 52.6748 128.496 51.5556 127.115 51.5556ZM102.192 51.5556C100.812 51.5556 99.6923 52.6749 99.6923 54.0556C99.6923 55.4363 100.812 56.5556 102.192 56.5556C103.573 56.5556 104.692 55.4363 104.692 54.0556C104.692 52.6749 103.573 51.5556 102.192 51.5556ZM77.2693 51.5556C75.8886 51.5556 74.7693 52.6749 74.7693 54.0556C74.7693 55.4363 75.8886 56.5556 77.2693 56.5556C78.65 56.5556 79.7693 55.4363 79.7693 54.0556C79.7693 52.6749 78.65 51.5556 77.2693 51.5556ZM52.3462 51.5556C50.9655 51.5556 49.8462 52.6749 49.8462 54.0556C49.8462 55.4363 50.9655 56.5556 52.3462 56.5556C53.7269 56.5556 54.8462 55.4363 54.8462 54.0556C54.8462 52.6749 53.7269 51.5556 52.3462 51.5556ZM27.4231 51.5556C26.0424 51.5556 24.9231 52.6749 24.9231 54.0556C24.9231 55.4363 26.0424 56.5556 27.4231 56.5556C28.8038 56.5556 29.9231 55.4363 29.9231 54.0556C29.9231 52.6749 28.8038 51.5556 27.4231 51.5556ZM324 28.2777C324 26.897 325.119 25.7777 326.5 25.7777C327.881 25.7777 329 26.897 329 28.2777C329 29.6585 327.881 30.7777 326.5 30.7777C325.119 30.7777 324 29.6585 324 28.2777ZM-6.97925e-06 28.2778C-7.09996e-06 26.8971 1.11929 25.7778 2.49999 25.7778C3.8807 25.7778 4.99999 26.8971 4.99999 28.2778C4.99999 29.6585 3.8807 30.7778 2.49999 30.7778C1.11929 30.7778 -6.85855e-06 29.6585 -6.97925e-06 28.2778ZM299.077 28.2777C299.077 26.897 300.196 25.7777 301.577 25.7777C302.958 25.7777 304.077 26.897 304.077 28.2777C304.077 29.6585 302.958 30.7777 301.577 30.7777C300.196 30.7777 299.077 29.6585 299.077 28.2777ZM274.154 28.2777C274.154 26.897 275.273 25.7777 276.654 25.7777C278.035 25.7777 279.154 26.897 279.154 28.2777C279.154 29.6585 278.035 30.7777 276.654 30.7777C275.273 30.7777 274.154 29.6585 274.154 28.2777ZM249.231 28.2777C249.231 26.897 250.35 25.7777 251.731 25.7777C253.111 25.7777 254.231 26.897 254.231 28.2777C254.231 29.6585 253.111 30.7777 251.731 30.7777C250.35 30.7777 249.231 29.6585 249.231 28.2777ZM224.308 28.2777C224.308 26.897 225.427 25.7777 226.808 25.7777C228.188 25.7777 229.308 26.897 229.308 28.2777C229.308 29.6585 228.188 30.7777 226.808 30.7777C225.427 30.7777 224.308 29.6585 224.308 28.2777ZM199.385 28.2778C199.385 26.897 200.504 25.7778 201.885 25.7778C203.265 25.7778 204.385 26.897 204.385 28.2778C204.385 29.6585 203.265 30.7778 201.885 30.7778C200.504 30.7778 199.385 29.6585 199.385 28.2778ZM174.462 28.2778C174.462 26.897 175.581 25.7778 176.962 25.7778C178.342 25.7778 179.462 26.897 179.462 28.2778C179.462 29.6585 178.342 30.7778 176.962 30.7778C175.581 30.7778 174.462 29.6585 174.462 28.2778ZM149.538 28.2778C149.538 26.897 150.658 25.7778 152.038 25.7778C153.419 25.7778 154.538 26.897 154.538 28.2778C154.538 29.6585 153.419 30.7778 152.038 30.7778C150.658 30.7778 149.538 29.6585 149.538 28.2778ZM124.615 28.2778C124.615 26.897 125.735 25.7778 127.115 25.7778C128.496 25.7778 129.615 26.897 129.615 28.2778C129.615 29.6585 128.496 30.7778 127.115 30.7778C125.735 30.7778 124.615 29.6585 124.615 28.2778ZM99.6923 28.2778C99.6923 26.897 100.812 25.7778 102.192 25.7778C103.573 25.7778 104.692 26.897 104.692 28.2778C104.692 29.6585 103.573 30.7778 102.192 30.7778C100.812 30.7778 99.6923 29.6585 99.6923 28.2778ZM74.7693 28.2778C74.7693 26.897 75.8886 25.7778 77.2693 25.7778C78.65 25.7778 79.7693 26.897 79.7693 28.2778C79.7693 29.6585 78.65 30.7778 77.2693 30.7778C75.8886 30.7778 74.7693 29.6585 74.7693 28.2778ZM49.8462 28.2778C49.8462 26.8971 50.9655 25.7778 52.3462 25.7778C53.7269 25.7778 54.8462 26.8971 54.8462 28.2778C54.8462 29.6585 53.7269 30.7778 52.3462 30.7778C50.9655 30.7778 49.8462 29.6585 49.8462 28.2778ZM24.9231 28.2778C24.9231 26.8971 26.0424 25.7778 27.4231 25.7778C28.8038 25.7778 29.9231 26.8971 29.9231 28.2778C29.9231 29.6585 28.8038 30.7778 27.4231 30.7778C26.0424 30.7778 24.9231 29.6585 24.9231 28.2778ZM326.5 -3.0299e-05C325.119 -3.01783e-05 324 1.11926 324 2.49997C324 3.88068 325.119 4.99997 326.5 4.99997C327.881 4.99997 329 3.88068 329 2.49997C329 1.11926 327.881 -3.04197e-05 326.5 -3.0299e-05ZM2.49999 -1.97404e-06C1.11928 -1.85334e-06 -9.35352e-06 1.11928 -9.23282e-06 2.5C-9.11211e-06 3.88071 1.11928 5 2.49999 5C3.8807 5 4.99999 3.88071 4.99999 2.5C4.99999 1.11928 3.8807 -2.09475e-06 2.49999 -1.97404e-06ZM301.577 -2.81202e-05C300.196 -2.79995e-05 299.077 1.11926 299.077 2.49997C299.077 3.88069 300.196 4.99997 301.577 4.99997C302.958 4.99997 304.077 3.88069 304.077 2.49997C304.077 1.11926 302.958 -2.82409e-05 301.577 -2.81202e-05ZM276.654 -2.59413e-05C275.273 -2.58206e-05 274.154 1.11926 274.154 2.49997C274.154 3.88069 275.273 4.99997 276.654 4.99997C278.035 4.99997 279.154 3.88069 279.154 2.49997C279.154 1.11926 278.035 -2.6062e-05 276.654 -2.59413e-05ZM251.731 -2.37625e-05C250.35 -2.36418e-05 249.231 1.11926 249.231 2.49998C249.231 3.88069 250.35 4.99998 251.731 4.99998C253.111 4.99998 254.231 3.88069 254.231 2.49998C254.231 1.11926 253.111 -2.38832e-05 251.731 -2.37625e-05ZM226.808 -2.15836e-05C225.427 -2.14629e-05 224.308 1.11926 224.308 2.49998C224.308 3.88069 225.427 4.99998 226.808 4.99998C228.188 4.99998 229.308 3.88069 229.308 2.49998C229.308 1.11926 228.188 -2.17044e-05 226.808 -2.15836e-05ZM201.885 -1.94048e-05C200.504 -1.92841e-05 199.385 1.11927 199.385 2.49998C199.385 3.8807 200.504 4.99998 201.885 4.99998C203.265 4.99998 204.385 3.88069 204.385 2.49998C204.385 1.11927 203.265 -1.95255e-05 201.885 -1.94048e-05ZM176.962 -1.7226e-05C175.581 -1.71052e-05 174.462 1.11927 174.462 2.49998C174.462 3.8807 175.581 4.99998 176.962 4.99998C178.342 4.99998 179.462 3.8807 179.462 2.49998C179.462 1.11927 178.342 -1.73467e-05 176.962 -1.7226e-05ZM152.038 -1.50471e-05C150.658 -1.49264e-05 149.538 1.11927 149.538 2.49999C149.538 3.8807 150.658 4.99999 152.038 4.99998C153.419 4.99998 154.538 3.8807 154.538 2.49998C154.538 1.11927 153.419 -1.51678e-05 152.038 -1.50471e-05ZM127.115 -1.28683e-05C125.735 -1.27476e-05 124.615 1.11927 124.615 2.49999C124.615 3.8807 125.735 4.99999 127.115 4.99999C128.496 4.99999 129.615 3.8807 129.615 2.49999C129.615 1.11927 128.496 -1.2989e-05 127.115 -1.28683e-05ZM102.192 -1.06894e-05C100.812 -1.05687e-05 99.6923 1.11928 99.6923 2.49999C99.6923 3.8807 100.812 4.99999 102.192 4.99999C103.573 4.99999 104.692 3.8807 104.692 2.49999C104.692 1.11927 103.573 -1.08101e-05 102.192 -1.06894e-05ZM77.2693 -8.51058e-06C75.8886 -8.38988e-06 74.7693 1.11928 74.7693 2.49999C74.7693 3.88071 75.8886 4.99999 77.2693 4.99999C78.65 4.99999 79.7693 3.88071 79.7693 2.49999C79.7693 1.11928 78.65 -8.63129e-06 77.2693 -8.51058e-06ZM52.3462 -6.33173e-06C50.9655 -6.21103e-06 49.8462 1.11928 49.8462 2.49999C49.8462 3.88071 50.9655 4.99999 52.3462 4.99999C53.7269 4.99999 54.8462 3.88071 54.8462 2.49999C54.8462 1.11928 53.7269 -6.45244e-06 52.3462 -6.33173e-06ZM27.4231 -4.15289e-06C26.0424 -4.03218e-06 24.9231 1.11928 24.9231 2.5C24.9231 3.88071 26.0424 5 27.4231 5C28.8038 5 29.9231 3.88071 29.9231 2.5C29.9231 1.11928 28.8038 -4.27359e-06 27.4231 -4.15289e-06Z" fill="white"/>
</svg>
