<svg width="38" height="38" viewBox="0 0 38 38" fill="none" xmlns="http://www.w3.org/2000/svg">
<g clip-path="url(#clip0)">
<path d="M13.5545 11.5481C16.1745 11.5481 18.2985 9.42411 18.2985 6.80409C18.2985 4.18407 16.1745 2.06012 13.5545 2.06012C10.9345 2.06012 8.81055 4.18407 8.81055 6.80409C8.81055 9.42411 10.9345 11.5481 13.5545 11.5481Z" fill="#4759A4"/>
<path d="M8.22691 20.7603C7.77076 19.3455 7.46016 17.8879 7.2998 16.41L12.3745 21.4807L8.7149 24.874C8.89928 23.4835 8.73149 22.069 8.22691 20.7603Z" fill="#4759A4"/>
<path d="M3.41449 37.722C3.2657 37.8828 3.05749 37.9756 2.83841 37.9789C2.62142 37.9743 2.41359 37.8904 2.25419 37.743L0.235996 35.7268C0.0812976 35.5726 -0.00386903 35.362 0.000135073 35.1436C0.00407562 34.9252 0.0968691 34.7178 0.257033 34.5693L13.3335 22.4382L15.5564 24.6591L10.2025 30.4156C10.1916 30.4278 10.1801 30.4373 10.1706 30.4502L3.41449 37.722Z" fill="#4759A4"/>
<path d="M13.1211 29.2696L16.515 25.6181L21.5863 30.6853C20.1091 30.5246 18.652 30.2142 17.2374 29.7589C15.9271 29.2575 14.5126 29.0894 13.1211 29.2696Z" fill="#4759A4"/>
<path d="M36.9083 18.1273C34.2923 23.9014 29.2698 30.623 23.6374 30.8182L7.16895 14.362C7.2482 12.8796 7.69844 11.4409 8.47829 10.1778C9.78629 12.1514 12.119 13.1888 14.4606 12.8384C16.8022 12.4879 18.729 10.813 19.4019 8.54291C20.0747 6.27284 19.372 3.81852 17.5996 2.24859C18.3404 1.84736 19.096 1.46112 19.8733 1.11003C24.6953 -1.06884 28.5941 -0.0292318 33.3259 4.6951C38.0577 9.41943 39.0898 13.3047 36.9083 18.1273Z" fill="#3DACE3"/>
</g>
<defs>
<clipPath id="clip0">
<rect width="38" height="38" fill="white"/>
</clipPath>
</defs>
</svg>
