<svg width="40" height="40" viewBox="0 0 40 40" fill="none" xmlns="http://www.w3.org/2000/svg">
<path d="M34.9219 4.84375H5.07812C2.27814 4.84375 0 7.12189 0 9.92188V26.2759C0 27.6938 0.58075 28.9868 1.63513 29.917C2.70111 30.8572 4.15283 31.3541 5.83344 31.3541H16.1111L20.0095 35.1633L23.8187 31.3541H34.9219C37.7219 31.3541 40 29.0762 40 26.2759V9.92188C40 7.12189 37.7219 4.84375 34.9219 4.84375V4.84375ZM32.0224 14.5718H34.6124L31.7905 17.6758L34.7534 21.6263H32.0023L30.2386 19.2883L29.7043 19.8828V21.6263H27.3663V14.5718H29.7043V17.1317L32.0224 14.5718ZM21.4203 16.3657V14.5718H25.0079V21.6263H22.6297V16.3657H21.4203ZM18.0951 18.6444L12.2318 24.5074L6.36841 18.6444C4.89105 17.1671 4.89105 14.7632 6.36841 13.2858C7.08405 12.5699 8.03558 12.1759 9.04785 12.1759C10.0598 12.1759 11.0114 12.5699 11.727 13.2858L12.2318 13.7903L12.7365 13.2858C13.4521 12.5699 14.4037 12.1759 15.4156 12.1759C16.4279 12.1759 17.3795 12.5699 18.0951 13.2858C19.5724 14.7632 19.5724 17.1671 18.0951 18.6444Z" fill="#4759A4"/>
<path d="M15.4161 14.5197C15.03 14.5197 14.6672 14.6698 14.3941 14.9429L12.2322 17.1048L10.0703 14.9429C9.78865 14.6613 9.41847 14.5203 9.04829 14.5203C8.67812 14.5203 8.30794 14.6613 8.02626 14.9429C7.4626 15.5066 7.4626 16.4236 8.02626 16.987L12.2322 21.1929L16.4381 16.987C17.0018 16.4236 17.0018 15.5066 16.4381 14.9429C16.1653 14.6701 15.8021 14.5197 15.4161 14.5197Z" fill="#3DACE3"/>
</svg>
