<svg width="42" height="42" viewBox="0 0 42 42" fill="none" xmlns="http://www.w3.org/2000/svg">
<path d="M38.1337 2.625H19.6815C17.5461 2.625 15.8154 4.35599 15.8154 6.49104V15.5802C16.7908 16.065 17.8447 16.5892 18.8285 17.0782L20.3336 14.0668C21.2449 12.2457 23.4664 11.5058 25.2868 12.4156C27.1111 13.3285 27.8503 15.544 26.9371 17.3685L24.2541 22.7358C24.3252 23.4462 24.2621 24.1624 24.0618 24.8555H25.8332L21.1612 37.7023C20.8841 38.4643 21.4198 39.3535 22.318 39.3535C22.8201 39.3535 23.2925 39.0437 23.4738 38.5432L28.4514 24.8555H29.3137L34.342 38.5473C34.525 39.0453 34.996 39.3535 35.4978 39.3535C36.337 39.3535 36.9523 38.5153 36.652 37.6991L31.9352 24.8555H38.1337C40.2688 24.8555 41.9997 23.1245 41.9997 20.9894V6.49104C41.9997 4.35599 40.2688 2.625 38.1337 2.625V2.625ZM35.4972 19.584H29.9764C29.2971 19.584 28.7459 19.0329 28.7459 18.3535C28.7459 17.6736 29.2971 17.1231 29.9764 17.1231H35.4972C36.1771 17.1231 36.7276 17.6736 36.7276 18.3535C36.7276 19.0329 36.1771 19.584 35.4972 19.584ZM35.4972 14.9707H29.9764C29.2971 14.9707 28.7459 14.4202 28.7459 13.7402C28.7459 13.0609 29.2971 12.5098 29.9764 12.5098H35.4972C36.1771 12.5098 36.7276 13.0609 36.7276 13.7402C36.7276 14.4202 36.1771 14.9707 35.4972 14.9707ZM35.4972 10.358H22.318C21.638 10.358 21.0875 9.8069 21.0875 9.12758C21.0875 8.44826 21.638 7.89711 22.318 7.89711H35.4972C36.1771 7.89711 36.7276 8.44826 36.7276 9.12758C36.7276 9.8069 36.1771 10.358 35.4972 10.358Z" fill="#4759A4"/>
<path d="M21.6498 24.3277C21.8722 23.6763 21.8706 22.9957 21.6828 22.3747L24.7366 16.2678C25.0404 15.66 24.7943 14.9207 24.1864 14.6169C23.5789 14.3129 22.8396 14.5593 22.5355 15.1671L19.931 20.3755C18.3744 19.6003 16.0092 18.4243 14.1039 17.4768C12.3313 16.5953 11.0662 15.8048 8.90776 15.8048H7.82053C9.50121 15.8048 11.0012 15.0313 11.983 13.8207C12.7321 12.8994 13.1801 11.7253 13.1801 10.4458C13.1801 7.48535 10.7807 5.08594 7.81989 5.08594C4.86035 5.08594 2.46094 7.48535 2.46094 10.4458C2.46094 11.8676 3.01465 13.1596 3.91795 14.1183C4.89464 15.1569 6.2818 15.8048 7.81956 15.8051C5.75789 15.8051 3.74236 16.6405 2.29239 18.0943C0.814224 19.5686 0 21.5329 0 23.6253V27.5792C0 29.2813 1.10518 30.7297 2.63589 31.2449V38.1227C2.63589 38.8024 3.18672 39.3532 3.86636 39.3532H11.774C12.4537 39.3532 13.0045 38.8024 13.0045 38.1227V24.2976C14.1712 24.8808 15.7039 25.6469 16.9439 26.2673C17.8133 26.7018 18.8291 26.7409 19.7349 26.3724C20.6382 26.0007 21.3345 25.2608 21.645 24.3421C21.6466 24.3373 21.6482 24.3325 21.6498 24.3277Z" fill="#3DACE3"/>
</svg>
