<svg width="424" height="375" viewBox="0 0 424 375" fill="none" xmlns="http://www.w3.org/2000/svg">
<mask id="mask0" mask-type="alpha" maskUnits="userSpaceOnUse" x="57" y="0" width="313" height="313">
<path fill-rule="evenodd" clip-rule="evenodd" d="M213.5 313C299.933 313 370 242.933 370 156.5C370 70.0674 299.933 0 213.5 0C127.067 0 57 70.0674 57 156.5C57 242.933 127.067 313 213.5 313ZM213.5 226C251.884 226 283 194.884 283 156.5C283 118.116 251.884 87 213.5 87C175.116 87 144 118.116 144 156.5C144 194.884 175.116 226 213.5 226Z" fill="#C4C4C4"/>
</mask>
<g mask="url(#mask0)">
<path d="M214 156L313 293L214 330L105 293L214 156Z" fill="#3DACE3"/>
<path d="M209.815 249V252.086H212.901V253.63C213.982 253.475 214.908 253.475 215.988 253.63V252.086H219.074V249H209.815Z" fill="white"/>
<path d="M224.939 259.185L226.019 258.104L227.254 259.339L229.414 257.179L224.784 252.549L222.624 254.709L223.858 255.944L222.47 257.333C215.062 252.857 205.494 255.172 201.173 262.58C196.852 269.987 199.167 279.247 206.42 283.722C213.673 288.198 223.241 285.883 227.562 278.475C231.42 272.148 230.34 264.123 224.939 259.185ZM214.445 281.253C208.426 281.253 203.642 276.469 203.642 270.45C203.642 264.432 208.426 259.648 214.445 259.648V270.45H225.247C225.247 276.469 220.463 281.253 214.445 281.253Z" fill="white"/>
<path d="M214 157V-8L109 23L45 102L214 157Z" fill="#363F6A"/>
<path d="M215 157C182.333 201 115.8 291 111 295C88.3332 271.333 41.5999 223.8 35.9999 223C30.3999 222.2 42.6667 142 50 103L215 157Z" fill="#4B96C7"/>
<path d="M98.7055 203.164L104.956 199.459L115.089 205.539V200.287L108.881 196.562C108.542 196.359 108.334 195.992 108.334 195.597V187.976L103.831 185.273V197.509L97.5466 201.234C97.0134 201.554 96.8408 202.245 97.1607 202.779C97.4813 203.313 98.1737 203.483 98.7055 203.164Z" fill="white"/>
<path d="M121.224 195.332L116.215 192.327L111.207 195.332L116.215 198.337L121.224 195.332Z" fill="white"/>
<path d="M109.333 185.95L115.636 182.168C115.654 182.158 115.675 182.162 115.693 182.152C115.851 182.068 116.024 182.008 116.215 182.008C116.407 182.008 116.579 182.068 116.737 182.152C116.755 182.162 116.777 182.158 116.795 182.168L123.098 185.95L127.474 183.324L117.341 177.244V171.126C117.341 170.504 116.838 170 116.215 170C115.593 170 115.089 170.504 115.089 171.126V177.244L104.956 183.324L109.333 185.95Z" fill="white"/>
<path d="M121.845 187.824L117.341 185.122V190.377L121.845 193.079V187.824Z" fill="white"/>
<path d="M124.097 187.976V195.597C124.097 195.993 123.889 196.359 123.55 196.562L117.341 200.287V205.539L127.474 199.459L133.725 203.165C134.257 203.484 134.949 203.313 135.27 202.779C135.59 202.245 135.417 201.554 134.884 201.234L128.6 197.509V185.273L124.097 187.976Z" fill="white"/>
<path d="M110.586 187.824V193.079L115.089 190.377V185.122L110.586 187.824Z" fill="white"/>
<path d="M213.5 157L389 99.5L373.5 207L315 297.5L213.5 157Z" fill="#5D70C1"/>
<path d="M214 157.5V-7L319.5 21L391 100.5L214 157.5Z" fill="#4759A4"/>
<path d="M155.059 60.9412V63.8824H153.588V60.9412H152.118V59.4706H153.588V60.9412H155.059V58H150.647V60.9412H147.706V63.8824H146.235V60.9412H144.765V59.4706H146.235V60.9412H147.706V58H143.294V60.9412H140.353V63.8824H138.882V60.9412H137.412V59.4706H138.882V60.9412H140.353V58H135.941V60.9412H133V65.353H158V60.9412H155.059Z" fill="white"/>
<path d="M133 82.9998H158V66.8232H133V82.9998ZM141.608 78.8034L140.568 79.8433L139.618 78.8926L138.667 79.8433L137.627 78.8034L138.578 77.8527L137.627 76.902L138.667 75.8622L139.618 76.8129L140.568 75.8622L141.608 76.902L140.658 77.8527L141.608 78.8034ZM149.392 71.0196L150.432 69.9798L151.382 70.9305L152.333 69.9798L153.373 71.0196L152.422 71.9703L153.373 72.921L152.333 73.9609L151.382 73.0102L150.432 73.9609L149.392 72.921L150.343 71.9703L149.392 71.0196ZM149.177 75.6468H153.588V80.0586H149.177V75.6468ZM143.51 71.0196L144.549 69.9798L145.5 70.9305L146.451 69.9798L147.491 71.0196L146.54 71.9703L147.491 72.921L146.451 73.9609L145.5 73.0102L144.549 73.9609L143.51 72.921L144.46 71.9703L143.51 71.0196ZM143.51 76.902L144.549 75.8622L145.5 76.8129L146.451 75.8622L147.491 76.902L146.54 77.8527L147.491 78.8034L146.451 79.8433L145.5 78.8926L144.549 79.8433L143.51 78.8034L144.46 77.8527L143.51 76.902ZM137.412 69.7644H141.824V74.1762H137.412V69.7644Z" fill="white"/>
<path d="M150.647 77.1182H152.118V78.5888H150.647V77.1182Z" fill="white"/>
<path d="M138.882 71.2354H140.353V72.706H138.882V71.2354Z" fill="white"/>
<path d="M272.596 79.7715C271.095 79.7715 269.875 80.9923 269.875 82.493C269.875 83.9936 271.095 85.2144 272.596 85.2144C273.777 85.2144 274.775 84.4537 275.15 83.4001L280.928 83.4001C281.303 84.4537 282.301 85.2144 283.482 85.2144C284.663 85.2144 285.661 84.4537 286.036 83.4001L291.814 83.4001C292.189 84.4537 293.187 85.2144 294.368 85.2144C295.869 85.2144 297.089 83.9936 297.089 82.493C297.089 80.9923 295.869 79.7715 294.368 79.7715C293.187 79.7715 292.189 80.5322 291.814 81.5858L286.036 81.5858C285.661 80.5322 284.663 79.7715 283.482 79.7715C282.301 79.7715 281.303 80.5322 280.928 81.5858L275.15 81.5858C274.775 80.5322 273.777 79.7715 272.596 79.7715Z" fill="white"/>
<path d="M277.132 77.0496L277.132 62.5351C277.132 62.0337 276.726 61.6279 276.225 61.6279L268.907 61.6279C268.406 61.6279 268 62.0337 268 62.5351L268 77.0496C268 77.551 268.406 77.9568 268.907 77.9568L276.225 77.9568C276.726 77.9568 277.132 77.551 277.132 77.0496ZM271.689 66.1637C271.689 65.6627 272.095 65.2566 272.596 65.2566C273.097 65.2566 273.503 65.6627 273.503 66.1637C273.503 66.6647 273.097 67.0709 272.596 67.0709C272.095 67.0709 271.689 66.6647 271.689 66.1637ZM271.689 73.421L271.689 69.7923C271.689 69.2909 272.095 68.8852 272.596 68.8852C273.098 68.8852 273.503 69.2909 273.503 69.7923L273.503 73.421C273.503 73.9224 273.098 74.3281 272.596 74.3281C272.095 74.3281 271.689 73.9224 271.689 73.421Z" fill="white"/>
<path d="M287.111 58L279.853 58C279.352 58 278.946 58.4057 278.946 58.9072L278.946 77.0503C278.946 77.5517 279.352 77.9575 279.853 77.9575L287.111 77.9575C287.612 77.9575 288.018 77.5517 288.018 77.0503L288.018 58.9072C288.018 58.4057 287.612 58 287.111 58ZM284.389 66.1644L284.389 73.4217C284.389 73.9231 283.983 74.3288 283.482 74.3288C282.981 74.3288 282.575 73.9231 282.575 73.4217L282.575 66.1644C282.575 65.663 282.981 65.2573 283.482 65.2573C283.983 65.2573 284.389 65.663 284.389 66.1644ZM284.389 62.5358C284.389 63.0368 283.983 63.4429 283.482 63.4429C282.981 63.4429 282.575 63.0368 282.575 62.5358C282.575 62.0348 282.981 61.6286 283.482 61.6286C283.983 61.6286 284.389 62.0348 284.389 62.5358Z" fill="white"/>
<path d="M289.832 77.0496C289.832 77.551 290.238 77.9568 290.739 77.9568L298.057 77.9568C298.558 77.9568 298.964 77.551 298.964 77.0496L298.964 62.5351C298.964 62.0337 298.558 61.6279 298.057 61.6279L290.739 61.6279C290.238 61.6279 289.832 62.0337 289.832 62.5351L289.832 77.0496ZM295.275 69.7923L295.275 73.421C295.275 73.9224 294.869 74.3281 294.368 74.3281C293.866 74.3281 293.461 73.9224 293.461 73.421L293.461 69.7923C293.461 69.2909 293.866 68.8852 294.368 68.8852C294.869 68.8852 295.275 69.2909 295.275 69.7923ZM295.275 66.1637C295.275 66.6647 294.869 67.0709 294.368 67.0709C293.867 67.0709 293.461 66.6647 293.461 66.1637C293.461 65.6627 293.867 65.2566 294.368 65.2566C294.869 65.2566 295.275 65.6627 295.275 66.1637Z" fill="white"/>
<path d="M334.15 199.278C333.961 199.278 333.774 199.215 333.62 199.092L328.296 194.844C328.094 194.683 327.977 194.439 327.977 194.18V188.019C327.977 187.76 328.094 187.516 328.296 187.354L333.62 183.106C333.876 182.903 334.225 182.863 334.519 183.005C334.813 183.147 335 183.444 335 183.771V198.428C335 198.755 334.813 199.052 334.519 199.194C334.402 199.25 334.276 199.278 334.15 199.278Z" fill="white"/>
<path d="M310.645 180.273H322.029C322.498 180.273 322.879 180.655 322.879 181.123V181.464H324.578V181.123C324.578 179.718 323.435 178.574 322.029 178.574H310.645C310.176 178.574 309.795 178.955 309.795 179.424C309.795 179.893 310.176 180.273 310.645 180.273Z" fill="white"/>
<path d="M311.098 188.261H316.732V191.874H311.098V188.261Z" fill="white"/>
<path d="M323.729 183.163H308.549C307.144 183.163 306 184.306 306 185.712V196.487C306 197.892 307.144 199.036 308.549 199.036H323.729C325.134 199.036 326.277 197.892 326.277 196.487V185.712C326.277 184.306 325.134 183.163 323.729 183.163ZM318.431 192.724C318.431 193.193 318.05 193.573 317.581 193.573H310.248C309.779 193.573 309.399 193.193 309.399 192.724V187.411C309.399 186.942 309.779 186.561 310.248 186.561H317.581C318.05 186.561 318.431 186.942 318.431 187.411V192.724ZM321.01 192.761C320.541 192.761 320.16 192.38 320.16 191.911C320.16 191.442 320.541 191.062 321.01 191.062C321.479 191.062 321.859 191.442 321.859 191.911C321.859 192.38 321.479 192.761 321.01 192.761ZM321.01 189.073C320.541 189.073 320.16 188.693 320.16 188.223C320.16 187.754 320.541 187.374 321.01 187.374C321.479 187.374 321.859 187.754 321.859 188.223C321.859 188.693 321.479 189.073 321.01 189.073Z" fill="white"/>
</g>
<line x1="212.5" y1="375" x2="212.5" y2="331" stroke="#5D70C1"/>
<path d="M0 254H29L57 226" stroke="#5D70C1"/>
<path d="M424 254H395L367 226" stroke="#5D70C1"/>
<path d="M0 38H29L57 66" stroke="#5D70C1"/>
<path d="M424 38H395L367 66" stroke="#5D70C1"/>
<circle cx="57" cy="68" r="6" fill="#5D70C1"/>
<circle cx="367" cy="68" r="6" fill="#5D70C1"/>
<circle cx="57" cy="228" r="6" fill="#5D70C1"/>
<circle cx="367" cy="228" r="6" fill="#5D70C1"/>
<circle cx="213" cy="331" r="6" fill="#5D70C1"/>
</svg>
