<svg width="43" height="43" viewBox="0 0 43 43" fill="none" xmlns="http://www.w3.org/2000/svg">
<path d="M17.2917 14.3648L9.14258 17.5262V26.9425L17.2917 30.1039C17.5633 30.2093 17.8452 29.9785 17.8452 29.6505V14.8182C17.8452 14.4902 17.5633 14.2594 17.2917 14.3648Z" fill="#4759A4"/>
<path d="M4.11791 27.9425C4.09278 27.9425 4.06795 27.9408 4.04297 27.9403V34.2401C4.04297 35.1803 4.70918 35.943 5.53165 35.9442C5.54605 35.9442 5.56038 35.9442 5.57478 35.9443C6.39879 35.9456 7.06743 35.1822 7.06743 34.2402V27.9426L4.11791 27.9425Z" fill="#4759A4"/>
<path d="M18.9713 19.47H18.7197V25.0018H18.9713C19.5392 25.0018 19.9996 24.4755 19.9996 23.8263V20.6455C19.9996 19.9964 19.5393 19.47 18.9713 19.47Z" fill="#4759A4"/>
<path d="M4.11862 17.5261C1.84397 17.5261 0 19.6341 0 22.2343C0 24.8345 1.84397 26.9425 4.11862 26.9425H9.14302V17.5261C8.92695 17.5261 4.31963 17.5261 4.11862 17.5261Z" fill="#4759A4"/>
<path d="M4.11791 26.9425C4.09278 26.9425 4.06795 26.9408 4.04297 26.9403V26.9425H4.11791Z" fill="#4759A4"/>
<path d="M36.1829 14.6831C33.0162 14.6831 30.3544 16.8426 29.5883 19.769L27.1686 21.0373C26.7954 21.2329 26.7954 21.7671 27.1686 21.9627L29.5883 23.2309C30.3545 26.1574 33.0162 28.3169 36.1829 28.3169C39.9477 28.3169 42.9998 25.2649 42.9998 21.4999C42.9998 17.7352 39.9477 14.6831 36.1829 14.6831Z" fill="#3DACE3"/>
<path d="M34.2774 2.16909C31.6153 -0.493049 27.299 -0.493049 24.6369 2.16909C22.3977 4.40828 22.0425 7.81746 23.5702 10.4284L22.7559 13.0362C22.6303 13.4384 23.0081 13.8162 23.4103 13.6907L26.0181 12.8763C28.6291 14.404 32.0382 14.0488 34.2774 11.8097C36.9395 9.14752 36.9395 4.83131 34.2774 2.16909Z" fill="#3DACE3"/>
<path d="M26.5358 10.5498C26.3687 10.5498 26.2015 10.4861 26.074 10.3586C25.8191 10.1035 25.8191 9.69005 26.074 9.43499L31.8612 3.64771C32.1163 3.39282 32.5298 3.39282 32.7848 3.64771C33.0398 3.90277 33.0398 4.31623 32.7848 4.57129L26.9976 10.3586C26.87 10.4861 26.7029 10.5498 26.5358 10.5498Z" fill="white"/>
<path d="M27.2122 6.43053C26.2041 6.43053 25.3838 5.61025 25.3838 4.60211C25.3838 3.59396 26.2041 2.77368 27.2122 2.77368C28.2204 2.77368 29.0406 3.59396 29.0406 4.60211C29.0406 5.61025 28.2204 6.43053 27.2122 6.43053ZM27.2122 4.07964C26.9241 4.07964 26.6898 4.31396 26.6898 4.60202C26.6898 4.89009 26.9241 5.1244 27.2122 5.1244C27.5003 5.1244 27.7346 4.89009 27.7346 4.60202C27.7347 4.31404 27.5004 4.07964 27.2122 4.07964Z" fill="white"/>
<path d="M31.7073 11.1711C30.6992 11.1711 29.8789 10.3509 29.8789 9.34271C29.8789 8.33456 30.6992 7.51428 31.7073 7.51428C32.7155 7.51428 33.5358 8.33456 33.5358 9.34271C33.5358 10.3509 32.7155 11.1711 31.7073 11.1711ZM31.7073 8.82032C31.4193 8.82032 31.1849 9.05464 31.1849 9.34271C31.1849 9.63077 31.4193 9.86509 31.7073 9.86509C31.9954 9.86509 32.2297 9.63077 32.2297 9.34271C32.2297 9.05464 31.9954 8.82032 31.7073 8.82032Z" fill="white"/>
<path d="M34.5245 31.1904C32.2853 28.9512 28.8761 28.596 26.2651 30.1237L23.6573 29.3094C23.2551 29.1838 22.8774 29.5615 23.0029 29.9638L23.8172 32.5716C22.2896 35.1827 22.6447 38.5918 24.8839 40.8309C27.5461 43.4931 31.8624 43.4931 34.5245 40.8309C37.1867 38.1687 37.1867 33.8525 34.5245 31.1904Z" fill="#3DACE3"/>
<path d="M37.1754 20.9417C37.0695 20.9027 36.9646 20.8632 36.8615 20.8237V18.7823C37.3991 18.939 37.7731 19.2378 37.7863 19.2485C38.0625 19.4784 38.4726 19.442 38.704 19.1668C38.936 18.8907 38.9004 18.4787 38.6243 18.2467C38.5818 18.2111 37.8761 17.6291 36.8615 17.4399V16.7968C36.8615 16.4361 36.5692 16.1439 36.2085 16.1439C35.8478 16.1439 35.5556 16.4362 35.5556 16.7968V17.4544C35.4729 17.4722 35.3897 17.4925 35.3054 17.5178C34.429 17.7819 33.8094 18.4694 33.6884 19.312C33.5757 20.0976 33.9158 20.8531 34.5764 21.2838C34.6053 21.3027 34.6356 21.3191 34.667 21.3332C34.691 21.3439 35.0448 21.5013 35.5556 21.7108V24.1967C35.1104 24.0645 34.7103 23.8239 34.4162 23.4994C34.1741 23.2321 33.7611 23.2118 33.4938 23.4539C33.2266 23.6961 33.2063 24.1091 33.4484 24.3763C33.9835 24.9669 34.7374 25.3761 35.5556 25.5391V26.2033C35.5556 26.564 35.8479 26.8562 36.2085 26.8562C36.5692 26.8562 36.8615 26.5639 36.8615 26.2033V25.5742C37.9711 25.3833 38.8736 24.5888 39.0541 23.5779C39.2115 22.6966 38.8005 21.5412 37.1754 20.9417ZM35.2529 20.1642C34.8136 19.8386 34.8749 19.1001 35.5555 18.8141V20.295C35.4169 20.2358 35.3115 20.19 35.2529 20.1642ZM37.7684 23.3484C37.7039 23.7098 37.3652 24.08 36.8615 24.2357V22.2215C37.5187 22.4981 37.8477 22.904 37.7684 23.3484Z" fill="white"/>
<path d="M33.4059 35.4325C33.2249 35.226 32.9635 35.1076 32.6889 35.1076H32.15V34.2752C32.15 32.9311 31.0565 31.8376 29.7124 31.8376C28.3683 31.8376 27.2747 32.9311 27.2747 34.2752V35.1076H26.7171C26.4424 35.1076 26.1812 35.226 26.0001 35.4325C25.8191 35.6391 25.7359 35.9137 25.7719 36.186V36.1859L26.1932 39.3741C26.2556 39.8465 26.6619 40.2027 27.1384 40.2027H32.2676C32.7441 40.2027 33.1505 39.8465 33.2129 39.3742L33.6341 36.186C33.6701 35.9137 33.5869 35.6391 33.4059 35.4325ZM28.5808 34.2752C28.5808 33.6512 29.0884 33.1436 29.7124 33.1436C30.3364 33.1436 30.844 33.6512 30.844 34.2752V35.1076H28.5808V34.2752ZM27.0667 36.0148V36.0147C27.0667 36.0149 27.0667 36.0151 27.0668 36.0152L27.0667 36.0148ZM31.9585 38.8966H27.4475L27.1194 36.4136H32.2867L31.9585 38.8966Z" fill="white"/>
</svg>
