<svg width="39" height="39" viewBox="0 0 39 39" fill="none" xmlns="http://www.w3.org/2000/svg">
<g clip-path="url(#clip0)">
<path d="M15.6842 11.0429C15.7757 12.3625 17.2835 13.0851 18.3733 12.3354C19.3319 11.6755 20.6405 12.3628 20.6405 13.5276V18.3195H24.2304C23.5929 15.7161 25.6571 13.1798 28.4028 13.3694C30.8187 13.5369 32.6103 15.8631 32.007 18.3195H35.6332C38.6674 13.7319 35.6116 7.09463 29.6988 6.79101C30.3674 3.26036 27.6451 0.00592041 24.0774 0.00592041C22.7887 0.00592041 21.5981 0.434311 20.6405 1.15596V8.30797C20.6405 9.47187 19.3329 10.1604 18.3731 9.50013C17.207 8.69789 15.5831 9.58407 15.6842 11.0429Z" fill="#3DACE3"/>
<path d="M8.26674 18.3196C9.43087 18.3196 10.1192 19.6276 9.45875 20.5872C8.66024 21.7475 9.53698 23.3764 11.002 23.2752C12.3246 23.1835 13.0436 21.6746 12.2949 20.5869C11.6347 19.6277 12.3227 18.3196 13.4871 18.3196H18.3561V14.8047C15.8941 15.4095 13.5724 13.6111 13.4052 11.2009C13.2156 8.46673 15.7413 6.38883 18.3561 7.02906V1.15605C14.257 -1.93318 8.38473 1.59419 9.28424 6.71546C3.33621 7.03149 0.326125 13.6832 3.38663 18.3196H8.26674Z" fill="#3C64B1"/>
<path d="M35.5949 20.6041H30.7299C29.5652 20.6041 28.8775 19.2959 29.5377 18.3368C30.287 17.2486 29.5661 15.7402 28.2449 15.6485C26.7801 15.5468 25.9028 17.1758 26.7016 18.3365C27.3619 19.2962 26.674 20.6041 25.5096 20.6041H20.6406V24.1171C23.2479 23.4787 25.7815 25.548 25.5915 28.2889C25.4242 30.7 23.1019 32.4969 20.6406 31.8927V37.844C24.7397 40.9332 30.612 37.4059 29.7125 32.2846C35.5175 31.976 38.7442 25.4634 35.5949 20.6041Z" fill="#3C64B1"/>
<path d="M23.3122 28.1308C23.4133 26.6727 21.7895 25.7857 20.6234 26.5882C19.6641 27.2478 18.3559 26.561 18.3559 25.3961V20.6042H14.764C15.3858 23.1346 13.4584 25.5643 10.8717 25.5643C8.26059 25.5643 6.37495 23.1039 6.98745 20.6042H3.38681C0.327974 25.2401 3.33219 31.9027 9.29767 32.209C8.62911 35.7397 11.3514 38.9941 14.9191 38.9941C16.2078 38.9941 17.3984 38.5657 18.356 37.8441V30.6158C18.356 29.452 19.6637 28.7633 20.6231 29.4235C21.7107 30.1721 23.2205 29.4531 23.3122 28.1308Z" fill="#3DACE3"/>
</g>
<defs>
<clipPath id="clip0">
<rect width="39" height="39" fill="white"/>
</clipPath>
</defs>
</svg>
