<svg width="43" height="43" viewBox="0 0 43 43" fill="none" xmlns="http://www.w3.org/2000/svg">
<path d="M41.3575 34.3366C42.434 32.6931 42.9999 30.8809 42.9999 29.059C42.9999 22.9724 37.1037 18.0053 29.7416 17.7458C28.0263 22.8649 22.9168 27.1507 15.4158 27.6887C15.3496 28.1414 15.2852 28.5949 15.2852 29.059C15.2852 35.3111 21.5016 40.3969 29.1426 40.3969C31.7618 40.3969 34.3047 39.7855 36.5339 38.6229L41.3183 40.3244C41.7672 40.4847 42.2837 40.3769 42.6322 40.0267C42.9755 39.6821 43.0899 39.1704 42.9263 38.7115L41.3575 34.3366ZM25.3632 30.3187C25.3632 31.015 24.7997 31.5785 24.1034 31.5785C23.4071 31.5785 22.8437 31.015 22.8437 30.3187V27.7992C22.8437 27.1029 23.4071 26.5394 24.1034 26.5394C24.7997 26.5394 25.3632 27.1029 25.3632 27.7992V30.3187ZM30.4023 30.3187C30.4023 31.015 29.8388 31.5785 29.1425 31.5785C28.4462 31.5785 27.8827 31.015 27.8827 30.3187V27.7992C27.8827 27.1029 28.4462 26.5394 29.1425 26.5394C29.8388 26.5394 30.4023 27.1029 30.4023 27.7992V30.3187ZM35.4413 30.3187C35.4413 31.015 34.8779 31.5785 34.1816 31.5785C33.4852 31.5785 32.9218 31.015 32.9218 30.3187V27.7992C32.9218 27.1029 33.4852 26.5394 34.1816 26.5394C34.8779 26.5394 35.4413 27.1029 35.4413 27.7992V30.3187Z" fill="#4759A4"/>
<path d="M13.8574 2.60385C11.2358 2.60385 8.69415 3.21526 6.46612 4.37785L1.6817 2.67641C1.22407 2.51281 0.711096 2.62846 0.367852 2.97414C0.0246074 3.31864 -0.0897793 3.83036 0.0738223 4.28925L1.6424 8.664C0.565887 10.3076 0 12.1197 0 13.9417C0 20.1938 6.21644 25.2796 13.8574 25.2796C21.312 25.2796 27.7148 20.3585 27.7148 13.9417C27.7148 7.68961 21.4984 2.60385 13.8574 2.60385ZM13.8574 20.2406C13.1617 20.2406 12.5977 19.6765 12.5977 18.9808C12.5977 18.2849 13.1617 17.721 13.8574 17.721C14.5531 17.721 15.1172 18.2849 15.1172 18.9808C15.1172 19.6764 14.5531 20.2406 13.8574 20.2406ZM15.1331 14.9812C15.1331 15.6763 14.561 16.3505 13.866 16.3505C13.1697 16.3505 12.5976 15.8977 12.5976 15.2014C12.5976 13.9306 13.2754 12.9698 14.283 12.6093C14.7812 12.4297 15.1171 11.9536 15.1171 11.4221C15.1171 10.7271 14.5524 10.1624 13.8573 10.1624C13.1623 10.1624 12.5976 10.7271 12.5976 11.4221C12.5976 12.1184 12.0341 12.6819 11.3378 12.6819C10.6415 12.6819 10.078 12.1184 10.078 11.4221C10.078 9.33814 11.7733 7.64283 13.8573 7.64283C15.9413 7.64283 17.6366 9.33814 17.6366 11.4221C17.6367 13.0129 16.6304 14.4436 15.1331 14.9812Z" fill="#3DACE3"/>
</svg>
