<svg width="22" height="17" viewBox="0 0 22 17" fill="none" xmlns="http://www.w3.org/2000/svg">
<path d="M9.77427 12.276C9.77427 13.552 9.35627 14.586 8.52027 15.378C7.68427 16.126 6.62827 16.5 5.35227 16.5C3.81227 16.5 2.53627 15.994 1.52427 14.982C0.556266 13.97 0.0722656 12.518 0.0722656 10.626C0.0722656 8.602 0.644266 6.622 1.78827 4.686C2.97627 2.706 4.62627 1.144 6.73827 0L8.25627 2.31C7.11227 3.102 6.18827 3.982 5.48427 4.95C4.82427 5.918 4.38427 7.04 4.16427 8.316C4.56027 8.14 5.02227 8.052 5.55027 8.052C6.78227 8.052 7.79427 8.448 8.58627 9.24C9.37827 10.032 9.77427 11.044 9.77427 12.276ZM21.9183 12.276C21.9183 13.552 21.5003 14.586 20.6643 15.378C19.8283 16.126 18.7723 16.5 17.4963 16.5C15.9563 16.5 14.6803 15.994 13.6683 14.982C12.7003 13.97 12.2163 12.518 12.2163 10.626C12.2163 8.602 12.7883 6.622 13.9323 4.686C15.1203 2.706 16.7703 1.144 18.8823 0L20.4003 2.31C19.2563 3.102 18.3323 3.982 17.6283 4.95C16.9683 5.918 16.5283 7.04 16.3083 8.316C16.7043 8.14 17.1663 8.052 17.6943 8.052C18.9263 8.052 19.9383 8.448 20.7303 9.24C21.5223 10.032 21.9183 11.044 21.9183 12.276Z" fill="#4759A4"/>
</svg>
