<svg width="42" height="42" viewBox="0 0 42 42" fill="none" xmlns="http://www.w3.org/2000/svg">
<g clip-path="url(#clip0)">
<path d="M12.3154 29.3254L11.404 24.8129H0V33.8379H11.404L12.3154 29.3254ZM7.4107 30.5559H4.94977V28.0949H7.4107V30.5559Z" fill="#3DACE3"/>
<path d="M26.2993 24.8129H13.915L14.8264 29.3254L13.915 33.8379H26.2993L27.2115 29.3254L26.2993 24.8129ZM22.2314 30.5559H19.7704V28.0949H22.2314V30.5559Z" fill="#3DACE3"/>
<path d="M41.0557 33.8379L41.9679 29.3254L41.0557 24.8129H37.0517V30.5559H34.5908V24.8129H28.8101L29.7214 29.3254L28.8101 33.8379H41.0557Z" fill="#4759A4"/>
<path d="M37.0519 0.861328C36.5073 0.861328 16.6215 0.861328 15.3501 0.861328L18.3142 7.85482L15.3501 14.8483H34.5909V24.8128H37.0519V0.861328Z" fill="#4759A4"/>
<path d="M0 38.6777H2.46094V41.1387H0V38.6777Z" fill="#4759A4"/>
<path d="M4.94238 38.6777H7.40332V41.1387H4.94238V38.6777Z" fill="#4759A4"/>
<path d="M9.88477 38.6777H12.3457V41.1387H9.88477V38.6777Z" fill="#4759A4"/>
<path d="M14.8271 38.6777H17.2881V41.1387H14.8271V38.6777Z" fill="#4759A4"/>
<path d="M19.7695 38.6777H22.2305V41.1387H19.7695V38.6777Z" fill="#4759A4"/>
<path d="M24.7119 38.6777H27.1729V41.1387H24.7119V38.6777Z" fill="#4759A4"/>
<path d="M29.6543 38.6777H32.1152V41.1387H29.6543V38.6777Z" fill="#4759A4"/>
<path d="M34.5967 38.6777H37.0576V41.1387H34.5967V38.6777Z" fill="#4759A4"/>
<path d="M39.5391 38.6777H42V41.1387H39.5391V38.6777Z" fill="#4759A4"/>
</g>
<defs>
<clipPath id="clip0">
<rect width="42" height="42" fill="white"/>
</clipPath>
</defs>
</svg>
