<svg width="39" height="39" viewBox="0 0 39 39" fill="none" xmlns="http://www.w3.org/2000/svg">
<path d="M38.3991 35.6549L35.8662 33.122C36.6455 31.953 37.0352 30.5891 37.0352 29.2253C37.0352 24.9389 33.5282 21.4319 29.2418 21.4319C24.9554 21.4319 21.4484 24.9389 21.4484 29.2253C21.4484 33.5117 24.9554 37.0187 29.2418 37.0187C30.6056 37.0187 31.9695 36.629 33.1385 35.8497L35.6714 38.3826C36.061 38.7722 37.23 39.5516 38.3991 38.3826C39.1784 37.6032 39.1784 36.4342 38.3991 35.6549ZM29.2418 33.122C27.0986 33.122 25.3451 31.3685 25.3451 29.2253C25.3451 27.0821 27.0986 25.3286 29.2418 25.3286C31.385 25.3286 33.1385 27.0821 33.1385 29.2253C33.1385 31.3685 31.385 33.122 29.2418 33.122Z" fill="#3DACE3"/>
<path d="M29.2418 0H1.9648C0.795784 0 0.0164413 0.779342 0.0164413 1.94836V37.0188C0.0164413 38.1878 0.795784 38.9671 1.9648 38.9671H22.8122C19.6948 36.8239 17.5516 33.3169 17.5516 29.2253C17.5516 22.7958 22.8122 17.5352 29.2418 17.5352C29.8263 17.5352 30.6056 17.5352 31.1901 17.73V1.94836C31.1901 0.779342 30.4108 0 29.2418 0ZM15.6033 15.5868H5.86151C4.6925 15.5868 3.91315 14.6127 3.91315 13.6385C3.91315 12.4695 4.6925 11.6901 5.86151 11.6901H15.6033C16.7723 11.6901 17.5516 12.4695 17.5516 13.6385C17.5516 14.6127 16.7723 15.5868 15.6033 15.5868ZM25.3451 7.79342H5.86151C4.6925 7.79342 3.91315 6.81925 3.91315 5.84507C3.91315 4.67605 4.6925 3.89671 5.86151 3.89671H25.3451C26.5141 3.89671 27.2934 4.67605 27.2934 5.84507C27.2934 6.81925 26.5141 7.79342 25.3451 7.79342Z" fill="#4759A4"/>
</svg>
