<svg width="48" height="48" viewBox="0 0 48 48" fill="none" xmlns="http://www.w3.org/2000/svg">
<g clip-path="url(#clip0)">
<path d="M45.9141 21.3971L48 14.5777L44.6372 10.1546L47.6128 5.15586L37.2019 3.95117L32.5556 7.70492C32.8922 8.65367 33.0759 9.67555 33.0759 10.7387C33.0759 19.5446 25.7606 24.143 25.4494 24.3343L23.9756 25.2399L22.5028 24.3343C22.1916 24.143 14.8753 19.5446 14.8753 10.7387C14.8753 10.6402 14.8772 10.5418 14.8809 10.4443L11.6503 10.0543L7.51406 16.5315L1.51688 20.0462L0 32.8262L5.3325 32.0705L3.44438 38.3462L13.2281 44.048L13.8816 34.3384L23.985 35.5365L28.7147 31.6477L34.9566 32.6987L39.3553 39.1337L43.8253 30.9277L39.8091 23.0677L41.9381 18.8471L45.9141 21.3971Z" fill="#3C64B1"/>
<path d="M23.9758 21.9389C23.9758 21.9389 30.2636 18.0736 30.2636 10.739C30.2636 7.2663 27.4485 4.45117 23.9758 4.45117C20.5031 4.45117 17.688 7.2663 17.688 10.739C17.6881 18.0736 23.9758 21.9389 23.9758 21.9389ZM22.5936 9.56261H25.4061V12.3751H22.5936V9.56261Z" fill="#3DACE3"/>
</g>
<defs>
<clipPath id="clip0">
<rect width="48" height="48" fill="white"/>
</clipPath>
</defs>
</svg>
