<svg width="43" height="43" viewBox="0 0 43 43" fill="none" xmlns="http://www.w3.org/2000/svg">
<path d="M20.0414 9.52223C19.9596 9.4254 19.8443 9.36298 19.7184 9.34741C19.5926 9.33184 19.4656 9.36428 19.3626 9.43824L4.68262 19.9805C4.62887 20.0191 4.58325 20.0679 4.54837 20.1241C4.51348 20.1803 4.49001 20.2429 4.4793 20.3082C4.46859 20.3735 4.47085 20.4403 4.48594 20.5047C4.50103 20.5691 4.52867 20.63 4.56727 20.6837C4.60587 20.7375 4.65468 20.7831 4.71092 20.818C4.76715 20.8529 4.8297 20.8763 4.895 20.887C4.96031 20.8977 5.02708 20.8955 5.09151 20.8804C5.15594 20.8653 5.21677 20.8377 5.27051 20.7991L19.5721 10.5284L24.3106 16.1371C24.3944 16.2362 24.5131 16.2992 24.6422 16.313C24.7712 16.3267 24.9006 16.2902 25.0033 16.2109L36.7995 7.11406L38.4074 8.96298C38.4728 9.03818 38.559 9.09231 38.6552 9.1185C38.7513 9.1447 38.8531 9.14179 38.9476 9.11015C39.0421 9.0785 39.1251 9.01954 39.1861 8.94073C39.2471 8.86191 39.2834 8.76678 39.2903 8.66735L39.5884 4.39255C39.5976 4.25927 39.5535 4.12778 39.4658 4.02698C39.3782 3.92619 39.254 3.86435 39.1208 3.85505L34.846 3.55707C34.7465 3.55013 34.6473 3.57283 34.5607 3.6223C34.4742 3.67177 34.4043 3.74579 34.3599 3.835C34.3154 3.92421 34.2984 4.02459 34.311 4.12346C34.3236 4.22233 34.3652 4.31524 34.4306 4.39045L36.137 6.35257L24.7695 15.1186L20.0414 9.52223Z" fill="#3DACE3" stroke="#3DACE3" stroke-width="2"/>
<path d="M27.0166 22.0123C27.0163 21.756 26.9144 21.5103 26.7332 21.3291C26.552 21.1479 26.3063 21.0459 26.0501 21.0457H16.7692C16.513 21.0459 16.2673 21.1479 16.0861 21.3291C15.9049 21.5103 15.803 21.756 15.8027 22.0123V22.1269C15.803 22.3831 15.9049 22.6288 16.0861 22.81C16.2673 22.9912 16.513 23.0931 16.7692 23.0934H26.0501C26.3063 23.0932 26.552 22.9912 26.7332 22.81C26.9144 22.6288 27.0163 22.3831 27.0166 22.1269V22.0123Z" fill="#4759A4"/>
<path d="M25.9931 33.2885H18.808C18.117 34.1311 17.1982 34.7571 16.1611 35.0919C16.3467 35.2501 16.5828 35.3367 16.8266 35.3361H25.9931C26.263 35.3336 26.5211 35.2247 26.7111 35.033C26.9011 34.8412 27.0077 34.5822 27.0077 34.3123C27.0077 34.0423 26.9011 33.7833 26.7111 33.5916C26.5211 33.3998 26.263 33.2909 25.9931 33.2885Z" fill="#4759A4"/>
<path d="M25.9925 30.226H20.0666C20.001 30.9402 19.799 31.6353 19.4717 32.2736H25.9925C26.2625 32.2711 26.5205 32.1622 26.7105 31.9705C26.9005 31.7787 27.0071 31.5197 27.0071 31.2498C27.0071 30.9798 26.9005 30.7208 26.7105 30.5291C26.5205 30.3373 26.2625 30.2284 25.9925 30.226Z" fill="#4759A4"/>
<path d="M25.9933 27.1636H19.4883C19.8108 27.8028 20.0081 28.4978 20.0695 29.2111H25.9933C26.2648 29.2111 26.5252 29.1032 26.7172 28.9113C26.9092 28.7193 27.017 28.4589 27.017 28.1873C27.017 27.9158 26.9092 27.6554 26.7172 27.4634C26.5252 27.2714 26.2648 27.1636 25.9933 27.1636Z" fill="#4759A4"/>
<path d="M16.7693 36.3892H26.0502C26.3065 36.3892 26.5523 36.491 26.7336 36.6722C26.9148 36.8535 27.0167 37.0993 27.0167 37.3556V37.4703C27.0167 37.7266 26.9148 37.9724 26.7336 38.1537C26.5523 38.335 26.3065 38.4368 26.0502 38.4368H16.7692C16.5129 38.4368 16.2671 38.335 16.0858 38.1537C15.9046 37.9724 15.8027 37.7266 15.8027 37.4703V37.3557C15.8027 37.0994 15.9046 36.8535 16.0858 36.6723C16.2671 36.491 16.513 36.3892 16.7693 36.3892Z" fill="#4759A4"/>
<path d="M25.9929 24.1011H16.8264C16.595 24.1011 16.3705 24.1796 16.1895 24.3237C17.2276 24.6651 18.1453 25.2987 18.8323 26.1487H25.9929C26.2628 26.1462 26.5208 26.0373 26.7108 25.8456C26.9008 25.6538 27.0074 25.3948 27.0074 25.1249C27.0074 24.8549 26.9008 24.5959 26.7108 24.4042C26.5208 24.2125 26.2628 24.1035 25.9929 24.1011Z" fill="#4759A4"/>
<path d="M1.84766 37.3937C1.84795 37.65 1.94986 37.8956 2.13105 38.0768C2.31224 38.258 2.55791 38.3599 2.81415 38.3602H12.095C12.3513 38.36 12.5969 38.258 12.7781 38.0768C12.9593 37.8957 13.0612 37.65 13.0615 37.3937V37.2792C13.0612 37.0533 12.9818 36.8347 12.8372 36.6612C12.6926 36.4877 12.4918 36.3702 12.2697 36.3292C12.1927 36.3385 12.1153 36.3433 12.0377 36.3438H2.87143C2.79283 36.3437 2.71432 36.339 2.63627 36.3297C2.41485 36.3714 2.21492 36.4891 2.07096 36.6624C1.927 36.8357 1.84803 37.0539 1.84766 37.2792V37.3937Z" fill="#4759A4"/>
<path d="M2.6527 35.312C2.70603 35.3076 2.75978 35.3048 2.81412 35.3048H12.095C12.1496 35.3048 12.2034 35.3077 12.2569 35.312C12.4209 35.2761 12.5735 35.2002 12.7011 35.0911C11.6649 34.7562 10.7468 34.1305 10.0563 33.2885H2.8714C2.61892 33.2884 2.37533 33.3817 2.18745 33.5503C1.99957 33.719 1.88065 33.9511 1.85357 34.2022C1.82648 34.4532 1.89313 34.7054 2.0407 34.9102C2.18827 35.1151 2.40636 35.2582 2.65304 35.312H2.6527Z" fill="#4759A4"/>
<path d="M9.78027 29.703C9.78029 30.6231 10.0531 31.5226 10.5643 32.2876C11.0755 33.0526 11.8021 33.6489 12.6522 34.001C13.5022 34.3531 14.4376 34.4452 15.3401 34.2657C16.2425 34.0862 17.0714 33.6431 17.722 32.9925C18.3726 32.3418 18.8157 31.5129 18.9952 30.6105C19.1747 29.7081 19.0825 28.7727 18.7304 27.9226C18.3783 27.0725 17.782 26.346 17.017 25.8348C16.252 25.3236 15.3525 25.0508 14.4324 25.0508C13.199 25.0522 12.0165 25.5427 11.1443 26.4149C10.2722 27.2871 9.78163 28.4696 9.78027 29.703ZM14.9363 25.9531V26.3161C15.354 26.4278 15.7232 26.674 15.9867 27.0168C16.2502 27.3595 16.3934 27.7796 16.394 28.212C16.394 28.3456 16.3409 28.4738 16.2464 28.5683C16.1519 28.6628 16.0237 28.7159 15.89 28.7159C15.7564 28.7159 15.6282 28.6628 15.5337 28.5683C15.4392 28.4738 15.3861 28.3456 15.3861 28.212C15.3862 28.0233 15.3302 27.8388 15.2254 27.6819C15.1206 27.525 14.9716 27.4028 14.7973 27.3305C14.623 27.2583 14.4312 27.2394 14.2461 27.2762C14.061 27.313 13.8911 27.4039 13.7576 27.5373C13.6242 27.6707 13.5333 27.8407 13.4965 28.0257C13.4597 28.2108 13.4786 28.4026 13.5508 28.5769C13.623 28.7512 13.7453 28.9002 13.9022 29.0051C14.059 29.1099 14.2435 29.1658 14.4322 29.1658C14.9084 29.1659 15.3684 29.3391 15.7263 29.6533C16.0842 29.9675 16.3156 30.4012 16.3773 30.8735C16.439 31.3457 16.3267 31.8243 16.0616 32.2199C15.7964 32.6154 15.3963 32.9011 14.9361 33.0234V33.4527C14.9361 33.5864 14.883 33.7146 14.7885 33.8091C14.694 33.9036 14.5658 33.9567 14.4322 33.9567C14.2985 33.9567 14.1704 33.9036 14.0758 33.8091C13.9813 33.7146 13.9283 33.5864 13.9283 33.4527V33.0234C13.5106 32.9118 13.1414 32.6655 12.8778 32.3228C12.6143 31.9801 12.4711 31.56 12.4705 31.1276C12.4705 30.994 12.5235 30.8658 12.618 30.7713C12.7126 30.6768 12.8407 30.6237 12.9744 30.6237C13.108 30.6237 13.2362 30.6768 13.3307 30.7713C13.4252 30.8658 13.4783 30.994 13.4783 31.1276C13.4786 31.3787 13.5778 31.6195 13.7544 31.7979C13.9309 31.9763 14.1707 32.078 14.4217 32.081C14.4252 32.081 14.4286 32.0804 14.4322 32.0804C14.4357 32.0804 14.4391 32.0809 14.4427 32.081C14.6943 32.0777 14.9345 31.9751 15.1108 31.7955C15.2871 31.6158 15.3853 31.3738 15.3839 31.1221C15.3825 30.8705 15.2817 30.6295 15.1034 30.4519C14.9251 30.2742 14.6839 30.1742 14.4322 30.1737C13.9559 30.1736 13.4959 30.0004 13.138 29.6862C12.7801 29.372 12.5487 28.9383 12.4871 28.466C12.4254 27.9938 12.5376 27.5153 12.8028 27.1197C13.068 26.7241 13.468 26.4384 13.9283 26.3161V25.9531C13.9283 25.8195 13.9813 25.6913 14.0758 25.5968C14.1704 25.5023 14.2985 25.4492 14.4322 25.4492C14.5658 25.4492 14.694 25.5023 14.7885 25.5968C14.883 25.6913 14.9361 25.8195 14.9361 25.9531H14.9363Z" fill="#3DACE3"/>
<path d="M1.84766 31.2498C1.84788 31.5213 1.95581 31.7815 2.14776 31.9735C2.3397 32.1654 2.59997 32.2734 2.87143 32.2736H9.39231C9.065 31.6353 8.86304 30.9402 8.79736 30.226H2.87143C2.59996 30.2262 2.33968 30.3341 2.14773 30.5261C1.95578 30.718 1.84786 30.9783 1.84766 31.2498Z" fill="#4759A4"/>
<path d="M41.1523 19.0317C41.152 18.7788 41.0527 18.5361 40.8756 18.3555C40.6984 18.175 40.4576 18.071 40.2047 18.0659C40.1983 18.0659 40.1921 18.0659 40.1858 18.0659H30.905C30.8986 18.0659 30.8924 18.0659 30.8861 18.0659C30.6332 18.071 30.3924 18.175 30.2152 18.3555C30.0381 18.5361 29.9388 18.7788 29.9385 19.0317V19.1464C29.9388 19.3992 30.038 19.6419 30.2151 19.8224C30.3921 20.003 30.6328 20.107 30.8856 20.1122C30.892 20.1122 30.8984 20.1117 30.905 20.1117H40.1858C40.1923 20.1117 40.1988 20.1117 40.2052 20.1122C40.458 20.107 40.6987 20.0029 40.8757 19.8224C41.0527 19.6419 41.152 19.3992 41.1523 19.1464V19.0317Z" fill="#4759A4"/>
<path d="M41.1523 25.1398C41.152 24.8869 41.0527 24.6443 40.8757 24.4637C40.6987 24.2832 40.458 24.1792 40.2052 24.174C40.1988 24.174 40.1923 24.1745 40.1858 24.1745H30.905C30.8984 24.1745 30.892 24.1745 30.8856 24.174C30.6328 24.1792 30.3921 24.2832 30.2151 24.4637C30.038 24.6442 29.9388 24.8869 29.9385 25.1398V25.2542C29.9388 25.507 30.038 25.7497 30.2151 25.9302C30.3921 26.1107 30.6328 26.2148 30.8856 26.22C30.892 26.22 30.8984 26.2195 30.905 26.2195H40.1858C40.1923 26.2195 40.1988 26.22 40.2052 26.22C40.458 26.2148 40.6987 26.1107 40.8757 25.9302C41.0528 25.7497 41.152 25.507 41.1523 25.2542V25.1398Z" fill="#4759A4"/>
<path d="M41.0508 37.06V36.9454C41.0505 36.6924 40.951 36.4496 40.7738 36.269C40.5965 36.0885 40.3555 35.9846 40.1026 35.9796C40.0964 35.9796 40.0904 35.9801 40.0843 35.9801H30.8034C30.7973 35.9801 30.7912 35.9801 30.7851 35.9796C30.5321 35.9846 30.2912 36.0885 30.1139 36.269C29.9366 36.4496 29.8372 36.6924 29.8369 36.9454V37.06C29.8372 37.3162 29.9391 37.5619 30.1203 37.7431C30.3015 37.9243 30.5472 38.0263 30.8034 38.0266H40.0843C40.3405 38.0263 40.5862 37.9243 40.7674 37.7431C40.9486 37.5619 41.0505 37.3162 41.0508 37.06Z" fill="#4759A4"/>
<path d="M40.1858 15.0112H30.905C30.6487 15.0115 30.403 15.1134 30.2218 15.2947C30.0407 15.4759 29.9387 15.7215 29.9385 15.9778V16.0924C29.9388 16.3453 30.0381 16.588 30.2153 16.7686C30.3924 16.9491 30.6332 17.0531 30.8861 17.0582C30.8924 17.0582 30.8986 17.0577 30.905 17.0577H40.1858C40.1921 17.0577 40.1983 17.0577 40.2047 17.0582C40.4576 17.0531 40.6984 16.9491 40.8755 16.7686C41.0527 16.588 41.152 16.3453 41.1523 16.0924V15.9778C41.152 15.7216 41.0501 15.4759 40.8689 15.2947C40.6877 15.1135 40.4421 15.0115 40.1858 15.0112Z" fill="#4759A4"/>
<path d="M41.1523 22.0857C41.152 21.8329 41.0527 21.5902 40.8757 21.4097C40.6987 21.2291 40.458 21.1251 40.2052 21.1199C40.1988 21.1199 40.1923 21.1204 40.1858 21.1204H30.905C30.8984 21.1204 30.892 21.1204 30.8856 21.1199C30.6328 21.1251 30.3921 21.2291 30.2151 21.4096C30.038 21.5902 29.9388 21.8329 29.9385 22.0857V22.2002C29.9388 22.4531 30.0381 22.6958 30.2151 22.8763C30.3921 23.0568 30.6328 23.1608 30.8856 23.1661C30.892 23.1661 30.8984 23.1656 30.905 23.1656H40.1858C40.1923 23.1656 40.1988 23.1656 40.2052 23.1661C40.458 23.1608 40.6987 23.0568 40.8757 22.8763C41.0527 22.6957 41.152 22.4531 41.1523 22.2002V22.0857Z" fill="#4759A4"/>
<path d="M41.1523 34.3016C41.152 34.0488 41.0527 33.8061 40.8757 33.6256C40.6987 33.4451 40.458 33.3411 40.2052 33.3358C40.1988 33.3358 40.1923 33.3363 40.1858 33.3363H30.905C30.8984 33.3363 30.892 33.3358 30.8856 33.3358C30.6328 33.341 30.3921 33.4451 30.2151 33.6256C30.038 33.8061 29.9388 34.0488 29.9385 34.3016V34.4162C29.9388 34.6692 30.0382 34.9121 30.2155 35.0926C30.3927 35.2732 30.6337 35.3771 30.8867 35.382C30.8928 35.382 30.8988 35.3815 30.905 35.3815H40.1858C40.192 35.3815 40.198 35.3815 40.2041 35.382C40.4571 35.3771 40.6981 35.2732 40.8753 35.0926C41.0526 34.912 41.152 34.6692 41.1523 34.4162V34.3016Z" fill="#4759A4"/>
<path d="M41.1523 31.2476C41.152 30.9945 41.0526 30.7517 40.8753 30.5711C40.6981 30.3906 40.4571 30.2867 40.2041 30.2817C40.198 30.2817 40.192 30.2817 40.1858 30.2817H30.905C30.8988 30.2817 30.8928 30.2817 30.8867 30.2817C30.6337 30.2867 30.3927 30.3905 30.2154 30.5711C30.0382 30.7517 29.9387 30.9945 29.9385 31.2476V31.3622C29.9388 31.615 30.0381 31.8577 30.2151 32.0382C30.3921 32.2187 30.6328 32.3228 30.8856 32.328C30.892 32.328 30.8984 32.3275 30.905 32.3275H40.1858C40.1923 32.3275 40.1988 32.3275 40.2052 32.328C40.458 32.3227 40.6987 32.2187 40.8757 32.0382C41.0527 31.8577 41.152 31.615 41.1523 31.3622V31.2476Z" fill="#4759A4"/>
<path d="M41.1523 28.1936C41.152 27.9408 41.0527 27.6981 40.8757 27.5176C40.6987 27.3371 40.458 27.2331 40.2052 27.2278C40.1988 27.2278 40.1923 27.2283 40.1858 27.2283H30.905C30.8984 27.2283 30.892 27.2283 30.8856 27.2278C30.6328 27.233 30.3921 27.3371 30.2151 27.5176C30.0381 27.6981 29.9388 27.9408 29.9385 28.1936V28.3082C29.9388 28.5612 30.0382 28.804 30.2155 28.9846C30.3927 29.1651 30.6337 29.269 30.8867 29.274C30.8928 29.274 30.8988 29.274 30.905 29.274H40.1858C40.192 29.274 40.198 29.274 40.2041 29.274C40.4571 29.269 40.6981 29.1651 40.8753 28.9846C41.0526 28.804 41.152 28.5612 41.1523 28.3082V28.1936Z" fill="#4759A4"/>
</svg>
