<svg width="40" height="40" viewBox="0 0 40 40" fill="none" xmlns="http://www.w3.org/2000/svg">
<path fill-rule="evenodd" clip-rule="evenodd" d="M9.375 27.1094C9.375 29.051 7.801 30.625 5.85938 30.625C3.91775 30.625 2.34375 29.051 2.34375 27.1094C2.34375 25.1677 3.91775 23.5938 5.85938 23.5938C7.801 23.5938 9.375 25.1677 9.375 27.1094ZM5.85938 30.625C9.09008 30.625 11.7188 33.2537 11.7188 36.4844V40H0V36.4844C0 33.2537 2.62867 30.625 5.85938 30.625ZM20 30.625C16.7693 30.625 14.1406 33.2537 14.1406 36.4844V40H25.8594V36.4844C25.8594 33.2537 23.2307 30.625 20 30.625ZM20 30.625H23.5156V27.1094C23.5156 25.1708 21.9386 23.5938 20 23.5938C18.0614 23.5938 16.4844 25.1708 16.4844 27.1094V30.625H20ZM34.1406 30.625C36.0823 30.625 37.6562 29.051 37.6562 27.1094C37.6562 25.1677 36.0823 23.5938 34.1406 23.5938C32.199 23.5938 30.625 25.1677 30.625 27.1094C30.625 29.051 32.199 30.625 34.1406 30.625ZM34.1406 30.625C37.3713 30.625 40 33.2537 40 36.4844V40H28.2812V36.4844C28.2812 33.2537 30.9099 30.625 34.1406 30.625Z" fill="#3DACE3"/>
<path d="M0 0V2.34375H2.42188V21.25H37.5781V2.34375H40V0C28.7069 0 19.93 0 0 0ZM9.45312 16.5625H7.10938V7.1875H9.45312V16.5625ZM14.1406 16.5625H11.7969V4.84375H14.1406V16.5625ZM18.8281 16.5625H16.4844V9.53125H18.8281V16.5625ZM32.8906 16.5625H23.5156V14.2188H32.8906V16.5625ZM32.8906 11.875H23.5156V9.53125H32.8906V11.875ZM32.8906 7.1875H23.5156V4.84375H32.8906V7.1875Z" fill="#3C64B1"/>
</svg>
