<svg width="41" height="41" viewBox="0 0 41 41" fill="none" xmlns="http://www.w3.org/2000/svg">
<g clip-path="url(#clip0)">
<path d="M34.9933 6.00715C26.9839 -2.00239 14.0191 -2.00368 6.00853 6.00715C-2.00094 14.0166 -2.00214 26.9813 6.00853 34.9919C14.0179 43.0014 26.9827 43.0027 34.9933 34.9919C43.0028 26.9825 43.004 14.0178 34.9933 6.00715ZM10.2398 13.6856C12.4398 13.6856 14.6207 14.4125 16.3808 15.7326C17.6749 16.7031 16.9804 18.7629 15.3694 18.7629C15.0179 18.7629 14.6635 18.6533 14.3607 18.4261C13.1796 17.5403 11.7162 17.0525 10.2399 17.0525C9.31018 17.0525 8.55647 16.2988 8.55647 15.3691C8.55647 14.4393 9.3101 13.6856 10.2398 13.6856ZM10.2398 27.3136C9.3101 27.3136 8.55639 26.5599 8.55639 25.6301C8.55639 24.7004 9.3101 23.9467 10.2398 23.9467C12.3899 23.9467 14.4437 22.9197 15.7338 21.1997L18.2991 17.7793C19.9453 15.5844 22.4263 14.1478 25.1171 13.78C24.6473 13.1224 24.7058 12.2037 25.2962 11.6134C25.9536 10.9559 27.0195 10.9559 27.6769 11.6134C30.39 14.3265 30.6101 14.3894 30.7162 15.1289C30.7778 15.5588 30.6757 15.9685 30.4515 16.3039C30.3213 16.4985 30.4572 16.3443 27.6768 19.1247C27.348 19.4534 26.9172 19.6177 26.4864 19.6177C25.2586 19.6177 24.4431 18.3433 24.9606 17.2267C23.3924 17.5873 21.9721 18.4932 20.9925 19.7994L18.4273 23.2197C16.5048 25.7831 13.4441 27.3136 10.2398 27.3136ZM30.3996 26.6357C30.2863 26.7871 30.5343 26.5283 27.6769 29.3857C27.0195 30.0432 25.9534 30.0431 25.2962 29.3857C24.7056 28.7952 24.6473 27.8758 25.1178 27.2183C23.3963 26.983 21.739 26.3115 20.3457 25.2665C19.6018 24.7087 19.4511 23.6535 20.0089 22.9097C20.5668 22.166 21.622 22.0151 22.3657 22.573C23.1355 23.1503 24.0254 23.5572 24.9604 23.7716C24.6722 23.1491 24.7829 22.3876 25.2962 21.8744C25.9536 21.217 27.0195 21.217 27.6769 21.8744C30.4581 24.6556 30.4997 24.6038 30.6626 25.1413C30.8221 25.669 30.7092 26.2208 30.3996 26.6357Z" fill="#4759A4"/>
</g>
<defs>
<clipPath id="clip0">
<rect width="41" height="41" fill="white"/>
</clipPath>
</defs>
</svg>
