<svg width="41" height="41" viewBox="0 0 41 41" fill="none" xmlns="http://www.w3.org/2000/svg">
<g clip-path="url(#clip0)">
<path d="M27.7605 41H13.2396C12.6076 41 12.0694 40.5388 11.9738 39.9135L10.2654 28.8094C10.2091 28.4404 10.315 28.0628 10.5593 27.7792C10.8036 27.4957 11.1572 27.3334 11.5313 27.3334H29.4688C29.8429 27.3334 30.1983 27.4974 30.4408 27.781C30.6834 28.0645 30.7911 28.4404 30.7347 28.8111L29.0263 39.9152C28.9307 40.5388 28.3926 41 27.7605 41Z" fill="#3C64B1"/>
<path d="M20.5 13.6667C24.2739 13.6667 27.3333 10.6073 27.3333 6.83333C27.3333 3.05939 24.2739 0 20.5 0C16.726 0 13.6666 3.05939 13.6666 6.83333C13.6666 10.6073 16.726 13.6667 20.5 13.6667Z" fill="#3DACE3"/>
<path d="M34.1649 12.7954C37.3543 14.9155 39.3907 18.421 39.6623 22.2083C40.6856 22.2083 41.2015 23.1565 40.9316 23.9338L37.5149 33.3296C37.327 33.825 36.8487 34.1667 36.302 34.1667H33.3637L34.1153 29.3321C34.3203 27.9654 33.9274 26.5988 33.0391 25.5567C32.0602 24.448 30.7585 23.9167 29.4687 23.9167H11.5312C10.0706 23.9167 8.72268 24.6427 7.96077 25.5567C7.07244 26.5988 6.67951 27.9654 6.88451 29.3321L7.63618 34.1667H4.69785C4.15119 34.1667 3.67285 33.825 3.48493 33.3296L0.0682749 23.9338C-0.211892 23.1274 0.374056 22.2083 1.28118 22.2083H6.93577H34.0641H37.0998C36.8384 19.3298 35.2856 16.6768 32.8819 15.0214C32.5044 15.24 32.0722 15.375 31.6041 15.375C30.1896 15.375 29.0416 14.227 29.0416 12.8125C29.0416 11.398 30.1896 10.25 31.6041 10.25C33.0135 10.25 34.1563 11.3877 34.1649 12.7954Z" fill="#3C64B1"/>
<path fill-rule="evenodd" clip-rule="evenodd" d="M33.7525 20.625C32.4478 17.8954 29.6614 16 26.4283 16H15.3241C12.0911 16 9.30469 17.8954 8 20.625H33.7525Z" fill="#3DACE3"/>
</g>
<defs>
<clipPath id="clip0">
<rect width="41" height="41" fill="white"/>
</clipPath>
</defs>
</svg>
