<svg width="41" height="41" viewBox="0 0 41 41" fill="none" xmlns="http://www.w3.org/2000/svg">
<g clip-path="url(#clip0)">
<path d="M27.7603 41H13.2395C12.6074 41 12.0693 40.5388 11.9736 39.9135L10.2653 28.8093C10.2089 28.4403 10.3148 28.0628 10.5591 27.7792C10.8034 27.4956 11.1571 27.3333 11.5312 27.3333H29.4687C29.8428 27.3333 30.1981 27.4973 30.4407 27.7809C30.6833 28.0645 30.7909 28.4403 30.7346 28.8111L29.0262 39.9152C28.9306 40.5388 28.3924 41 27.7603 41Z" fill="#3C64B1"/>
<path d="M20.4998 13.6667C24.2738 13.6667 27.3332 10.6073 27.3332 6.83333C27.3332 3.05939 24.2738 0 20.4998 0C16.7259 0 13.6665 3.05939 13.6665 6.83333C13.6665 10.6073 16.7259 13.6667 20.4998 13.6667Z" fill="#3DACE3"/>
<path d="M34.1651 12.7954C37.3546 14.9155 39.3909 18.421 39.6625 22.2083C40.6858 22.2083 41.2018 23.1565 40.9318 23.9338L37.5152 33.3296C37.3273 33.825 36.8489 34.1667 36.3023 34.1667H33.3639L34.1156 29.3321C34.3206 27.9654 33.9277 26.5988 33.0393 25.5567C32.0605 24.448 30.7587 23.9167 29.4689 23.9167H11.5314C10.0708 23.9167 8.72293 24.6427 7.96101 25.5567C7.07268 26.5988 6.67976 27.9654 6.88476 29.3321L7.63643 34.1667H4.6981C4.15143 34.1667 3.67309 33.825 3.48518 33.3296L0.0685191 23.9338C-0.211648 23.1274 0.3743 22.2083 1.28142 22.2083H6.93601H34.0643H37.1C36.8387 19.3298 35.2858 16.6768 32.8822 15.0214C32.5046 15.24 32.0724 15.375 31.6043 15.375C30.1898 15.375 29.0418 14.227 29.0418 12.8125C29.0418 11.398 30.1898 10.25 31.6043 10.25C33.0137 10.25 34.1566 11.3877 34.1651 12.7954Z" fill="#3C64B1"/>
<path fill-rule="evenodd" clip-rule="evenodd" d="M33.7525 20.625C32.4478 17.8954 29.6614 16 26.4283 16H15.3241C12.0911 16 9.30469 17.8954 8 20.625H33.7525Z" fill="#3DACE3"/>
</g>
<defs>
<clipPath id="clip0">
<rect width="41" height="41" fill="white"/>
</clipPath>
</defs>
</svg>
