<svg width="33" height="33" viewBox="0 0 33 33" fill="none" xmlns="http://www.w3.org/2000/svg">
<g clip-path="url(#clip0)">
<path d="M17.4668 21.3983C17.4668 20.8639 17.0344 20.4315 16.5 20.4315C15.9656 20.4315 15.5332 20.8639 15.5332 21.3983C15.5332 22.4642 14.6655 23.3319 13.5996 23.3319C13.0652 23.3319 12.6328 23.7643 12.6328 24.2987C12.6328 24.8331 13.0652 25.2655 13.5996 25.2655C14.6655 25.2655 15.5332 26.1332 15.5332 27.1991C15.5332 27.7335 15.9656 28.1659 16.5 28.1659C17.0344 28.1659 17.4668 27.7335 17.4668 27.1991C17.4668 26.1332 18.3345 25.2655 19.4004 25.2655C19.9348 25.2655 20.3672 24.8331 20.3672 24.2987C20.3672 23.7643 19.9348 23.3319 19.4004 23.3319C18.3345 23.3319 17.4668 22.4642 17.4668 21.3983Z" fill="#4759A4"/>
<path d="M30.0996 21.3983C30.634 21.3983 31.0664 20.9659 31.0664 20.4315V19.4647H32.0332C32.5676 19.4647 33 19.0323 33 18.4979C33 17.9635 32.5676 17.5311 32.0332 17.5311H31.0664V16.5643C31.0664 16.03 30.634 15.5975 30.0996 15.5975C29.5652 15.5975 29.1328 16.03 29.1328 16.5643V17.5311H28.166C27.6316 17.5311 27.1992 17.9635 27.1992 18.4979C27.1992 19.0323 27.6316 19.4647 28.166 19.4647H29.1328V20.4315C29.1328 20.9659 29.5652 21.3983 30.0996 21.3983Z" fill="#4759A4"/>
<path d="M0.966797 19.4648H1.93359V20.4316C1.93359 20.966 2.43046 21.3984 2.96484 21.3984C3.49922 21.3984 3.86719 20.966 3.86719 20.4316V19.4648H4.83398C5.36837 19.4648 5.80078 19.0324 5.80078 18.498C5.80078 17.9637 5.36837 17.5312 4.83398 17.5312H3.86719V16.5645C3.86719 16.0301 3.43477 15.5977 2.90039 15.5977C2.36601 15.5977 1.93359 16.0301 1.93359 16.5645V17.5312H0.966797C0.432416 17.5312 0 17.9637 0 18.498C0 19.0324 0.432416 19.4648 0.966797 19.4648Z" fill="#4759A4"/>
<path d="M2.32662 6.7845L2.92706 10.8358C2.97617 11.1672 3.19331 11.4494 3.50108 11.5826C3.8129 11.7145 4.16256 11.678 4.43764 11.4863L5.38381 10.8238L8.19157 22.1196L2.31527 27.4499C1.91966 27.8086 1.8904 28.4195 2.24921 28.8151C2.60705 29.2102 3.21826 29.2409 3.61445 28.8812L8.7235 24.2468L9.76171 28.3997C9.89196 28.923 10.4218 29.2325 10.9334 29.103C11.4517 28.9737 11.7671 28.4488 11.6368 27.9314L10.3475 22.7738L16.5398 17.1568L22.6603 22.743L21.3632 27.9314C21.233 28.4487 21.5483 28.9737 22.0666 29.103C22.5789 29.2326 23.1082 28.9223 23.2383 28.3997L24.2824 24.2234L29.3836 28.8793C29.7759 29.2396 30.3893 29.212 30.7488 28.8169C31.1095 28.4233 31.0812 27.8114 30.6865 27.4517L24.8149 22.0928L27.6161 10.8237L28.5622 11.4861C28.8377 11.6782 29.1875 11.7142 29.4988 11.5824C29.8065 11.4493 30.0238 11.167 30.0728 10.8356L30.6732 6.78437L32.8252 3.73833C33.1311 3.30121 33.0253 2.69883 32.5873 2.39197L29.4197 0.174408C28.9844 -0.130583 28.3783 -0.0257828 28.0733 0.412303L25.9214 3.45738L22.3195 5.40798C22.025 5.56757 21.8342 5.86779 21.8154 6.20198C21.7955 6.53713 21.9513 6.8572 22.2261 7.04979L23.6414 8.04075L16.5435 14.5438L9.43242 7.989L10.7738 7.04979C11.0486 6.8572 11.2044 6.53713 11.1845 6.20198C11.1656 5.86772 10.9749 5.5675 10.6804 5.40798L7.07847 3.45738L4.88546 0.412303C4.5777 -0.0257828 3.97435 -0.130583 3.5391 0.174408L0.371568 2.39217C-0.0665184 2.69903 -0.107833 3.30134 0.198125 3.73852L2.32662 6.7845ZM25.2651 9.17776L25.9207 9.63673L23.1929 20.6125L17.9776 15.8526L25.2651 9.17776ZM15.1056 15.8481L9.81546 20.6467L7.07911 9.6368L7.81001 9.12511L15.1056 15.8481Z" fill="#3DACE3"/>
<path d="M32.0331 31.0663H0.966793C0.432414 31.0663 0 31.4987 0 32.0331C0 32.5675 0.432414 32.9999 0.966793 32.9999H32.0331C32.5675 32.9999 32.9999 32.5675 32.9999 32.0331C32.9999 31.4987 32.5675 31.0663 32.0331 31.0663Z" fill="#4759A4"/>
</g>
<defs>
<clipPath id="clip0">
<rect width="33" height="33" fill="white"/>
</clipPath>
</defs>
</svg>
