<svg width="41" height="41" viewBox="0 0 41 41" fill="none" xmlns="http://www.w3.org/2000/svg">
<path d="M20.7729 11.0427C22.2825 11.0427 23.5062 9.81897 23.5062 8.3094V6.56H18.0396V8.30929C18.0396 9.81887 19.2634 11.0427 20.7729 11.0427Z" fill="#4759A4"/>
<path d="M21.921 0H19.6249L18.2583 4.91995H23.2876L21.921 0Z" fill="#4759A4"/>
<path d="M25.1466 8.30929C25.1466 9.81887 26.3703 11.0426 27.8799 11.0426C29.3894 11.0426 30.6132 9.81887 30.6132 8.30929V6.56H25.1465V8.30929H25.1466Z" fill="#3DACE3"/>
<path d="M10.9331 8.30929C10.9331 9.81887 12.1568 11.0426 13.6664 11.0426C15.176 11.0426 16.3997 9.81887 16.3997 8.30929V6.56H10.9331V8.30929Z" fill="#3DACE3"/>
<path d="M35.4788 4.91995L32.8548 0H29.7388L31.9802 4.91995H35.4788Z" fill="#4759A4"/>
<path d="M30.2304 4.91995L27.9343 0H23.6157L24.9824 4.91995H30.2304Z" fill="#3DACE3"/>
<path d="M21.2654 29.0827L20.7188 28.0439L20.2268 29.0827C20.0901 29.3343 19.8506 29.514 19.5708 29.5747L18.4229 29.7386L19.2975 30.5586C19.4798 30.747 19.5611 31.0111 19.5162 31.2693L19.2975 32.4173L20.3362 31.8707C20.5795 31.7608 20.8582 31.7608 21.1015 31.8707L22.1402 32.4173L21.9215 31.2693C21.8673 30.9995 21.9739 30.7226 22.1949 30.5586L23.0149 29.7386L21.8669 29.5747C21.5917 29.5322 21.3614 29.3437 21.2654 29.0827Z" fill="#3DACE3"/>
<path d="M16.5639 4.91995L17.9306 0H14.1586L11.4253 4.91995H16.5639Z" fill="#3DACE3"/>
<path d="M36.0799 7.70795V6.56H32.2533V7.70795C32.2483 8.20162 32.4458 8.67583 32.7999 9.01997V29.5199H28.0985C27.706 29.4971 27.3849 29.199 27.3332 28.8092C26.5941 25.7636 23.9061 23.5909 20.7732 23.5065C17.6334 23.5719 14.9354 25.7528 14.2132 28.8092C14.1614 29.199 13.8404 29.4971 13.4479 29.5199H8.74665V9.01997C9.10073 8.67583 9.29828 8.20173 9.29326 7.70795V6.56H5.46664V7.70795C5.46633 8.43862 5.89408 9.10169 6.55998 9.40263V29.5199H4.91992V40.9999H36.0799V29.5199H34.9866V9.40263C35.6525 9.1018 36.0803 8.43873 36.0799 7.70795ZM25.3653 29.7386L23.616 31.4333L24.0533 33.7839C24.0913 34.0797 23.9656 34.3728 23.7253 34.5492C23.4748 34.7406 23.1406 34.7825 22.8507 34.6586L20.7186 33.5106L18.5867 34.6586H18.204C18.0272 34.6549 17.8557 34.5977 17.712 34.4946C17.492 34.3057 17.3881 34.0147 17.4387 33.7293L17.8214 31.3787L16.1267 29.684C15.8807 29.489 15.7917 29.1556 15.908 28.864C15.9757 28.5439 16.2393 28.3023 16.564 28.2626L18.9146 27.9346L20.0079 25.8026C20.1206 25.5078 20.4029 25.3123 20.7186 25.3107C21.042 25.33 21.3321 25.5165 21.4839 25.8026L22.5226 27.9346L24.8733 28.2626C25.1979 28.3023 25.4616 28.5439 25.5292 28.864C25.6671 29.1606 25.6013 29.5121 25.3653 29.7386Z" fill="#4759A4"/>
<path d="M12.3545 0H9.3479L6.17725 4.91995H9.56659L12.3545 0Z" fill="#4759A4"/>
</svg>
