<svg width="40" height="40" viewBox="0 0 40 40" fill="none" xmlns="http://www.w3.org/2000/svg">
<g clip-path="url(#clip0)">
<path fill-rule="evenodd" clip-rule="evenodd" d="M32.3572 10.0537V20.2716H31.6686C30.9368 20.2852 30.63 20.9511 30.9732 21.4761L34.0344 25.6464C34.3821 26.2259 35.0071 26.2259 35.3548 25.6464L38.416 21.4761C38.7591 20.9511 38.4523 20.2852 37.7206 20.2716H37.032V10.0537C36.4453 9.55078 35.4479 8.90625 34.6093 8.90625C33.7685 8.90625 33.0273 9.19922 32.3572 10.0537Z" fill="#3DACE3"/>
<path fill-rule="evenodd" clip-rule="evenodd" d="M30.0255 32.3234H19.8057V31.6349C19.7943 30.9031 19.1261 30.5963 18.6012 30.9394L14.431 34.0006C13.8515 34.3484 13.8515 34.9734 14.431 35.321L18.6012 38.3823C19.1262 38.7255 19.7943 38.4186 19.8057 37.6868V36.9982H30.0255C30.8789 36.6406 31.25 35.7213 31.25 34.8827C31.25 34.0419 31.3671 33.0077 30.0255 32.3234Z" fill="#3DACE3"/>
<path fill-rule="evenodd" clip-rule="evenodd" d="M7.59725 29.9464V19.7285H8.28811C9.01991 19.7149 9.32444 19.0468 8.9835 18.5218L5.92233 14.3537C5.57233 13.7719 4.94967 13.7719 4.59967 14.3537L1.5385 18.5218C1.19764 19.0468 1.50217 19.7149 2.23389 19.7285H2.92249V29.9464C3.20311 31.1329 4.65389 31.6407 5.49475 31.6407C6.33335 31.6407 7.61717 31.2696 7.59725 29.9464Z" fill="#3DACE3"/>
<path fill-rule="evenodd" clip-rule="evenodd" d="M20.4012 16.3057C22.4397 16.3057 24.0941 17.9603 24.0941 19.9988C24.0941 22.0396 22.4397 23.6918 20.4012 23.6918C18.3604 23.6918 16.7059 22.0396 16.7059 19.9988C16.7059 17.9603 18.3604 16.3057 20.4012 16.3057ZM23.8555 14.1694C23.3079 13.8444 22.7124 13.5944 22.0806 13.4331V12.7081C22.0806 12.3626 21.7965 12.0808 21.4511 12.0808H19.3489C19.0034 12.0808 18.7216 12.3626 18.7216 12.7081V13.4331C18.0898 13.5944 17.4922 13.8444 16.9467 14.1694L16.4331 13.6581C16.1876 13.4126 15.7877 13.4126 15.5445 13.6581L14.0583 15.1421C13.8128 15.3876 13.8128 15.7876 14.0583 16.0307L14.5719 16.5443C14.2469 17.0921 13.9969 17.6874 13.8355 18.3192H13.1106C12.7651 18.3192 12.4811 18.6033 12.4811 18.9488V21.0487C12.4811 21.3964 12.7651 21.6782 13.1106 21.6782H13.8355C13.9969 22.31 14.2469 22.9078 14.5719 23.4531L14.0583 23.9667C13.8128 24.2122 13.8128 24.6122 14.0583 24.8553L15.5445 26.3417C15.7877 26.5849 16.1876 26.5849 16.4331 26.3417L16.9467 25.8281C17.4921 26.1531 18.0898 26.4031 18.7216 26.5644V27.2894C18.7216 27.6349 19.0034 27.9189 19.3489 27.9189H21.4511C21.7965 27.9189 22.0806 27.6349 22.0806 27.2894V26.5644C22.7124 26.4031 23.3078 26.1531 23.8555 25.8281L24.3668 26.3417C24.6123 26.5849 25.0122 26.5849 25.2577 26.3417L26.7417 24.8553C26.9872 24.6121 26.9872 24.2122 26.7417 23.9667L26.2304 23.4531C26.5531 22.9077 26.8054 22.31 26.9667 21.6782H27.6893C28.0371 21.6782 28.3189 21.3964 28.3189 21.0487V18.9488C28.3189 18.6033 28.0371 18.3192 27.6893 18.3192H26.9667C26.8054 17.6874 26.5554 17.092 26.2304 16.5443L26.7417 16.0307C26.9872 15.7875 26.9872 15.3876 26.7417 15.1421L25.2577 13.6581C25.0122 13.4126 24.6123 13.4126 24.3668 13.6581L23.8555 14.1694Z" fill="#3C64B1"/>
<path fill-rule="evenodd" clip-rule="evenodd" d="M8.98438 5.41669C8.98438 6.25528 9.29688 7.0052 10.1448 7.67427H20.3647V8.36286C20.376 9.09466 21.0442 9.40145 21.5691 9.06059L25.7394 5.99934C26.3189 5.64934 26.3189 5.02661 25.7394 4.67669L21.5691 1.61544C21.0441 1.2745 20.376 1.57911 20.3647 2.31091V2.9995H10.1448C9.55727 3.20317 8.90625 3.40395 8.90625 4.24481L8.98438 5.41669Z" fill="#3DACE3"/>
<path fill-rule="evenodd" clip-rule="evenodd" d="M10.6926 5.33791C10.6926 6.17658 10.4949 6.97197 10.1449 7.67424C9.28595 9.4083 7.49735 10.5992 5.43157 10.5991C3.14985 10.5991 1.20681 9.14682 0.477275 7.11736C0.277275 6.56057 0.168213 5.96291 0.168213 5.33791C0.168213 4.71291 0.277275 4.11291 0.477275 3.55838C1.20681 1.52893 3.14985 0.0766602 5.43157 0.0766602C7.49735 0.0766602 9.28587 1.26752 10.1449 2.99932C10.4949 3.70385 10.6926 4.49705 10.6926 5.33791ZM5.1029 7.56517C5.1029 7.89861 5.37321 8.16885 5.70657 8.16885C6.03993 8.16885 6.31024 7.89853 6.31016 7.56517V3.10845C6.31016 2.77502 6.03985 2.50478 5.70649 2.50478H4.7543C4.42087 2.50478 4.15063 2.77502 4.15063 3.10845C4.15063 3.44189 4.42095 3.71213 4.7543 3.71213H5.1029V7.56517Z" fill="#3C64B1"/>
<path fill-rule="evenodd" clip-rule="evenodd" d="M32.3572 10.0537C30.6232 9.19241 29.4324 7.40381 29.4324 5.33795C29.4324 2.43116 31.7891 0.0767041 34.6957 0.0767822C37.6001 0.0767822 39.9568 2.43123 39.9568 5.33795C39.9568 7.40381 38.766 9.19241 37.032 10.0537C36.3275 10.4037 35.5343 10.5992 34.6957 10.5992C33.8549 10.5992 33.0618 10.4037 32.3572 10.0537ZM33.4571 8.16506C33.537 8.1917 33.6048 8.21428 34.4794 8.21428C34.8217 8.21428 35.2875 8.21084 35.9258 8.2028C36.2592 8.19866 36.526 7.92498 36.5218 7.59162C36.5177 7.25827 36.2468 6.9928 35.9107 6.99561C35.5339 7.00037 35.1367 7.00373 34.7854 7.00522C35.0216 6.68662 35.331 6.26061 35.7286 5.69342C36.021 5.276 36.2117 4.87905 36.2953 4.51358C36.2996 4.49514 36.3029 4.47639 36.3054 4.45764L36.3282 4.2849C36.3316 4.25881 36.3333 4.23248 36.3333 4.20616C36.3333 3.2442 35.5507 2.46162 34.5888 2.46162C33.7566 2.46162 33.0371 3.05405 32.8781 3.8703C32.8144 4.19756 33.0281 4.51451 33.3553 4.57826C33.6827 4.64209 33.9995 4.42834 34.0632 4.10115C34.112 3.85076 34.333 3.66897 34.5888 3.66897C34.8742 3.66897 35.1083 3.89264 35.125 4.17389L35.1126 4.26866C35.0746 4.41764 34.9786 4.65983 34.7399 5.00053C34.0399 5.99917 33.6197 6.54993 33.3936 6.84631L33.3924 6.8478C33.0988 7.23264 32.9513 7.42584 33.0524 7.75444C33.1124 7.94959 33.2599 8.09928 33.4571 8.16506Z" fill="#3C64B1"/>
<path fill-rule="evenodd" clip-rule="evenodd" d="M7.59726 29.9463C9.33125 30.8076 10.5221 32.594 10.5221 34.6621C10.5221 37.5666 8.16773 39.9233 5.26109 39.9233C3.13852 39.9233 1.30906 38.6665 0.477266 36.8552C0.170469 36.187 0 35.4439 0 34.6621C0 33.878 0.170469 33.1349 0.477187 32.4667C0.979453 31.3712 1.84758 30.4804 2.9225 29.9463C3.62703 29.5963 4.42016 29.3986 5.26101 29.3986C6.09961 29.3986 6.895 29.5963 7.59726 29.9463ZM5.89203 37.5452L5.89749 37.5453C6.22835 37.5453 6.49812 37.2785 6.50093 36.9468C6.50265 36.7562 6.50507 36.4798 6.50757 36.1565H6.50867C6.8421 36.1565 7.11234 35.8862 7.11234 35.5528C7.11234 35.2219 6.84593 34.9531 6.51585 34.9493C6.52242 33.8285 6.52515 32.6813 6.51046 32.5162C6.47796 32.11 6.23281 31.7775 5.88593 31.6694C5.54085 31.5618 5.17554 31.6925 4.90726 32.0215C4.6382 32.3549 3.39929 34.5853 3.02601 35.261C2.92265 35.448 2.92585 35.6756 3.03445 35.8596C3.14304 36.0437 3.3407 36.1566 3.55437 36.1566H5.30015C5.29804 36.4323 5.29585 36.6961 5.29375 36.9362C5.29078 37.2696 5.55867 37.5422 5.89203 37.5452ZM5.30828 34.9493H4.58124C4.84476 34.4793 5.10054 34.0288 5.31359 33.66C5.31289 34.0383 5.31093 34.486 5.30828 34.9493Z" fill="#3C64B1"/>
<path fill-rule="evenodd" clip-rule="evenodd" d="M30.0255 32.3235C30.8846 30.5894 32.6731 29.3986 34.7389 29.3986C37.6456 29.3986 40 31.7553 40 34.6622C40 37.5666 37.6455 39.9233 34.7389 39.9233C32.6731 39.9233 30.8846 38.7325 30.0255 36.9984C29.6755 36.2939 29.4778 35.5007 29.4778 34.6621C29.4778 33.8211 29.6755 33.028 30.0255 32.3235ZM34.739 31.7766C35.7008 31.7766 36.4834 32.5592 36.4834 33.5211C36.4834 33.9569 36.3224 34.3556 36.0572 34.6617C36.3224 34.9674 36.4833 35.3655 36.4833 35.8007C36.4833 36.7626 35.7008 37.5452 34.7389 37.5452C33.8735 37.5452 33.1308 36.8994 33.0115 36.0431C33.0011 35.9635 32.9967 35.8882 32.9967 35.8007C32.9967 35.4672 33.2669 35.197 33.6004 35.197C33.9338 35.197 34.204 35.4673 34.204 35.8007C34.204 35.8349 34.2054 35.8607 34.2081 35.8819C34.244 36.1396 34.4726 36.3379 34.739 36.3379C35.0352 36.3379 35.2762 36.0969 35.2762 35.8007C35.2762 35.5057 35.0351 35.2657 34.739 35.2657C34.4055 35.2657 34.1353 34.9955 34.1353 34.6621C34.1353 34.3286 34.4056 34.0584 34.739 34.0584C35.0352 34.0584 35.2762 33.8174 35.2762 33.5211C35.2762 33.2249 35.0351 32.9839 34.739 32.9839C34.4832 32.9839 34.2621 33.1657 34.2133 33.4161C34.1496 33.7433 33.8329 33.9568 33.5054 33.8932C33.1782 33.8295 32.9645 33.5125 33.0283 33.1853C33.1873 32.369 33.9068 31.7766 34.739 31.7766Z" fill="#3C64B1"/>
</g>
<defs>
<clipPath id="clip0">
<rect width="40" height="40" fill="white"/>
</clipPath>
</defs>
</svg>
