<svg width="27" height="32" viewBox="0 0 27 32" fill="none" xmlns="http://www.w3.org/2000/svg">
<path d="M9.35352 0V2.66943H12.0229V4.00412C12.9572 3.87067 13.758 3.87067 14.6924 4.00412V2.66943H17.3618V0H9.35352Z" fill="#3DACE3"/>
<path d="M22.4337 8.80855L23.368 7.87427L24.4358 8.94206L26.3044 7.07345L22.3003 3.06934L20.4316 4.93794L21.4994 6.00567L20.2982 7.2069C13.8916 3.33623 5.61642 5.33829 1.87926 11.7449C-1.85789 18.1515 0.144103 26.1597 6.41724 30.0304C12.6904 33.901 20.9655 31.899 24.7027 25.4924C28.0395 20.0201 27.1052 13.0796 22.4337 8.80855ZM13.3577 27.8949C8.15233 27.8949 4.01477 23.7573 4.01477 18.5519C4.01477 13.3466 8.15233 9.20896 13.3577 9.20896V18.5519H22.7006C22.7007 23.7572 18.563 27.8949 13.3577 27.8949Z" fill="#3DACE3"/>
</svg>
