<svg width="50" height="42" viewBox="0 0 50 42" fill="none" xmlns="http://www.w3.org/2000/svg">
<path fill-rule="evenodd" clip-rule="evenodd" d="M5.15048 40.5768L5.86907 41.4391L2.75514 41.487L2.70724 39.4749C2.40063 39.9348 2.35592 41.0079 2.37189 41.487H0.0244731C-0.0553712 40.8962 0.0148918 39.3504 0.934698 37.894C1.8545 36.4377 4.06459 35.1793 5.05466 34.7322L5.86907 35.4987L5.86836 35.5037L5.15048 40.5768ZM17.2465 35.5038L16.5286 40.5768L17.2472 41.4391L14.1333 41.4871L14.0854 39.475C13.7788 39.9349 13.7341 41.008 13.75 41.4871H11.4026C11.4005 41.4717 11.3986 41.4557 11.3967 41.4391H9.36625C9.36625 40.6726 9.07881 39.7783 8.93509 39.427V41.4391H5.96488L6.58767 40.5768L5.86836 35.5037L6.63557 34.7322C7.25836 35.0196 8.79137 35.8532 9.94113 36.888C10.7378 37.605 11.2125 38.9921 11.4607 40.1377C11.5745 39.4694 11.8234 38.6691 12.3128 37.8941C13.2326 36.4377 15.4427 35.1794 16.4328 34.7322L17.2472 35.4987L17.2465 35.5038ZM17.2465 35.5038L18.0137 34.7322C18.6365 35.0197 20.1695 35.8532 21.3193 36.888C22.469 37.9228 22.9481 40.3533 23.0439 41.4391H20.7444C20.7444 40.6726 20.457 39.7784 20.3132 39.4271V41.4391H17.343L17.9658 40.5768L17.2465 35.5038ZM28.9363 41.4391L28.2177 40.5768L28.9356 35.5038L29.6549 40.5768L29.0321 41.4391H32.0023V39.4271C32.146 39.7784 32.4335 40.6726 32.4335 41.4391H34.733C34.6372 40.3533 34.1581 37.9228 33.0083 36.888C31.8586 35.8532 30.3256 35.0197 29.7028 34.7322L28.9356 35.5038L28.9363 35.4987L28.1219 34.7322C27.1318 35.1794 24.9217 36.4377 24.0019 37.8941C23.0821 39.3504 23.0119 40.8962 23.0917 41.4871H25.4391C25.4231 41.008 25.4679 39.9349 25.7745 39.475L25.8224 41.4871L28.9363 41.4391Z" fill="#4759A4"/>
<path fill-rule="evenodd" clip-rule="evenodd" d="M40.6496 9.96464L39.5956 8.86279C39.1804 9.07038 38.2063 9.53348 37.6314 9.7251C37.0246 9.75704 35.3894 9.62929 33.7031 8.86279C32.0168 8.09628 29.9664 7.07427 29.152 6.65908C28.7368 6.40358 27.686 6.15127 26.8046 7.18606L17.8939 3.44934L17.5586 4.31166L26.565 8.14418C26.581 8.4955 26.8046 9.27478 27.5711 9.58138C27.8337 9.68642 28.305 9.94618 28.9031 10.2759C30.4874 11.1491 32.9618 12.5129 34.805 12.7911L36.338 13.0786V22.5641L36.4817 23.091V39.9062C36.5456 40.4172 36.9991 41.4584 38.3021 41.5351C39.6052 41.6117 40.2184 40.4811 40.3621 39.9062V25.8217H40.7454V39.9062C40.8412 40.4492 41.3586 41.5351 42.6616 41.5351C43.9647 41.5351 44.546 40.4492 44.6737 39.9062V23.9534C44.8494 24.0971 45.3252 24.3845 45.8235 24.3845C46.3217 24.3845 46.9253 24.0332 47.1649 23.8575C47.8675 22.6918 49.2344 19.8046 49.0811 17.5818C48.9278 15.3589 47.2926 12.855 46.4942 11.8809C45.4083 10.8749 42.9491 8.86279 41.7993 8.86279L40.6496 9.96464ZM40.6487 10.2521L39.6427 16.9111L40.6487 18.3483L41.7027 16.9111L40.6487 10.2521ZM45.0561 20.5041C45.0944 20.3891 45.0721 17.0388 45.0561 15.3781C45.2797 15.8092 45.7268 16.9494 45.7268 18.0608C45.7268 19.1723 45.2797 20.1528 45.0561 20.5041Z" fill="#4759A4"/>
<path fill-rule="evenodd" clip-rule="evenodd" d="M14.6364 27.7857C14.6364 29.4791 13.2637 30.8518 11.5703 30.8518C9.87703 30.8518 8.50433 29.4791 8.50433 27.7857C8.50433 26.0924 9.87703 24.7197 11.5703 24.7197C13.2637 24.7197 14.6364 26.0924 14.6364 27.7857ZM8.88741 31.5226C8.88741 33.2159 7.51471 34.5886 5.82139 34.5886C4.12807 34.5886 2.75537 33.2159 2.75537 31.5226C2.75537 29.8293 4.12807 28.4565 5.82139 28.4565C7.51471 28.4565 8.88741 29.8293 8.88741 31.5226ZM17.2233 34.5886C18.9166 34.5886 20.2893 33.2159 20.2893 31.5226C20.2893 29.8293 18.9166 28.4565 17.2233 28.4565C15.5299 28.4565 14.1572 29.8293 14.1572 31.5226C14.1572 33.2159 15.5299 34.5886 17.2233 34.5886ZM26.4215 27.7857C26.4215 29.4791 25.0488 30.8518 23.3555 30.8518C21.6622 30.8518 20.2895 29.4791 20.2895 27.7857C20.2895 26.0924 21.6622 24.7197 23.3555 24.7197C25.0488 24.7197 26.4215 26.0924 26.4215 27.7857ZM29.1044 34.5886C30.7978 34.5886 32.1705 33.2159 32.1705 31.5226C32.1705 29.8293 30.7978 28.4565 29.1044 28.4565C27.4111 28.4565 26.0384 29.8293 26.0384 31.5226C26.0384 33.2159 27.4111 34.5886 29.1044 34.5886Z" fill="#3DACE3"/>
<circle cx="40.6973" cy="4.31159" r="4.31159" fill="#3DACE3"/>
<path fill-rule="evenodd" clip-rule="evenodd" d="M23.2595 31.9058L22.493 31.1393L21.3432 31.6183C21.2634 32.3849 20.8258 34.052 19.7144 34.5886C20.6406 35.1794 22.493 36.4569 22.493 36.8402L23.2595 31.9058ZM23.2595 31.9058L24.2176 36.8402L27.0441 34.5886C26.086 34.282 25.527 32.4807 25.3674 31.6183L23.9781 31.1393L23.2595 31.9058ZM11.5221 31.9058L10.7556 31.1393L9.60587 31.6184C9.52603 32.3849 9.08848 34.052 7.97705 34.5886C8.90324 35.1794 10.7556 36.4569 10.7556 36.8402L11.5221 31.9058ZM11.5221 31.9058L12.4803 36.8402L15.3068 34.5886C14.3486 34.282 13.7897 32.4807 13.63 31.6184L12.2407 31.1393L11.5221 31.9058Z" fill="#4759A4"/>
</svg>
