<svg width="36" height="36" viewBox="0 0 36 36" fill="none" xmlns="http://www.w3.org/2000/svg">
<g clip-path="url(#clip0)">
<path d="M17.9996 9.00033C20.4848 9.00033 22.4995 6.98565 22.4995 4.50041C22.4995 2.01517 20.4848 0.000488281 17.9996 0.000488281C15.5143 0.000488281 13.4996 2.01517 13.4996 4.50041C13.4996 6.98565 15.5143 9.00033 17.9996 9.00033Z" fill="#3DACE3"/>
<path d="M24.7405 21.2313L23.7191 13.2755C23.6043 12.1212 22.6413 11.2505 21.4826 11.2505H20.2496C19.9504 11.2505 19.6646 11.3697 19.4531 11.579L17.9997 13.0325L16.5462 11.579C16.3347 11.3697 16.0489 11.2505 15.7497 11.2505H14.519C13.358 11.2505 12.395 12.1212 12.2825 13.2462L11.2588 21.2336C11.2183 21.5531 11.3173 21.8771 11.531 22.1178C11.7448 22.3608 12.0508 22.5003 12.3748 22.5003H13.5897L14.5302 33.9751C14.6427 35.1271 15.6079 36.0001 16.7689 36.0001H19.2326C20.3936 36.0001 21.3566 35.1271 21.4736 33.9548L22.4118 22.5003H23.6246C23.9486 22.5003 24.2545 22.3608 24.4683 22.1178C24.6843 21.8771 24.7833 21.5531 24.7405 21.2313Z" fill="#3DACE3"/>
<path d="M29.2494 9.00033C31.7347 9.00033 33.7494 6.98565 33.7494 4.50041C33.7494 2.01517 31.7347 0.000488281 29.2494 0.000488281C26.7642 0.000488281 24.7495 2.01517 24.7495 4.50041C24.7495 6.98565 26.7642 9.00033 29.2494 9.00033Z" fill="#3C64B1"/>
<path d="M6.7498 0.000488281C4.26809 0.000488281 2.24988 2.0187 2.24988 4.50041C2.24988 6.98212 4.26809 9.00033 6.7498 9.00033C9.22925 9.00033 11.2497 6.98212 11.2497 4.50041C11.2497 2.0187 9.22925 0.000488281 6.7498 0.000488281Z" fill="#3C64B1"/>
<path d="M35.9903 21.2313L34.9688 13.2777C34.8541 12.1212 33.8934 11.2505 32.7324 11.2505H31.4994C31.2002 11.2505 30.9144 11.3697 30.7029 11.579L29.2495 13.0325L27.796 11.579C27.5845 11.3697 27.2987 11.2505 27.0017 11.2505H25.7688C25.6293 11.2505 25.5033 11.3 25.3705 11.3247C25.6608 11.8377 25.888 12.3935 25.9555 13.0167L26.9747 20.9456C27.1007 21.9108 26.7992 22.8828 26.1513 23.614C25.8453 23.965 25.4538 24.2125 25.0353 24.406L25.7823 31.7251C25.897 32.8794 26.86 33.7501 28.021 33.7501H30.4847C31.6457 33.7501 32.6086 32.8771 32.7256 31.7049L33.6616 22.5003H34.8743C35.1983 22.5003 35.5043 22.3608 35.7181 22.1178C35.9341 21.8771 36.0331 21.5531 35.9903 21.2313Z" fill="#3C64B1"/>
<path d="M9.84117 23.6028C9.20218 22.8805 8.90519 21.9108 9.02669 20.9501L10.0504 12.9605C10.1089 12.362 10.3294 11.822 10.6107 11.3225C10.4847 11.3 10.3654 11.2505 10.2327 11.2505H8.99969C8.70044 11.2505 8.4147 11.3697 8.2032 11.579L6.74973 13.0325L5.29625 11.579C5.08476 11.3697 4.79901 11.2505 4.50202 11.2505H3.26897C2.10799 11.2505 1.145 12.1212 1.03251 13.2462L0.00877353 21.2336C-0.0317258 21.5531 0.0672725 21.8771 0.281019 22.1178C0.494765 22.3608 0.80301 22.5003 1.12475 22.5003H2.33973L3.28022 31.7251C3.39271 32.8771 4.35795 33.7501 5.51893 33.7501H7.98263C9.14361 33.7501 10.1066 32.8771 10.2236 31.7049L10.9706 24.4038C10.5499 24.208 10.1562 23.9583 9.84117 23.6028Z" fill="#3C64B1"/>
</g>
<defs>
<clipPath id="clip0">
<rect width="36" height="36" fill="white"/>
</clipPath>
</defs>
</svg>
