<svg width="45" height="45" viewBox="0 0 45 45" fill="none" xmlns="http://www.w3.org/2000/svg">
<path d="M8.05493 15.6016L6.43994 13.9867L14.9399 5.48666L16.5549 7.10157L20.3456 7.63559L24.5981 11.888L24.0123 12.4738C23.2176 13.2686 21.9245 13.2686 21.1297 12.4739L19.0041 10.3482L17.1412 12.211L19.8056 14.8754H17.0534V25.0886C16.4371 24.7885 15.7455 24.6198 15.0152 24.6198H13.8162L8.58895 19.3925L8.05493 15.6016ZM16.4897 38.6098V36.3259L14.1868 33.2677V27.2542H15.0153C16.1392 27.2542 17.0535 28.1685 17.0535 29.2924V32.2984H19.688V17.5098H28.6207C29.8297 17.5098 30.8133 18.4934 30.8133 19.7024V24.9903L30.798 25.0056L30.8133 25.0209V33.2678L28.5104 36.326V38.6099L16.4897 38.6098ZM36.9451 15.6016L36.4111 19.3924L33.4478 22.3557V19.7024C33.4478 17.0408 31.2824 14.8754 28.6207 14.8754H25.2276C25.4553 14.7179 25.6725 14.5392 25.8751 14.3366L28.3237 11.888L24.3629 7.92712L24.6543 7.63559L28.445 7.10157L30.06 5.48666L38.56 13.9867L36.9451 15.6016Z" fill="#3DACE3"/>
<path d="M44.0465 10.4364L41.3908 13.0921L30.9546 2.6557L33.6102 0L44.0465 10.4364ZM15.1203 45V41.2444H29.8794V45H15.1203ZM11.3895 0L14.0452 2.6557L3.60883 13.0921L0.953125 10.4364L11.3895 0Z" fill="#4759A4"/>
</svg>
