<svg width="40" height="40" viewBox="0 0 40 40" fill="none" xmlns="http://www.w3.org/2000/svg">
<path d="M6.71875 4.24133V0H1.25C0.602812 0 0.078125 0.524687 0.078125 1.17188V12.5H3.48492C5.57344 10.2455 6.71875 7.33164 6.71875 4.24133Z" fill="#3DACE3"/>
<path d="M14.5311 1.95312V0H9.06238V4.24133C9.06238 6.15633 8.69082 8.02437 7.95801 9.79352C7.61699 10.6168 7.20457 11.3994 6.72559 12.1379C11.2162 10.928 14.5311 6.82078 14.5311 1.95312Z" fill="#3DACE3"/>
<path d="M6.71875 21.7993C6.71875 19.1121 5.57234 16.5993 3.55969 14.8438H0.078125V22.2656C0.078125 22.9128 0.602812 23.4375 1.25 23.4375H6.71875V21.7993Z" fill="#3DACE3"/>
<path d="M33.2812 4.24133V0H38.75C39.3972 0 39.9219 0.524687 39.9219 1.17188V12.5H36.5151C34.4266 10.2455 33.2812 7.33164 33.2812 4.24133Z" fill="#3DACE3"/>
<path d="M25.4688 1.95312V0H30.9375V4.24133C30.9375 6.15633 31.3091 8.02437 32.0419 9.79352C32.3829 10.6168 32.7953 11.3994 33.2743 12.1379C28.7837 10.928 25.4688 6.82078 25.4688 1.95312Z" fill="#3DACE3"/>
<path d="M33.2812 21.7993C33.2812 19.1121 34.4277 16.5993 36.4403 14.8438H39.9219V22.2656C39.9219 22.9128 39.3972 23.4375 38.75 23.4375H33.2812V21.7993Z" fill="#3DACE3"/>
<path d="M8.84131 19.5312C8.9874 20.27 9.06271 21.0289 9.06271 21.7993V23.4375H30.9377V21.7993C30.9377 21.0289 31.013 20.27 31.1591 19.5312H8.84131Z" fill="#3C64B1"/>
<path d="M23.125 1.95312V0H16.875V1.95312C16.875 8.18383 12.4314 13.3959 6.54688 14.5876C7.18344 15.3848 7.7075 16.2589 8.11008 17.1875H31.8899C32.2924 16.2588 32.8165 15.3848 33.4531 14.5876C27.5686 13.3959 23.125 8.18383 23.125 1.95312Z" fill="#3C64B1"/>
<path d="M8.51562 40H14.6094V36.4062C14.6094 34.7235 13.2452 33.3594 11.5625 33.3594C9.87977 33.3594 8.51562 34.7235 8.51562 36.4062V40Z" fill="#3C64B1"/>
<path d="M20 33.3594C18.3173 33.3594 16.9531 34.7235 16.9531 36.4062V40H23.0469V36.4062C23.0469 34.7235 21.6827 33.3594 20 33.3594Z" fill="#3C64B1"/>
<path d="M33.8281 36.4062V40H38.75C39.3972 40 39.9219 39.4753 39.9219 38.8281V36.4062C39.9219 34.7235 38.5577 33.3594 36.875 33.3594C35.1923 33.3594 33.8281 34.7235 33.8281 36.4062Z" fill="#3C64B1"/>
<path d="M28.4375 33.3594C26.7548 33.3594 25.3906 34.7235 25.3906 36.4062V40H31.4844V36.4062C31.4844 34.7235 30.1202 33.3594 28.4375 33.3594Z" fill="#3C64B1"/>
<path d="M3.125 33.3594C1.44227 33.3594 0.078125 34.7235 0.078125 36.4062V38.8281C0.078125 39.4753 0.602812 40 1.25 40H6.17188V36.4062C6.17188 34.7235 4.80773 33.3594 3.125 33.3594Z" fill="#3C64B1"/>
<path d="M7.34375 33.0564C8.09914 32.1071 9.16687 31.4179 10.3906 31.1455V30.1563C10.3906 28.4735 9.02648 27.1094 7.34375 27.1094C5.66102 27.1094 4.29688 28.4735 4.29688 30.1563V31.1455C5.52062 31.4179 6.58836 32.1071 7.34375 33.0564Z" fill="#3C64B1"/>
<path d="M15.7812 33.0564C16.5366 32.1071 17.6044 31.4179 18.8281 31.1455V30.1563C18.8281 28.4735 17.464 27.1094 15.7812 27.1094C14.0985 27.1094 12.7344 28.4735 12.7344 30.1563V31.1455C13.9581 31.4179 15.0259 32.1071 15.7812 33.0564Z" fill="#3C64B1"/>
<path d="M32.6562 33.0564C33.4116 32.1071 34.4794 31.4179 35.7031 31.1455V30.1563C35.7031 28.4735 34.339 27.1094 32.6562 27.1094C30.9735 27.1094 29.6094 28.4735 29.6094 30.1563V31.1455C30.8331 31.4179 31.9009 32.1071 32.6562 33.0564Z" fill="#3C64B1"/>
<path d="M24.2188 33.0564C24.9741 32.1071 26.0419 31.4179 27.2656 31.1455V30.1563C27.2656 28.4735 25.9015 27.1094 24.2188 27.1094C22.536 27.1094 21.1719 28.4735 21.1719 30.1563V31.1455C22.3956 31.4179 23.4634 32.1071 24.2188 33.0564Z" fill="#3C64B1"/>
</svg>
