<svg width="36" height="36" viewBox="0 0 36 36" fill="none" xmlns="http://www.w3.org/2000/svg">
<path d="M12.7266 29.6016H6.39844V23.2734H8.50781V27.4922H12.7266V29.6016Z" fill="#4759A4"/>
<path d="M29.6016 12.7266H27.4922V8.50781H23.2734V6.39844H29.6016V12.7266Z" fill="#3DACE3"/>
<path d="M0 0V21.1641H21.1641V0H0ZM16.9453 8.50781H14.7471C14.5176 10.4939 13.6567 12.2948 12.3377 13.701C12.8135 13.9459 13.3106 14.1586 13.8483 14.2931L16.1461 14.8679L15.6353 16.9134L13.3374 16.3387C12.3495 16.0919 11.4381 15.6847 10.6172 15.1594C9.79629 15.6847 8.8849 16.0918 7.89701 16.3387L5.59913 16.9134L5.08823 14.8679L7.38612 14.2931C7.92373 14.1586 8.42084 13.9459 8.89671 13.701C7.57772 12.2948 6.71681 10.4939 6.48724 8.50781H4.28906V6.39844H9.5625V4.28906H11.6719V6.39844H16.9453V8.50781Z" fill="#3DACE3"/>
<path d="M10.6172 12.4647C11.6849 11.4122 12.4076 10.0362 12.6376 8.50781H8.5968C8.82672 10.0361 9.54947 11.4122 10.6172 12.4647Z" fill="#3DACE3"/>
<path d="M23.2734 14.8359V22.3735L24.4198 19.0547H26.1213L28.4224 25.3828H30.6562V27.4922H29.1895L30.5924 31.3504L28.6107 32.0714L26.9456 27.4922H23.7373L22.1611 32.055L20.167 31.3669L21.5054 27.4922H20.1094V25.3828H22.2341L22.9627 23.2734H14.8359V36H36V14.8359H23.2734Z" fill="#4759A4"/>
<path d="M24.4661 25.3821H26.1787L25.3005 22.9668L24.4661 25.3821Z" fill="#4759A4"/>
</svg>
