<svg width="35" height="35" viewBox="0 0 35 35" fill="none" xmlns="http://www.w3.org/2000/svg">
<path d="M28.5115 13.0176L22.7214 15.9126V10.1226L28.5115 13.0176Z" fill="#3DACE3"/>
<path d="M0 2.92627V24.1231V23.9885C0.0751953 21.4482 1.06846 19.1281 2.63047 17.4554C3.10283 16.9495 3.62646 16.5113 4.1918 16.1463C3.8623 15.4743 3.67773 14.7203 3.67773 13.9232C3.67773 11.1267 5.95273 8.85098 8.75 8.85098C11.5473 8.85098 13.8223 11.1267 13.8223 13.9232C13.8223 14.7094 13.6425 15.4552 13.3212 16.1196C16.1717 17.8907 17.326 20.8841 17.4111 24.1231H35V2.92627H0ZM20.6705 19.2307V6.8043L33.0969 13.0175L20.6705 19.2307Z" fill="#4759A4"/>
<path d="M8.76008 16.9684C10.4317 16.9684 11.7868 15.6133 11.7868 13.9417C11.7868 12.2701 10.4317 10.915 8.76008 10.915C7.08849 10.915 5.7334 12.2701 5.7334 13.9417C5.7334 15.6133 7.08849 16.9684 8.76008 16.9684Z" fill="#3DACE3"/>
<path d="M8.43854 32.0744C10.1101 32.0744 11.4652 30.7193 11.4652 29.0477C11.4652 27.3761 10.1101 26.021 8.43854 26.021C6.76695 26.021 5.41187 27.3761 5.41187 29.0477C5.41187 30.7193 6.76695 32.0744 8.43854 32.0744Z" fill="#3DACE3"/>
<path d="M15.3678 24.123H2.15259C2.22765 21.6646 3.31319 19.1707 5.46938 17.8545C6.35532 18.6126 7.50513 19.0706 8.7602 19.0706C10.0269 19.0706 11.1863 18.6044 12.0756 17.834C14.4128 19.1854 15.3016 21.5578 15.3678 24.123Z" fill="#3DACE3"/>
<path d="M3.5875 29.0479C3.5875 29.3992 3.6251 29.7424 3.69688 30.0732H0V28.0225H3.69688C3.6251 28.3533 3.5875 28.6965 3.5875 29.0479Z" fill="#4759A4"/>
<path d="M35.0001 28.0225V30.0732H13.1804C13.2522 29.7424 13.2898 29.3992 13.2898 29.0479C13.2898 28.6965 13.2522 28.3533 13.1804 28.0225H35.0001Z" fill="#4759A4"/>
</svg>
