<svg width="24" height="24" viewBox="0 0 24 24" fill="none" xmlns="http://www.w3.org/2000/svg">
<path d="M19.2084 11.0695C20.9751 11.0695 22.3051 10.2811 23.2857 8.90862L21.9751 7.83745C21.6513 8.29449 21.2329 8.66475 20.7528 8.91904C20.2727 9.17333 19.744 9.3047 19.2084 9.30281C17.2911 9.30281 15.9017 7.62963 15.9017 5.57654C15.9017 3.52346 17.2684 1.75604 19.2631 1.75604C20.1497 1.75604 20.7764 1.98027 21.3231 2.34304V4.14831H22.9724V1.5161L22.6564 1.24972C21.7497 0.48562 20.3651 0.0800018 19.2077 0.0800018C16.3784 0.0800018 14.0771 2.54514 14.0771 5.57585C14.0771 8.6037 16.3771 11.0695 19.2077 11.0695H19.2084ZM22.6304 21.9098L22.5717 19.3797V13.2055H19.1317V14.9729H20.8344V19.1619C20.8344 20.9665 19.5477 22.244 18.2497 22.244C16.9517 22.244 16.2744 21.28 16.2744 19.4761V13.2047H13.0611V14.9722H14.5371V19.7825C14.5371 22.2304 15.8184 23.9172 18.1037 23.9172C19.4171 23.9172 20.4171 23.1366 21.0137 21.9334H21.0404L21.2757 23.6158H23.9191V21.9119H22.6324V21.9084L22.6304 21.9098ZM13.6971 0.339231H10.8304L8.33706 8.09452H8.29839L5.81839 0.339231H2.76372V2.10737H4.48172L7.43839 10.9467H9.00906V10.9446L12.0924 2.10809H13.6957V0.33995L13.6971 0.339231ZM0.0810547 23.6387H1.77972V21.8198H0.0817214V23.6387H0.0810547ZM6.64106 15.255H6.62239L6.51572 13.2055H3.48372V14.8165H5.09705V21.9105H3.48372V23.6151H10.9771V21.9441H6.80506V17.663C6.99372 16.1133 8.07839 14.7901 9.55839 14.7901H9.58506L9.55506 16.374H11.2044V13.1762H9.90039C8.40705 13.1719 7.29906 14.0374 6.64039 15.2557L6.64106 15.255Z" fill="#2B2B2B"/>
</svg>
