<svg width="22" height="22" viewBox="0 0 22 22" fill="none" xmlns="http://www.w3.org/2000/svg">
<path d="M15.8058 10.3797C16.9835 10.3797 17.8702 9.85411 18.524 8.93909L17.6502 8.22497C17.4344 8.52967 17.1554 8.77651 16.8353 8.94603C16.5153 9.11556 16.1628 9.20314 15.8058 9.20188C14.5275 9.20188 13.6013 8.08643 13.6013 6.71771C13.6013 5.34898 14.5124 4.1707 15.8422 4.1707C16.4333 4.1707 16.8511 4.32019 17.2155 4.56204V5.76555H18.3151V4.01074L18.1044 3.83316C17.5 3.32376 16.5769 3.05334 15.8053 3.05334C13.9191 3.05334 12.3849 4.69677 12.3849 6.71724C12.3849 8.73581 13.9182 10.3797 15.8053 10.3797H15.8058ZM18.0871 17.6065L18.048 15.9198V11.8036H15.7546V12.9819H16.8898V15.7746C16.8898 16.9777 16.032 17.8293 15.1666 17.8293C14.3013 17.8293 13.8498 17.1867 13.8498 15.9841V11.8032H11.7075V12.9815H12.6915V16.1883C12.6915 17.8203 13.5458 18.9448 15.0693 18.9448C15.9449 18.9448 16.6115 18.4244 17.0093 17.6223H17.0271L17.184 18.7439H18.9462V17.608H18.0884V17.6056L18.0871 17.6065ZM12.1315 3.22616H10.2204L8.5582 8.39635H8.53242L6.87909 3.22616H4.84264V4.40492H5.98798L7.95909 10.2978H9.0062V10.2964L11.0618 4.4054H12.1306V3.22664L12.1315 3.22616ZM3.0542 18.7591H4.18664V17.5466H3.05464V18.7591H3.0542ZM7.42753 13.17H7.41509L7.34398 11.8036H5.32264V12.8777H6.3982V17.607H5.32264V18.7434H10.3182V17.6294H7.53687V14.7753C7.66264 13.7422 8.38576 12.8601 9.37242 12.8601H9.3902L9.3702 13.916H10.4698V11.7841H9.60042C8.60487 11.7813 7.8662 12.3583 7.42709 13.1705L7.42753 13.17Z" fill="white"/>
</svg>
