<svg width="29" height="22" viewBox="0 0 29 22" fill="none" xmlns="http://www.w3.org/2000/svg">
<path d="M28.1504 21.2777C27.9614 21.2777 27.7739 21.2147 27.6205 21.0923L22.2963 16.8443C22.0943 16.6831 21.9766 16.4387 21.9766 16.1801V10.0185C21.9766 9.76001 22.0943 9.5156 22.2963 9.35435L27.6205 5.10635C27.8756 4.90285 28.2247 4.86343 28.5189 5.00497C28.8129 5.14657 28.9999 5.4441 28.9999 5.77051V20.4281C28.9999 20.7545 28.8129 21.052 28.5189 21.1936C28.4017 21.25 28.2757 21.2777 28.1504 21.2777Z" fill="#5D70C1"/>
<path d="M4.64452 2.27342H16.0292C16.4976 2.27342 16.8788 2.65455 16.8788 3.12302V3.46427H18.578V3.12302C18.578 1.71761 17.4346 0.574219 16.0292 0.574219H4.64452C4.17532 0.574219 3.79492 0.954613 3.79492 1.42382C3.79492 1.89302 4.17532 2.27342 4.64452 2.27342Z" fill="#5D70C1"/>
<path d="M5.09766 10.2607H10.7313V13.8741H5.09766V10.2607Z" fill="#5D70C1"/>
<path d="M17.7283 5.16309H2.5488C1.14339 5.16309 0 6.30648 0 7.71188V18.4867C0 19.8922 1.14339 21.0355 2.5488 21.0355H17.7283C19.1337 21.0355 20.2771 19.8922 20.2771 18.4867V7.71188C20.2771 6.30642 19.1337 5.16309 17.7283 5.16309ZM12.4304 14.7237C12.4304 15.1929 12.05 15.5733 11.5808 15.5733H4.248C3.77879 15.5733 3.3984 15.1929 3.3984 14.7237V9.41108C3.3984 8.94188 3.77879 8.56148 4.248 8.56148H11.5808C12.05 8.56148 12.4304 8.94188 12.4304 9.41108V14.7237ZM15.0096 14.7608C14.5404 14.7608 14.16 14.3804 14.16 13.9112C14.16 13.442 14.5404 13.0616 15.0096 13.0616C15.4788 13.0616 15.8592 13.442 15.8592 13.9112C15.8592 14.3804 15.4788 14.7608 15.0096 14.7608ZM15.0096 11.073C14.5404 11.073 14.16 10.6926 14.16 10.2234C14.16 9.75421 14.5404 9.37381 15.0096 9.37381C15.4788 9.37381 15.8592 9.75421 15.8592 10.2234C15.8592 10.6926 15.4788 11.073 15.0096 11.073Z" fill="#5D70C1"/>
</svg>
