<svg width="17" height="17" viewBox="0 0 17 17" fill="none" xmlns="http://www.w3.org/2000/svg">
<g clip-path="url(#clip0)">
<path d="M12.4008 10.1341L12.3944 10.1872C10.8368 9.41089 10.6739 9.30748 10.4727 9.60923C10.3331 9.81819 9.92656 10.2921 9.80402 10.4323C9.68006 10.5704 9.55681 10.5811 9.34643 10.4854C9.13393 10.3792 8.45181 10.1561 7.64431 9.43356C7.01531 8.87044 6.59314 8.17981 6.46848 7.96731C6.26093 7.60889 6.69514 7.55789 7.09039 6.80989C7.16123 6.66114 7.1251 6.54427 7.07268 6.43873C7.01956 6.33248 6.59668 5.29123 6.4196 4.87614C6.2496 4.46248 6.07464 4.51489 5.9436 4.51489C5.5356 4.47948 5.23739 4.48514 4.9746 4.75856C3.83135 6.01514 4.11964 7.31139 5.09785 8.68981C7.02027 11.2058 8.04452 11.6691 9.91735 12.3122C10.4231 12.473 10.8842 12.4504 11.249 12.3979C11.6556 12.3335 12.5006 11.8872 12.677 11.3879C12.8576 10.8885 12.8576 10.4741 12.8045 10.3785C12.7521 10.2829 12.6133 10.2297 12.4008 10.1341Z" fill="#363F6A"/>
<path d="M14.535 2.44304C9.08862 -2.822 0.0750833 0.996626 0.0715417 8.42421C0.0715417 9.90888 0.460417 11.3567 1.20133 12.6353L0 17L4.48729 15.8298C10.0867 18.8544 16.9972 14.8382 17 8.42846C17 6.17879 16.1217 4.06158 14.5244 2.47067L14.535 2.44304ZM15.5848 8.40509C15.5805 13.8118 9.64537 17.1884 4.95125 14.4288L4.69625 14.2772L2.04 14.9678L2.75187 12.3859L2.58258 12.1203C-0.338583 7.47009 3.0175 1.39258 8.551 1.39258C10.4309 1.39258 12.1954 2.12571 13.5242 3.45384C14.8523 4.77063 15.5848 6.53509 15.5848 8.40509Z" fill="#363F6A"/>
</g>
<defs>
<clipPath id="clip0">
<rect width="17" height="17" fill="white"/>
</clipPath>
</defs>
</svg>
