<svg width="52" height="40" viewBox="0 0 52 40" fill="none" xmlns="http://www.w3.org/2000/svg">
<path fill-rule="evenodd" clip-rule="evenodd" d="M46.5572 34.6544C48.1351 34.6544 49.4143 33.3752 49.4143 31.7972C49.4143 30.2193 48.1351 28.9401 46.5572 28.9401C44.9792 28.9401 43.7 30.2193 43.7 31.7972C43.7 33.3752 44.9792 34.6544 46.5572 34.6544ZM45.5434 35.023C42.9983 35.023 40.9351 37.0862 40.9351 39.6313V40H51.995V39.6313C51.995 37.0862 49.9318 35.023 47.3867 35.023H45.5434Z" fill="#3C64B1"/>
<path fill-rule="evenodd" clip-rule="evenodd" d="M34.0228 34.6544C35.6007 34.6544 36.8799 33.3752 36.8799 31.7972C36.8799 30.2193 35.6007 28.9401 34.0228 28.9401C32.4448 28.9401 31.1656 30.2193 31.1656 31.7972C31.1656 33.3752 32.4448 34.6544 34.0228 34.6544ZM33.0089 35.023C30.4638 35.023 28.4006 37.0862 28.4006 39.6313V40H39.4605V39.6313C39.4605 37.0862 37.3973 35.023 34.8522 35.023H33.0089Z" fill="#3C64B1"/>
<path fill-rule="evenodd" clip-rule="evenodd" d="M21.4881 34.6544C23.066 34.6544 24.3452 33.3752 24.3452 31.7972C24.3452 30.2193 23.066 28.9401 21.4881 28.9401C19.9101 28.9401 18.6309 30.2193 18.6309 31.7972C18.6309 33.3752 19.9101 34.6544 21.4881 34.6544ZM20.8429 35.023C18.0942 35.023 15.866 37.2513 15.866 40H26.9259C26.9259 37.2513 24.6976 35.023 21.9489 35.023H20.8429Z" fill="#3C64B1"/>
<path fill-rule="evenodd" clip-rule="evenodd" d="M16.4189 5.89861C16.4189 3.96434 17.987 2.3963 19.9212 2.3963H48.3083C50.2426 2.3963 51.8106 3.96434 51.8106 5.89861V24.8848C51.8106 26.819 50.2426 28.3871 48.3083 28.3871H19.9212C17.987 28.3871 16.4189 26.819 16.4189 24.8848V24.2396H17.8936V24.8848C17.8936 26.0046 18.8014 26.9124 19.9212 26.9124H48.3083C49.4282 26.9124 50.336 26.0046 50.336 24.8848V5.89861C50.336 4.77877 49.4282 3.87096 48.3083 3.87096H19.9212C18.8014 3.87096 17.8936 4.77877 17.8936 5.89861V6.91243H16.4189V5.89861Z" fill="#3C64B1"/>
<path fill-rule="evenodd" clip-rule="evenodd" d="M12.9167 4.0553C12.9167 6.29498 11.1011 8.1106 8.86143 8.1106C6.62175 8.1106 4.80613 6.29498 4.80613 4.0553C4.80613 1.81562 6.62175 0 8.86143 0C11.1011 0 12.9167 1.81562 12.9167 4.0553ZM14.2992 9.95392C13.0458 8.7742 10.2132 8.54071 8.95361 8.57143C3.64486 8.35024 2.13333 11.1214 2.04115 12.5346L0.013514 23.318C-0.0479299 23.6866 0.0688135 24.4424 1.02734 24.5161C1.98586 24.5899 2.40983 24.1167 2.50199 23.871L4.25315 16.682L3.88448 38.7097C3.97665 39.0783 4.43748 39.8157 5.54347 39.8157C6.64946 39.8157 7.17173 39.0783 7.29462 38.7097L8.58494 25.6221H9.2301L10.5204 38.7097C10.7355 39.0783 11.4052 39.8157 12.3637 39.8157C13.3223 39.8157 13.8691 39.0783 14.0227 38.7097L13.6541 17.3272L14.7601 18.7097C14.9444 18.9247 15.4974 19.3548 16.2347 19.3548C16.972 19.3548 17.2793 19.1705 17.3407 19.0783L20.3822 16.682C20.624 16.4402 21.0144 15.7822 20.676 15.0589L29.3588 8.5894C29.4404 8.52857 29.4573 8.41309 29.3965 8.33145C29.3357 8.24982 29.2202 8.23295 29.1385 8.29377L20.4622 14.7585C20.0087 14.339 19.2096 14.4967 18.8154 14.6544L16.5112 15.9447C16.2962 14.4393 15.5527 11.1336 14.2992 9.95392Z" fill="#3DACE3"/>
</svg>
