<svg width="100" height="45" viewBox="0 0 100 45" fill="none" xmlns="http://www.w3.org/2000/svg">
<path d="M0 11.0595V33.1545L19.2242 44.214L38.4242 33.1545V11.0595L19.2242 0L0 11.0595Z" fill="#363F6A"/>
<path d="M38.4727 11.0595C38.4727 11.0595 38.4727 11.0837 38.4485 11.0837C34.6182 17.6759 27.4667 22.0949 19.2727 22.1191H19.2242C15.3697 15.5268 8.21818 11.1078 0.0242424 11.0837C0.0242424 11.0837 0.0242424 11.0595 0 11.0595L19.2485 0L38.4727 11.0595Z" fill="#3DACE3"/>
<path d="M16.2909 33.2026C16.2909 37.2111 17.3576 41.0023 19.2485 44.238C19.2485 44.238 19.2485 44.2622 19.2242 44.2622L0 33.2026V11.0836H0.0242424C8.21818 11.0836 15.3697 15.5267 19.2 22.1189C19.2 22.1431 19.2242 22.1431 19.2242 22.1672C17.3576 25.403 16.2909 29.17 16.2909 33.2026Z" fill="#4759A4"/>
<path d="M38.4971 11.0836V33.2026L19.2729 44.2622C19.2729 44.2622 19.2729 44.238 19.2487 44.238C17.3577 41.0023 16.2911 37.2111 16.2911 33.2026C16.2911 29.1942 17.3577 25.403 19.2487 22.1672C19.2487 22.1431 19.2729 22.1431 19.2729 22.1189C27.4668 22.1189 34.6183 17.6758 38.4487 11.0836H38.4971Z" fill="#363F6A"/>
<path d="M47.5395 27.7454C47.9516 28.0835 48.1456 28.5664 48.1456 29.1701C48.1456 29.7738 47.9516 30.2326 47.5395 30.5707C47.1274 30.9087 46.5698 31.0778 45.8425 31.0778H44.194V32.9371H43.7819V27.2142H45.8425C46.5698 27.2383 47.1274 27.4074 47.5395 27.7454ZM47.2486 30.3051C47.5637 30.0394 47.7334 29.6531 47.7334 29.1701C47.7334 28.663 47.5637 28.3008 47.2486 28.011C46.9334 27.7454 46.4486 27.6005 45.8425 27.6005H44.194V30.6914H45.8425C46.4728 30.7156 46.9334 30.5707 47.2486 30.3051Z" fill="#999999"/>
<path d="M53.5517 32.9613L52.1942 31.0536C52.0002 31.0778 51.8063 31.1019 51.6366 31.1019H49.9881V32.9613H49.576V27.2383H51.6366C52.3639 27.2383 52.9214 27.4074 53.3336 27.7454C53.7457 28.0835 53.9396 28.5665 53.9396 29.1701C53.9396 29.6289 53.8184 29.9912 53.6002 30.3051C53.3578 30.619 53.0427 30.8363 52.6063 30.9571L54.0366 32.9613H53.5517ZM51.6366 30.7156C52.2427 30.7156 52.7275 30.5707 53.0427 30.3051C53.3578 30.0394 53.5275 29.6531 53.5275 29.146C53.5275 28.6389 53.3578 28.2767 53.0427 27.9869C52.7275 27.7213 52.2427 27.5764 51.6366 27.5764H49.9881V30.6914H51.6366V30.7156Z" fill="#999999"/>
<path d="M56.3882 32.6232C55.9276 32.3817 55.5882 32.0195 55.3215 31.5849C55.0549 31.1502 54.9337 30.6431 54.9337 30.1119C54.9337 29.5565 55.0549 29.0735 55.3215 28.6389C55.5882 28.2042 55.9276 27.842 56.3882 27.6005C56.8488 27.3591 57.3579 27.2142 57.9155 27.2142C58.473 27.2142 58.9821 27.3349 59.4427 27.6005C59.9033 27.842 60.2427 28.2042 60.5094 28.6389C60.7761 29.0735 60.8973 29.5806 60.8973 30.136C60.8973 30.6914 60.7761 31.1744 60.5094 31.6332C60.2427 32.0678 59.9033 32.43 59.4427 32.6715C58.9821 32.913 58.473 33.0579 57.9155 33.0579C57.3579 32.9854 56.8488 32.8647 56.3882 32.6232ZM59.2246 32.2851C59.6124 32.0678 59.9276 31.778 60.1458 31.3917C60.364 31.0053 60.4852 30.5707 60.4852 30.1119C60.4852 29.6289 60.364 29.2184 60.1458 28.8321C59.9276 28.4457 59.6124 28.1559 59.2246 27.9386C58.8367 27.7213 58.4003 27.6005 57.9155 27.6005C57.4306 27.6005 56.9943 27.7213 56.6064 27.9386C56.2185 28.1559 55.9033 28.4457 55.6852 28.8321C55.467 29.2184 55.3458 29.6531 55.3458 30.1119C55.3458 30.5948 55.467 31.0053 55.6852 31.3917C55.9033 31.778 56.2185 32.0678 56.6064 32.2851C56.9943 32.5025 57.4306 32.6232 57.9155 32.6232C58.4003 32.5991 58.8367 32.5025 59.2246 32.2851Z" fill="#999999"/>
<path d="M62.3517 27.2383H64.6305C65.2366 27.2383 65.7456 27.3591 66.2062 27.6006C66.6669 27.842 67.0305 28.1801 67.2729 28.6147C67.5396 29.0494 67.6608 29.5324 67.6608 30.0877C67.6608 30.6431 67.5396 31.1261 67.2729 31.5607C67.0062 31.9954 66.6669 32.3335 66.2062 32.5749C65.7456 32.8164 65.2123 32.9371 64.6305 32.9371H62.3517V27.2383ZM64.582 32.5749C65.1153 32.5749 65.5759 32.4783 65.9881 32.261C66.4002 32.0437 66.7153 31.7539 66.9335 31.3917C67.1517 31.0053 67.2729 30.5948 67.2729 30.1119C67.2729 29.6289 67.1517 29.1943 66.9335 28.8321C66.7153 28.4457 66.4002 28.1559 65.9881 27.9628C65.5759 27.7454 65.1153 27.6488 64.582 27.6488H62.7638V32.6232H64.582V32.5749Z" fill="#999999"/>
<path d="M69.6729 32.3576C69.2607 31.9471 69.0668 31.3193 69.0668 30.5224V27.2383H69.4789V30.5224C69.4789 31.2227 69.6486 31.7539 69.9638 32.092C70.2789 32.43 70.7638 32.6232 71.3698 32.6232C71.9759 32.6232 72.4365 32.4542 72.7759 32.092C73.091 31.7539 73.2607 31.2227 73.2607 30.5224V27.2383H73.6729V30.5224C73.6729 31.3193 73.4789 31.9471 73.0668 32.3576C72.6547 32.7681 72.0971 32.9854 71.3698 32.9854C70.6426 32.9854 70.085 32.7923 69.6729 32.3576Z" fill="#999999"/>
<path d="M76.5335 32.6232C76.0729 32.3817 75.7335 32.0195 75.4668 31.5849C75.2002 31.1502 75.0789 30.6431 75.0789 30.0877C75.0789 29.5323 75.2002 29.0494 75.4668 28.5906C75.7335 28.1559 76.0729 27.7937 76.5335 27.5523C76.9941 27.3108 77.5032 27.1659 78.0608 27.1659C78.4729 27.1659 78.8608 27.2383 79.2002 27.3591C79.5396 27.504 79.8547 27.6971 80.0971 27.9628L79.8305 28.2284C79.3699 27.7696 78.788 27.5523 78.0608 27.5523C77.5759 27.5523 77.1396 27.673 76.7517 27.8903C76.3638 28.1076 76.0486 28.3974 75.8305 28.7838C75.6123 29.1701 75.4911 29.6048 75.4911 30.0636C75.4911 30.5465 75.6123 30.957 75.8305 31.3434C76.0486 31.7298 76.3638 32.0195 76.7517 32.2369C77.1396 32.4542 77.5759 32.5749 78.0608 32.5749C78.7638 32.5749 79.3699 32.3576 79.8305 31.8988L80.0971 32.1644C79.8547 32.43 79.5638 32.6232 79.2002 32.7681C78.8365 32.913 78.4729 32.9613 78.0608 32.9613C77.4789 32.9854 76.9699 32.8647 76.5335 32.6232Z" fill="#999999"/>
<path d="M82.5213 27.6005H80.4607V27.2142H85.0183V27.6005H82.9577V32.9371H82.5456V27.6005H82.5213Z" fill="#999999"/>
<path d="M86.0365 27.2383H86.4486V32.9613H86.0365V27.2383Z" fill="#999999"/>
<path d="M89.3577 32.6232C88.8971 32.3817 88.5577 32.0195 88.291 31.5849C88.0244 31.1502 87.9032 30.6431 87.9032 30.1119C87.9032 29.5565 88.0244 29.0735 88.291 28.6389C88.5577 28.2042 88.8971 27.842 89.3577 27.6005C89.8183 27.3591 90.3274 27.2142 90.885 27.2142C91.4426 27.2142 91.9517 27.3349 92.4123 27.6005C92.8729 27.842 93.2123 28.2042 93.4789 28.6389C93.7456 29.0735 93.8668 29.5806 93.8668 30.136C93.8668 30.6914 93.7456 31.1744 93.4789 31.6332C93.2123 32.0678 92.8729 32.43 92.4123 32.6715C91.9517 32.913 91.4426 33.0579 90.885 33.0579C90.3274 32.9854 89.8183 32.8647 89.3577 32.6232ZM92.1941 32.2851C92.5819 32.0678 92.8971 31.778 93.1153 31.3917C93.3335 31.0053 93.4547 30.5707 93.4547 30.1119C93.4547 29.6289 93.3335 29.2184 93.1153 28.8321C92.8971 28.4457 92.5819 28.1559 92.1941 27.9386C91.8062 27.7213 91.3698 27.6005 90.885 27.6005C90.4001 27.6005 89.9638 27.7213 89.5759 27.9386C89.188 28.1559 88.8729 28.4457 88.6547 28.8321C88.4365 29.2184 88.3153 29.6531 88.3153 30.1119C88.3153 30.5948 88.4365 31.0053 88.6547 31.3917C88.8729 31.778 89.188 32.0678 89.5759 32.2851C89.9638 32.5025 90.4001 32.6232 90.885 32.6232C91.3698 32.5991 91.8062 32.5025 92.1941 32.2851Z" fill="#999999"/>
<path d="M100 27.2383V32.9613H99.6608L95.7577 27.9869V32.9613H95.3456V27.2383H95.7092L99.6123 32.2127V27.2383H100Z" fill="#999999"/>
<path d="M51.6121 19.4144V23.9783H48.606V19.3903L43.5879 11.0836H46.7636L50.2303 16.8065L53.6969 11.0836H56.6303L51.6121 19.4144Z" fill="#999999"/>
<path d="M59.1517 22.6745C58.1093 21.6603 57.6002 20.1873 57.6002 18.3038V11.0837H60.6063V18.2072C60.6063 20.5253 61.576 21.6844 63.4911 21.6844C64.4366 21.6844 65.1396 21.3947 65.6487 20.8393C66.1335 20.2839 66.4002 19.4146 66.4002 18.2072V11.0837H69.3336V18.3038C69.3336 20.1873 68.8245 21.6603 67.782 22.6745C66.7396 23.6887 65.3093 24.1958 63.4669 24.1958C61.6244 24.2199 60.1699 23.6887 59.1517 22.6745Z" fill="#999999"/>
<path d="M84.0726 23.9784L84.0484 16.2271L80.2423 22.6262H78.8848L75.1029 16.4203V24.0026H72.2908V11.0837H74.7636L79.612 19.1006L84.3878 11.0837H86.8605L86.909 23.9784H84.0726Z" fill="#999999"/>
<path d="M100 21.5878V23.9784H89.9637V11.0837H99.7577V13.4743H92.9455V16.2754H98.9577V18.5935H92.9455V21.5878H100Z" fill="#999999"/>
</svg>
