<svg width="100" height="45" viewBox="0 0 100 45" fill="none" xmlns="http://www.w3.org/2000/svg">
<path d="M0 11.0595V33.1545L19.2242 44.214L38.4242 33.1545V11.0595L19.2242 0L0 11.0595Z" fill="#363F6A"/>
<path d="M38.4727 11.0595C38.4727 11.0595 38.4727 11.0837 38.4485 11.0837C34.6182 17.6759 27.4667 22.0949 19.2727 22.1191H19.2242C15.3697 15.5268 8.21818 11.1078 0.0242424 11.0837C0.0242424 11.0837 0.0242424 11.0595 0 11.0595L19.2485 0L38.4727 11.0595Z" fill="#3DACE3"/>
<path d="M16.2909 33.2026C16.2909 37.2111 17.3576 41.0022 19.2485 44.238C19.2485 44.238 19.2485 44.2621 19.2242 44.2621L0 33.2026V11.0835H0.0242424C8.21818 11.0835 15.3697 15.5266 19.2 22.1189C19.2 22.143 19.2242 22.143 19.2242 22.1672C17.3576 25.4029 16.2909 29.1699 16.2909 33.2026Z" fill="#4759A4"/>
<path d="M38.4971 11.0835V33.2026L19.2729 44.2621C19.2729 44.2621 19.2729 44.238 19.2487 44.238C17.3577 41.0022 16.2911 37.2111 16.2911 33.2026C16.2911 29.1941 17.3577 25.4029 19.2487 22.1672C19.2487 22.143 19.2729 22.143 19.2729 22.1189C27.4668 22.1189 34.6183 17.6758 38.4487 11.0835H38.4971Z" fill="#363F6A"/>
<path d="M47.5394 27.7456C47.9516 28.0837 48.1455 28.5666 48.1455 29.1703C48.1455 29.774 47.9516 30.2328 47.5394 30.5709C47.1273 30.9089 46.5697 31.078 45.8425 31.078H44.194V32.9373H43.7819V27.2144H45.8425C46.5697 27.2385 47.1273 27.4075 47.5394 27.7456ZM47.2485 30.3052C47.5637 30.0396 47.7334 29.6533 47.7334 29.1703C47.7334 28.6632 47.5637 28.301 47.2485 28.0112C46.9334 27.7456 46.4485 27.6007 45.8425 27.6007H44.194V30.6916H45.8425C46.4728 30.7157 46.9334 30.5709 47.2485 30.3052Z" fill="white"/>
<path d="M53.5517 32.9612L52.1942 31.0536C52.0002 31.0777 51.8063 31.1019 51.6366 31.1019H49.9881V32.9612H49.576V27.2383H51.6366C52.3639 27.2383 52.9214 27.4073 53.3336 27.7454C53.7457 28.0834 53.9396 28.5664 53.9396 29.1701C53.9396 29.6289 53.8184 29.9911 53.6002 30.305C53.3578 30.6189 53.0427 30.8363 52.6063 30.957L54.0366 32.9612H53.5517ZM51.6366 30.7155C52.2427 30.7155 52.7275 30.5706 53.0427 30.305C53.3578 30.0394 53.5275 29.653 53.5275 29.1459C53.5275 28.6388 53.3578 28.2766 53.0427 27.9869C52.7275 27.7212 52.2427 27.5763 51.6366 27.5763H49.9881V30.6914H51.6366V30.7155Z" fill="white"/>
<path d="M56.3882 32.6234C55.9276 32.3819 55.5882 32.0197 55.3215 31.585C55.0549 31.1504 54.9337 30.6433 54.9337 30.1121C54.9337 29.5567 55.0549 29.0737 55.3215 28.6391C55.5882 28.2044 55.9276 27.8422 56.3882 27.6007C56.8488 27.3592 57.3579 27.2144 57.9155 27.2144C58.473 27.2144 58.9821 27.3351 59.4427 27.6007C59.9033 27.8422 60.2427 28.2044 60.5094 28.6391C60.7761 29.0737 60.8973 29.5808 60.8973 30.1362C60.8973 30.6916 60.7761 31.1745 60.5094 31.6333C60.2427 32.068 59.9033 32.4302 59.4427 32.6717C58.9821 32.9132 58.473 33.058 57.9155 33.058C57.3579 32.9856 56.8488 32.8649 56.3882 32.6234ZM59.2246 32.2853C59.6124 32.068 59.9276 31.7782 60.1458 31.3919C60.364 31.0055 60.4852 30.5709 60.4852 30.1121C60.4852 29.6291 60.364 29.2186 60.1458 28.8322C59.9276 28.4459 59.6124 28.1561 59.2246 27.9388C58.8367 27.7215 58.4003 27.6007 57.9155 27.6007C57.4306 27.6007 56.9943 27.7215 56.6064 27.9388C56.2185 28.1561 55.9033 28.4459 55.6852 28.8322C55.467 29.2186 55.3458 29.6532 55.3458 30.1121C55.3458 30.595 55.467 31.0055 55.6852 31.3919C55.9033 31.7782 56.2185 32.068 56.6064 32.2853C56.9943 32.5026 57.4306 32.6234 57.9155 32.6234C58.4003 32.5992 58.8367 32.5026 59.2246 32.2853Z" fill="white"/>
<path d="M62.3517 27.2383H64.6305C65.2365 27.2383 65.7456 27.359 66.2062 27.6005C66.6668 27.842 67.0305 28.18 67.2729 28.6147C67.5395 29.0493 67.6608 29.5323 67.6608 30.0877C67.6608 30.6431 67.5395 31.126 67.2729 31.5607C67.0062 31.9953 66.6668 32.3334 66.2062 32.5749C65.7456 32.8163 65.2123 32.9371 64.6305 32.9371H62.3517V27.2383ZM64.582 32.5749C65.1153 32.5749 65.5759 32.4783 65.988 32.261C66.4002 32.0436 66.7153 31.7539 66.9335 31.3916C67.1517 31.0053 67.2729 30.5948 67.2729 30.1118C67.2729 29.6289 67.1517 29.1942 66.9335 28.832C66.7153 28.4457 66.4002 28.1559 65.988 27.9627C65.5759 27.7454 65.1153 27.6488 64.582 27.6488H62.7638V32.6232H64.582V32.5749Z" fill="white"/>
<path d="M69.6728 32.3575C69.2607 31.947 69.0668 31.3192 69.0668 30.5223V27.2383H69.4789V30.5223C69.4789 31.2226 69.6486 31.7539 69.9637 32.0919C70.2789 32.43 70.7637 32.6232 71.3698 32.6232C71.9759 32.6232 72.4365 32.4541 72.7759 32.0919C73.091 31.7539 73.2607 31.2226 73.2607 30.5223V27.2383H73.6728V30.5223C73.6728 31.3192 73.4789 31.947 73.0668 32.3575C72.6546 32.768 72.0971 32.9854 71.3698 32.9854C70.6425 32.9854 70.085 32.7922 69.6728 32.3575Z" fill="white"/>
<path d="M76.5335 32.6233C76.0729 32.3819 75.7335 32.0197 75.4668 31.585C75.2001 31.1503 75.0789 30.6432 75.0789 30.0879C75.0789 29.5325 75.2001 29.0495 75.4668 28.5907C75.7335 28.1561 76.0729 27.7938 76.5335 27.5524C76.9941 27.3109 77.5032 27.166 78.0607 27.166C78.4729 27.166 78.8607 27.2385 79.2001 27.3592C79.5395 27.5041 79.8547 27.6973 80.0971 27.9629L79.8304 28.2285C79.3698 27.7697 78.788 27.5524 78.0607 27.5524C77.5759 27.5524 77.1395 27.6731 76.7516 27.8904C76.3638 28.1078 76.0486 28.3975 75.8304 28.7839C75.6122 29.1703 75.491 29.6049 75.491 30.0637C75.491 30.5467 75.6122 30.9572 75.8304 31.3435C76.0486 31.7299 76.3638 32.0197 76.7516 32.237C77.1395 32.4543 77.5759 32.575 78.0607 32.575C78.7638 32.575 79.3698 32.3577 79.8304 31.8989L80.0971 32.1645C79.8547 32.4302 79.5638 32.6233 79.2001 32.7682C78.8365 32.9131 78.4729 32.9614 78.0607 32.9614C77.4789 32.9856 76.9698 32.8648 76.5335 32.6233Z" fill="white"/>
<path d="M82.5213 27.6007H80.4607V27.2144H85.0183V27.6007H82.9577V32.9373H82.5455V27.6007H82.5213Z" fill="white"/>
<path d="M86.0364 27.2383H86.4486V32.9612H86.0364V27.2383Z" fill="white"/>
<path d="M89.3577 32.6234C88.8971 32.3819 88.5577 32.0197 88.291 31.585C88.0244 31.1504 87.9031 30.6433 87.9031 30.1121C87.9031 29.5567 88.0244 29.0737 88.291 28.6391C88.5577 28.2044 88.8971 27.8422 89.3577 27.6007C89.8183 27.3592 90.3274 27.2144 90.885 27.2144C91.4425 27.2144 91.9516 27.3351 92.4122 27.6007C92.8728 27.8422 93.2122 28.2044 93.4789 28.6391C93.7456 29.0737 93.8668 29.5808 93.8668 30.1362C93.8668 30.6916 93.7456 31.1745 93.4789 31.6333C93.2122 32.068 92.8728 32.4302 92.4122 32.6717C91.9516 32.9132 91.4425 33.058 90.885 33.058C90.3274 32.9856 89.8183 32.8649 89.3577 32.6234ZM92.194 32.2853C92.5819 32.068 92.8971 31.7782 93.1153 31.3919C93.3334 31.0055 93.4546 30.5709 93.4546 30.1121C93.4546 29.6291 93.3334 29.2186 93.1153 28.8322C92.8971 28.4459 92.5819 28.1561 92.194 27.9388C91.8062 27.7215 91.3698 27.6007 90.885 27.6007C90.4001 27.6007 89.9637 27.7215 89.5759 27.9388C89.188 28.1561 88.8728 28.4459 88.6547 28.8322C88.4365 29.2186 88.3153 29.6532 88.3153 30.1121C88.3153 30.595 88.4365 31.0055 88.6547 31.3919C88.8728 31.7782 89.188 32.068 89.5759 32.2853C89.9637 32.5026 90.4001 32.6234 90.885 32.6234C91.3698 32.5992 91.8062 32.5026 92.194 32.2853Z" fill="white"/>
<path d="M100 27.2383V32.9612H99.6607L95.7577 27.9869V32.9612H95.3456V27.2383H95.7092L99.6122 32.2127V27.2383H100Z" fill="white"/>
<path d="M51.6121 19.4144V23.9782H48.6061V19.3902L43.5879 11.0835H46.7636L50.2303 16.8064L53.697 11.0835H56.6303L51.6121 19.4144Z" fill="white"/>
<path d="M59.1517 22.6743C58.1093 21.6601 57.6002 20.1871 57.6002 18.3036V11.0835H60.6063V18.207C60.6063 20.5252 61.576 21.6842 63.4911 21.6842C64.4366 21.6842 65.1396 21.3945 65.6487 20.8391C66.1336 20.2837 66.4002 19.4144 66.4002 18.207V11.0835H69.3336V18.3036C69.3336 20.1871 68.8245 21.6601 67.7821 22.6743C66.7396 23.6885 65.3093 24.1956 63.4669 24.1956C61.6245 24.2197 60.1699 23.6885 59.1517 22.6743Z" fill="white"/>
<path d="M84.0727 23.9782L84.0485 16.2269L80.2424 22.626H78.8848L75.103 16.4201V24.0024H72.2908V11.0835H74.7636L79.6121 19.1005L84.3879 11.0835H86.8606L86.9091 23.9782H84.0727V23.9782Z" fill="white"/>
<path d="M100 21.5876V23.9782H89.9637V11.0835H99.7577V13.4741H92.9456V16.2752H98.9577V18.5934H92.9456V21.5876H100Z" fill="white"/>
</svg>
